<?xml version="1.0" encoding="utf-8"?>
<!-- Generator: Adobe Illustrator 27.9.0, SVG Export Plug-In . SVG Version: 6.00 Build 0)  -->
<svg version="1.1" id="Capa_1" xmlns="http://www.w3.org/2000/svg" xmlns:xlink="http://www.w3.org/1999/xlink" x="0px" y="0px"
	 viewBox="0 0 104.9 74.71" style="enable-background:new 0 0 104.9 74.71;" xml:space="preserve">
<style type="text/css">
	.st0{fill:#FFFFFF;}
	.st1{fill:none;stroke:#FFFFFF;stroke-width:5;stroke-miterlimit:10;}
</style>
<g>
	<g>
		<path class="st0" d="M56.64,48.05l-3.55-5.03l-3.55,5.03h-6.56l6.83-9.69l-6.6-9.38h6.56l3.32,4.73l3.32-4.73h6.56l-6.6,9.38
			l6.83,9.69H56.64z"/>
	</g>
	<g>
		<path class="st1" d="M34.35,60.64h45.85c2.28,0,4.13-1.85,4.13-4.13V20.52c0-2.28-1.85-4.13-4.13-4.13H34.28
			c-1.09,0-2.13,0.43-2.9,1.19L13.79,34.97c-1.6,1.58-1.64,4.15-0.09,5.78l17.65,18.6C32.14,60.18,33.22,60.64,34.35,60.64z"/>
	</g>
</g>
</svg>
