<?xml version="1.0" encoding="utf-8"?>
<!-- Generator: Adobe Illustrator 26.5.0, SVG Export Plug-In . SVG Version: 6.00 Build 0)  -->
<svg version="1.1" id="Capa_1" xmlns="http://www.w3.org/2000/svg" xmlns:xlink="http://www.w3.org/1999/xlink" x="0px" y="0px"
	 viewBox="0 0 1260.4 692.1" style="enable-background:new 0 0 1260.4 692.1;" xml:space="preserve">
<style type="text/css">
	.st0{fill:#FFFFFF;}
	.st1{fill:#B7C1C7;}
	.st2{fill:#7350A2;}
	.st3{fill:#CCCCCC;}
	.st4{fill:none;}
	.st5{fill:#1C070B;stroke:#1C070B;stroke-miterlimit:10;}
	.st6{fill:#1C070B;}
</style>
<g>
	<g>
		<path class="st0" d="M1203.4,668.1H57c-20.3,0-36.8-16.5-36.8-36.8V60.8C20.1,40.5,36.6,24,57,24h1146.5
			c20.3,0,36.8,16.5,36.8,36.8v570.5C1240.3,651.6,1223.8,668.1,1203.4,668.1z"/>
	</g>
	<g>
		<g>
			<g>
				<g>
					<path d="M224.8,255.6h-10.9v-4.3h26.5v4.3h-10.8v43.2h-4.8V255.6z"/>
					<path d="M275.8,298.7h-4.5v-5.5c-1.1,2.1-2.7,3.7-4.7,4.7c-2,1-4.3,1.5-6.9,1.5c-2.4,0-4.6-0.5-6.5-1.4
						c-1.9-0.9-3.9-2.6-5.8-4.9c-1-1-1.6-2.4-2-4.3c-0.3-1.8-0.5-4.1-0.5-6.8v-18.5h4.8v18.5c0,2.2,0.1,3.8,0.4,4.8
						c0.2,1,1,2.6,2.2,4.7c1.3,2.2,4,3.2,8.1,3.2c3.6,0,6.1-1,7.6-3c1.5-2,2.4-3.7,2.7-5.1c0.3-1.4,0.4-2.9,0.4-4.7v-18.5h4.8V298.7
						z"/>
					<path d="M306.1,263.6v6c1.3-2.1,3.3-3.8,6-5c2.7-1.2,5.4-1.8,8.1-1.8c2.7,0,5.2,0.5,7.5,1.6c2.3,1,4.6,2.8,6.9,5.2
						c1.2,1,2.1,2.6,3,4.7c0.8,2.1,1.2,4.4,1.2,6.9c0,5.2-1.9,9.5-5.6,13c-3.7,3.5-8.2,5.2-13.4,5.2c-2.7,0-5.4-0.6-7.9-1.9
						c-2.5-1.3-4.3-3.1-5.4-5.4V311h-4.8v-47.4H306.1z M333.9,281.2c0-3.8-1.3-7.1-4-9.8c-2.7-2.7-5.9-4.1-9.8-4.1
						c-3.9,0-7.2,1.3-10,3.8c-2.7,2.6-4.1,5.8-4.1,9.6c0,2.1,0.3,3.9,0.8,5.4c0.5,1.5,1.8,3.3,3.9,5.5c2.1,2.1,5.1,3.2,9,3.2
						c3.9,0,7.3-1.3,10-3.9C332.6,288.4,333.9,285.1,333.9,281.2z"/>
					<path d="M345.4,251.3h4.8v47.5h-4.8V251.3z"/>
					<path d="M394.1,298.7h-4.6v-6.6c-1.3,2.4-3.2,4.2-5.6,5.5c-2.4,1.3-5.1,1.9-8,1.9c-2.7,0-5.5-0.6-8.2-1.9
						c-2.7-1.2-4.8-2.7-6.3-4.4c-1.5-1.7-2.6-3.6-3.4-5.7c-0.8-2.1-1.2-4.4-1.2-6.7c0-2.1,0.4-4.3,1.3-6.4c0.8-2.1,2.1-4,3.7-5.7
						c1.6-1.7,3.7-3.1,6.2-4.3c2.5-1.1,5-1.7,7.6-1.7c3,0,5.7,0.6,8.1,1.9c2.5,1.2,4.3,3.1,5.6,5.6v-6.7h4.6V298.7z M361.7,281.3
						c0,3.8,1.4,7,4.2,9.7c2.8,2.6,6.1,4,10,4c3.7,0,6.9-1.3,9.6-4c2.7-2.7,4-5.9,4-9.5c0-3.9-1.3-7.2-4-9.9s-5.9-4.1-9.8-4.1
						c-3.9,0-7.2,1.4-9.9,4.1S361.7,277.4,361.7,281.3z"/>
					<path d="M406.2,267.9h-7.3v-4.3h7.3v-12.3h4.8v12.3h8.2v4.3H411v30.8h-4.8V267.9z"/>
					<path d="M459.7,298.7h-4.6v-6.6c-1.3,2.4-3.2,4.2-5.6,5.5c-2.4,1.3-5.1,1.9-8,1.9c-2.7,0-5.5-0.6-8.2-1.9
						c-2.7-1.2-4.8-2.7-6.3-4.4c-1.5-1.7-2.6-3.6-3.4-5.7c-0.8-2.1-1.2-4.4-1.2-6.7c0-2.1,0.4-4.3,1.3-6.4c0.8-2.1,2.1-4,3.7-5.7
						c1.6-1.7,3.7-3.1,6.2-4.3c2.5-1.1,5-1.7,7.6-1.7c3,0,5.7,0.6,8.1,1.9c2.5,1.2,4.3,3.1,5.6,5.6v-6.7h4.6V298.7z M427.3,281.3
						c0,3.8,1.4,7,4.2,9.7c2.8,2.6,6.1,4,10,4c3.7,0,6.9-1.3,9.6-4c2.7-2.7,4-5.9,4-9.5c0-3.9-1.3-7.2-4-9.9s-5.9-4.1-9.8-4.1
						c-3.9,0-7.2,1.4-9.9,4.1S427.3,277.4,427.3,281.3z"/>
					<path d="M475.3,290.6h4.7l-5.7,12.4h-4.7L475.3,290.6z"/>
					<path d="M539.2,298.7h-4.6v-6.6c-1.3,2.4-3.2,4.2-5.6,5.5c-2.4,1.3-5.1,1.9-8,1.9c-2.7,0-5.5-0.6-8.2-1.9
						c-2.7-1.2-4.8-2.7-6.3-4.4c-1.5-1.7-2.6-3.6-3.4-5.7c-0.8-2.1-1.2-4.4-1.2-6.7c0-2.1,0.4-4.3,1.3-6.4c0.8-2.1,2.1-4,3.7-5.7
						c1.6-1.7,3.7-3.1,6.2-4.3c2.5-1.1,5-1.7,7.6-1.7c3,0,5.7,0.6,8.1,1.9c2.5,1.2,4.3,3.1,5.6,5.6v-6.7h4.6V298.7z M506.8,281.3
						c0,3.8,1.4,7,4.2,9.7c2.8,2.6,6.1,4,10,4c3.7,0,6.9-1.3,9.6-4c2.7-2.7,4-5.9,4-9.5c0-3.9-1.3-7.2-4-9.9s-5.9-4.1-9.8-4.1
						c-3.9,0-7.2,1.4-9.9,4.1C508.2,274.2,506.8,277.4,506.8,281.3z"/>
					<path d="M547.3,251.3h4.8v17.5c1-1.9,2.5-3.3,4.4-4.4c1.9-1,4-1.6,6.3-1.6c4.9,0,8.5,1.3,10.7,3.9c2.3,2.6,3.7,4.9,4.2,6.8
						c0.5,1.9,0.8,4.2,0.8,6.7v18.5h-4.8v-18.5c0-1.9-0.1-3.5-0.4-4.7c-0.3-1.3-0.8-2.5-1.8-3.8c-0.9-1.3-2.2-2.3-3.9-3.1
						c-1.6-0.8-3.4-1.2-5.1-1.2c-1.7,0-3.3,0.4-4.8,1.2c-1.6,0.8-2.8,1.8-3.7,3c-0.9,1.2-1.4,2.5-1.6,3.9c-0.2,1.4-0.3,3-0.3,4.9
						v18.5h-4.8V251.3z"/>
					<path d="M621.8,280.9c0,5-1.8,9.4-5.3,13.1c-3.6,3.7-7.9,5.5-12.9,5.5c-5.1,0-9.4-1.8-13-5.3c-3.6-3.5-5.4-7.8-5.4-12.9
						c0-5.1,1.8-9.5,5.4-13.1c3.6-3.6,7.9-5.4,13.1-5.4c4.9,0,9.1,1.8,12.8,5.4C620,271.8,621.8,276,621.8,280.9z M589.9,281.3
						c0,3.8,1.3,7,4,9.6c2.7,2.6,5.9,4,9.7,4c3.9,0,7.1-1.4,9.6-4.1c2.6-2.7,3.9-6,3.9-9.9c0-2-0.3-3.7-1-5.3
						c-0.7-1.6-2-3.3-4.1-5.3c-2.1-2-4.9-2.9-8.4-2.9c-3.9,0-7.1,1.4-9.7,4.1C591.2,274.2,589.9,277.5,589.9,281.3z"/>
					<path d="M628.5,263.6h4.5v5.1c0.9-2,2.2-3.5,4-4.4c1.8-0.9,3.9-1.4,6.2-1.4v4.7c-2.3,0-4.3,0.7-6,2.2c-1.7,1.5-2.8,2.8-3.2,4.1
						s-0.7,3-0.7,5.3v19.7h-4.8V263.6z"/>
					<path d="M683.6,298.7h-4.6v-6.6c-1.3,2.4-3.2,4.2-5.6,5.5c-2.4,1.3-5.1,1.9-8,1.9c-2.7,0-5.5-0.6-8.2-1.9
						c-2.7-1.2-4.8-2.7-6.3-4.4c-1.5-1.7-2.6-3.6-3.4-5.7c-0.8-2.1-1.2-4.4-1.2-6.7c0-2.1,0.4-4.3,1.3-6.4c0.8-2.1,2.1-4,3.7-5.7
						c1.6-1.7,3.7-3.1,6.2-4.3c2.5-1.1,5-1.7,7.6-1.7c3,0,5.7,0.6,8.1,1.9c2.5,1.2,4.3,3.1,5.6,5.6v-6.7h4.6V298.7z M651.3,281.3
						c0,3.8,1.4,7,4.2,9.7c2.8,2.6,6.1,4,10,4c3.7,0,6.9-1.3,9.6-4c2.7-2.7,4-5.9,4-9.5c0-3.9-1.3-7.2-4-9.9s-5.9-4.1-9.8-4.1
						c-3.9,0-7.2,1.4-9.9,4.1S651.3,277.4,651.3,281.3z"/>
					<path d="M712.9,282.9c0,3.2,1.4,6.1,4.1,8.5c2.7,2.4,5.8,3.6,9.1,3.6c2.7,0,5.2-0.7,7.5-2.1c2.4-1.4,4-3.2,5.1-5.6h4.9
						c-1.2,3.6-3.5,6.5-6.6,8.8c-3.2,2.3-6.7,3.4-10.4,3.4c-5.1,0-9.4-1.8-13-5.3c-3.6-3.5-5.4-7.9-5.4-13c0-5.1,1.8-9.4,5.3-13
						c3.5-3.6,7.9-5.4,13-5.4c2.7,0,5.3,0.6,7.8,1.8c2.4,1.2,4.5,2.8,6.2,4.8c1.7,2,2.8,4.1,3.4,6.2c0.6,2.1,0.9,4.5,0.9,7.3H712.9z
						 M740,278.6c-0.6-3.1-2.2-5.8-4.7-7.9c-2.5-2.2-5.5-3.2-8.7-3.2c-3.3,0-6.3,1-8.9,3.1c-2.6,2.1-4.2,4.8-4.8,8H740z"/>
					<path d="M753.1,288.3c0,1.8,0.6,3.4,1.8,4.7c1.2,1.3,2.7,2,4.5,2c1.8,0,3.2-0.5,4.4-1.6c1.2-1.1,1.8-2.5,1.8-4.2
						c0-1.9-0.6-3.4-1.8-4.4c-1.2-1-2.8-1.8-4.6-2.3c-1.9-0.6-3.3-1-4.2-1.4c-0.9-0.4-1.8-1-2.6-1.8c-0.8-0.8-1.5-1.8-2-2.9
						c-0.5-1.2-0.7-2.4-0.7-3.7c0-2.8,1-5.2,2.9-7c1.9-1.9,4.4-2.8,7.2-2.8c2.6,0,4.9,0.9,6.8,2.8c1.9,1.9,2.9,4.1,2.9,6.7h-4.8
						c0-1.5-0.5-2.7-1.5-3.6c-1-0.9-2.3-1.3-3.9-1.3c-1.4,0-2.5,0.5-3.5,1.4c-0.9,0.9-1.4,2.1-1.4,3.5c0,1.7,0.5,2.9,1.6,3.7
						c1.1,0.8,2.9,1.6,5.5,2.4c2.6,0.8,4.7,2,6.4,3.4c1.7,1.5,2.5,3.6,2.5,6.5c0,3.3-1.1,6-3.2,8c-2.1,2.1-4.9,3.1-8.2,3.1
						c-3,0-5.5-1.1-7.5-3.3c-2.1-2.2-3.1-4.8-3.1-7.9H753.1z"/>
					<path d="M794,263.1h4.5v4.4c0.9-1.5,2.1-2.7,3.8-3.5c1.6-0.8,3.5-1.2,5.6-1.2c2.4,0,4.5,0.4,6.4,1.3c1.9,0.9,3.6,2.2,5,4
						l0.9,1.3l0.7-1.3c1.2-1.7,2.8-3,4.8-3.9c2-0.9,4.1-1.4,6.3-1.4c1.9,0,3.7,0.4,5.5,1.3c1.8,0.9,3.5,2.1,5,3.6
						c1.5,1.5,2.5,3.1,3,4.8s0.7,3.7,0.7,6.1v20h-4.8v-19.6c0-1.7-0.1-3.1-0.3-4.3c-0.2-1.2-1-2.7-2.3-4.6c-1.3-1.9-3.7-2.9-7-2.9
						c-3.3,0-5.6,0.9-6.8,2.7c-1.3,1.8-2,3.3-2.2,4.6c-0.2,1.3-0.3,2.8-0.3,4.5v19.6h-4.8v-20.1c0-1.5-0.1-2.8-0.3-3.9
						c-0.2-1-1-2.5-2.3-4.5c-1.3-1.9-3.6-2.9-6.9-2.9c-1.6,0-3,0.3-4.3,0.9c-1.3,0.6-2.4,1.6-3.4,2.8c-0.7,1-1.1,2.1-1.3,3.3
						c-0.2,1.2-0.3,2.6-0.3,4.2v20.1H794V263.1z"/>
					<path d="M854.2,251.3h4.8v8.1h-4.8V251.3z M854.2,263.1h4.8v35.6h-4.8V263.1z"/>
					<path d="M889.3,263.6v6c1.3-2.1,3.3-3.8,6-5c2.7-1.2,5.4-1.8,8.1-1.8c2.7,0,5.2,0.5,7.5,1.6c2.3,1,4.6,2.8,6.9,5.2
						c1.2,1,2.1,2.6,3,4.7c0.8,2.1,1.2,4.4,1.2,6.9c0,5.2-1.9,9.5-5.6,13c-3.7,3.5-8.2,5.2-13.4,5.2c-2.7,0-5.4-0.6-7.9-1.9
						c-2.5-1.3-4.3-3.1-5.4-5.4V311h-4.8v-47.4H889.3z M917.2,281.2c0-3.8-1.3-7.1-4-9.8c-2.7-2.7-5.9-4.1-9.8-4.1
						c-3.9,0-7.2,1.3-10,3.8c-2.7,2.6-4.1,5.8-4.1,9.6c0,2.1,0.3,3.9,0.8,5.4c0.5,1.5,1.8,3.3,3.9,5.5c2.1,2.1,5.1,3.2,9,3.2
						c3.9,0,7.3-1.3,10-3.9C915.8,288.4,917.2,285.1,917.2,281.2z"/>
					<path d="M928.7,251.3h4.8v47.5h-4.8V251.3z"/>
					<path d="M977.3,298.7h-4.6v-6.6c-1.3,2.4-3.2,4.2-5.6,5.5c-2.4,1.3-5.1,1.9-8,1.9c-2.7,0-5.5-0.6-8.2-1.9
						c-2.7-1.2-4.8-2.7-6.3-4.4c-1.5-1.7-2.6-3.6-3.4-5.7c-0.8-2.1-1.2-4.4-1.2-6.7c0-2.1,0.4-4.3,1.3-6.4c0.8-2.1,2.1-4,3.7-5.7
						c1.6-1.7,3.7-3.1,6.2-4.3c2.5-1.1,5-1.7,7.6-1.7c3,0,5.7,0.6,8.1,1.9c2.5,1.2,4.3,3.1,5.6,5.6v-6.7h4.6V298.7z M944.9,281.3
						c0,3.8,1.4,7,4.2,9.7c2.8,2.6,6.1,4,10,4c3.7,0,6.9-1.3,9.6-4c2.7-2.7,4-5.9,4-9.5c0-3.9-1.3-7.2-4-9.9s-5.9-4.1-9.8-4.1
						c-3.9,0-7.2,1.4-9.9,4.1S944.9,277.4,944.9,281.3z"/>
					<path d="M989.5,267.9h-7.3v-4.3h7.3v-12.3h4.8v12.3h8.2v4.3h-8.2v30.8h-4.8V267.9z"/>
					<path d="M1043,298.7h-4.6v-6.6c-1.3,2.4-3.2,4.2-5.6,5.5c-2.4,1.3-5.1,1.9-8,1.9c-2.7,0-5.5-0.6-8.2-1.9
						c-2.7-1.2-4.8-2.7-6.3-4.4c-1.5-1.7-2.6-3.6-3.4-5.7c-0.8-2.1-1.2-4.4-1.2-6.7c0-2.1,0.4-4.3,1.3-6.4c0.8-2.1,2.1-4,3.7-5.7
						c1.6-1.7,3.7-3.1,6.2-4.3c2.5-1.1,5-1.7,7.6-1.7c3,0,5.7,0.6,8.1,1.9c2.5,1.2,4.3,3.1,5.6,5.6v-6.7h4.6V298.7z M1010.6,281.3
						c0,3.8,1.4,7,4.2,9.7c2.8,2.6,6.1,4,10,4c3.7,0,6.9-1.3,9.6-4c2.7-2.7,4-5.9,4-9.5c0-3.9-1.3-7.2-4-9.9s-5.9-4.1-9.8-4.1
						c-3.9,0-7.2,1.4-9.9,4.1S1010.6,277.4,1010.6,281.3z"/>
				</g>
			</g>
		</g>
		<g>
			<g>
				<path class="st1" d="M255.4,228.3h-36l18.1-115.2h36.8l17.4,53.5l34.4-53.5h38l-18.1,115.2h-36l8.2-52.6l-23.4,37h-19.7
					l-11.5-37L255.4,228.3z"/>
				<path class="st1" d="M412.5,142.1l-13.7,86.2h-35.7l13.5-86.2H412.5z M382.8,133.3c-4-3.6-6-8.1-6-13.7c0-5.6,2-10.2,6-13.8
					c4-3.6,9.1-5.4,15.2-5.4c6.3,0,11.4,1.8,15.3,5.4c3.9,3.6,5.9,8.2,5.9,13.8c0,5.6-2,10.2-5.9,13.7c-3.9,3.6-9,5.3-15.3,5.3
					C391.9,138.7,386.8,136.9,382.8,133.3z"/>
				<g>
					<path class="st2" d="M434.4,113.2h50.2c14,0,25.1,4.4,33.1,13.3c8.1,8.9,11,19.7,9,32.4c-2,12.5-7.3,22.1-16.1,28.7
						c-8.8,6.6-20.3,10-34.5,10h-17.4l-4.8,30.8h-37.5L434.4,113.2z M476,166.9c8,0,12.5-3.2,13.5-9.7c0.5-3.3-0.2-6.2-2.3-8.7
						c-2.1-2.5-4.9-3.8-8.6-3.8H467l-3.5,22.2H476z"/>
				</g>
				<g>
					<path class="st2" d="M582.1,113.2L564,228.3h-35.7l18.1-115.2H582.1z"/>
				</g>
				<g>
					<path class="st2" d="M683.8,142.1l-13.7,86.2h-29.4l-1.2-6.3c-5.8,5.3-12.7,7.9-20.7,7.9c-11.7,0-21.2-4.8-28.4-14.4
						c-7.2-9.6-9.8-20.7-7.8-33.3c2-12.4,7.1-22.5,15.5-30.2c8.3-7.7,18-11.6,29-11.6c10.1,0,17.8,3.2,23.2,9.7l3.9-8.1H683.8z
						 M628.5,197.5c3.6,0,6.7-1.1,9.1-3.3c2.5-2.2,4-5,4.5-8.4c0.5-3.4-0.2-6.4-2.3-9c-2.1-2.6-4.9-3.9-8.6-3.9s-6.7,1.1-9.1,3.3
						c-2.5,2.2-4,4.9-4.5,8.2c-0.5,3.4,0.2,6.4,2.4,9S625,197.5,628.5,197.5z"/>
				</g>
				<g>
					<path class="st2" d="M723.3,230c-9.1,0-16.4-2.9-21.8-8.6c-5.4-5.7-7.4-12.8-6-21.4l4.8-29.3h-14l4.4-28.6h14l3-19.1h35.5
						l-3.1,19.1h19.7l-4.3,28.6h-19.7l-3.6,20.9c-0.6,3.9,1,5.9,4.6,5.9c1.6,0,3.3-0.1,5.1-0.4c1.8-0.3,3.1-0.5,4.1-0.7l1.5-0.3
						l-1,29.1C740.6,228.4,732.9,230,723.3,230z"/>
				</g>
				<g>
					<path class="st2" d="M863.3,142.1l-13.7,86.2h-29.4l-1.2-6.3c-5.8,5.3-12.7,7.9-20.7,7.9c-11.7,0-21.2-4.8-28.4-14.4
						c-7.2-9.6-9.8-20.7-7.8-33.3c2-12.4,7.1-22.5,15.5-30.2c8.3-7.7,18-11.6,29-11.6c10.1,0,17.8,3.2,23.2,9.7l3.9-8.1H863.3z
						 M808,197.5c3.6,0,6.7-1.1,9.1-3.3c2.5-2.2,4-5,4.5-8.4c0.5-3.4-0.2-6.4-2.3-9c-2.1-2.6-4.9-3.9-8.6-3.9s-6.7,1.1-9.1,3.3
						c-2.5,2.2-4,4.9-4.5,8.2c-0.5,3.4,0.2,6.4,2.4,9S804.5,197.5,808,197.5z"/>
				</g>
			</g>
			<g>
				<g>
					<g>
						<g>
							<g>
								<path class="st3" d="M895.7,165c-0.1,0-0.1-0.1-0.2-0.1c0,0-0.1,0-0.1-0.1c-0.1-0.1-0.2-0.1-0.2-0.2c0,0,0,0,0,0
									c-0.4-0.3-0.8-0.6-1.1-0.9c0,0-0.1-0.1-0.1-0.1c0,0-0.1-0.1-0.1-0.1c-0.1-0.1-0.1-0.2-0.2-0.2l-0.1,0.1v0l-4.6,2.6
									c0.4,0.7,1.1,2,1.2,3.5l0,0v0.5c0,0,0,0,0,0c0,0.2,0,0.3,0,0.5c-0.1,1,0.1,1.9,0.3,2.6c0.2-0.4,0.6-1.1,1.2-2.1l0.4-0.5l0,0
									c1.2-1.7,2.7-3.8,3.8-5.2l0,0l0,0C895.9,165.1,895.8,165,895.7,165z"/>
							</g>
							<g>
								<path class="st0" d="M931.4,154c0.1,0,0.2-0.1,0.3-0.1c0.2-0.1,0.5-0.2,0.7-0.3c0.1,0,0.1,0,0.2-0.1
									c0.3-0.1,0.6-0.2,0.8-0.4c0.1,0,0.2-0.1,0.2-0.1c0.2-0.1,0.4-0.2,0.6-0.3c0,0,0.1,0,0.1-0.1c-1-0.5-2.1-1.1-3.1-1.5l-0.5,3
									c0.1,0,0.1,0,0.2,0C931,154.2,931.2,154.1,931.4,154z"/>
							</g>
							<g>
								<path class="st0" d="M916.9,154.5c0.2,0.1,0.4,0.1,0.6,0.2c0,0,0.1,0,0.1,0c0.2,0.1,0.5,0.1,0.7,0.2c0.1,0,0.1,0,0.2,0
									c0.2,0,0.4,0.1,0.6,0.1c0,0,0.1,0,0.1,0l1.4-7.7c-1.1-0.3-2.2-0.6-3.2-0.8l-0.2,1.3l-1.2,6.3c0,0,0,0,0,0
									c0.2,0.1,0.4,0.2,0.7,0.2C916.7,154.4,916.8,154.4,916.9,154.5z"/>
							</g>
							<g>
								<path class="st0" d="M945,138.7c3.2,0,5.9-2.2,5.9-4.9c0-0.4-0.1-0.8-0.2-1.2l-11.5,1.9C939.6,136.9,942.1,138.7,945,138.7z
									"/>
							</g>
							<g>
								<path class="st0" d="M912.5,152.5c0.2,0.1,0.3,0.2,0.5,0.3c0.1,0,0.1,0.1,0.2,0.1c0.2,0.1,0.4,0.2,0.6,0.3c0,0,0,0,0.1,0
									c0.2,0.1,0.4,0.2,0.6,0.3c0,0,0.1,0,0.1,0l0-0.2l1.3-7.2c-1.1-0.2-2.1-0.4-3.1-0.5l-1.2,6.3c0,0,0,0,0,0
									c0.2,0.1,0.4,0.3,0.6,0.4C912.4,152.5,912.4,152.5,912.5,152.5z"/>
							</g>
							<g>
								<path class="st0" d="M921.4,155.4c0.1,0,0.1,0,0.2,0c0.2,0,0.5,0,0.7,0c0,0,0.1,0,0.1,0c0.2,0,0.4,0,0.6,0
									c0.1,0,0.1,0,0.2,0c0.3,0,0.5,0,0.8,0c0,0,0,0,0,0l1-5.2l0.3-1.4c-1.1-0.4-2.1-0.7-3.2-1.1l-0.7,3.8l-0.7,3.8
									c0,0,0.1,0,0.1,0C921,155.3,921.2,155.3,921.4,155.4z"/>
							</g>
							<g>
								<path class="st0" d="M926.4,155.2c0.3,0,0.5-0.1,0.8-0.1c0.1,0,0.1,0,0.2,0c0.2,0,0.4-0.1,0.6-0.1c0.1,0,0.1,0,0.2,0
									c0.3-0.1,0.5-0.1,0.8-0.2c0,0,0,0,0.1,0l0.7-4.1c-1-0.5-2.1-0.9-3.2-1.3l-1.1,6c0,0,0.1,0,0.1,0
									C925.9,155.3,926.2,155.3,926.4,155.2C926.4,155.2,926.4,155.2,926.4,155.2z"/>
							</g>
							<g>
								<g>
									<path class="st1" d="M1027.7,133.2c-18.7-16.9-40.1-17.6-54.7-15.2c-10,1.6-18.3,4.9-23.2,7.1c1.5,0.5,3,1,4.5,1.5l0,0
										l1.8,0.7l0.3,0.1v0c0.6,0.2,1.2,0.5,1.8,0.7l6-1.6l0.3,0.4c0.4,0.4,0.7,0.9,1,1.5c1.2-0.2,3.2-0.2,5,0.8
										c1.7,0.9,2.8,2.5,3.5,4.7c1.6,5.8-2.2,8.4-3.7,9.2c0.2,1.2,0.4,2,0.4,2.1l0.1,0.4l-5.1,4.1l-3.6,9.6l-2.6,7.1l4.4,2.6
										l-0.4,0.3c-1.7,0.8-3.4,1.5-5.1,2.3c-0.1,0.1-0.2,0.1-0.4,0.2l-0.5,1.3c0,0,0,0,0,0l-1.3,3.3c1.2,10.2,3.8,18.1,7.9,23.7
										l1.2-1.1l0.7,3.5c1.6,1.7,3.4,3.2,5.3,4.3c14.8,8.7,37.2-1.6,46.7-6c11.1-5.1,24.9-16.3,27.1-31.2
										C1047,157.5,1041.1,145.3,1027.7,133.2z M1017.6,176.5c-0.8,1.4-1.8,2.5-3.1,3.3c-1.4,0.8-2.8,1.4-4.2,1.9
										c-1.4,0.4-2.6,0.7-3.7,0.8c-1.7,0.2-2.4,0.4-2.9,0.9c0,0-0.1,0.1-0.1,0.2c-0.4,0.5-0.6,1.3-0.5,2.5c0,0.7,0,1.5-0.2,2.3
										c-0.1,0.7-0.4,1.2-0.8,1.7c-0.3,0.4-1.1,0.5-1.6,0.5c-1.1,0-1.9-0.3-2.7-0.7c-0.8-0.5-1.5-1.1-2.1-1.7
										c-0.6-0.6-1-1.3-1.2-1.9c-0.4-0.8-0.5-1.3-0.5-1.4c-0.1-0.6-0.4-1.5-1.4-2.2c-0.5-0.3-1.2-0.7-2.1-1.1
										c-0.8-0.4-1.8-0.9-3-1.5c-1.2-0.6-2.6-1.5-4.2-2.6c-1.5-1-2.6-2.1-3.3-3.3c-0.6-1-0.9-2-0.9-2.8c0-0.7,0.3-1.3,0.8-1.8
										c0.5-0.5,1.4-0.8,2.6-0.8c0.1,0,0.3,0,0.4,0c1.2,0,1.8,0.2,2,0.4c0.6,0.4,1.1,0.9,1.6,1.6c0.7,0.8,1.5,1.6,2.4,2.3
										c1.1,0.8,2.7,1.3,4.8,1.5c0.7,0.1,1.4,0.1,2.1,0.1c1.2,0,2.4-0.1,3.5-0.3c1.6-0.3,3.1-0.7,4.4-1.2c0,0,0,0,0,0
										c1.5-0.6,2.8-1.3,4.1-2c0.5-0.3,0.8-0.9,0.7-1.5c-0.1-0.6-0.5-1.1-1.1-1.2c-1-0.3-2.1-0.6-3.3-0.9c0,0,0,0,0,0
										c-1-0.3-2.1-0.6-3.2-1c-1.3-0.5-2.5-0.9-3.7-1.3c-1.3-0.5-2.8-1.1-4.6-1.9c-1.7-0.7-3.4-1.6-4.9-2.8
										c-0.3-0.3-0.7-0.5-1-0.8c-0.2-0.1-0.3-0.3-0.5-0.4c-0.6-0.6-1.2-1.3-1.7-2c0,0-0.1-0.1-0.1-0.1c-0.2-0.3-0.4-0.6-0.6-0.9
										c-1-1.6-1.4-3.6-1.3-5.9c0,0,0,0,0,0c0-2.3,0.6-4.1,1.5-5.5c1.1-1.5,2.2-2.6,3.3-3.5c1.3-0.9,2.9-1.6,4.7-2
										c0.7-0.2,1.2-0.8,1.1-1.6c0-0.5,0-1.1,0.1-1.7c0.1-0.6,0.2-1.3,0.4-2.1c0.1-0.7,0.4-1.4,0.8-2.2c0.3-0.6,0.7-1,1.1-1.2
										c0.5-0.3,1-0.4,1.6-0.4c0.6,0,1.2,0.1,1.9,0.4c0.7,0.3,1.4,0.7,2.1,1.2c1.2,0.9,2,1.9,2.4,2.9c0.3,1,0.4,1.8,0.3,2.4
										c-0.2,0.6-0.4,1.1-0.3,1.6c0.2,0.8,0.7,1.2,1.4,1.6c0.4,0.3,1.2,0.7,2.1,1.2c0.9,0.5,2.2,1.3,3.9,2.5
										c1.5,1,2.6,2.1,3.2,3.1c0.6,1,0.9,1.8,0.8,2.6c0,0.7-0.2,1.2-0.6,1.7c-0.4,0.5-0.9,0.7-1.6,0.8c0,0,0,0,0,0
										c-0.2,0-0.5,0.1-0.7,0.1c-0.4,0-0.8-0.1-1.2-0.2c-0.7-0.3-1.4-0.6-1.8-1c-0.6-0.5-1.3-1.1-1.9-1.7
										c-0.1-0.2-0.3-0.3-0.5-0.4c-2.3-1-4.2-1.4-5.9-1.4c-0.4,0-0.9,0-1.3,0.1c-1.9,0.3-3.4,1-4.5,1.9c0,0,0,0,0,0
										c-1.2,1.1-2.2,2.6-2.8,4.5c-0.1,0.3-0.1,0.6,0,0.9c0,0.1,0,0.1,0.1,0.2c0,0,0,0,0,0.1c0.2,0.4,0.5,0.6,0.9,0.8
										c0.2,0.1,0.4,0.1,0.6,0.2c0.2,0.1,0.4,0.1,0.6,0.2c1.5,0.5,2.9,1,4.4,1.5c1.6,0.6,3.5,1.3,5.5,2c2,0.7,3.9,1.5,5.8,2.3
										c1.8,0.8,3.3,1.7,4.7,2.8c1.3,1.1,2.4,2.3,3.1,3.5c0.7,1.2,1.1,2.5,1.1,3.9C1018.8,173.6,1018.4,175,1017.6,176.5z"/>
								</g>
							</g>
							<g>
								<path class="st0" d="M956.9,161.4c0.1,0,0.2-0.1,0.3-0.1c0.1,0,0.2-0.1,0.4-0.1c0.1,0,0.2-0.1,0.3-0.1
									c0.1,0,0.2-0.1,0.4-0.1c0.1,0,0.2-0.1,0.3-0.1c0.1,0,0.2-0.1,0.3-0.1c0.1,0,0.2-0.1,0.3-0.1c0.1,0,0.2-0.1,0.3-0.1
									c0.1,0,0.2-0.1,0.3-0.1c0.1,0,0.2-0.1,0.3-0.1c0.1,0,0.1,0,0.1-0.1l5-13.4c-1.1-8.4-4.4-14.3-5.9-16.5
									c-0.6-0.2-1.2-0.5-1.8-0.7c0,0,0,0,0,0.1c0,0.1,0.1,0.2,0.1,0.3c0.1,0.2,0.2,0.4,0.3,0.5c0,0.1,0.1,0.2,0.1,0.3
									c0.1,0.2,0.1,0.3,0.2,0.5c0,0.1,0.1,0.2,0.1,0.3c0.1,0.2,0.1,0.3,0.2,0.4c0,0.1,0.1,0.2,0.1,0.3c0.1,0.1,0.1,0.3,0.2,0.4
									c0,0.1,0.1,0.2,0.1,0.3c0.1,0.2,0.1,0.3,0.1,0.4c0,0.1,0.1,0.2,0.1,0.2c0.1,0.2,0.1,0.3,0.1,0.5c0,0,0,0.1,0,0.1
									c0.1,0.2,0.1,0.4,0.1,0.6c0,0,0,0.1,0,0.1c0,0.1,0.1,0.3,0.1,0.4c0,0.1,0,0.1,0,0.2c0,0.1,0,0.2,0,0.4c0,0.1,0,0.1,0,0.2
									c0,0.1,0,0.2,0,0.3c0,0.1,0,0.1,0,0.2c0,0.1,0,0.2,0,0.3c0,0.1,0,0.1,0,0.2c0,0.1,0,0.2,0,0.3c0,0.1,0,0.1,0,0.2
									c0,0.1,0,0.2-0.1,0.3c0,0,0,0.1,0,0.1c0,0.1-0.1,0.3-0.2,0.4c-0.4,0.9-1.4,1.9-2.6,2.8c-0.2,0.1-0.4,0.3-0.6,0.4
									c-0.4,0.3-0.9,0.6-1.4,0.9c-1.5,0.8-3.3,1.5-5.3,2c-0.1,0-0.3,0.1-0.4,0.1c0,0-0.1,0-0.1,0c-0.1,0-0.2,0-0.3,0.1
									c0,0-0.1,0-0.1,0c-0.1,0-0.2,0-0.3,0.1c0,0-0.1,0-0.1,0c-0.1,0-0.3,0-0.5,0.1c0,0,0,0,0,0c-0.1,0-0.3,0-0.4,0
									c0,0-0.1,0-0.1,0c-0.1,0-0.2,0-0.3,0c0,0-0.1,0-0.1,0c-0.1,0-0.3,0-0.4,0c0,0-0.1,0-0.1,0c-0.2,0-0.3,0-0.5,0c0,0,0,0,0,0
									c0,0,0,0-0.1,0c-0.2,0-0.3,0-0.5,0c0,0-0.1,0-0.1,0c-0.2,0-0.3,0-0.5,0c0,0-0.1,0-0.1,0c-0.2,0-0.4,0-0.6,0c0,0-0.1,0-0.1,0
									c-0.1,0-0.3,0-0.4-0.1c-0.1,0-0.1,0-0.2,0c-0.2,0-0.4-0.1-0.5-0.1c0,0,0,0,0,0c-0.2,0-0.4-0.1-0.6-0.1c-0.1,0-0.1,0-0.2,0
									c-0.1,0-0.3-0.1-0.4-0.1c-0.1,0-0.1,0-0.2,0c-0.2-0.1-0.4-0.1-0.6-0.2c0,0,0,0-0.1,0c-0.2-0.1-0.3-0.1-0.5-0.2
									c-0.1,0-0.1,0-0.2-0.1c-0.2-0.1-0.3-0.1-0.5-0.2c0,0-0.1,0-0.1-0.1c-0.2-0.1-0.4-0.2-0.6-0.3c0,0-0.1,0-0.1-0.1
									c-0.2-0.1-0.3-0.2-0.5-0.2c-0.1,0-0.1-0.1-0.2-0.1c-0.2-0.1-0.3-0.2-0.5-0.3c0,0-0.1,0-0.1-0.1c-0.2-0.1-0.4-0.2-0.6-0.4
									c-0.1,0-0.1-0.1-0.2-0.1c-0.2-0.1-0.3-0.2-0.5-0.3c-0.1,0-0.1-0.1-0.2-0.1c-0.2-0.1-0.4-0.3-0.6-0.5
									c-0.1-0.1-0.2-0.2-0.3-0.3c0,0-0.1-0.1-0.1-0.1c-0.1-0.1-0.1-0.1-0.2-0.2c0,0-0.1-0.1-0.1-0.1c-0.1-0.1-0.1-0.1-0.2-0.2
									c0,0-0.1-0.1-0.1-0.1c-0.1-0.1-0.1-0.1-0.2-0.2c0-0.1-0.1-0.1-0.1-0.2c-0.1-0.1-0.1-0.1-0.2-0.2c0-0.1-0.1-0.1-0.1-0.2
									c0-0.1-0.1-0.1-0.1-0.2c0-0.1-0.1-0.1-0.1-0.2c0-0.1-0.1-0.1-0.1-0.2c0-0.1-0.1-0.1-0.1-0.2c0-0.1-0.1-0.1-0.1-0.2
									c0-0.1-0.1-0.1-0.1-0.2c0-0.1-0.1-0.2-0.1-0.2c0-0.1-0.1-0.2-0.1-0.2c0-0.1-0.1-0.2-0.1-0.2c0-0.1-0.1-0.2-0.1-0.2
									c0-0.1-0.1-0.2-0.1-0.3c0-0.1-0.1-0.2-0.1-0.3c0-0.1-0.1-0.2-0.1-0.3c0-0.1-0.1-0.2-0.1-0.3c0-0.1-0.1-0.2-0.1-0.3
									c0-0.1-0.1-0.2-0.1-0.3c0-0.1-0.1-0.2-0.1-0.3c0-0.1-0.1-0.2-0.1-0.3c0-0.1-0.1-0.2-0.1-0.3c0-0.1-0.1-0.2-0.1-0.3
									c0-0.1,0-0.2-0.1-0.3c0-0.1,0-0.2-0.1-0.3c0-0.1,0-0.2-0.1-0.3c0-0.1,0-0.2-0.1-0.3c0-0.1,0-0.2-0.1-0.3
									c0-0.1,0-0.2-0.1-0.3c0-0.1,0-0.2-0.1-0.3c0-0.1,0-0.2-0.1-0.3c0-0.1,0-0.2,0-0.3c0-0.1,0-0.2,0-0.4c0-0.1,0-0.2,0-0.4
									c0-0.1,0-0.2,0-0.4c0-0.1,0-0.2,0-0.4c0-0.1,0-0.3,0-0.4c0-0.1,0-0.2,0-0.4c0-0.1,0-0.3,0-0.4c0-0.1,0-0.3,0-0.4
									c0-0.1,0-0.3,0-0.4c0-0.1,0-0.3,0-0.4c0-0.1,0-0.3,0-0.4c0-0.1,0-0.3,0-0.4c0-0.1,0-0.3,0-0.4c0-0.1,0-0.3,0-0.4
									c0-0.1,0-0.3,0-0.4c0-0.1,0-0.3,0-0.4c0-0.1,0-0.3,0-0.4c0-0.1,0-0.3,0-0.4c0-0.1,0-0.3,0-0.4c0-0.1,0-0.3,0-0.5
									c0-0.2,0-0.3,0-0.5c0-0.2,0-0.3,0-0.5c0-0.2,0-0.3,0-0.5c0,0,0-0.1,0-0.1c-16.8-2.8-29.3-0.9-37.2,5.7
									c-0.3,0.2-0.4,0.6-0.4,1c0,0.4,0.2,0.7,0.5,1c2.7,2.2,8.8,6.5,19.3,10.4c0,0,0,0,0,0c0,0,0.1,0,0.1,0c0.1,0,0.2,0.1,0.4,0.1
									c6.1,2.2,30.7,11.3,33.7,11.9c1.7,0.4,3.6-0.5,5.7-2.6l3.1-3.2l-1.9,4c-0.1,0.2-2,4.2-6.5,5.6c-3.2,1-6.8,0.4-10.8-1.9
									c-0.2-0.1-0.4-0.2-0.6-0.3c-0.1,0-0.2,0.1-0.2,0.1c-0.1,0.1-0.2,0.1-0.4,0.2c-0.1,0.1-0.3,0.1-0.4,0.2
									c-0.1,0.1-0.2,0.1-0.4,0.2c-0.1,0.1-0.3,0.1-0.4,0.2c-0.1,0.1-0.2,0.1-0.3,0.2c-0.1,0.1-0.3,0.1-0.4,0.2
									c-0.1,0-0.2,0.1-0.3,0.1c-0.1,0.1-0.3,0.1-0.4,0.2c-0.1,0-0.2,0.1-0.3,0.1c-0.2,0.1-0.3,0.1-0.5,0.2c-0.1,0-0.2,0.1-0.3,0.1
									c-0.2,0.1-0.3,0.1-0.5,0.2c-0.1,0-0.2,0.1-0.3,0.1c-0.1,0-0.2,0.1-0.3,0.1l0,0l-0.5,0.1l-1.1,0.3l0,0
									c-0.3,0.1-0.6,0.1-0.9,0.2c-0.9,0.2-1.7,0.3-2.6,0.4l0,0l-0.6,0l-0.9,0.1l0,0c-0.1,0-0.2,0-0.4,0c0,0,0,0,0,0
									c0,0-0.1,0-0.1,0c-0.2,0-0.5,0-0.7,0c-0.1,0-0.1,0-0.2,0c-0.3,0-0.5,0-0.8,0c0,0-0.1,0-0.1,0c-0.2,0-0.5,0-0.7-0.1
									c-0.1,0-0.1,0-0.2,0c0,0-0.1,0-0.1,0l0,0l-0.7-0.1l-0.8-0.1l0,0c-1.1-0.2-2.2-0.5-3.2-0.9l0,0l-0.8-0.3l-0.6-0.2l0,0
									c-0.1,0-0.2-0.1-0.2-0.1c-0.1,0-0.1-0.1-0.2-0.1c-0.3-0.1-0.5-0.2-0.8-0.4c0,0-0.1,0-0.1,0c-0.2-0.1-0.5-0.2-0.7-0.4
									c-0.1,0-0.1-0.1-0.2-0.1c-0.2-0.1-0.5-0.3-0.7-0.4c0,0,0,0,0,0l-0.7,3.9c0,0,0.1,0,0.1,0.1c0,0,0.1,0.1,0.1,0.1
									c0,0,0.1,0.1,0.1,0.1c0,0,0.1,0.1,0.1,0.1c0,0,0.1,0.1,0.2,0.1c0,0,0.1,0.1,0.1,0.1c0.1,0,0.1,0.1,0.2,0.1
									c0,0,0.1,0.1,0.1,0.1c0.1,0,0.1,0.1,0.2,0.1c0,0,0.1,0.1,0.1,0.1c0.1,0,0.1,0.1,0.2,0.1c0,0,0.1,0.1,0.1,0.1
									c0.1,0,0.1,0.1,0.2,0.1c0,0,0.1,0.1,0.1,0.1c0.1,0.1,0.2,0.1,0.3,0.2c0,0,0.1,0,0.1,0.1c0.1,0.1,0.3,0.1,0.4,0.2
									c0,0,0.1,0.1,0.1,0.1c0.1,0,0.2,0.1,0.3,0.1c0.1,0,0.1,0.1,0.2,0.1c0.1,0,0.2,0.1,0.3,0.1c0.1,0,0.1,0.1,0.2,0.1
									c0.1,0,0.2,0.1,0.3,0.1c0.1,0,0.2,0.1,0.2,0.1c0.1,0,0.2,0.1,0.3,0.1c0.1,0,0.2,0.1,0.2,0.1c0.1,0,0.2,0.1,0.3,0.1
									c0.1,0,0.2,0.1,0.3,0.1c0.1,0,0.2,0.1,0.3,0.1c0.1,0,0.2,0.1,0.3,0.1c0.1,0,0.2,0.1,0.3,0.1c0.1,0,0.2,0.1,0.3,0.1
									c0.1,0,0.2,0.1,0.3,0.1c0.1,0,0.2,0.1,0.3,0.1c0.1,0,0.2,0.1,0.3,0.1c0.1,0,0.2,0.1,0.3,0.1c0.1,0,0.2,0.1,0.4,0.1
									c0.1,0,0.2,0.1,0.3,0.1c0.1,0,0.2,0.1,0.4,0.1c0.1,0,0.2,0.1,0.4,0.1c0.1,0,0.3,0.1,0.4,0.1c0.1,0,0.2,0.1,0.4,0.1
									c0.1,0,0.3,0.1,0.4,0.1c0.1,0,0.2,0.1,0.4,0.1c0.1,0,0.3,0.1,0.4,0.1c0.1,0,0.3,0.1,0.4,0.1c0.1,0,0.3,0.1,0.4,0.1
									c0.1,0,0.3,0.1,0.4,0.1c0.2,0,0.3,0.1,0.5,0.1c0.1,0,0.3,0.1,0.4,0.1c0.2,0,0.3,0.1,0.5,0.1c0.1,0,0.3,0.1,0.4,0.1
									c0.2,0,0.3,0.1,0.5,0.1c0.1,0,0.3,0.1,0.4,0.1c0.2,0,0.4,0.1,0.6,0.1c0.1,0,0.3,0,0.4,0.1c0.2,0,0.4,0.1,0.6,0.1
									c0.1,0,0.3,0,0.4,0.1c0.2,0,0.5,0.1,0.7,0.1c0.1,0,0.2,0,0.4,0.1c0.4,0.1,0.7,0.1,1.1,0.2c0.4,0.1,0.8,0.1,1.3,0.2
									c0.2,0,0.3,0,0.5,0.1c0.2,0,0.5,0.1,0.7,0.1c0.2,0,0.4,0,0.6,0c0.2,0,0.4,0,0.6,0.1c0.2,0,0.4,0,0.6,0c0.2,0,0.4,0,0.6,0
									c0.2,0,0.4,0,0.6,0c0.2,0,0.4,0,0.6,0c0.2,0,0.4,0,0.6,0c0.2,0,0.4,0,0.5,0c0.2,0,0.4,0,0.6,0c0.2,0,0.3,0,0.5,0
									c0.2,0,0.4,0,0.6,0c0.2,0,0.3,0,0.5,0c0.2,0,0.4,0,0.6,0c0.2,0,0.3,0,0.5,0c0.2,0,0.4,0,0.6,0c0.2,0,0.3,0,0.5,0
									c0.2,0,0.4,0,0.6,0c0.2,0,0.3,0,0.5,0c0.2,0,0.4,0,0.6,0c0.2,0,0.3,0,0.5,0c0.2,0,0.4,0,0.6-0.1c0.1,0,0.3,0,0.4,0
									c0.2,0,0.4,0,0.6-0.1c0.1,0,0.3,0,0.4-0.1c0.2,0,0.4,0,0.6-0.1c0.1,0,0.3,0,0.4-0.1c0.2,0,0.4-0.1,0.5-0.1
									c0.1,0,0.3,0,0.4-0.1c0.2,0,0.4-0.1,0.5-0.1c0.1,0,0.3,0,0.4-0.1c0.2,0,0.3-0.1,0.5-0.1c0.1,0,0.3-0.1,0.4-0.1
									c0.2,0,0.3-0.1,0.5-0.1c0.1,0,0.3-0.1,0.4-0.1c0.2,0,0.3-0.1,0.5-0.1c0.1,0,0.3-0.1,0.4-0.1c0.2,0,0.3-0.1,0.5-0.1
									c0.1,0,0.3-0.1,0.4-0.1c0.2,0,0.3-0.1,0.5-0.1c0.1,0,0.3-0.1,0.4-0.1c0.1,0,0.3-0.1,0.4-0.1c0.1,0,0.2-0.1,0.4-0.1
									c0.1,0,0.3-0.1,0.4-0.1c0.1,0,0.2-0.1,0.4-0.1c0.1,0,0.3-0.1,0.4-0.1c0.1,0,0.2-0.1,0.4-0.1c0.1,0,0.3-0.1,0.4-0.1
									c0.1,0,0.2-0.1,0.3-0.1C956.6,161.5,956.7,161.4,956.9,161.4z"/>
							</g>
						</g>
						<g>
							<g>
								<path d="M1014.5,164.8c-1.4-1.1-2.9-2.1-4.7-2.8c-1.9-0.8-3.9-1.6-5.8-2.3c-2-0.7-3.8-1.4-5.5-2c-1.5-0.5-2.9-1-4.4-1.5
									c-0.2-0.1-0.4-0.1-0.6-0.2c-0.2-0.1-0.4-0.1-0.6-0.2c-0.4-0.1-0.7-0.4-0.9-0.8c0,0,0,0,0-0.1c0-0.1,0-0.1-0.1-0.2
									c-0.1-0.3-0.1-0.6,0-0.9c0.6-1.8,1.6-3.3,2.8-4.5c0,0,0,0,0,0c1.1-0.9,2.7-1.6,4.5-1.9c0.4-0.1,0.8-0.1,1.3-0.1
									c1.7,0,3.6,0.5,5.9,1.4c0.2,0.1,0.4,0.2,0.5,0.4c0.6,0.7,1.2,1.2,1.9,1.7c0.5,0.4,1.1,0.7,1.8,1c0.4,0.2,0.8,0.2,1.2,0.2
									c0.2,0,0.4,0,0.7-0.1c0,0,0,0,0,0c0.7-0.1,1.2-0.4,1.6-0.8c0.4-0.5,0.6-1,0.6-1.7c0-0.7-0.3-1.6-0.8-2.6
									c-0.6-1-1.7-2.1-3.2-3.1c-1.7-1.1-3-2-3.9-2.5c-1-0.5-1.7-0.9-2.1-1.2c-0.6-0.4-1.2-0.8-1.4-1.6c-0.1-0.5,0-1,0.3-1.6
									c0.2-0.6,0.1-1.4-0.3-2.4c-0.3-1-1.1-2-2.4-2.9c-0.7-0.5-1.4-0.9-2.1-1.2c-0.7-0.3-1.3-0.4-1.9-0.4c-0.6,0-1.1,0.1-1.6,0.4
									c-0.4,0.2-0.8,0.6-1.1,1.2c-0.4,0.8-0.6,1.5-0.8,2.2c-0.2,0.8-0.3,1.5-0.4,2.1c-0.1,0.6-0.1,1.2-0.1,1.7
									c0.1,0.7-0.4,1.4-1.1,1.6c-1.8,0.5-3.3,1.1-4.7,2c-1.1,0.8-2.2,2-3.3,3.5c-1,1.4-1.5,3.2-1.5,5.5c0,0,0,0,0,0
									c-0.1,2.3,0.3,4.3,1.3,5.9c0.2,0.3,0.4,0.6,0.6,0.9c0,0,0,0.1,0.1,0.1c0.5,0.7,1.1,1.4,1.7,2c0.1,0.1,0.3,0.3,0.5,0.4
									c0.3,0.3,0.7,0.6,1,0.8c1.6,1.2,3.2,2.1,4.9,2.8c1.8,0.8,3.4,1.4,4.6,1.9c1.2,0.4,2.4,0.8,3.7,1.3c1.2,0.4,2.3,0.7,3.2,1
									c0,0,0,0,0,0c1.2,0.3,2.3,0.6,3.3,0.9c0.6,0.2,1,0.6,1.1,1.2c0.1,0.6-0.2,1.2-0.7,1.5c-1.2,0.8-2.6,1.4-4.1,2c0,0,0,0,0,0
									c-1.3,0.5-2.8,0.9-4.4,1.2c-1.1,0.2-2.3,0.3-3.5,0.3c-0.7,0-1.4,0-2.1-0.1c-2.1-0.2-3.7-0.7-4.8-1.5c-1-0.7-1.8-1.5-2.4-2.3
									c-0.5-0.6-1-1.1-1.6-1.6c-0.2-0.1-0.7-0.4-2-0.4c-0.1,0-0.2,0-0.4,0c-1.2,0-2,0.3-2.6,0.8c-0.5,0.5-0.8,1-0.8,1.8
									c0,0.8,0.3,1.7,0.9,2.8c0.7,1.1,1.8,2.2,3.3,3.3c1.6,1.1,3,2,4.2,2.6c1.2,0.6,2.2,1.1,3,1.5c0.9,0.4,1.6,0.8,2.1,1.1
									c1,0.7,1.4,1.5,1.4,2.2c0,0.2,0.1,0.6,0.5,1.4c0.3,0.6,0.7,1.3,1.2,1.9c0.6,0.6,1.3,1.2,2.1,1.7c0.7,0.4,1.6,0.7,2.7,0.7
									c0.6,0,1.3-0.1,1.6-0.5c0.4-0.5,0.7-1.1,0.8-1.7c0.1-0.8,0.2-1.6,0.2-2.3c0-1.2,0.1-2,0.5-2.5c0-0.1,0.1-0.1,0.1-0.2
									c0.5-0.5,1.2-0.7,2.9-0.9c1.1-0.1,2.3-0.4,3.7-0.8c1.3-0.4,2.8-1,4.2-1.9c1.3-0.8,2.3-1.8,3.1-3.3c0.8-1.5,1.2-2.9,1.1-4.3
									c0-1.4-0.4-2.7-1.1-3.9C1016.9,167,1015.9,165.8,1014.5,164.8z"/>
							</g>
							<g>
								<polygon points="957.5,172.9 957.2,173.6 957.5,172.9 								"/>
							</g>
							<g>
								<polygon points="957.2,173.6 957.2,173.6 957.2,173.6 								"/>
							</g>
							<g>
								<path class="st4" d="M921.4,155.4c0.1,0,0.1,0,0.2,0c0.2,0,0.5,0,0.7,0c0,0,0.1,0,0.1,0c0.2,0,0.4,0,0.6,0
									c0.1,0,0.1,0,0.2,0c0.3,0,0.5,0,0.8,0c0,0,0,0,0,0l1-5.2l0.3-1.4c-1.1-0.4-2.1-0.7-3.2-1.1l-0.7,3.8l-0.7,3.8
									c0,0,0.1,0,0.1,0C921,155.3,921.2,155.3,921.4,155.4z"/>
								<path class="st4" d="M916.9,154.5c0.2,0.1,0.4,0.1,0.6,0.2c0,0,0.1,0,0.1,0c0.2,0.1,0.5,0.1,0.7,0.2c0.1,0,0.1,0,0.2,0
									c0.2,0,0.4,0.1,0.6,0.1c0,0,0.1,0,0.1,0l1.4-7.7c-1.1-0.3-2.2-0.6-3.2-0.8l-0.2,1.3l-1.2,6.3c0,0,0,0,0,0
									c0.2,0.1,0.4,0.2,0.7,0.2C916.7,154.4,916.8,154.4,916.9,154.5z"/>
								<path class="st4" d="M945,138.7c3.2,0,5.9-2.2,5.9-4.9c0-0.4-0.1-0.8-0.2-1.2l-11.5,1.9C939.6,136.9,942.1,138.7,945,138.7z
									"/>
								<path class="st4" d="M912.5,152.5c0.2,0.1,0.3,0.2,0.5,0.3c0.1,0,0.1,0.1,0.2,0.1c0.2,0.1,0.4,0.2,0.6,0.3c0,0,0,0,0.1,0
									c0.2,0.1,0.4,0.2,0.6,0.3c0,0,0.1,0,0.1,0l0-0.2l1.3-7.2c-1.1-0.2-2.1-0.4-3.1-0.5l-1.2,6.3c0,0,0,0,0,0
									c0.2,0.1,0.4,0.3,0.6,0.4C912.4,152.5,912.4,152.5,912.5,152.5z"/>
								<path class="st4" d="M926.4,155.2c0.3,0,0.5-0.1,0.8-0.1c0.1,0,0.1,0,0.2,0c0.2,0,0.4-0.1,0.6-0.1c0.1,0,0.1,0,0.2,0
									c0.3-0.1,0.5-0.1,0.8-0.2c0,0,0,0,0.1,0l0.7-4.1c-1-0.5-2.1-0.9-3.2-1.3l-1.1,6c0,0,0.1,0,0.1,0
									C925.9,155.3,926.2,155.3,926.4,155.2C926.4,155.2,926.4,155.2,926.4,155.2z"/>
								<path class="st4" d="M948,163.6c0.2,0,0.4-0.1,0.5-0.1c0.1,0,0.3,0,0.4-0.1c0.2,0,0.3-0.1,0.5-0.1c0.1,0,0.3-0.1,0.4-0.1
									c0.2,0,0.3-0.1,0.5-0.1c0.1,0,0.3-0.1,0.4-0.1c0.2,0,0.3-0.1,0.5-0.1c0.1,0,0.3-0.1,0.4-0.1c0.2,0,0.3-0.1,0.5-0.1
									c0.1,0,0.3-0.1,0.4-0.1c0.2,0,0.3-0.1,0.5-0.1c0.1,0,0.3-0.1,0.4-0.1c0.1,0,0.3-0.1,0.4-0.1c0.1,0,0.2-0.1,0.4-0.1
									c0.1,0,0.3-0.1,0.4-0.1c0.1,0,0.2-0.1,0.4-0.1c0.1,0,0.3-0.1,0.4-0.1c0.1,0,0.2-0.1,0.4-0.1c0.1,0,0.3-0.1,0.4-0.1
									c0.1,0,0.2-0.1,0.3-0.1c0.1,0,0.3-0.1,0.4-0.1c0.1,0,0.2-0.1,0.3-0.1c0.1,0,0.2-0.1,0.4-0.1c0.1,0,0.2-0.1,0.3-0.1
									c0.1,0,0.2-0.1,0.4-0.1c0.1,0,0.2-0.1,0.3-0.1c0.1,0,0.2-0.1,0.3-0.1c0.1,0,0.2-0.1,0.3-0.1c0.1,0,0.2-0.1,0.3-0.1
									c0.1,0,0.2-0.1,0.3-0.1c0.1,0,0.2-0.1,0.3-0.1c0.1,0,0.1,0,0.1-0.1l5-13.4c-1.1-8.4-4.4-14.3-5.9-16.5
									c-0.6-0.2-1.2-0.5-1.8-0.7c0,0,0,0,0,0.1c0,0.1,0.1,0.2,0.1,0.3c0.1,0.2,0.2,0.4,0.3,0.5c0,0.1,0.1,0.2,0.1,0.3
									c0.1,0.2,0.1,0.3,0.2,0.5c0,0.1,0.1,0.2,0.1,0.3c0.1,0.2,0.1,0.3,0.2,0.4c0,0.1,0.1,0.2,0.1,0.3c0.1,0.1,0.1,0.3,0.2,0.4
									c0,0.1,0.1,0.2,0.1,0.3c0.1,0.1,0.1,0.3,0.1,0.4c0,0.1,0.1,0.2,0.1,0.2c0.1,0.2,0.1,0.3,0.1,0.5c0,0,0,0.1,0,0.1
									c0.1,0.2,0.1,0.4,0.1,0.6c0,0,0,0.1,0,0.1c0,0.1,0.1,0.3,0.1,0.4c0,0.1,0,0.1,0,0.2c0,0.1,0,0.2,0,0.4c0,0.1,0,0.1,0,0.2
									c0,0.1,0,0.2,0,0.3c0,0.1,0,0.1,0,0.2c0,0.1,0,0.2,0,0.3c0,0.1,0,0.1,0,0.2c0,0.1,0,0.2,0,0.3c0,0.1,0,0.1,0,0.2
									c0,0.1,0,0.2-0.1,0.3c0,0,0,0.1,0,0.1c0,0.1-0.1,0.3-0.2,0.4c-0.4,0.9-1.4,1.9-2.6,2.8c-0.2,0.1-0.4,0.3-0.6,0.4
									c-0.4,0.3-0.9,0.6-1.4,0.9c-1.5,0.8-3.3,1.5-5.3,2c-0.1,0-0.3,0.1-0.4,0.1c0,0-0.1,0-0.1,0c-0.1,0-0.2,0-0.3,0.1
									c0,0-0.1,0-0.1,0c-0.1,0-0.2,0-0.3,0.1c0,0-0.1,0-0.1,0c-0.1,0-0.3,0-0.5,0.1c0,0,0,0,0,0c-0.1,0-0.3,0-0.4,0
									c0,0-0.1,0-0.1,0c-0.1,0-0.2,0-0.3,0c0,0-0.1,0-0.1,0c-0.1,0-0.3,0-0.4,0c0,0-0.1,0-0.1,0c-0.2,0-0.3,0-0.5,0c0,0,0,0,0,0
									c0,0,0,0-0.1,0c-0.2,0-0.3,0-0.5,0c0,0-0.1,0-0.1,0c-0.2,0-0.3,0-0.5,0c0,0-0.1,0-0.1,0c-0.2,0-0.4,0-0.6,0c0,0-0.1,0-0.1,0
									c-0.1,0-0.3,0-0.4-0.1c-0.1,0-0.1,0-0.2,0c-0.2,0-0.4-0.1-0.5-0.1c0,0,0,0,0,0c-0.2,0-0.4-0.1-0.6-0.1c-0.1,0-0.1,0-0.2,0
									c-0.1,0-0.3-0.1-0.4-0.1c-0.1,0-0.1,0-0.2,0c-0.2-0.1-0.4-0.1-0.6-0.2c0,0,0,0-0.1,0c-0.2-0.1-0.3-0.1-0.5-0.2
									c-0.1,0-0.1,0-0.2-0.1c-0.2-0.1-0.3-0.1-0.5-0.2c0,0-0.1,0-0.1-0.1c-0.2-0.1-0.4-0.2-0.6-0.3c0,0-0.1,0-0.1-0.1
									c-0.2-0.1-0.3-0.2-0.5-0.2c-0.1,0-0.1-0.1-0.2-0.1c-0.2-0.1-0.3-0.2-0.5-0.3c0,0-0.1,0-0.1-0.1c-0.2-0.1-0.4-0.2-0.6-0.4
									c-0.1,0-0.1-0.1-0.2-0.1c-0.2-0.1-0.3-0.2-0.5-0.3c-0.1,0-0.1-0.1-0.2-0.1c-0.2-0.1-0.4-0.3-0.6-0.5
									c-0.1-0.1-0.2-0.2-0.3-0.3c0,0-0.1-0.1-0.1-0.1c-0.1-0.1-0.1-0.1-0.2-0.2c0,0-0.1-0.1-0.1-0.1c-0.1-0.1-0.1-0.1-0.2-0.2
									c0,0-0.1-0.1-0.1-0.1c-0.1-0.1-0.1-0.1-0.2-0.2c0-0.1-0.1-0.1-0.1-0.2c-0.1-0.1-0.1-0.1-0.2-0.2c0-0.1-0.1-0.1-0.1-0.2
									c0-0.1-0.1-0.1-0.1-0.2c0-0.1-0.1-0.1-0.1-0.2c0-0.1-0.1-0.1-0.1-0.2c0-0.1-0.1-0.1-0.1-0.2c0-0.1-0.1-0.1-0.1-0.2
									c0-0.1-0.1-0.1-0.1-0.2c0-0.1-0.1-0.2-0.1-0.2c0-0.1-0.1-0.2-0.1-0.2c0-0.1-0.1-0.2-0.1-0.2c0-0.1-0.1-0.2-0.1-0.2
									c0-0.1-0.1-0.2-0.1-0.3c0-0.1-0.1-0.2-0.1-0.3c0-0.1-0.1-0.2-0.1-0.3c0-0.1-0.1-0.2-0.1-0.3c0-0.1-0.1-0.2-0.1-0.3
									c0-0.1-0.1-0.2-0.1-0.3c0-0.1-0.1-0.2-0.1-0.3c0-0.1-0.1-0.2-0.1-0.3c0-0.1-0.1-0.2-0.1-0.3c0-0.1-0.1-0.2-0.1-0.3
									c0-0.1,0-0.2-0.1-0.3c0-0.1,0-0.2-0.1-0.3c0-0.1,0-0.2-0.1-0.3c0-0.1,0-0.2-0.1-0.3c0-0.1,0-0.2-0.1-0.3
									c0-0.1,0-0.2-0.1-0.3c0-0.1,0-0.2-0.1-0.3c0-0.1,0-0.2-0.1-0.3c0-0.1,0-0.2,0-0.3c0-0.1,0-0.2,0-0.4c0-0.1,0-0.2,0-0.4
									c0-0.1,0-0.2,0-0.4c0-0.1,0-0.2,0-0.4c0-0.1,0-0.3,0-0.4c0-0.1,0-0.2,0-0.4c0-0.1,0-0.3,0-0.4c0-0.1,0-0.3,0-0.4
									c0-0.1,0-0.3,0-0.4c0-0.1,0-0.3,0-0.4c0-0.1,0-0.3,0-0.4c0-0.1,0-0.3,0-0.4c0-0.1,0-0.3,0-0.4c0-0.1,0-0.3,0-0.4
									c0-0.1,0-0.3,0-0.4c0-0.1,0-0.3,0-0.4c0-0.1,0-0.3,0-0.4c0-0.1,0-0.3,0-0.4c0-0.1,0-0.3,0-0.4c0-0.1,0-0.3,0-0.5
									c0-0.2,0-0.3,0-0.5c0-0.2,0-0.3,0-0.5c0-0.2,0-0.3,0-0.5c0,0,0-0.1,0-0.1c-16.8-2.8-29.3-0.9-37.2,5.7
									c-0.3,0.2-0.4,0.6-0.4,1c0,0.4,0.2,0.7,0.5,1c2.7,2.2,8.8,6.5,19.3,10.4c0,0,0,0,0,0c0,0,0.1,0,0.1,0c0.1,0,0.2,0.1,0.4,0.1
									c6.1,2.2,30.7,11.3,33.7,11.9c1.7,0.4,3.6-0.5,5.7-2.6l3.1-3.2l-1.9,4c-0.1,0.2-2,4.2-6.5,5.6c-3.2,1-6.8,0.4-10.8-1.9
									c-0.2-0.1-0.4-0.2-0.6-0.3c-0.1,0-0.2,0.1-0.2,0.1c-0.1,0.1-0.2,0.1-0.4,0.2c-0.1,0.1-0.3,0.1-0.4,0.2
									c-0.1,0.1-0.2,0.1-0.4,0.2c-0.1,0.1-0.3,0.1-0.4,0.2c-0.1,0.1-0.2,0.1-0.3,0.2c-0.1,0.1-0.3,0.1-0.4,0.2
									c-0.1,0-0.2,0.1-0.3,0.1c-0.1,0.1-0.3,0.1-0.4,0.2c-0.1,0-0.2,0.1-0.3,0.1c-0.2,0.1-0.3,0.1-0.5,0.2c-0.1,0-0.2,0.1-0.3,0.1
									c-0.2,0.1-0.3,0.1-0.5,0.2c-0.1,0-0.2,0.1-0.3,0.1c-0.1,0-0.2,0.1-0.3,0.1l0,0l-0.5,0.1l-1.1,0.3l0,0
									c-0.3,0.1-0.6,0.1-0.9,0.2c-0.9,0.2-1.7,0.3-2.6,0.4l0,0l-0.6,0l-0.9,0.1l0,0c-0.1,0-0.2,0-0.4,0c0,0,0,0,0,0
									c0,0-0.1,0-0.1,0c-0.2,0-0.5,0-0.7,0c-0.1,0-0.1,0-0.2,0c-0.3,0-0.5,0-0.8,0c0,0-0.1,0-0.1,0c-0.2,0-0.5,0-0.7-0.1
									c-0.1,0-0.1,0-0.2,0c0,0-0.1,0-0.1,0l0,0l-0.7-0.1l-0.8-0.1l0,0c-1.1-0.2-2.2-0.5-3.2-0.9l0,0l-0.8-0.3l-0.6-0.2l0,0
									c-0.1,0-0.2-0.1-0.2-0.1c-0.1,0-0.1-0.1-0.2-0.1c-0.3-0.1-0.5-0.2-0.8-0.4c0,0-0.1,0-0.1,0c-0.2-0.1-0.5-0.2-0.7-0.4
									c-0.1,0-0.1-0.1-0.2-0.1c-0.2-0.1-0.5-0.3-0.7-0.4c0,0,0,0,0,0l-0.7,3.9c0,0,0.1,0,0.1,0.1c0,0,0.1,0.1,0.1,0.1
									c0,0,0.1,0.1,0.1,0.1c0,0,0.1,0.1,0.1,0.1c0,0,0.1,0.1,0.2,0.1c0,0,0.1,0.1,0.1,0.1c0.1,0,0.1,0.1,0.2,0.1
									c0,0,0.1,0.1,0.1,0.1c0.1,0,0.1,0.1,0.2,0.1c0,0,0.1,0.1,0.1,0.1c0.1,0,0.1,0.1,0.2,0.1c0,0,0.1,0.1,0.1,0.1
									c0.1,0,0.1,0.1,0.2,0.1c0,0,0.1,0.1,0.1,0.1c0.1,0.1,0.2,0.1,0.3,0.2c0,0,0.1,0,0.1,0c0.1,0.1,0.3,0.1,0.4,0.2
									c0,0,0.1,0.1,0.1,0.1c0.1,0,0.2,0.1,0.3,0.1c0.1,0,0.1,0.1,0.2,0.1c0.1,0,0.2,0.1,0.3,0.1c0.1,0,0.1,0.1,0.2,0.1
									c0.1,0,0.2,0.1,0.3,0.1c0.1,0,0.2,0.1,0.2,0.1c0.1,0,0.2,0.1,0.3,0.1c0.1,0,0.2,0.1,0.2,0.1c0.1,0,0.2,0.1,0.3,0.1
									c0.1,0,0.2,0.1,0.3,0.1c0.1,0,0.2,0.1,0.3,0.1c0.1,0,0.2,0.1,0.3,0.1c0.1,0,0.2,0.1,0.3,0.1c0.1,0,0.2,0.1,0.3,0.1
									c0.1,0,0.2,0.1,0.3,0.1c0.1,0,0.2,0.1,0.3,0.1c0.1,0,0.2,0.1,0.3,0.1c0.1,0,0.2,0.1,0.3,0.1c0.1,0,0.2,0.1,0.4,0.1
									c0.1,0,0.2,0.1,0.3,0.1c0.1,0,0.2,0.1,0.4,0.1c0.1,0,0.2,0.1,0.4,0.1c0.1,0,0.3,0.1,0.4,0.1c0.1,0,0.2,0.1,0.4,0.1
									c0.1,0,0.3,0.1,0.4,0.1c0.1,0,0.2,0.1,0.4,0.1c0.1,0,0.3,0.1,0.4,0.1c0.1,0,0.3,0.1,0.4,0.1c0.1,0,0.3,0.1,0.4,0.1
									c0.1,0,0.3,0.1,0.4,0.1c0.2,0,0.3,0.1,0.5,0.1c0.1,0,0.3,0.1,0.4,0.1c0.2,0,0.3,0.1,0.5,0.1c0.1,0,0.3,0.1,0.4,0.1
									c0.2,0,0.3,0.1,0.5,0.1c0.1,0,0.3,0.1,0.4,0.1c0.2,0,0.4,0.1,0.6,0.1c0.1,0,0.3,0,0.4,0.1c0.2,0,0.4,0.1,0.6,0.1
									c0.1,0,0.3,0,0.4,0.1c0.2,0,0.5,0.1,0.7,0.1c0.1,0,0.2,0,0.4,0.1c0.4,0.1,0.7,0.1,1.1,0.2c0.4,0.1,0.8,0.1,1.3,0.2
									c0.2,0,0.3,0,0.5,0.1c0.2,0,0.5,0.1,0.7,0.1c0.2,0,0.4,0,0.6,0c0.2,0,0.4,0,0.6,0.1c0.2,0,0.4,0,0.6,0c0.2,0,0.4,0,0.6,0
									c0.2,0,0.4,0,0.6,0c0.2,0,0.4,0,0.6,0c0.2,0,0.4,0,0.6,0c0.2,0,0.4,0,0.5,0c0.2,0,0.4,0,0.6,0c0.2,0,0.3,0,0.5,0
									c0.2,0,0.4,0,0.6,0c0.2,0,0.3,0,0.5,0c0.2,0,0.4,0,0.6,0c0.2,0,0.3,0,0.5,0c0.2,0,0.4,0,0.6,0c0.2,0,0.3,0,0.5,0
									c0.2,0,0.4,0,0.6,0c0.2,0,0.3,0,0.5,0c0.2,0,0.4,0,0.6,0c0.2,0,0.3,0,0.5,0c0.2,0,0.4,0,0.6-0.1c0.1,0,0.3,0,0.4,0
									c0.2,0,0.4,0,0.6-0.1c0.1,0,0.3,0,0.4-0.1c0.2,0,0.4,0,0.6-0.1c0.1,0,0.3,0,0.4-0.1c0.2,0,0.4-0.1,0.5-0.1
									C947.7,163.6,947.9,163.6,948,163.6z"/>
								<path class="st4" d="M931.4,154c0.1,0,0.2-0.1,0.3-0.1c0.2-0.1,0.5-0.2,0.7-0.3c0.1,0,0.1,0,0.2-0.1
									c0.3-0.1,0.6-0.2,0.8-0.4c0.1,0,0.2-0.1,0.2-0.1c0.2-0.1,0.4-0.2,0.6-0.3c0,0,0.1,0,0.1-0.1c-1-0.5-2.1-1.1-3.1-1.5l-0.5,3
									c0.1,0,0.1,0,0.2,0C931,154.2,931.2,154.1,931.4,154z"/>
								<path class="st4" d="M895.9,165.2L895.9,165.2c-0.1-0.1-0.1-0.1-0.2-0.1c-0.1,0-0.1-0.1-0.2-0.1c0,0-0.1,0-0.1-0.1
									c-0.1-0.1-0.2-0.1-0.2-0.2c0,0,0,0,0,0c-0.4-0.3-0.8-0.6-1.1-0.9c0,0-0.1-0.1-0.1-0.1c0,0-0.1-0.1-0.1-0.1
									c-0.1-0.1-0.1-0.2-0.2-0.2l-0.1,0.1v0l-4.6,2.6c0.4,0.7,1.1,2,1.2,3.5l0,0v0.5c0,0,0,0,0,0c0,0.2,0,0.3,0,0.5
									c-0.1,1,0.1,1.9,0.3,2.6c0.2-0.4,0.6-1.1,1.2-2.1l0.4-0.5l0,0C893.3,168.6,894.9,166.6,895.9,165.2L895.9,165.2z"/>
								<path class="st4" d="M1027.7,133.2c-18.7-16.9-40.1-17.6-54.7-15.2c-10,1.6-18.3,4.9-23.2,7.1c1.5,0.5,3,1,4.5,1.5l0,0
									l1.8,0.7l0.3,0.1v0c0.6,0.2,1.2,0.5,1.8,0.7l6-1.6l0.3,0.4c0.4,0.4,0.7,0.9,1,1.5c1.2-0.2,3.2-0.2,5,0.8
									c1.7,0.9,2.8,2.5,3.5,4.7c1.6,5.8-2.2,8.4-3.7,9.2c0.2,1.2,0.4,2,0.4,2.1l0.1,0.4l-5.1,4.1l-3.6,9.6l-2.6,7.1l4.4,2.6
									l-0.4,0.3c-1.7,0.8-3.4,1.5-5.1,2.3c-0.1,0.1-0.2,0.1-0.4,0.2c-0.6,0.3-1.3,0.6-1.9,0.8c-0.1,0-0.1,0.1-0.2,0.1
									c-0.5,0.2-1,0.4-1.4,0.6c-2.5,1.1-4.8,2.2-7,3.2c-3.9,1.8-7.3,3.3-9.9,4.6c-0.9-0.4-1.8-0.7-2.8-1.1
									c-8.4-3.3-18-7-26.3-10.2c-0.6-0.2-1.3-0.5-1.9-0.7c-1.2-0.5-2.5-1-3.8-1.3c-1.1-0.2-2.6-0.7-2.7-1.9l-1.1-0.7
									c-0.2,0.1-0.4,0.2-0.6,0.4c-0.3,0.2-0.5,0.3-0.7,0.5c-0.1,0-0.3-0.1-0.4-0.2c-1,1.4-2.6,3.5-3.8,5.3l12.1,5.8l1.1-6.1
									c0,0,0,0,0.7,0.2c0.2,0.1,0.5,0.2,0.7,0.3c7.9,3,16.6,6.3,24.7,9.3c1.5,0.6,3,1.1,4.5,1.7c4.5-2.1,10.2-4.7,16.5-7.5
									l3.4-0.9l-1,2.6c1.2,10.2,3.8,18.1,7.9,23.7l1.2-1.1l0.7,3.5c1.6,1.7,3.4,3.2,5.3,4.3c14.8,8.7,37.2-1.6,46.7-6
									c11.1-5.1,24.9-16.3,27.1-31.2C1047,157.5,1041.1,145.3,1027.7,133.2z"/>
								<path class="st4" d="M946.7,201.1l3.5,11.9l12.8-12c-3.9-5.3-6.6-12.6-7.9-21.8L946.7,201.1z"/>
							</g>
						</g>
					</g>
				</g>
				<g>
					<path class="st4" d="M926.6,149.6l-1,5.7c0,0,0.1,0,0.1,0c0.2,0,0.5-0.1,0.7-0.1c0,0,0,0,0,0c0.3,0,0.5-0.1,0.8-0.1
						c0.1,0,0.1,0,0.2,0c0.2,0,0.4-0.1,0.6-0.1c0.1,0,0.1,0,0.2,0c0.3-0.1,0.5-0.1,0.8-0.2c0,0,0,0,0.1,0l0.7-3.9
						C928.7,150.4,927.7,150,926.6,149.6C926.6,149.6,926.6,149.6,926.6,149.6z"/>
					<path class="st4" d="M931.2,151.4l-0.5,2.8c0.1,0,0.1,0,0.2,0c0.2-0.1,0.4-0.1,0.6-0.2c0.1,0,0.2-0.1,0.3-0.1
						c0.2-0.1,0.5-0.2,0.7-0.3c0.1,0,0.1,0,0.2-0.1c0.3-0.1,0.6-0.2,0.8-0.4c0.1,0,0.2-0.1,0.2-0.1c0.2-0.1,0.4-0.2,0.6-0.3
						c-0.8-0.4-1.7-0.8-2.5-1.2C931.5,151.6,931.4,151.5,931.2,151.4z"/>
					<path class="st4" d="M911.7,152.1C911.7,152.1,911.7,152.1,911.7,152.1c0.2,0.1,0.4,0.3,0.6,0.4c0.1,0,0.1,0.1,0.2,0.1
						c0.2,0.1,0.3,0.2,0.5,0.3c0.1,0,0.1,0.1,0.2,0.1c0.2,0.1,0.4,0.2,0.6,0.3c0,0,0,0,0.1,0c0.2,0.1,0.4,0.2,0.6,0.3
						c0,0,0.1,0,0.1,0l0-0.2l1.2-6.9c-1.1-0.2-2.1-0.4-3.1-0.5L911.7,152.1z"/>
					<path class="st4" d="M917.1,147.8l-1.2,6.3c0,0,0,0,0,0c0.2,0.1,0.4,0.2,0.7,0.2c0.1,0,0.1,0,0.2,0.1c0.2,0.1,0.4,0.1,0.6,0.2
						c0,0,0.1,0,0.1,0c0.2,0.1,0.5,0.1,0.7,0.2c0.1,0,0.1,0,0.2,0c0.2,0,0.4,0.1,0.6,0.1c0,0,0.1,0,0.1,0l1.3-7.4
						c-1.1-0.3-2.2-0.6-3.2-0.8L917.1,147.8z"/>
					<path class="st4" d="M921.4,151.5l-0.7,3.8c0,0,0.1,0,0.1,0c0.2,0,0.4,0,0.6,0.1c0.1,0,0.1,0,0.2,0c0.2,0,0.5,0,0.7,0
						c0,0,0.1,0,0.1,0c0.2,0,0.4,0,0.6,0c0.1,0,0.1,0,0.2,0c0.3,0,0.5,0,0.8,0c0,0,0,0,0,0l1-5.2l0.2-1.1c-1.1-0.4-2.2-0.7-3.2-1
						L921.4,151.5z"/>
					<path class="st4" d="M945.4,151.4c0.5,0.3,1,0.5,1.5,0.7c1.7,0.4,3.6-0.5,5.7-2.6l3.1-3.2l-1.9,4c-0.1,0.1-1.3,2.6-3.9,4.4
						c1.8,0.3,4.1-0.5,6.8-3.2c0,0-5.2,11.2-18,3.8c-0.4-0.2-0.7-0.4-1.1-0.6c-0.6-0.3-1.1-0.6-1.7-0.9c-0.1,0-0.1,0.1-0.2,0.1
						c-0.1,0.1-0.2,0.1-0.4,0.2c-0.1,0.1-0.3,0.1-0.4,0.2c-0.1,0.1-0.2,0.1-0.4,0.2c-0.1,0.1-0.3,0.1-0.4,0.2
						c-0.1,0.1-0.2,0.1-0.3,0.2c-0.1,0.1-0.3,0.1-0.4,0.2c-0.1,0-0.2,0.1-0.3,0.1c-0.1,0.1-0.3,0.1-0.4,0.2c-0.1,0-0.2,0.1-0.3,0.1
						c-0.2,0.1-0.3,0.1-0.5,0.2c-0.1,0-0.2,0.1-0.3,0.1c-0.2,0.1-0.3,0.1-0.5,0.2c-0.1,0-0.2,0.1-0.3,0.1c-0.1,0-0.2,0.1-0.3,0.1
						l0,0l-0.5,0.1l-1.1,0.3l0,0c-0.3,0.1-0.6,0.1-0.9,0.2c-0.9,0.2-1.7,0.3-2.6,0.4l0,0l-0.6,0l-0.9,0.1l0,0c-0.1,0-0.2,0-0.4,0
						c0,0,0,0,0,0c0,0-0.1,0-0.1,0c-0.2,0-0.5,0-0.7,0c-0.1,0-0.1,0-0.2,0c-0.3,0-0.5,0-0.8,0c0,0-0.1,0-0.1,0c-0.2,0-0.5,0-0.7-0.1
						c-0.1,0-0.1,0-0.2,0c0,0-0.1,0-0.1,0l0,0l-0.7-0.1l-0.8-0.1l0,0c-1.1-0.2-2.2-0.5-3.2-0.9l0,0l-0.8-0.3l-0.6-0.2l0,0
						c-0.1,0-0.2-0.1-0.2-0.1c-0.1,0-0.1-0.1-0.2-0.1c-0.3-0.1-0.5-0.2-0.8-0.4c0,0-0.1,0-0.1,0c-0.2-0.1-0.5-0.2-0.7-0.4
						c-0.1,0-0.1-0.1-0.2-0.1c-0.2-0.1-0.5-0.3-0.7-0.4c0,0,0,0,0,0l-0.7,3.9c0,0,0.1,0,0.1,0.1c0,0,0.1,0.1,0.1,0.1
						c0,0,0.1,0.1,0.1,0.1c0,0,0.1,0.1,0.1,0.1c0,0,0.1,0.1,0.2,0.1c0,0,0.1,0.1,0.1,0.1c0.1,0,0.1,0.1,0.2,0.1c0,0,0.1,0.1,0.1,0.1
						c0.1,0,0.1,0.1,0.2,0.1c0,0,0.1,0.1,0.1,0.1c0.1,0,0.1,0.1,0.2,0.1c0,0,0.1,0.1,0.1,0.1c0.1,0,0.1,0.1,0.2,0.1
						c0,0,0.1,0.1,0.1,0.1c0.1,0.1,0.2,0.1,0.3,0.2c0,0,0.1,0,0.1,0c0.1,0.1,0.3,0.1,0.4,0.2c0,0,0.1,0.1,0.1,0.1
						c0.1,0,0.2,0.1,0.3,0.1c0.1,0,0.1,0.1,0.2,0.1c0.1,0,0.2,0.1,0.3,0.1c0.1,0,0.1,0.1,0.2,0.1c0.1,0,0.2,0.1,0.3,0.1
						c0.1,0,0.2,0.1,0.2,0.1c0.1,0,0.2,0.1,0.3,0.1c0.1,0,0.2,0.1,0.2,0.1c0.1,0,0.2,0.1,0.3,0.1c0.1,0,0.2,0.1,0.3,0.1
						c0.1,0,0.2,0.1,0.3,0.1c0.1,0,0.2,0.1,0.3,0.1c0.1,0,0.2,0.1,0.3,0.1c0.1,0,0.2,0.1,0.3,0.1c0.1,0,0.2,0.1,0.3,0.1
						c0.1,0,0.2,0.1,0.3,0.1c0.1,0,0.2,0.1,0.3,0.1c0.1,0,0.2,0.1,0.3,0.1c0.1,0,0.2,0.1,0.4,0.1c0.1,0,0.2,0.1,0.3,0.1
						c0.1,0,0.2,0.1,0.4,0.1c0.1,0,0.2,0.1,0.4,0.1c0.1,0,0.3,0.1,0.4,0.1c0.1,0,0.2,0.1,0.4,0.1c0.1,0,0.3,0.1,0.4,0.1
						c0.1,0,0.2,0.1,0.4,0.1c0.1,0,0.3,0.1,0.4,0.1c0.1,0,0.3,0.1,0.4,0.1c0.1,0,0.3,0.1,0.4,0.1c0.1,0,0.3,0.1,0.4,0.1
						c0.2,0,0.3,0.1,0.5,0.1c0.1,0,0.3,0.1,0.4,0.1c0.2,0,0.3,0.1,0.5,0.1c0.1,0,0.3,0.1,0.4,0.1c0.2,0,0.3,0.1,0.5,0.1
						c0.1,0,0.3,0.1,0.4,0.1c0.2,0,0.4,0.1,0.6,0.1c0.1,0,0.3,0,0.4,0.1c0.2,0,0.4,0.1,0.6,0.1c0.1,0,0.3,0,0.4,0.1
						c0.2,0,0.5,0.1,0.7,0.1c0.1,0,0.2,0,0.4,0.1c0.4,0.1,0.7,0.1,1.1,0.2c0.4,0.1,0.8,0.1,1.3,0.2c0.2,0,0.3,0,0.5,0.1
						c0.2,0,0.5,0.1,0.7,0.1c0.2,0,0.4,0,0.6,0c0.2,0,0.4,0,0.6,0.1c0.2,0,0.4,0,0.6,0c0.2,0,0.4,0,0.6,0c0.2,0,0.4,0,0.6,0
						c0.2,0,0.4,0,0.6,0c0.2,0,0.4,0,0.6,0c0.2,0,0.4,0,0.5,0c0.2,0,0.4,0,0.6,0c0.2,0,0.3,0,0.5,0c0.2,0,0.4,0,0.6,0
						c0.2,0,0.3,0,0.5,0c0.2,0,0.4,0,0.6,0c0.2,0,0.3,0,0.5,0c0.2,0,0.4,0,0.6,0c0.2,0,0.3,0,0.5,0c0.2,0,0.4,0,0.6,0
						c0.2,0,0.3,0,0.5,0c0.2,0,0.4,0,0.6,0c0.2,0,0.3,0,0.5,0c0.2,0,0.4,0,0.6-0.1c0.1,0,0.3,0,0.4,0c0.2,0,0.4,0,0.6-0.1
						c0.1,0,0.3,0,0.4-0.1c0.2,0,0.4,0,0.6-0.1c0.1,0,0.3,0,0.4-0.1c0.2,0,0.4-0.1,0.5-0.1c0.1,0,0.3,0,0.4-0.1
						c0.2,0,0.4-0.1,0.5-0.1c0.1,0,0.3,0,0.4-0.1c0.2,0,0.3-0.1,0.5-0.1c0.1,0,0.3-0.1,0.4-0.1c0.2,0,0.3-0.1,0.5-0.1
						c0.1,0,0.3-0.1,0.4-0.1c0.2,0,0.3-0.1,0.5-0.1c0.1,0,0.3-0.1,0.4-0.1c0.2,0,0.3-0.1,0.5-0.1c0.1,0,0.3-0.1,0.4-0.1
						c0.2,0,0.3-0.1,0.5-0.1c0.1,0,0.3-0.1,0.4-0.1c0.1,0,0.3-0.1,0.4-0.1c0.1,0,0.2-0.1,0.4-0.1c0.1,0,0.3-0.1,0.4-0.1
						c0.1,0,0.2-0.1,0.4-0.1c0.1,0,0.3-0.1,0.4-0.1c0.1,0,0.2-0.1,0.4-0.1c0.1,0,0.3-0.1,0.4-0.1c0.1,0,0.2-0.1,0.3-0.1
						c0.1,0,0.3-0.1,0.4-0.1c0.1,0,0.2-0.1,0.3-0.1c0.1,0,0.2-0.1,0.4-0.1c0.1,0,0.2-0.1,0.3-0.1c0.1,0,0.2-0.1,0.4-0.1
						c0.1,0,0.2-0.1,0.3-0.1c0.1,0,0.2-0.1,0.3-0.1c0.1,0,0.2-0.1,0.3-0.1c0.1,0,0.2-0.1,0.3-0.1c0.1,0,0.2-0.1,0.3-0.1
						c0.1,0,0.2-0.1,0.3-0.1c0.1,0,0.1,0,0.1-0.1l5-13.4c-1.1-8.4-4.4-14.3-5.9-16.5c-0.6-0.2-1.2-0.5-1.8-0.7c0,0,0,0,0,0.1
						c0,0.1,0.1,0.2,0.1,0.3c0.1,0.2,0.2,0.4,0.3,0.5c0,0.1,0.1,0.2,0.1,0.3c0.1,0.2,0.1,0.3,0.2,0.5c0,0.1,0.1,0.2,0.1,0.3
						c0.1,0.2,0.1,0.3,0.2,0.4c0,0.1,0.1,0.2,0.1,0.3c0.1,0.1,0.1,0.3,0.2,0.4c0,0.1,0.1,0.2,0.1,0.3c0.1,0.1,0.1,0.3,0.1,0.4
						c0,0.1,0.1,0.2,0.1,0.2c0.1,0.2,0.1,0.3,0.1,0.5c0,0,0,0.1,0,0.1c0.1,0.2,0.1,0.4,0.1,0.6c0,0,0,0.1,0,0.1
						c0,0.1,0.1,0.3,0.1,0.4c0,0.1,0,0.1,0,0.2c0,0.1,0,0.2,0,0.4c0,0.1,0,0.1,0,0.2c0,0.1,0,0.2,0,0.3c0,0.1,0,0.1,0,0.2
						c0,0.1,0,0.2,0,0.3c0,0.1,0,0.1,0,0.2c0,0.1,0,0.2,0,0.3c0,0.1,0,0.1,0,0.2c0,0.1,0,0.2-0.1,0.3c0,0,0,0.1,0,0.1
						c0,0.1-0.1,0.3-0.2,0.4c-0.4,0.9-1.4,1.9-2.6,2.8c-0.2,0.1-0.4,0.3-0.6,0.4c-0.4,0.3-0.9,0.6-1.4,0.9c-1.5,0.8-3.3,1.5-5.3,2
						c-0.1,0-0.3,0.1-0.4,0.1c0,0-0.1,0-0.1,0c-0.1,0-0.2,0-0.3,0.1c0,0-0.1,0-0.1,0c-0.1,0-0.2,0-0.3,0.1c0,0-0.1,0-0.1,0
						c-0.1,0-0.3,0-0.5,0.1c0,0,0,0,0,0c-0.1,0-0.3,0-0.4,0c0,0-0.1,0-0.1,0c-0.1,0-0.2,0-0.3,0c0,0-0.1,0-0.1,0c-0.1,0-0.3,0-0.4,0
						c0,0-0.1,0-0.1,0c-0.2,0-0.3,0-0.5,0c0,0,0,0,0,0c0,0,0,0-0.1,0c-0.2,0-0.3,0-0.5,0c0,0-0.1,0-0.1,0c-0.2,0-0.3,0-0.5,0
						c0,0-0.1,0-0.1,0c-0.2,0-0.4,0-0.6,0c0,0-0.1,0-0.1,0c-0.1,0-0.3,0-0.4-0.1c-0.1,0-0.1,0-0.2,0c-0.2,0-0.4-0.1-0.5-0.1
						c0,0,0,0,0,0c-0.2,0-0.4-0.1-0.6-0.1c-0.1,0-0.1,0-0.2,0c-0.1,0-0.3-0.1-0.4-0.1c-0.1,0-0.1,0-0.2,0c-0.2-0.1-0.4-0.1-0.6-0.2
						c0,0,0,0-0.1,0c-0.2-0.1-0.3-0.1-0.5-0.2c-0.1,0-0.1,0-0.2-0.1c-0.2-0.1-0.3-0.1-0.5-0.2c0,0-0.1,0-0.1-0.1
						c-0.2-0.1-0.4-0.2-0.6-0.3c0,0-0.1,0-0.1-0.1c-0.2-0.1-0.3-0.2-0.5-0.2c-0.1,0-0.1-0.1-0.2-0.1c-0.2-0.1-0.3-0.2-0.5-0.3
						c0,0-0.1,0-0.1-0.1c-0.2-0.1-0.4-0.2-0.6-0.4c-0.1,0-0.1-0.1-0.2-0.1c-0.2-0.1-0.3-0.2-0.5-0.3c-0.1,0-0.1-0.1-0.2-0.1
						c-0.2-0.1-0.4-0.3-0.6-0.5c-0.1-0.1-0.2-0.2-0.3-0.3c0,0-0.1-0.1-0.1-0.1c-0.1-0.1-0.1-0.1-0.2-0.2c0,0-0.1-0.1-0.1-0.1
						c-0.1-0.1-0.1-0.1-0.2-0.2c0,0-0.1-0.1-0.1-0.1c-0.1-0.1-0.1-0.1-0.2-0.2c0-0.1-0.1-0.1-0.1-0.2c-0.1-0.1-0.1-0.1-0.2-0.2
						c0-0.1-0.1-0.1-0.1-0.2c0-0.1-0.1-0.1-0.1-0.2c0-0.1-0.1-0.1-0.1-0.2c0-0.1-0.1-0.1-0.1-0.2c0-0.1-0.1-0.1-0.1-0.2
						c0-0.1-0.1-0.1-0.1-0.2c0-0.1-0.1-0.1-0.1-0.2c0-0.1-0.1-0.2-0.1-0.2c0-0.1-0.1-0.2-0.1-0.2c0-0.1-0.1-0.2-0.1-0.2
						c0-0.1-0.1-0.2-0.1-0.2c0-0.1-0.1-0.2-0.1-0.3c0-0.1-0.1-0.2-0.1-0.3c0-0.1-0.1-0.2-0.1-0.3c0-0.1-0.1-0.2-0.1-0.3
						c0-0.1-0.1-0.2-0.1-0.3c0-0.1-0.1-0.2-0.1-0.3c0-0.1-0.1-0.2-0.1-0.3c0-0.1-0.1-0.2-0.1-0.3c0-0.1-0.1-0.2-0.1-0.3
						c0-0.1-0.1-0.2-0.1-0.3c0-0.1,0-0.2-0.1-0.3c0-0.1,0-0.2-0.1-0.3c0-0.1,0-0.2-0.1-0.3c0-0.1,0-0.2-0.1-0.3c0-0.1,0-0.2-0.1-0.3
						c0-0.1,0-0.2-0.1-0.3c0-0.1,0-0.2-0.1-0.3c0-0.1,0-0.2-0.1-0.3c0-0.1,0-0.2,0-0.3c0-0.1,0-0.2,0-0.4c0-0.1,0-0.2,0-0.4
						c0-0.1,0-0.2,0-0.4c0-0.1,0-0.2,0-0.4c0-0.1,0-0.3,0-0.4c0-0.1,0-0.2,0-0.4c0-0.1,0-0.3,0-0.4c0-0.1,0-0.3,0-0.4
						c0-0.1,0-0.3,0-0.4c0-0.1,0-0.3,0-0.4c0-0.1,0-0.3,0-0.4c0-0.1,0-0.3,0-0.4c0-0.1,0-0.3,0-0.4c0-0.1,0-0.3,0-0.4
						c0-0.1,0-0.3,0-0.4c0-0.1,0-0.3,0-0.4c0-0.1,0-0.3,0-0.4c0-0.1,0-0.3,0-0.4c0-0.1,0-0.3,0-0.4c0-0.1,0-0.3,0-0.5
						c0-0.2,0-0.3,0-0.5c0-0.2,0-0.3,0-0.5c0-0.2,0-0.3,0-0.5c0,0,0-0.1,0-0.1c-16.8-2.8-29.3-0.9-37.2,5.7c-0.3,0.2-0.4,0.6-0.4,1
						c0,0.4,0.2,0.7,0.5,1c2.7,2.2,8.8,6.5,19.3,10.4c0,0,0,0,0,0c0,0,0.1,0,0.1,0c0.1,0,0.2,0.1,0.4,0.1c6.1,2.2,29.3,7.5,29.7,8.2
						c0.6,0.1,1,0.2,1,0.2S944.4,149.9,945.4,151.4z"/>
					<path class="st4" d="M1027.7,133.2c-18.7-16.9-40.1-17.6-54.7-15.2c-10,1.6-18.3,4.9-23.2,7.1c1.5,0.5,3,1,4.5,1.5l0,0l1.8,0.7
						l0.3,0.1v0c0.6,0.2,1.2,0.5,1.8,0.7l6-1.6l0.3,0.4c0.4,0.4,0.7,0.9,1,1.5c1.2-0.2,3.2-0.2,5,0.8c1.7,0.9,2.8,2.5,3.5,4.7
						c1.6,5.8-2.2,8.4-3.7,9.2c0.2,1.2,0.4,2,0.4,2.1l0.1,0.4l-5.1,4.1l-3.6,9.6l-2.6,7.1l4.4,2.6l-0.4,0.3
						c-1.7,0.8-3.4,1.5-5.1,2.3c-0.1,0.1-0.2,0.1-0.4,0.2c-0.6,0.3-1.3,0.6-1.9,0.8c-0.1,0-0.1,0.1-0.2,0.1c-0.5,0.2-1,0.4-1.4,0.6
						c-2.5,1.1-4.8,2.2-7,3.2c-3.9,1.8-7.3,3.3-9.9,4.6c-0.9-0.4-1.8-0.7-2.8-1.1c-8.4-3.3-18-7-26.3-10.2c-0.6-0.2-1.3-0.5-1.9-0.7
						c-1.2-0.5-2.5-1-3.8-1.3c-1.1-0.2-2.6-0.7-2.7-1.9l-1.1-0.7c-0.2,0.1-0.4,0.2-0.6,0.4c-0.3,0.2-0.5,0.3-0.7,0.5
						c-0.1,0-0.3-0.1-0.4-0.2c-1,1.4-2.6,3.5-3.8,5.3l12.1,5.8l1.1-6.1c0,0,0,0,0.7,0.2c0.2,0.1,0.5,0.2,0.7,0.3
						c7.9,3,16.6,6.3,24.7,9.3c1.5,0.6,3,1.1,4.5,1.7c4.5-2.1,10.2-4.7,16.5-7.5l3.4-0.9l-1,2.6c1.2,10.2,3.8,18.1,7.9,23.7l1.2-1.1
						l0.7,3.5c1.6,1.7,3.4,3.2,5.3,4.3c14.8,8.7,37.2-1.6,46.7-6c11.1-5.1,24.9-16.3,27.1-31.2
						C1047,157.5,1041.1,145.3,1027.7,133.2z"/>
					<path class="st4" d="M946.7,201.1l3.5,11.9l12.8-12c-3.9-5.3-6.6-12.6-7.9-21.8L946.7,201.1z"/>
					<path class="st4" d="M939.2,134.5c0.4,2.4,2.9,4.2,5.8,4.2c3.2,0,5.9-2.2,5.9-4.9c0-0.4-0.1-0.8-0.2-1.2L939.2,134.5z"/>
					<path class="st4" d="M895.9,165.2L895.9,165.2c-0.1-0.1-0.1-0.1-0.2-0.1c-0.1,0-0.1-0.1-0.2-0.1c0,0-0.1,0-0.1-0.1
						c-0.1-0.1-0.2-0.1-0.2-0.2c0,0,0,0,0,0c-0.4-0.3-0.8-0.6-1.1-0.9c0,0-0.1-0.1-0.1-0.1c0,0-0.1-0.1-0.1-0.1
						c-0.1-0.1-0.1-0.2-0.2-0.2l-0.1,0.1v0l-4.6,2.6c0.4,0.7,1.1,2,1.2,3.5l0,0v0.5c0,0,0,0,0,0c0,0.2,0,0.3,0,0.5
						c-0.1,1,0.1,1.9,0.3,2.6c0.2-0.4,0.6-1.1,1.2-2.1l0.4-0.5l0,0C893.3,168.6,894.9,166.6,895.9,165.2L895.9,165.2z"/>
					<g>
						<g>
							<path d="M1043.6,150.9c0,0-0.1-0.1-0.1-0.1c-0.5-1.1-1.1-2.1-1.7-3.2c-0.7-1.3-1.5-2.5-2.4-3.8c-1-1.4-2.2-2.9-3.4-4.3
								c-2.1-2.5-4.5-5-7.3-7.4c-4.2-3.8-8.8-7-13.6-9.5c-0.1,0-0.2-0.1-0.3-0.1c-2.3-1.2-4.7-2.2-7.1-3.1c-0.1,0-0.2,0-0.2-0.1
								c-2.5-0.9-5-1.6-7.6-2.2c-1.8-0.4-3.6-0.7-5.4-0.9c-3.6-0.5-7.4-0.7-11.2-0.6c-3.5,0.1-7,0.4-10.6,1c-8,1.3-15,3.7-20,5.7
								c-2,0.8-3.7,1.6-5,2.2c-5.5-1.7-10.7-2.9-15.7-3.8v0l0,0l-0.2,0l-0.5-0.1c0,0,0,0,0,0l-0.3-0.1l-0.5-0.1v0l0,0
								c-5.4-0.9-10.3-1.3-14.8-1.3c-9.7,0.1-17.4,2.5-23,7.1c-0.1,0.1-0.2,0.2-0.3,0.3c0,0,0,0,0,0c-0.3,0.2-0.5,0.5-0.6,0.8
								c0,0,0,0.1-0.1,0.1c0,0,0,0.1,0,0.1c-0.1,0.3-0.2,0.7-0.2,1.1c0,0.8,0.4,1.6,1,2.1c1.3,1.1,3.3,2.6,6.2,4.3
								c0.3,0.2,0.6,0.4,1,0.6c0.4,0.2,0.8,0.4,1.2,0.6c2.9,1.6,6.4,3.3,10.7,4.9l0,0c0.2,0.1,0.4,0.1,0.5,0.2
								c6.1,2.2,26.1,6.2,30.8,7.1c-0.4-0.7-23.6-6-29.7-8.2c-0.1,0-0.2-0.1-0.4-0.1c0,0-0.1,0-0.1,0c0,0,0,0,0,0
								c-10.6-3.9-16.7-8.2-19.3-10.4c-0.3-0.2-0.5-0.6-0.5-1c0-0.4,0.2-0.7,0.4-1c7.9-6.6,20.4-8.6,37.2-5.7c0,0,0,0.1,0,0.1
								c0,0.2,0,0.3,0,0.5c0,0.2,0,0.3,0,0.5c0,0.2,0,0.3,0,0.5c0,0.2,0,0.3,0,0.5c0,0.2,0,0.3,0,0.4c0,0.1,0,0.3,0,0.4
								c0,0.1,0,0.3,0,0.4c0,0.1,0,0.3,0,0.4c0,0.1,0,0.3,0,0.4c0,0.1,0,0.3,0,0.4c0,0.1,0,0.3,0,0.4c0,0.1,0,0.3,0,0.4
								c0,0.1,0,0.3,0,0.4c0,0.1,0,0.3,0,0.4c0,0.1,0,0.3,0,0.4c0,0.1,0,0.3,0,0.4c0,0.1,0,0.3,0,0.4c0,0.1,0,0.3,0,0.4
								c0,0.1,0,0.3,0,0.4c0,0.1,0,0.2,0,0.4c0,0.1,0,0.2,0,0.4c0,0.1,0,0.2,0,0.4c0,0.1,0,0.2,0,0.4c0,0.1,0,0.2,0,0.3
								c0,0.1,0,0.2,0.1,0.3c0,0.1,0,0.2,0.1,0.3c0,0.1,0,0.2,0.1,0.3c0,0.1,0,0.2,0.1,0.3c0,0.1,0,0.2,0.1,0.3c0,0.1,0,0.2,0.1,0.3
								c0,0.1,0,0.2,0.1,0.3c0,0.1,0,0.2,0.1,0.3c0,0.1,0,0.2,0.1,0.3c0,0.1,0.1,0.2,0.1,0.3c0,0.1,0.1,0.2,0.1,0.3
								c0,0.1,0.1,0.2,0.1,0.3c0,0.1,0.1,0.2,0.1,0.3c0,0.1,0.1,0.2,0.1,0.3c0,0.1,0.1,0.2,0.1,0.3c0,0.1,0.1,0.2,0.1,0.3
								c0,0.1,0.1,0.2,0.1,0.3c0,0.1,0.1,0.2,0.1,0.3c0,0.1,0.1,0.2,0.1,0.2c0,0.1,0.1,0.2,0.1,0.2c0,0.1,0.1,0.2,0.1,0.2
								c0,0.1,0.1,0.2,0.1,0.2c0,0.1,0.1,0.1,0.1,0.2c0,0.1,0.1,0.2,0.1,0.2c0,0.1,0.1,0.1,0.1,0.2c0,0.1,0.1,0.1,0.1,0.2
								c0,0.1,0.1,0.1,0.1,0.2c0,0.1,0.1,0.1,0.1,0.2c0,0.1,0.1,0.1,0.1,0.2c0,0.1,0.1,0.1,0.2,0.2c0,0.1,0.1,0.1,0.1,0.2
								c0.1,0.1,0.1,0.1,0.2,0.2c0,0,0.1,0.1,0.1,0.1c0.1,0.1,0.1,0.1,0.2,0.2c0,0,0.1,0.1,0.1,0.1c0.1,0.1,0.1,0.1,0.2,0.2
								c0,0,0.1,0.1,0.1,0.1c0.1,0.1,0.2,0.2,0.3,0.3c0.2,0.2,0.4,0.3,0.6,0.5c0.1,0,0.1,0.1,0.2,0.1c0.2,0.1,0.3,0.2,0.5,0.3
								c0.1,0,0.1,0.1,0.2,0.1c0.2,0.1,0.4,0.3,0.6,0.4c0,0,0.1,0,0.1,0.1c0.2,0.1,0.3,0.2,0.5,0.3c0.1,0,0.1,0.1,0.2,0.1
								c0.2,0.1,0.3,0.2,0.5,0.2c0,0,0.1,0,0.1,0.1c0.2,0.1,0.4,0.2,0.6,0.3c0,0,0.1,0,0.1,0.1c0.2,0.1,0.3,0.1,0.5,0.2
								c0.1,0,0.1,0,0.2,0.1c0.2,0.1,0.3,0.1,0.5,0.2c0,0,0,0,0.1,0c0.2,0.1,0.4,0.1,0.6,0.2c0.1,0,0.1,0,0.2,0
								c0.1,0,0.3,0.1,0.4,0.1c0.1,0,0.1,0,0.2,0c0.2,0,0.4,0.1,0.6,0.1c0,0,0,0,0,0c0.2,0,0.4,0.1,0.5,0.1c0.1,0,0.1,0,0.2,0
								c0.1,0,0.3,0,0.4,0.1c0,0,0.1,0,0.1,0c0.2,0,0.4,0,0.6,0c0,0,0.1,0,0.1,0c0.2,0,0.3,0,0.5,0c0,0,0.1,0,0.1,0
								c0.2,0,0.3,0,0.5,0c0,0,0,0,0.1,0c0,0,0,0,0,0c0.2,0,0.3,0,0.5,0c0,0,0.1,0,0.1,0c0.1,0,0.3,0,0.4,0c0,0,0.1,0,0.1,0
								c0.1,0,0.2,0,0.3,0c0,0,0.1,0,0.1,0c0.1,0,0.3,0,0.4,0c0,0,0,0,0,0c0.2,0,0.3,0,0.5-0.1c0,0,0.1,0,0.1,0c0.1,0,0.2,0,0.3-0.1
								c0,0,0.1,0,0.1,0c0.1,0,0.2,0,0.3-0.1c0,0,0.1,0,0.1,0c0.1,0,0.3-0.1,0.4-0.1c1.9-0.4,3.7-1.1,5.3-2c0.5-0.3,1-0.6,1.4-0.9
								c0.2-0.1,0.4-0.3,0.6-0.4c1.3-0.9,2.2-1.9,2.6-2.8c0.1-0.1,0.1-0.2,0.2-0.4c0,0,0-0.1,0-0.1c0-0.1,0.1-0.2,0.1-0.3
								c0-0.1,0-0.1,0-0.2c0-0.1,0-0.2,0-0.3c0-0.1,0-0.1,0-0.2c0-0.1,0-0.2,0-0.3c0-0.1,0-0.1,0-0.2c0-0.1,0-0.2,0-0.3
								c0-0.1,0-0.1,0-0.2c0-0.1,0-0.2,0-0.4c0-0.1,0-0.1,0-0.2c0-0.1,0-0.3-0.1-0.4c0,0,0-0.1,0-0.1c0-0.2-0.1-0.4-0.1-0.6
								c0,0,0-0.1,0-0.1c0-0.2-0.1-0.3-0.1-0.5c0-0.1,0-0.2-0.1-0.2c0-0.1-0.1-0.3-0.1-0.4c0-0.1-0.1-0.2-0.1-0.3
								c-0.1-0.1-0.1-0.3-0.2-0.4c0-0.1-0.1-0.2-0.1-0.3c-0.1-0.1-0.1-0.3-0.2-0.4c0-0.1-0.1-0.2-0.1-0.3c-0.1-0.2-0.1-0.3-0.2-0.5
								c0-0.1-0.1-0.2-0.1-0.3c-0.1-0.2-0.2-0.4-0.3-0.5c0-0.1-0.1-0.2-0.1-0.3c0,0,0,0,0-0.1c0.6,0.2,1.2,0.5,1.8,0.7
								c1.4,2.2,4.7,8.1,5.9,16.5l-5,13.4c0,0-0.1,0-0.1,0.1c-0.1,0-0.2,0.1-0.3,0.1c-0.1,0-0.2,0.1-0.3,0.1c-0.1,0-0.2,0.1-0.3,0.1
								c-0.1,0-0.2,0.1-0.3,0.1c-0.1,0-0.2,0.1-0.3,0.1c-0.1,0-0.2,0.1-0.3,0.1c-0.1,0-0.2,0.1-0.4,0.1c-0.1,0-0.2,0.1-0.3,0.1
								c-0.1,0-0.2,0.1-0.4,0.1c-0.1,0-0.2,0.1-0.3,0.1c-0.1,0-0.3,0.1-0.4,0.1c-0.1,0-0.2,0.1-0.3,0.1c-0.1,0-0.3,0.1-0.4,0.1
								c-0.1,0-0.2,0.1-0.4,0.1c-0.1,0-0.3,0.1-0.4,0.1c-0.1,0-0.2,0.1-0.4,0.1c-0.1,0-0.3,0.1-0.4,0.1c-0.1,0-0.2,0.1-0.4,0.1
								c-0.1,0-0.3,0.1-0.4,0.1c-0.1,0-0.3,0.1-0.4,0.1c-0.2,0-0.3,0.1-0.5,0.1c-0.1,0-0.3,0.1-0.4,0.1c-0.2,0-0.3,0.1-0.5,0.1
								c-0.1,0-0.3,0.1-0.4,0.1c-0.2,0-0.3,0.1-0.5,0.1c-0.1,0-0.3,0.1-0.4,0.1c-0.2,0-0.3,0.1-0.5,0.1c-0.1,0-0.3,0.1-0.4,0.1
								c-0.2,0-0.3,0.1-0.5,0.1c-0.1,0-0.3,0-0.4,0.1c-0.2,0-0.3,0.1-0.5,0.1c-0.1,0-0.3,0-0.4,0.1c-0.2,0-0.4,0.1-0.5,0.1
								c-0.1,0-0.3,0-0.4,0.1c-0.2,0-0.4,0.1-0.6,0.1c-0.1,0-0.3,0-0.4,0.1c-0.2,0-0.4,0-0.6,0.1c-0.1,0-0.3,0-0.4,0
								c-0.2,0-0.4,0-0.6,0.1c-0.2,0-0.3,0-0.5,0c-0.2,0-0.4,0-0.6,0c-0.2,0-0.3,0-0.5,0c-0.2,0-0.4,0-0.6,0c-0.2,0-0.3,0-0.5,0
								c-0.2,0-0.4,0-0.6,0c-0.2,0-0.3,0-0.5,0c-0.2,0-0.4,0-0.6,0c-0.2,0-0.3,0-0.5,0c-0.2,0-0.4,0-0.6,0c-0.2,0-0.3,0-0.5,0
								c-0.2,0-0.4,0-0.6,0c-0.2,0-0.4,0-0.5,0c-0.2,0-0.4,0-0.6,0c-0.2,0-0.4,0-0.6,0c-0.2,0-0.4,0-0.6,0c-0.2,0-0.4,0-0.6,0
								c-0.2,0-0.4,0-0.6,0c-0.2,0-0.4,0-0.6-0.1c-0.2,0-0.4,0-0.6,0c-0.2,0-0.5,0-0.7-0.1c-0.2,0-0.3,0-0.5-0.1
								c-0.4,0-0.8-0.1-1.3-0.2c-0.4,0-0.7-0.1-1.1-0.2c-0.1,0-0.2,0-0.4-0.1c-0.2,0-0.5-0.1-0.7-0.1c-0.1,0-0.3,0-0.4-0.1
								c-0.2,0-0.4-0.1-0.6-0.1c-0.1,0-0.3,0-0.4-0.1c-0.2,0-0.4-0.1-0.6-0.1c-0.1,0-0.3-0.1-0.4-0.1c-0.2,0-0.4-0.1-0.5-0.1
								c-0.1,0-0.3-0.1-0.4-0.1c-0.2,0-0.3-0.1-0.5-0.1c-0.1,0-0.3-0.1-0.4-0.1c-0.2,0-0.3-0.1-0.5-0.1c-0.1,0-0.3-0.1-0.4-0.1
								c-0.1,0-0.3-0.1-0.4-0.1c-0.1,0-0.3-0.1-0.4-0.1c-0.1,0-0.3-0.1-0.4-0.1c-0.1,0-0.3-0.1-0.4-0.1c-0.1,0-0.3-0.1-0.4-0.1
								c-0.1,0-0.2-0.1-0.4-0.1c-0.1,0-0.3-0.1-0.4-0.1c-0.1,0-0.2-0.1-0.4-0.1c-0.1,0-0.2-0.1-0.4-0.1c-0.1,0-0.2-0.1-0.3-0.1
								c-0.1,0-0.2-0.1-0.4-0.1c-0.1,0-0.2-0.1-0.3-0.1c-0.1,0-0.2-0.1-0.3-0.1c-0.1,0-0.2-0.1-0.3-0.1c-0.1,0-0.2-0.1-0.3-0.1
								c-0.1,0-0.2-0.1-0.3-0.1c-0.1,0-0.2-0.1-0.3-0.1c-0.1,0-0.2-0.1-0.3-0.1c-0.1,0-0.2-0.1-0.3-0.1c-0.1,0-0.2-0.1-0.3-0.1
								c-0.1,0-0.2-0.1-0.3-0.1c-0.1,0-0.2-0.1-0.2-0.1c-0.1,0-0.2-0.1-0.3-0.1c-0.1,0-0.2-0.1-0.2-0.1c-0.1,0-0.2-0.1-0.3-0.1
								c-0.1,0-0.1-0.1-0.2-0.1c-0.1,0-0.2-0.1-0.3-0.1c-0.1,0-0.1-0.1-0.2-0.1c-0.1,0-0.2-0.1-0.3-0.1c0,0-0.1-0.1-0.1-0.1
								c-0.1-0.1-0.3-0.1-0.4-0.2c0,0-0.1,0-0.1,0c-0.1-0.1-0.2-0.1-0.3-0.2c0,0-0.1-0.1-0.1-0.1c-0.1,0-0.2-0.1-0.2-0.1
								c0,0-0.1-0.1-0.1-0.1c-0.1,0-0.1-0.1-0.2-0.1c0,0-0.1-0.1-0.1-0.1c-0.1,0-0.1-0.1-0.2-0.1c0,0-0.1-0.1-0.1-0.1
								c-0.1,0-0.1-0.1-0.2-0.1c0,0-0.1-0.1-0.1-0.1c-0.1,0-0.1-0.1-0.2-0.1c0,0-0.1-0.1-0.1-0.1c0,0-0.1-0.1-0.1-0.1
								c0,0-0.1-0.1-0.1-0.1c0,0-0.1,0-0.1-0.1l0.7-3.9c0,0,0,0,0,0c0.2,0.1,0.5,0.3,0.7,0.4c0.1,0,0.1,0.1,0.2,0.1
								c0.2,0.1,0.5,0.2,0.7,0.4c0,0,0.1,0,0.1,0c0.3,0.1,0.5,0.2,0.8,0.4c0.1,0,0.1,0.1,0.2,0.1c0.1,0,0.2,0.1,0.2,0.1l0,0l0.6,0.2
								l0.8,0.3l0,0c1.1,0.4,2.1,0.7,3.2,0.9l0,0l0.8,0.1l0.7,0.1l0,0c0,0,0.1,0,0.1,0c0.1,0,0.1,0,0.2,0c0.2,0,0.5,0.1,0.7,0.1
								c0,0,0.1,0,0.1,0c0.3,0,0.5,0,0.8,0c0.1,0,0.1,0,0.2,0c0.2,0,0.5,0,0.7,0c0,0,0.1,0,0.1,0c0,0,0,0,0,0c0.1,0,0.2,0,0.4,0l0,0
								l0.9-0.1l0.6,0l0,0c0.9-0.1,1.7-0.2,2.6-0.4c0.3-0.1,0.6-0.1,0.9-0.2l0,0l1.1-0.3l0.5-0.1l0,0c0.1,0,0.2-0.1,0.3-0.1
								c0.1,0,0.2-0.1,0.3-0.1c0.2-0.1,0.3-0.1,0.5-0.2c0.1,0,0.2-0.1,0.3-0.1c0.2-0.1,0.3-0.1,0.5-0.2c0.1,0,0.2-0.1,0.3-0.1
								c0.1-0.1,0.3-0.1,0.4-0.2c0.1,0,0.2-0.1,0.3-0.1c0.1-0.1,0.3-0.1,0.4-0.2c0.1,0,0.2-0.1,0.3-0.2c0.1-0.1,0.3-0.1,0.4-0.2
								c0.1-0.1,0.2-0.1,0.4-0.2c0.1-0.1,0.3-0.1,0.4-0.2c0.1-0.1,0.2-0.1,0.4-0.2c0.1,0,0.1-0.1,0.2-0.1c-0.6-0.3-1.1-0.6-1.7-0.8
								c-0.2,0.1-0.4,0.2-0.6,0.3c-0.1,0-0.2,0.1-0.2,0.1c-0.3,0.1-0.6,0.2-0.8,0.4c-0.1,0-0.1,0-0.2,0.1c-0.2,0.1-0.5,0.2-0.7,0.3
								c-0.1,0-0.2,0.1-0.3,0.1c-0.2,0.1-0.4,0.1-0.6,0.2c-0.1,0-0.1,0-0.2,0l0.5-2.8c-0.5-0.2-0.9-0.4-1.4-0.6l-0.7,3.9
								c0,0,0,0-0.1,0c-0.3,0.1-0.5,0.1-0.8,0.2c-0.1,0-0.1,0-0.2,0c-0.2,0-0.4,0.1-0.6,0.1c-0.1,0-0.1,0-0.2,0
								c-0.3,0-0.5,0.1-0.8,0.1c0,0,0,0,0,0c-0.2,0-0.5,0.1-0.7,0.1c0,0-0.1,0-0.1,0l1-5.7c-0.5-0.2-1-0.3-1.4-0.5l-0.2,1.1l-1,5.2
								c0,0,0,0,0,0c-0.3,0-0.5,0-0.8,0c-0.1,0-0.1,0-0.2,0c-0.2,0-0.4,0-0.6,0c0,0-0.1,0-0.1,0c-0.2,0-0.5,0-0.7,0
								c-0.1,0-0.1,0-0.2,0c-0.2,0-0.4,0-0.6-0.1c0,0-0.1,0-0.1,0l0.7-3.8l0.6-3.5c-0.2,0-0.3-0.1-0.5-0.2c-0.3-0.1-0.6-0.2-0.9-0.3
								l-1.3,7.4c0,0-0.1,0-0.1,0c-0.2,0-0.4-0.1-0.6-0.1c-0.1,0-0.1,0-0.2,0c-0.2-0.1-0.5-0.1-0.7-0.2c0,0-0.1,0-0.1,0
								c-0.2-0.1-0.4-0.1-0.6-0.2c-0.1,0-0.1,0-0.2-0.1c-0.2-0.1-0.4-0.1-0.7-0.2c0,0,0,0,0,0l1.2-6.3l0.2-1c-0.4-0.1-0.7-0.2-1-0.2
								c-0.1,0-0.3-0.1-0.4-0.1l-1.2,6.9l0,0.2c0,0-0.1,0-0.1,0c-0.2-0.1-0.4-0.2-0.6-0.3c0,0,0,0-0.1,0c-0.2-0.1-0.4-0.2-0.6-0.3
								c-0.1,0-0.1-0.1-0.2-0.1c-0.2-0.1-0.3-0.2-0.5-0.3c-0.1,0-0.1-0.1-0.2-0.1c-0.2-0.1-0.4-0.2-0.6-0.4c0,0,0,0,0,0l1.1-6
								c-0.5-0.1-1-0.1-1.5-0.2l-0.6,3.4l-0.6,3.4l-0.6,3.4c0,0,0,0.2,0,0.2c0,0,0,0,0,0c0,0.2,0.1,1.1,0.1,1.8c0,0.1,0,0.2,0,0.3
								c0,0.3,0,0.5,0,0.9c0,0.4,0,0.6,0,0.9c0,0.3,0,0.5,0,0.7c0,0.2,0,0.3,0,0.5c0,0.2,0,0.4,0,0.6c0,0.2,0,0.3,0,0.5
								c0.1,1.9,0.2,3.7,0.2,3.9c1.9,0.6,4.8,1.5,7.5,2.4c0.2,0.1,0.4,0.1,0.6,0.2c0.5,0.2,1,0.3,1.5,0.5c1.5,0.5,2.8,0.9,3.9,1.3
								c0,0,0,0,0,0c0.2,0.1,0.5,0.1,0.7,0.2c1.2,0.4,2.7,0.9,4.2,1.4c1.6,0.5,3.3,1.1,4.8,1.6c0.6,0.2,1.2,0.4,1.7,0.6
								c0.3,0.1,0.6,0.2,0.8,0.3c0.5,0.2,1,0.3,1.4,0.5c3.3-2.2,6.6-4.4,9.8-6.6c-0.6,0.4-1.2,0.9-1.8,1.3c-2.7,1.9-5.3,3.9-8,5.8
								l-0.1,0l0,0l-3.5-1l-3.5-1c-2-0.6-4.3-1.3-6.6-2c-0.6-0.2-1.2-0.4-1.8-0.5c-1.6-0.5-3.3-1-4.9-1.5c-2.7-0.8-5.4-1.6-7.7-2.3
								c0,0-0.3-0.1-0.4-0.1c0,0,0,0,0,0l0-0.4l-0.3-4.7l-0.4-5.8c-0.2-0.4-0.4-1-0.8-1.5c-0.5-0.7-1.2-1.3-2.3-1.6
								c-0.2-0.1-0.4-0.1-0.6-0.2c-0.4-0.1-0.8-0.2-1.2-0.1c-0.3,0-0.5,0.1-0.7,0.1c-0.2,0.1-0.4,0.2-0.6,0.3
								c-0.2,0.2-0.3,0.4-0.4,0.5c-0.1,0.2-0.2,0.4-0.2,0.6c-0.5,0-1.2,0.1-1.9,0.4c-0.5,0.1-1,0.3-1.4,0.6
								c-0.2,0.1-0.4,0.3-0.6,0.5c-0.4,0.4-0.6,0.8-0.7,1.3c-0.1,0-0.2,0.1-0.3,0.2c-1.1,0.7-3.3,2.2-3.2,4.2l-0.1,0v0l-3.1,1.8
								l-2.5,1.4l-0.8,0.4l0.5,0.7c0,0,0,0,0,0c0.1,0.1,0.2,0.2,0.3,0.5c0.3,0.5,0.6,1.1,0.8,2l-0.6-0.3l-0.6-0.3l0,0.4l0.8,21.5
								c-2.9-2.5-9.8-8-14.9-7.6c-1.2,0.1-2.2,0.5-3.1,1.3l-0.4,0.3l-0.3,0.3l16.8,12.7l6.9,5.3l2.6-21.3l23.1,12.8l15.4,8.5
								l12.8,26l13.8-16.9c0.6,4.6,2.9,16.6,9.3,16.6c0,0,0.1,0,0.1,0l0.9,0l-4.7-23.1c0.3,0.3,0.6,0.5,0.9,0.8c1,0.8,2,1.6,3.1,2.2
								c4.1,2.4,9,3.6,14.6,3.6c1.6,0,3.2-0.1,4.9-0.3c0.1,0,0.3,0,0.4-0.1c1.7-0.2,3.4-0.5,5.1-0.9c2.8-0.6,5.6-1.4,8.4-2.4
								c5.2-1.8,10.2-3.9,14.6-6c1-0.4,2-1,3-1.5c5.6-3,11.5-7.3,16.2-12.8c4.4-5.1,7.8-11.2,8.8-18
								C1047.6,163.5,1046.6,157.2,1043.6,150.9z M945,138.7c-2.9,0-5.4-1.8-5.8-4.2l11.5-1.9c0.1,0.4,0.2,0.8,0.2,1.2
								C950.9,136.5,948.2,138.7,945,138.7z M892.2,170.4L892.2,170.4l-0.4,0.5c-0.7,1-1,1.7-1.2,2.1c-0.2-0.6-0.4-1.6-0.3-2.6
								c0-0.2,0-0.3,0-0.5c0,0,0,0,0,0v-0.5l0,0c-0.1-1.5-0.7-2.8-1.2-3.5l4.6-2.6v0l0.1-0.1c0.1,0.1,0.1,0.2,0.2,0.2
								c0,0,0.1,0.1,0.1,0.1c0,0,0.1,0.1,0.1,0.1c0.3,0.3,0.6,0.6,1.1,0.9c0,0,0,0,0,0c0.1,0.1,0.2,0.1,0.2,0.2c0,0,0.1,0,0.1,0.1
								c0.1,0,0.1,0.1,0.2,0.1c0.1,0,0.1,0.1,0.2,0.1l0,0l0,0C894.9,166.6,893.3,168.6,892.2,170.4z M950.3,213l-3.5-11.9l8.4-21.9
								c1.4,9.2,4,16.5,7.9,21.8L950.3,213z M1045.2,169.5c-2.3,14.8-16,26.1-27.1,31.2c-9.5,4.4-31.9,14.7-46.7,6
								c-2-1.1-3.7-2.6-5.3-4.3l-0.7-3.5l-1.2,1.1c-4.1-5.6-6.7-13.5-7.9-23.7l1.4-3.6l-3.8,2c-6.3,2.9-12,5.5-16.5,7.5
								c-1.5-0.5-3-1.1-4.5-1.7c-8-3-16.8-6.2-24.7-9.3c-0.2-0.1-0.5-0.2-0.7-0.3c-0.7-0.3-0.7-0.2-0.7-0.2l-1.1,6.1l-12.1-5.8
								c1.2-1.8,2.7-3.9,3.8-5.3c0.1,0.1,0.2,0.1,0.4,0.2c0.2-0.2,0.5-0.4,0.7-0.5c0.2-0.1,0.4-0.2,0.6-0.4l1.1,0.7
								c0.1,1.2,1.6,1.7,2.7,1.9c1.3,0.3,2.6,0.8,3.8,1.3c0.6,0.2,1.3,0.5,1.9,0.7c8.4,3.2,17.9,6.9,26.3,10.2
								c0.9,0.4,1.9,0.7,2.8,1.1c2.7-1.3,6.1-2.9,9.9-4.6c2.2-1,4.5-2.1,7-3.2c0.5-0.2,1-0.4,1.4-0.6c0.1,0,0.1-0.1,0.2-0.1
								c0.6-0.3,1.3-0.6,1.9-0.8c0.1-0.1,0.2-0.1,0.4-0.2c1.7-0.7,3.4-1.5,5.1-2.3l0.4-0.3l-4.4-2.6l2.6-7.1l3.6-9.6l5.1-4.1
								l-0.1-0.4c0-0.1-0.2-0.9-0.4-2.1c1.5-0.8,5.3-3.4,3.7-9.2c-0.6-2.2-1.8-3.8-3.5-4.7c-1.8-1-3.7-0.9-5-0.8
								c-0.3-0.6-0.7-1.1-1-1.5l-0.3-0.4l-6,1.6c-0.6-0.2-1.2-0.4-1.8-0.7v0l-0.3-0.1l-1.8-0.7l0,0c-1.5-0.5-3-1-4.5-1.5
								c4.8-2.2,13.1-5.5,23.2-7.1c14.6-2.4,36-1.7,54.7,15.2C1041.1,145.3,1047,157.5,1045.2,169.5z"/>
						</g>
					</g>
					<path class="st5" d="M922,147.8l-0.1,0.3c1,0.3,2.1,0.6,3.2,1l0.1-0.3C924.2,148.4,923.1,148.1,922,147.8z"/>
					<path class="st5" d="M917.3,146.5l-0.1,0.3c1,0.2,2.1,0.5,3.2,0.8l0.1-0.3C919.5,147,918.4,146.8,917.3,146.5z"/>
					<path class="st5" d="M912.8,145.8l-0.1,0.3c1,0.1,2,0.3,3.1,0.5l0.1-0.3C914.8,146.1,913.8,145.9,912.8,145.8z"/>
					<polygon class="st5" points="911.5,141.1 911.5,141.1 911.5,141.1 					"/>
					<path class="st5" d="M934.3,152.8c-1-0.5-2.1-1.1-3.1-1.5l0,0.2c0.2,0.1,0.4,0.2,0.5,0.2c0.8,0.4,1.7,0.8,2.5,1.2c0,0,0,0,0,0
						C934.3,152.8,934.3,152.8,934.3,152.8z"/>
					<path class="st5" d="M926.7,149.3l0,0.3c0,0,0,0,0,0c1,0.4,2.1,0.8,3.1,1.2l0-0.2C928.8,150.2,927.7,149.7,926.7,149.3z"/>
					<path class="st6" d="M952.6,149.4c-2.1,2.1-4,3-5.7,2.6c-0.5-0.1-1-0.4-1.5-0.7c-1.2-0.8-2-2.1-2.5-3
						c-4.7-0.9-24.7-4.9-30.8-7.1c-0.2-0.1-0.4-0.1-0.5-0.2l0,0c-1.1,0.5-2.3,0.9-3.3,1.2c-1,0.2-1.9,0.3-2.3,0.1
						c-0.2-0.1-0.4-0.2-0.6-0.3c-1.2-0.7-2-1.9-2.2-2.2c0,0,0-0.1,0-0.1l-0.1-0.2l0,0l-0.1,0.2c-0.2,1-0.2,1.9,0.1,2.6
						c0.1,0.3,0.3,0.6,0.5,0.8c0.2,0.2,0.4,0.4,0.6,0.5c2.4,2,7.3,2.1,7.3,2.1c0.5,0,1,0.1,1.5,0.2l0.1-0.3c1,0.1,2,0.3,3.1,0.5
						l-0.1,0.3c0.1,0,0.3,0.1,0.4,0.1c0.3,0.1,0.7,0.1,1,0.2l0.1-0.3c1.1,0.2,2.2,0.5,3.2,0.8l-0.1,0.3c0.3,0.1,0.6,0.2,0.9,0.3
						c0.2,0,0.3,0.1,0.5,0.2l0.1-0.3c1.1,0.3,2.1,0.7,3.2,1.1l-0.1,0.3c0.5,0.2,0.9,0.3,1.4,0.5l0-0.3c1.1,0.4,2.1,0.8,3.2,1.3
						l0,0.2c0.5,0.2,0.9,0.4,1.4,0.6l0-0.2c1,0.5,2.1,1,3.1,1.5c0,0-0.1,0-0.1,0.1c0,0,0,0,0,0c0.6,0.3,1.1,0.6,1.7,0.8
						c0,0,0,0,0.1,0c0.2,0.1,0.4,0.2,0.6,0.3c3.9,2.3,7.6,2.9,10.8,1.9c1-0.3,1.9-0.8,2.6-1.3c2.6-1.8,3.8-4.2,3.9-4.4l1.9-4
						L952.6,149.4z"/>
				</g>
			</g>
		</g>
	</g>
	<g>
		<g>
			<path d="M278.2,460.8v25h-1.9v-22.2l-9.2,15.4h-0.3l-9.2-15.4v22.2h-1.9v-25h2.4l8.9,14.8l8.9-14.8H278.2z"/>
			<path d="M292.3,486.2c-2.6,0-4.8-0.9-6.7-2.7c-1.8-1.8-2.7-4-2.7-6.6c0-2.6,0.9-4.8,2.7-6.6c1.8-1.8,4-2.7,6.7-2.7
				c2.6,0,4.8,0.9,6.6,2.7c1.8,1.8,2.7,4,2.7,6.6c0,2.6-0.9,4.8-2.7,6.6S294.9,486.2,292.3,486.2z M286.9,482.3
				c1.5,1.5,3.3,2.2,5.4,2.2c2.1,0,3.9-0.7,5.4-2.2c1.5-1.5,2.2-3.3,2.2-5.4c0-2.1-0.7-3.9-2.2-5.4c-1.5-1.5-3.2-2.2-5.4-2.2
				c-2.1,0-3.9,0.7-5.4,2.2c-1.5,1.5-2.2,3.3-2.2,5.4C284.7,479,285.4,480.8,286.9,482.3z"/>
			<path d="M314.1,467.6c2.1,0,3.8,0.6,5.1,1.9c1.2,1.3,1.9,3,1.9,5.2v11.1h-1.8v-11.1c0-1.7-0.5-3-1.4-4c-0.9-1-2.2-1.5-3.9-1.5
				c-1.8,0-3.3,0.6-4.5,1.8c-1.2,1.2-1.8,3-1.8,5.3v9.4h-1.8V468h1.8v3.4C309,468.8,311.1,467.6,314.1,467.6z"/>
			<path d="M335.2,469.7h-5.3v11.6c0,1,0.2,1.8,0.6,2.2s1,0.7,1.8,0.8c0.8,0.1,1.8,0,3-0.1v1.6c-2.4,0.4-4.2,0.2-5.4-0.5
				c-1.2-0.7-1.8-2-1.8-4v-11.6h-3.9V468h3.9v-4.5l1.8-0.5v5h5.3V469.7z"/>
			<path d="M346.6,486.2c-2.6,0-4.8-0.9-6.7-2.7c-1.8-1.8-2.7-4-2.7-6.6c0-2.6,0.9-4.8,2.7-6.6c1.8-1.8,4-2.7,6.7-2.7
				c2.6,0,4.8,0.9,6.6,2.7c1.8,1.8,2.7,4,2.7,6.6c0,2.6-0.9,4.8-2.7,6.6S349.2,486.2,346.6,486.2z M341.2,482.3
				c1.5,1.5,3.3,2.2,5.4,2.2c2.1,0,3.9-0.7,5.4-2.2c1.5-1.5,2.2-3.3,2.2-5.4c0-2.1-0.7-3.9-2.2-5.4c-1.5-1.5-3.2-2.2-5.4-2.2
				c-2.1,0-3.9,0.7-5.4,2.2c-1.5,1.5-2.2,3.3-2.2,5.4C339,479,339.7,480.8,341.2,482.3z"/>
			<path d="M371.7,463.2c-0.3,0.3-0.6,0.4-1,0.4c-0.4,0-0.7-0.1-1-0.4c-0.3-0.3-0.4-0.6-0.4-1c0-0.4,0.1-0.7,0.4-1
				c0.3-0.3,0.6-0.4,1-0.4c0.4,0,0.7,0.1,1,0.4c0.3,0.3,0.4,0.6,0.4,1C372.1,462.6,371.9,462.9,371.7,463.2z M369.8,485.8V468h1.8
				v17.9H369.8z"/>
			<path d="M385.2,467.6c2.1,0,3.8,0.6,5.1,1.9c1.2,1.3,1.9,3,1.9,5.2v11.1h-1.8v-11.1c0-1.7-0.5-3-1.4-4c-0.9-1-2.2-1.5-3.9-1.5
				c-1.8,0-3.3,0.6-4.5,1.8c-1.2,1.2-1.8,3-1.8,5.3v9.4H377V468h1.8v3.4C380.1,468.8,382.2,467.6,385.2,467.6z"/>
			<path d="M413,468h1.8v17c0,2.6-0.8,4.6-2.5,6.1c-1.7,1.5-3.8,2.2-6.4,2.2c-2,0-3.8-0.4-5.2-1.1s-2.5-1.8-3.2-3.1l1.6-0.9
				c1.1,2.3,3.4,3.5,6.9,3.5c2.2,0,4-0.6,5.2-1.8c1.3-1.2,1.9-2.8,1.9-4.9v-3.3c-0.7,1.4-1.8,2.5-3.1,3.3c-1.3,0.8-2.9,1.2-4.6,1.2
				c-2.6,0-4.8-0.9-6.6-2.7s-2.7-4-2.7-6.6c0-2.6,0.9-4.8,2.7-6.6c1.8-1.8,4-2.7,6.6-2.7c1.7,0,3.2,0.4,4.6,1.2
				c1.3,0.8,2.4,1.9,3.1,3.3V468z M400.1,482.3c1.5,1.5,3.3,2.2,5.4,2.2c2.1,0,3.9-0.7,5.4-2.2c1.5-1.5,2.2-3.3,2.2-5.4
				c0-2.1-0.7-3.9-2.2-5.4c-1.5-1.5-3.3-2.2-5.4-2.2c-2.1,0-3.9,0.7-5.4,2.2c-1.5,1.5-2.2,3.3-2.2,5.4
				C397.9,479,398.6,480.8,400.1,482.3z"/>
			<path d="M422.1,471.5c1.1-2.5,3.1-3.7,6-3.7v1.7c-1.7,0-3.1,0.5-4.2,1.6c-1.1,1.1-1.7,2.7-1.7,4.8v9.9h-1.8V468h1.8V471.5z"/>
			<path d="M438.6,467.6c2.6,0,4.7,0.9,6.4,2.8c1.6,1.9,2.4,4.1,2.4,6.6c0,0.1,0,0.2,0,0.4s0,0.3,0,0.4h-16.2c0.2,2,1,3.6,2.4,4.8
				c1.4,1.2,3.1,1.8,5.2,1.8c1.4,0,2.7-0.3,3.7-0.9c1.1-0.6,1.9-1.4,2.4-2.4l1.6,0.9c-0.7,1.2-1.8,2.2-3.1,2.9
				c-1.4,0.7-2.9,1.1-4.6,1.1c-2.7,0-5-0.9-6.7-2.6s-2.6-4-2.6-6.7c0-2.7,0.9-4.9,2.6-6.7C433.7,468.4,435.9,467.6,438.6,467.6z
				 M438.6,469.3c-2,0-3.7,0.6-5.1,1.9c-1.4,1.3-2.1,2.9-2.3,4.9h14.4c-0.2-2.1-0.9-3.8-2.3-5S440.4,469.3,438.6,469.3z"/>
			<path d="M452.1,472.6c0,0.9,0.4,1.5,1.1,2c0.7,0.5,1.6,0.9,2.7,1.2c1.1,0.3,2.1,0.6,3.2,0.8c1.1,0.3,2,0.8,2.7,1.5
				c0.7,0.7,1.1,1.7,1.1,3c0,1.5-0.6,2.7-1.8,3.6s-2.7,1.4-4.6,1.4c-1.7,0-3.2-0.4-4.3-1.1c-1.2-0.7-2-1.7-2.4-2.9l1.5-0.9
				c0.3,1,1,1.7,1.9,2.3c0.9,0.6,2,0.8,3.4,0.8c1.3,0,2.4-0.3,3.3-0.9c0.9-0.6,1.3-1.4,1.3-2.5c0-0.9-0.4-1.6-1.1-2.1
				c-0.7-0.5-1.6-0.9-2.7-1.2c-1.1-0.3-2.1-0.6-3.2-0.8s-2-0.8-2.7-1.5c-0.7-0.7-1.1-1.7-1.1-2.9c0-1.4,0.6-2.6,1.7-3.6
				c1.1-1,2.6-1.5,4.4-1.5c1.4,0,2.7,0.3,3.7,1c1.1,0.6,1.8,1.5,2.3,2.6L461,472c-0.4-0.9-1-1.6-1.8-2c-0.8-0.5-1.8-0.7-2.8-0.7
				c-1.2,0-2.2,0.3-3.1,0.9C452.5,470.8,452.1,471.6,452.1,472.6z"/>
			<path d="M482.5,468h1.8v17.9h-1.8v-4c-0.8,1.4-1.8,2.5-3.1,3.2c-1.3,0.8-2.8,1.2-4.5,1.2c-2.5,0-4.7-0.9-6.5-2.7s-2.7-4-2.7-6.6
				c0-2.6,0.9-4.8,2.7-6.6c1.8-1.8,4-2.7,6.5-2.7c1.7,0,3.2,0.4,4.5,1.2c1.3,0.8,2.4,1.9,3.1,3.2V468z M469.5,482.3
				c1.5,1.5,3.3,2.2,5.4,2.2c2.1,0,3.9-0.7,5.4-2.2c1.5-1.5,2.2-3.3,2.2-5.4c0-2.1-0.7-3.9-2.2-5.4c-1.5-1.5-3.2-2.2-5.4-2.2
				c-2.1,0-3.9,0.7-5.4,2.2c-1.5,1.5-2.2,3.3-2.2,5.4C467.3,479,468.1,480.8,469.5,482.3z"/>
			<path d="M505.5,460.8h1.8v25h-1.8v-4.1c-0.7,1.4-1.8,2.5-3.1,3.3c-1.3,0.8-2.9,1.2-4.6,1.2c-2.6,0-4.8-0.9-6.6-2.7
				c-1.8-1.8-2.7-4-2.7-6.6c0-2.6,0.9-4.8,2.7-6.6c1.8-1.8,4-2.7,6.6-2.7c1.7,0,3.2,0.4,4.6,1.2c1.3,0.8,2.4,1.9,3.1,3.3V460.8z
				 M492.6,482.3c1.5,1.5,3.3,2.2,5.4,2.2c2.1,0,3.9-0.7,5.4-2.2c1.5-1.5,2.2-3.3,2.2-5.4c0-2.1-0.7-3.9-2.2-5.4
				c-1.5-1.5-3.3-2.2-5.4-2.2c-2.1,0-3.9,0.7-5.4,2.2c-1.5,1.5-2.2,3.3-2.2,5.4C490.4,479,491.1,480.8,492.6,482.3z"/>
			<path d="M521,486.2c-2.6,0-4.8-0.9-6.7-2.7c-1.8-1.8-2.7-4-2.7-6.6c0-2.6,0.9-4.8,2.7-6.6c1.8-1.8,4-2.7,6.7-2.7
				c2.6,0,4.8,0.9,6.6,2.7c1.8,1.8,2.7,4,2.7,6.6c0,2.6-0.9,4.8-2.7,6.6S523.6,486.2,521,486.2z M515.6,482.3
				c1.5,1.5,3.3,2.2,5.4,2.2c2.1,0,3.9-0.7,5.4-2.2c1.5-1.5,2.2-3.3,2.2-5.4c0-2.1-0.7-3.9-2.2-5.4c-1.5-1.5-3.2-2.2-5.4-2.2
				c-2.1,0-3.9,0.7-5.4,2.2c-1.5,1.5-2.2,3.3-2.2,5.4C513.4,479,514.1,480.8,515.6,482.3z"/>
			<path d="M546.1,463.2c-0.3,0.3-0.6,0.4-1,0.4c-0.4,0-0.7-0.1-1-0.4c-0.3-0.3-0.4-0.6-0.4-1c0-0.4,0.1-0.7,0.4-1
				c0.3-0.3,0.6-0.4,1-0.4c0.4,0,0.7,0.1,1,0.4c0.3,0.3,0.4,0.6,0.4,1C546.5,462.6,546.3,462.9,546.1,463.2z M544.2,485.8V468h1.8
				v17.9H544.2z"/>
			<path d="M559.6,467.6c2.1,0,3.8,0.6,5.1,1.9c1.2,1.3,1.9,3,1.9,5.2v11.1h-1.8v-11.1c0-1.7-0.5-3-1.4-4c-0.9-1-2.2-1.5-3.9-1.5
				c-1.8,0-3.3,0.6-4.5,1.8c-1.2,1.2-1.8,3-1.8,5.3v9.4h-1.8V468h1.8v3.4C554.5,468.8,556.6,467.6,559.6,467.6z"/>
			<path d="M579.8,486.2c-2.7,0-4.9-0.9-6.7-2.7c-1.8-1.8-2.7-4-2.7-6.6s0.9-4.9,2.7-6.6c1.8-1.8,4-2.7,6.7-2.7
				c1.7,0,3.3,0.4,4.7,1.2c1.4,0.8,2.4,1.9,3.1,3.3l-1.5,0.9c-0.5-1.1-1.4-2-2.5-2.7c-1.1-0.7-2.4-1-3.8-1c-2.1,0-3.9,0.7-5.4,2.2
				c-1.5,1.5-2.2,3.3-2.2,5.4s0.7,3.9,2.2,5.4c1.5,1.5,3.2,2.2,5.4,2.2c1.4,0,2.7-0.3,3.8-1c1.1-0.7,2-1.6,2.6-2.7l1.5,0.9
				c-0.7,1.4-1.8,2.5-3.2,3.3C583.1,485.8,581.5,486.2,579.8,486.2z"/>
			<path d="M599.6,486.2c-2.6,0-4.8-0.9-6.7-2.7c-1.8-1.8-2.7-4-2.7-6.6c0-2.6,0.9-4.8,2.7-6.6c1.8-1.8,4-2.7,6.7-2.7
				c2.6,0,4.8,0.9,6.6,2.7c1.8,1.8,2.7,4,2.7,6.6c0,2.6-0.9,4.8-2.7,6.6S602.2,486.2,599.6,486.2z M594.2,482.3
				c1.5,1.5,3.3,2.2,5.4,2.2c2.1,0,3.9-0.7,5.4-2.2c1.5-1.5,2.2-3.3,2.2-5.4c0-2.1-0.7-3.9-2.2-5.4c-1.5-1.5-3.2-2.2-5.4-2.2
				c-2.1,0-3.9,0.7-5.4,2.2c-1.5,1.5-2.2,3.3-2.2,5.4C592,479,592.8,480.8,594.2,482.3z"/>
			<path d="M615,471.5c1.1-2.5,3.1-3.7,6-3.7v1.7c-1.7,0-3.1,0.5-4.2,1.6c-1.1,1.1-1.7,2.7-1.7,4.8v9.9h-1.8V468h1.8V471.5z"/>
			<path d="M626.4,471.5c1.1-2.5,3.1-3.7,6-3.7v1.7c-1.7,0-3.1,0.5-4.2,1.6c-1.1,1.1-1.7,2.7-1.7,4.8v9.9h-1.8V468h1.8V471.5z"/>
			<path d="M642.9,467.6c2.6,0,4.7,0.9,6.4,2.8c1.6,1.9,2.4,4.1,2.4,6.6c0,0.1,0,0.2,0,0.4s0,0.3,0,0.4h-16.2c0.2,2,1,3.6,2.4,4.8
				c1.4,1.2,3.1,1.8,5.2,1.8c1.4,0,2.7-0.3,3.7-0.9c1.1-0.6,1.9-1.4,2.4-2.4l1.6,0.9c-0.7,1.2-1.8,2.2-3.1,2.9
				c-1.4,0.7-2.9,1.1-4.6,1.1c-2.7,0-5-0.9-6.7-2.6s-2.6-4-2.6-6.7c0-2.7,0.9-4.9,2.6-6.7C638,468.4,640.2,467.6,642.9,467.6z
				 M642.9,469.3c-2,0-3.7,0.6-5.1,1.9c-1.4,1.3-2.1,2.9-2.3,4.9h14.4c-0.2-2.1-0.9-3.8-2.3-5S644.7,469.3,642.9,469.3z"/>
			<path d="M664.1,486.2c-2.7,0-4.9-0.9-6.7-2.7c-1.8-1.8-2.7-4-2.7-6.6s0.9-4.9,2.7-6.6c1.8-1.8,4-2.7,6.7-2.7
				c1.7,0,3.3,0.4,4.7,1.2c1.4,0.8,2.4,1.9,3.1,3.3l-1.5,0.9c-0.5-1.1-1.4-2-2.5-2.7c-1.1-0.7-2.4-1-3.8-1c-2.1,0-3.9,0.7-5.4,2.2
				c-1.5,1.5-2.2,3.3-2.2,5.4s0.7,3.9,2.2,5.4c1.5,1.5,3.2,2.2,5.4,2.2c1.4,0,2.7-0.3,3.8-1c1.1-0.7,2-1.6,2.6-2.7l1.5,0.9
				c-0.7,1.4-1.8,2.5-3.2,3.3C667.4,485.8,665.8,486.2,664.1,486.2z"/>
			<path d="M685.1,469.7h-5.3v11.6c0,1,0.2,1.8,0.6,2.2s1,0.7,1.8,0.8c0.8,0.1,1.8,0,3-0.1v1.6c-2.4,0.4-4.2,0.2-5.4-0.5
				c-1.2-0.7-1.8-2-1.8-4v-11.6H674V468h3.9v-4.5l1.8-0.5v5h5.3V469.7z"/>
			<path d="M696.5,486.2c-2.6,0-4.8-0.9-6.7-2.7c-1.8-1.8-2.7-4-2.7-6.6c0-2.6,0.9-4.8,2.7-6.6c1.8-1.8,4-2.7,6.7-2.7
				c2.6,0,4.8,0.9,6.6,2.7c1.8,1.8,2.7,4,2.7,6.6c0,2.6-0.9,4.8-2.7,6.6S699.1,486.2,696.5,486.2z M691.1,482.3
				c1.5,1.5,3.3,2.2,5.4,2.2c2.1,0,3.9-0.7,5.4-2.2c1.5-1.5,2.2-3.3,2.2-5.4c0-2.1-0.7-3.9-2.2-5.4c-1.5-1.5-3.2-2.2-5.4-2.2
				c-2.1,0-3.9,0.7-5.4,2.2c-1.5,1.5-2.2,3.3-2.2,5.4C688.9,479,689.6,480.8,691.1,482.3z"/>
			<path d="M711.7,483.4l-1.9,7.4h-1.6l1.4-7.4H711.7z"/>
			<path d="M734.4,486.2c-2.7,0-4.9-0.9-6.7-2.7c-1.8-1.8-2.7-4-2.7-6.6s0.9-4.9,2.7-6.6c1.8-1.8,4-2.7,6.7-2.7
				c1.7,0,3.3,0.4,4.7,1.2c1.4,0.8,2.4,1.9,3.1,3.3l-1.5,0.9c-0.5-1.1-1.4-2-2.5-2.7c-1.1-0.7-2.4-1-3.8-1c-2.1,0-3.9,0.7-5.4,2.2
				c-1.5,1.5-2.2,3.3-2.2,5.4s0.7,3.9,2.2,5.4c1.5,1.5,3.2,2.2,5.4,2.2c1.4,0,2.7-0.3,3.8-1c1.1-0.7,2-1.6,2.6-2.7l1.5,0.9
				c-0.7,1.4-1.8,2.5-3.2,3.3C737.7,485.8,736.1,486.2,734.4,486.2z"/>
			<path d="M754.2,486.2c-2.6,0-4.8-0.9-6.7-2.7c-1.8-1.8-2.7-4-2.7-6.6c0-2.6,0.9-4.8,2.7-6.6c1.8-1.8,4-2.7,6.7-2.7
				c2.6,0,4.8,0.9,6.6,2.7c1.8,1.8,2.7,4,2.7,6.6c0,2.6-0.9,4.8-2.7,6.6S756.8,486.2,754.2,486.2z M748.9,482.3
				c1.5,1.5,3.3,2.2,5.4,2.2c2.1,0,3.9-0.7,5.4-2.2c1.5-1.5,2.2-3.3,2.2-5.4c0-2.1-0.7-3.9-2.2-5.4c-1.5-1.5-3.2-2.2-5.4-2.2
				c-2.1,0-3.9,0.7-5.4,2.2c-1.5,1.5-2.2,3.3-2.2,5.4C746.7,479,747.4,480.8,748.9,482.3z"/>
			<path d="M776,467.6c2.1,0,3.8,0.6,5.1,1.9c1.2,1.3,1.9,3,1.9,5.2v11.1h-1.8v-11.1c0-1.7-0.5-3-1.4-4c-0.9-1-2.2-1.5-3.9-1.5
				c-1.8,0-3.3,0.6-4.5,1.8c-1.2,1.2-1.8,3-1.8,5.3v9.4h-1.8V468h1.8v3.4C770.9,468.8,773.1,467.6,776,467.6z"/>
			<path d="M789.2,472.6c0,0.9,0.4,1.5,1.1,2c0.7,0.5,1.6,0.9,2.7,1.2c1.1,0.3,2.1,0.6,3.2,0.8c1.1,0.3,2,0.8,2.7,1.5
				c0.7,0.7,1.1,1.7,1.1,3c0,1.5-0.6,2.7-1.8,3.6s-2.7,1.4-4.6,1.4c-1.7,0-3.2-0.4-4.3-1.1c-1.2-0.7-2-1.7-2.4-2.9l1.5-0.9
				c0.3,1,1,1.7,1.9,2.3c0.9,0.6,2,0.8,3.4,0.8c1.3,0,2.4-0.3,3.3-0.9c0.9-0.6,1.3-1.4,1.3-2.5c0-0.9-0.4-1.6-1.1-2.1
				c-0.7-0.5-1.6-0.9-2.7-1.2c-1.1-0.3-2.1-0.6-3.2-0.8s-2-0.8-2.7-1.5c-0.7-0.7-1.1-1.7-1.1-2.9c0-1.4,0.6-2.6,1.7-3.6
				c1.1-1,2.6-1.5,4.4-1.5c1.4,0,2.7,0.3,3.7,1c1.1,0.6,1.8,1.5,2.3,2.6l-1.5,0.9c-0.4-0.9-1-1.6-1.8-2c-0.8-0.5-1.8-0.7-2.8-0.7
				c-1.2,0-2.2,0.3-3.1,0.9C789.6,470.8,789.2,471.6,789.2,472.6z"/>
			<path d="M817,468h1.8v17.9H817v-3.4c-1.3,2.5-3.4,3.8-6.4,3.8c-2.1,0-3.8-0.6-5.1-1.9s-1.9-3-1.9-5.2V468h1.8v11.1
				c0,1.7,0.5,3,1.4,4c0.9,1,2.2,1.5,3.9,1.5c1.8,0,3.3-0.6,4.5-1.8c1.2-1.2,1.8-3,1.8-5.3V468z"/>
			<path d="M824.3,485.8v-26.1h1.8v26.1H824.3z"/>
			<path d="M840.7,469.7h-5.3v11.6c0,1,0.2,1.8,0.6,2.2s1,0.7,1.8,0.8c0.8,0.1,1.8,0,3-0.1v1.6c-2.4,0.4-4.2,0.2-5.4-0.5
				c-1.2-0.7-1.8-2-1.8-4v-11.6h-3.9V468h3.9v-4.5l1.8-0.5v5h5.3V469.7z"/>
			<path d="M859.7,468h1.8v17.9h-1.8v-4c-0.8,1.4-1.8,2.5-3.1,3.2c-1.3,0.8-2.8,1.2-4.5,1.2c-2.5,0-4.7-0.9-6.5-2.7s-2.7-4-2.7-6.6
				c0-2.6,0.9-4.8,2.7-6.6c1.8-1.8,4-2.7,6.5-2.7c1.7,0,3.2,0.4,4.5,1.2c1.3,0.8,2.4,1.9,3.1,3.2V468z M846.8,482.3
				c1.5,1.5,3.3,2.2,5.4,2.2c2.1,0,3.9-0.7,5.4-2.2c1.5-1.5,2.2-3.3,2.2-5.4c0-2.1-0.7-3.9-2.2-5.4c-1.5-1.5-3.2-2.2-5.4-2.2
				c-2.1,0-3.9,0.7-5.4,2.2c-1.5,1.5-2.2,3.3-2.2,5.4C844.6,479,845.3,480.8,846.8,482.3z"/>
			<path d="M885.7,469.7h-5.3v11.6c0,1,0.2,1.8,0.6,2.2s1,0.7,1.8,0.8c0.8,0.1,1.8,0,3-0.1v1.6c-2.4,0.4-4.2,0.2-5.4-0.5
				c-1.2-0.7-1.8-2-1.8-4v-11.6h-3.9V468h3.9v-4.5l1.8-0.5v5h5.3V469.7z"/>
			<path d="M902.8,468h1.8v17.9h-1.8v-3.4c-1.3,2.5-3.4,3.8-6.4,3.8c-2.1,0-3.8-0.6-5.1-1.9s-1.9-3-1.9-5.2V468h1.8v11.1
				c0,1.7,0.5,3,1.4,4c0.9,1,2.2,1.5,3.9,1.5c1.8,0,3.3-0.6,4.5-1.8c1.2-1.2,1.8-3,1.8-5.3V468z"/>
			<path d="M920.8,472.6c0,0.9,0.4,1.5,1.1,2c0.7,0.5,1.6,0.9,2.7,1.2c1.1,0.3,2.1,0.6,3.2,0.8c1.1,0.3,2,0.8,2.7,1.5
				c0.7,0.7,1.1,1.7,1.1,3c0,1.5-0.6,2.7-1.8,3.6s-2.7,1.4-4.6,1.4c-1.7,0-3.2-0.4-4.3-1.1c-1.2-0.7-2-1.7-2.4-2.9l1.5-0.9
				c0.3,1,1,1.7,1.9,2.3c0.9,0.6,2,0.8,3.4,0.8c1.3,0,2.4-0.3,3.3-0.9c0.9-0.6,1.3-1.4,1.3-2.5c0-0.9-0.4-1.6-1.1-2.1
				c-0.7-0.5-1.6-0.9-2.7-1.2c-1.1-0.3-2.1-0.6-3.2-0.8s-2-0.8-2.7-1.5c-0.7-0.7-1.1-1.7-1.1-2.9c0-1.4,0.6-2.6,1.7-3.6
				c1.1-1,2.6-1.5,4.4-1.5c1.4,0,2.7,0.3,3.7,1c1.1,0.6,1.8,1.5,2.3,2.6l-1.5,0.9c-0.4-0.9-1-1.6-1.8-2c-0.8-0.5-1.8-0.7-2.8-0.7
				c-1.2,0-2.2,0.3-3.1,0.9C921.3,470.8,920.8,471.6,920.8,472.6z"/>
			<path d="M951.2,468h1.8v17.9h-1.8v-4c-0.8,1.4-1.8,2.5-3.1,3.2c-1.3,0.8-2.8,1.2-4.5,1.2c-2.5,0-4.7-0.9-6.5-2.7s-2.7-4-2.7-6.6
				c0-2.6,0.9-4.8,2.7-6.6c1.8-1.8,4-2.7,6.5-2.7c1.7,0,3.2,0.4,4.5,1.2c1.3,0.8,2.4,1.9,3.1,3.2V468z M938.2,482.3
				c1.5,1.5,3.3,2.2,5.4,2.2c2.1,0,3.9-0.7,5.4-2.2c1.5-1.5,2.2-3.3,2.2-5.4c0-2.1-0.7-3.9-2.2-5.4c-1.5-1.5-3.2-2.2-5.4-2.2
				c-2.1,0-3.9,0.7-5.4,2.2c-1.5,1.5-2.2,3.3-2.2,5.4C936.1,479,936.8,480.8,938.2,482.3z"/>
			<path d="M958.5,485.8v-26.1h1.8v26.1H958.5z"/>
			<path d="M981.5,460.8h1.8v25h-1.8v-4.1c-0.7,1.4-1.8,2.5-3.1,3.3c-1.3,0.8-2.9,1.2-4.6,1.2c-2.6,0-4.8-0.9-6.6-2.7
				c-1.8-1.8-2.7-4-2.7-6.6c0-2.6,0.9-4.8,2.7-6.6c1.8-1.8,4-2.7,6.6-2.7c1.7,0,3.2,0.4,4.6,1.2c1.3,0.8,2.4,1.9,3.1,3.3V460.8z
				 M968.6,482.3c1.5,1.5,3.3,2.2,5.4,2.2c2.1,0,3.9-0.7,5.4-2.2c1.5-1.5,2.2-3.3,2.2-5.4c0-2.1-0.7-3.9-2.2-5.4
				c-1.5-1.5-3.3-2.2-5.4-2.2c-2.1,0-3.9,0.7-5.4,2.2c-1.5,1.5-2.2,3.3-2.2,5.4C966.4,479,967.1,480.8,968.6,482.3z"/>
			<path d="M997,486.2c-2.6,0-4.8-0.9-6.7-2.7c-1.8-1.8-2.7-4-2.7-6.6c0-2.6,0.9-4.8,2.7-6.6c1.8-1.8,4-2.7,6.7-2.7
				c2.6,0,4.8,0.9,6.6,2.7c1.8,1.8,2.7,4,2.7,6.6c0,2.6-0.9,4.8-2.7,6.6S999.6,486.2,997,486.2z M991.6,482.3
				c1.5,1.5,3.3,2.2,5.4,2.2c2.1,0,3.9-0.7,5.4-2.2c1.5-1.5,2.2-3.3,2.2-5.4c0-2.1-0.7-3.9-2.2-5.4c-1.5-1.5-3.2-2.2-5.4-2.2
				c-2.1,0-3.9,0.7-5.4,2.2c-1.5,1.5-2.2,3.3-2.2,5.4C989.4,479,990.1,480.8,991.6,482.3z"/>
		</g>
	</g>
	<g>
		<path class="st2" d="M112.6,382.7h11.4v50.1h-8.6l-19.3-27.2v27.2H84.7v-50.1h8.6l19.3,27.2V382.7z"/>
		<path class="st2" d="M161.5,428.3c-3.7,3.6-8.2,5.5-13.4,5.5c-5.3,0-9.8-1.8-13.4-5.5c-3.7-3.6-5.5-8.1-5.5-13.4
			c0-5.3,1.8-9.8,5.5-13.4c3.7-3.6,8.2-5.5,13.4-5.5c5.3,0,9.8,1.8,13.4,5.5c3.7,3.6,5.5,8.1,5.5,13.4
			C167,420.2,165.1,424.7,161.5,428.3z M142.2,421c1.6,1.6,3.5,2.4,5.9,2.4c2.3,0,4.3-0.8,5.9-2.4c1.6-1.6,2.4-3.6,2.4-6.1
			c0-2.5-0.8-4.5-2.4-6.1c-1.6-1.6-3.5-2.4-5.9-2.4c-2.3,0-4.3,0.8-5.9,2.4c-1.6,1.6-2.4,3.6-2.4,6.1
			C139.8,417.4,140.6,419.4,142.2,421z"/>
		<path class="st2" d="M197.7,419.2c1.2,3.3,4.1,5,8.6,5c2.9,0,5.2-0.9,6.9-2.7l8.6,4.9c-3.5,4.9-8.7,7.4-15.6,7.4
			c-6,0-10.8-1.8-14.4-5.4c-3.6-3.6-5.4-8.1-5.4-13.5c0-5.4,1.8-9.9,5.3-13.5c3.6-3.6,8.1-5.4,13.7-5.4c5.2,0,9.5,1.8,13,5.4
			c3.5,3.6,5.2,8.1,5.2,13.5c0,1.5-0.1,3-0.4,4.3H197.7z M197.5,411.2h15.4c-1-3.8-3.6-5.7-7.6-5.7
			C201.1,405.5,198.5,407.4,197.5,411.2z"/>
		<path class="st2" d="M236.9,407.4c0,0.7,0.6,1.3,1.8,1.8c1.2,0.5,2.7,0.9,4.4,1.4s3.4,1,5.2,1.8c1.7,0.7,3.2,1.9,4.4,3.5
			c1.2,1.6,1.8,3.7,1.8,6.2c0,3.9-1.4,6.8-4.3,8.8s-6.4,3-10.6,3c-7.5,0-12.7-2.8-15.4-8.5l9.3-5.3c1,2.8,3,4.2,6.1,4.2
			c2.6,0,3.9-0.7,3.9-2.2c0-0.7-0.6-1.3-1.8-1.8c-1.2-0.5-2.7-0.9-4.4-1.4s-3.4-1-5.2-1.8c-1.7-0.7-3.2-1.9-4.4-3.5
			c-1.2-1.6-1.8-3.5-1.8-5.8c0-3.7,1.3-6.6,4-8.7c2.7-2,6-3.1,10-3.1c3,0,5.7,0.7,8.1,2c2.4,1.3,4.4,3.2,5.9,5.7l-9.2,4.9
			c-1.1-2.1-2.7-3.1-4.8-3.1C237.9,405.4,236.9,406.1,236.9,407.4z"/>
		<path class="st2" d="M296.6,396c4.7,0,8.8,1.8,12.1,5.5c3.3,3.6,5,8.1,5,13.4c0,5.3-1.7,9.8-5,13.4c-3.3,3.6-7.4,5.5-12.1,5.5
			c-4.6,0-8.1-1.5-10.7-4.4v17.7h-10.7V397h10.7v3.4C288.5,397.5,292,396,296.6,396z M288.3,421.3c1.6,1.6,3.6,2.4,6.1,2.4
			c2.5,0,4.5-0.8,6.1-2.4c1.6-1.6,2.4-3.7,2.4-6.4c0-2.7-0.8-4.8-2.4-6.4c-1.6-1.6-3.6-2.4-6.1-2.4c-2.5,0-4.5,0.8-6.1,2.4
			c-1.6,1.6-2.4,3.7-2.4,6.4C285.9,417.6,286.7,419.7,288.3,421.3z"/>
		<path class="st2" d="M349,428.3c-3.7,3.6-8.2,5.5-13.4,5.5c-5.3,0-9.8-1.8-13.4-5.5c-3.7-3.6-5.5-8.1-5.5-13.4
			c0-5.3,1.8-9.8,5.5-13.4c3.7-3.6,8.2-5.5,13.4-5.5c5.3,0,9.8,1.8,13.4,5.5c3.7,3.6,5.5,8.1,5.5,13.4
			C354.5,420.2,352.6,424.7,349,428.3z M329.6,421c1.6,1.6,3.5,2.4,5.9,2.4c2.3,0,4.3-0.8,5.9-2.4c1.6-1.6,2.4-3.6,2.4-6.1
			c0-2.5-0.8-4.5-2.4-6.1c-1.6-1.6-3.5-2.4-5.9-2.4c-2.3,0-4.3,0.8-5.9,2.4c-1.6,1.6-2.4,3.6-2.4,6.1
			C327.3,417.4,328.1,419.4,329.6,421z"/>
		<path class="st2" d="M368.6,407.4c0,0.7,0.6,1.3,1.8,1.8c1.2,0.5,2.7,0.9,4.4,1.4s3.4,1,5.2,1.8c1.7,0.7,3.2,1.9,4.4,3.5
			c1.2,1.6,1.8,3.7,1.8,6.2c0,3.9-1.4,6.8-4.3,8.8s-6.4,3-10.6,3c-7.5,0-12.7-2.8-15.4-8.5l9.3-5.3c1,2.8,3,4.2,6.1,4.2
			c2.6,0,3.9-0.7,3.9-2.2c0-0.7-0.6-1.3-1.8-1.8c-1.2-0.5-2.7-0.9-4.4-1.4s-3.4-1-5.2-1.8c-1.7-0.7-3.2-1.9-4.4-3.5
			c-1.2-1.6-1.8-3.5-1.8-5.8c0-3.7,1.3-6.6,4-8.7c2.7-2,6-3.1,10-3.1c3,0,5.7,0.7,8.1,2c2.4,1.3,4.4,3.2,5.9,5.7l-9.2,4.9
			c-1.1-2.1-2.7-3.1-4.8-3.1C369.6,405.4,368.6,406.1,368.6,407.4z"/>
		<path class="st2" d="M400,392c-1.3,1.3-2.8,1.9-4.5,1.9c-1.8,0-3.3-0.6-4.5-1.9c-1.3-1.3-1.9-2.8-1.9-4.5c0-1.8,0.6-3.3,1.9-4.5
			c1.3-1.3,2.8-1.9,4.5-1.9c1.8,0,3.3,0.6,4.5,1.9c1.3,1.3,1.9,2.8,1.9,4.5C401.9,389.2,401.3,390.7,400,392z M390.1,432.8V397h10.7
			v35.8H390.1z"/>
		<path class="st2" d="M428.6,396c4.7,0,8.8,1.8,12.1,5.5c3.3,3.6,5,8.1,5,13.4c0,5.3-1.7,9.8-5,13.4c-3.3,3.6-7.4,5.5-12.1,5.5
			c-4.6,0-8.1-1.5-10.7-4.4v3.4h-10.7v-50.1H418v17.7C420.5,397.5,424.1,396,428.6,396z M420.4,421.3c1.6,1.6,3.6,2.4,6.1,2.4
			c2.5,0,4.5-0.8,6.1-2.4c1.6-1.6,2.4-3.7,2.4-6.4c0-2.7-0.8-4.8-2.4-6.4c-1.6-1.6-3.6-2.4-6.1-2.4c-2.5,0-4.5,0.8-6.1,2.4
			c-1.6,1.6-2.4,3.7-2.4,6.4C418,417.6,418.8,419.7,420.4,421.3z"/>
		<path class="st2" d="M450.4,432.8v-52.2h10.7v52.2H450.4z"/>
		<path class="st2" d="M477.1,419.2c1.2,3.3,4.1,5,8.6,5c2.9,0,5.2-0.9,6.9-2.7l8.6,4.9c-3.5,4.9-8.7,7.4-15.6,7.4
			c-6,0-10.8-1.8-14.4-5.4c-3.6-3.6-5.4-8.1-5.4-13.5c0-5.4,1.8-9.9,5.3-13.5c3.6-3.6,8.1-5.4,13.7-5.4c5.2,0,9.5,1.8,13,5.4
			c3.5,3.6,5.2,8.1,5.2,13.5c0,1.5-0.1,3-0.4,4.3H477.1z M476.9,411.2h15.4c-1-3.8-3.6-5.7-7.6-5.7
			C480.6,405.5,478,407.4,476.9,411.2z"/>
		<path class="st2" d="M534.8,403.4c0.7-2.3,2-4,4-5.3c2-1.2,4.3-1.8,6.7-1.8v12.2c-2.6-0.4-5.1,0-7.3,1.3c-2.3,1.3-3.4,3.6-3.4,6.8
			v16.2h-10.7V397h10.7V403.4z"/>
		<path class="st2" d="M557.6,419.2c1.2,3.3,4.1,5,8.6,5c2.9,0,5.2-0.9,6.9-2.7l8.6,4.9c-3.5,4.9-8.7,7.4-15.6,7.4
			c-6,0-10.8-1.8-14.4-5.4c-3.6-3.6-5.4-8.1-5.4-13.5c0-5.4,1.8-9.9,5.3-13.5c3.6-3.6,8.1-5.4,13.7-5.4c5.2,0,9.5,1.8,13,5.4
			c3.5,3.6,5.2,8.1,5.2,13.5c0,1.5-0.1,3-0.4,4.3H557.6z M557.4,411.2h15.4c-1-3.8-3.6-5.7-7.6-5.7
			C561.1,405.5,558.5,407.4,557.4,411.2z"/>
		<path class="st2" d="M613.7,397h10.7v35.8h-10.7v-3.4c-2.5,2.9-6.1,4.4-10.7,4.4c-4.7,0-8.8-1.8-12.1-5.5c-3.3-3.6-5-8.1-5-13.4
			c0-5.3,1.7-9.8,5-13.4c3.3-3.6,7.4-5.5,12.1-5.5c4.6,0,8.1,1.5,10.7,4.4V397z M599,421.3c1.6,1.6,3.6,2.4,6.2,2.4
			c2.5,0,4.6-0.8,6.2-2.4c1.6-1.6,2.4-3.7,2.4-6.4c0-2.7-0.8-4.8-2.4-6.4c-1.6-1.6-3.6-2.4-6.2-2.4c-2.5,0-4.6,0.8-6.2,2.4
			c-1.6,1.6-2.4,3.7-2.4,6.4C596.7,417.6,597.5,419.7,599,421.3z"/>
		<path class="st2" d="M630.9,432.8v-52.2h10.7v52.2H630.9z"/>
		<path class="st2" d="M658,392c-1.3,1.3-2.8,1.9-4.5,1.9c-1.8,0-3.3-0.6-4.5-1.9c-1.3-1.3-1.9-2.8-1.9-4.5c0-1.8,0.6-3.3,1.9-4.5
			c1.3-1.3,2.8-1.9,4.5-1.9c1.8,0,3.3,0.6,4.5,1.9c1.3,1.3,1.9,2.8,1.9,4.5C659.8,389.2,659.2,390.7,658,392z M648,432.8V397h10.7
			v35.8H648z"/>
		<path class="st2" d="M678.5,422.8h14.2v10h-28.6v-7.2l13.5-18.6h-12.8v-10H692v7.2L678.5,422.8z"/>
		<path class="st2" d="M721.6,397h10.7v35.8h-10.7v-3.4c-2.5,2.9-6.1,4.4-10.7,4.4c-4.7,0-8.8-1.8-12.1-5.5c-3.3-3.6-5-8.1-5-13.4
			c0-5.3,1.7-9.8,5-13.4c3.3-3.6,7.4-5.5,12.1-5.5c4.6,0,8.1,1.5,10.7,4.4V397z M706.9,421.3c1.6,1.6,3.6,2.4,6.2,2.4
			s4.6-0.8,6.2-2.4c1.6-1.6,2.4-3.7,2.4-6.4c0-2.7-0.8-4.8-2.4-6.4c-1.6-1.6-3.6-2.4-6.2-2.4s-4.6,0.8-6.2,2.4
			c-1.6,1.6-2.4,3.7-2.4,6.4C704.6,417.6,705.3,419.7,706.9,421.3z"/>
		<path class="st2" d="M749.5,403.4c0.7-2.3,2-4,4-5.3c2-1.2,4.3-1.8,6.7-1.8v12.2c-2.6-0.4-5.1,0-7.3,1.3c-2.3,1.3-3.4,3.6-3.4,6.8
			v16.2h-10.7V397h10.7V403.4z"/>
		<path class="st2" d="M780.2,432.8v-52.2H791v52.2H780.2z"/>
		<path class="st2" d="M823.4,397h10.7v35.8h-10.7v-3.4c-2.5,2.9-6.1,4.4-10.7,4.4c-4.7,0-8.8-1.8-12.1-5.5s-5-8.1-5-13.4
			c0-5.3,1.7-9.8,5-13.4c3.3-3.6,7.4-5.5,12.1-5.5c4.6,0,8.1,1.5,10.7,4.4V397z M808.7,421.3c1.6,1.6,3.6,2.4,6.2,2.4
			c2.5,0,4.6-0.8,6.2-2.4c1.6-1.6,2.4-3.7,2.4-6.4c0-2.7-0.8-4.8-2.4-6.4c-1.6-1.6-3.6-2.4-6.2-2.4c-2.5,0-4.6,0.8-6.2,2.4
			c-1.6,1.6-2.4,3.7-2.4,6.4C806.3,417.6,807.1,419.7,808.7,421.3z"/>
		<path class="st2" d="M887.6,428.3c-3.7,3.6-8.2,5.5-13.4,5.5c-5.3,0-9.8-1.8-13.4-5.5c-3.7-3.6-5.5-8.1-5.5-13.4
			c0-5.3,1.8-9.8,5.5-13.4c3.7-3.6,8.2-5.5,13.4-5.5c5.3,0,9.8,1.8,13.4,5.5c3.7,3.6,5.5,8.1,5.5,13.4
			C893.1,420.2,891.3,424.7,887.6,428.3z M868.3,421c1.6,1.6,3.5,2.4,5.9,2.4c2.3,0,4.3-0.8,5.9-2.4c1.6-1.6,2.4-3.6,2.4-6.1
			c0-2.5-0.8-4.5-2.4-6.1c-1.6-1.6-3.5-2.4-5.9-2.4c-2.3,0-4.3,0.8-5.9,2.4c-1.6,1.6-2.4,3.6-2.4,6.1
			C865.9,417.4,866.7,419.4,868.3,421z"/>
		<path class="st2" d="M919.2,396c4.7,0,8.8,1.8,12.1,5.5c3.3,3.6,5,8.1,5,13.4c0,5.3-1.7,9.8-5,13.4c-3.3,3.6-7.4,5.5-12.1,5.5
			c-4.6,0-8.1-1.5-10.7-4.4v17.7h-10.7V397h10.7v3.4C911,397.5,914.6,396,919.2,396z M910.9,421.3c1.6,1.6,3.6,2.4,6.1,2.4
			c2.5,0,4.5-0.8,6.1-2.4c1.6-1.6,2.4-3.7,2.4-6.4c0-2.7-0.8-4.8-2.4-6.4c-1.6-1.6-3.6-2.4-6.1-2.4c-2.5,0-4.5,0.8-6.1,2.4
			c-1.6,1.6-2.4,3.7-2.4,6.4C908.5,417.6,909.3,419.7,910.9,421.3z"/>
		<path class="st2" d="M950.5,419.2c1.2,3.3,4.1,5,8.6,5c2.9,0,5.2-0.9,6.9-2.7l8.6,4.9c-3.5,4.9-8.7,7.4-15.6,7.4
			c-6,0-10.8-1.8-14.4-5.4c-3.6-3.6-5.4-8.1-5.4-13.5c0-5.4,1.8-9.9,5.3-13.5c3.6-3.6,8.1-5.4,13.7-5.4c5.2,0,9.5,1.8,13,5.4
			c3.5,3.6,5.2,8.1,5.2,13.5c0,1.5-0.1,3-0.4,4.3H950.5z M950.3,411.2h15.4c-1-3.8-3.6-5.7-7.6-5.7
			C953.9,405.5,951.3,407.4,950.3,411.2z"/>
		<path class="st2" d="M991.7,403.4c0.7-2.3,2-4,4-5.3c2-1.2,4.3-1.8,6.7-1.8v12.2c-2.6-0.4-5.1,0-7.3,1.3c-2.3,1.3-3.4,3.6-3.4,6.8
			v16.2H981V397h10.7V403.4z"/>
		<path class="st2" d="M1030.9,397h10.7v35.8h-10.7v-3.4c-2.5,2.9-6.1,4.4-10.7,4.4c-4.7,0-8.8-1.8-12.1-5.5s-5-8.1-5-13.4
			c0-5.3,1.7-9.8,5-13.4c3.3-3.6,7.4-5.5,12.1-5.5c4.6,0,8.1,1.5,10.7,4.4V397z M1016.2,421.3c1.6,1.6,3.6,2.4,6.2,2.4
			c2.5,0,4.6-0.8,6.2-2.4c1.6-1.6,2.4-3.7,2.4-6.4c0-2.7-0.8-4.8-2.4-6.4c-1.6-1.6-3.6-2.4-6.2-2.4c-2.5,0-4.6,0.8-6.2,2.4
			c-1.6,1.6-2.4,3.7-2.4,6.4C1013.9,417.6,1014.7,419.7,1016.2,421.3z"/>
		<path class="st2" d="M1065.2,433.8c-5.4,0-10-1.8-13.6-5.4s-5.4-8.1-5.4-13.4c0-5.3,1.8-9.8,5.4-13.4c3.6-3.6,8.1-5.4,13.6-5.4
			c3.4,0,6.6,0.8,9.5,2.5c2.9,1.7,5.1,3.9,6.7,6.7l-9.4,5.4c-1.3-2.7-3.6-4-6.9-4c-2.3,0-4.3,0.8-5.8,2.3c-1.5,1.5-2.3,3.5-2.3,6
			c0,2.4,0.8,4.4,2.3,6c1.5,1.5,3.5,2.3,5.8,2.3c3.4,0,5.7-1.3,6.9-4l9.4,5.4c-1.6,2.8-3.8,5.1-6.7,6.7S1068.7,433.8,1065.2,433.8z"
			/>
		<path class="st2" d="M1094.2,392c-1.3,1.3-2.8,1.9-4.5,1.9c-1.8,0-3.3-0.6-4.5-1.9c-1.3-1.3-1.9-2.8-1.9-4.5
			c0-1.8,0.6-3.3,1.9-4.5c1.3-1.3,2.8-1.9,4.5-1.9c1.8,0,3.3,0.6,4.5,1.9c1.3,1.3,1.9,2.8,1.9,4.5
			C1096.1,389.2,1095.4,390.7,1094.2,392z M1084.3,432.8V397h10.7v35.8H1084.3z"/>
		<path class="st2" d="M1132,428.3c-3.7,3.6-8.2,5.5-13.4,5.5s-9.8-1.8-13.4-5.5c-3.7-3.6-5.5-8.1-5.5-13.4c0-5.3,1.8-9.8,5.5-13.4
			c3.7-3.6,8.2-5.5,13.4-5.5s9.8,1.8,13.4,5.5c3.7,3.6,5.5,8.1,5.5,13.4C1137.5,420.2,1135.7,424.7,1132,428.3z M1112.7,421
			c1.6,1.6,3.5,2.4,5.9,2.4s4.3-0.8,5.9-2.4c1.6-1.6,2.4-3.6,2.4-6.1c0-2.5-0.8-4.5-2.4-6.1c-1.6-1.6-3.5-2.4-5.9-2.4
			s-4.3,0.8-5.9,2.4c-1.6,1.6-2.4,3.6-2.4,6.1C1110.4,417.4,1111.2,419.4,1112.7,421z M1112.2,392h10.3l8.3-10h-12.9L1112.2,392z"/>
		<path class="st2" d="M1163.2,396c3.8,0,7,1.3,9.5,3.9c2.6,2.6,3.8,6.2,3.8,10.9v22h-10.7v-20.4c0-2.1-0.6-3.7-1.8-4.8
			c-1.2-1.1-2.7-1.7-4.5-1.7c-2.1,0-3.7,0.6-4.9,1.9c-1.2,1.2-1.8,3.1-1.8,5.5v19.5h-10.7V397h10.7v3.4
			C1155.1,397.5,1158.5,396,1163.2,396z"/>
	</g>
</g>
</svg>
