<?xml version="1.0" encoding="utf-8"?>
<!-- Generator: Adobe Illustrator 27.9.0, SVG Export Plug-In . SVG Version: 6.00 Build 0)  -->
<svg version="1.1" id="Capa_1" xmlns="http://www.w3.org/2000/svg" xmlns:xlink="http://www.w3.org/1999/xlink" x="0px" y="0px"
	 viewBox="0 0 1260.39 692.13" style="enable-background:new 0 0 1260.39 692.13;" xml:space="preserve">
<style type="text/css">
	.st0{fill:#FFFFFF;}
	.st1{fill:#B7C1C7;}
	.st2{fill:#7350A2;}
	.st3{fill:#CCCCCC;}
	.st4{fill:none;}
	.st5{fill:#1C070B;stroke:#1C070B;stroke-miterlimit:10;}
	.st6{fill:#1C070B;}
</style>
<g>
	<g>
		<path class="st0" d="M1203.43,668.13H56.96c-20.34,0-36.83-16.49-36.83-36.83V60.83C20.13,40.49,36.62,24,56.96,24h1146.47
			c20.34,0,36.83,16.49,36.83,36.83V631.3C1240.26,651.64,1223.77,668.13,1203.43,668.13z"/>
	</g>
	<g>
		<g>
			<g>
				<g>
					<path d="M224.53,255.56h-10.92v-4.3h26.46v4.3h-10.79v43.17h-4.75V255.56z"/>
					<path d="M275.53,298.72h-4.5v-5.46c-1.11,2.12-2.68,3.69-4.69,4.71c-2.01,1.02-4.33,1.53-6.94,1.53c-2.4,0-4.56-0.47-6.49-1.41
						c-1.93-0.94-3.88-2.57-5.85-4.87c-0.99-1.03-1.65-2.45-1.99-4.26c-0.34-1.82-0.51-4.09-0.51-6.83v-18.53h4.75v18.53
						c0,2.22,0.12,3.84,0.35,4.84c0.23,1,0.98,2.59,2.25,4.74c1.26,2.16,3.97,3.24,8.13,3.24c3.6,0,6.13-1,7.61-3.01
						c1.48-2.01,2.37-3.7,2.67-5.06c0.3-1.37,0.45-2.95,0.45-4.74v-18.53h4.75V298.72z"/>
					<path d="M305.84,263.59v6.04c1.29-2.14,3.27-3.81,5.95-5.01c2.68-1.2,5.37-1.8,8.08-1.8c2.7,0,5.21,0.52,7.53,1.57
						c2.32,1.05,4.61,2.79,6.89,5.23c1.16,1.03,2.15,2.61,2.96,4.75c0.81,2.14,1.22,4.45,1.22,6.93c0,5.17-1.87,9.5-5.62,12.98
						c-3.75,3.48-8.21,5.23-13.39,5.23c-2.74,0-5.36-0.65-7.87-1.94c-2.51-1.29-4.31-3.09-5.43-5.38v18.82h-4.75v-47.41H305.84z
						 M333.72,281.22c0-3.8-1.34-7.06-4.01-9.77c-2.68-2.71-5.94-4.07-9.8-4.07c-3.9,0-7.22,1.28-9.96,3.85
						c-2.74,2.56-4.11,5.77-4.11,9.61c0,2.09,0.27,3.9,0.8,5.41c0.54,1.52,1.84,3.34,3.92,5.48c2.08,2.14,5.08,3.2,9.02,3.2
						c3.94,0,7.28-1.3,10.02-3.91C332.35,288.42,333.72,285.15,333.72,281.22z"/>
					<path d="M345.22,251.25h4.75v47.47h-4.75V251.25z"/>
					<path d="M393.85,298.72h-4.56v-6.62c-1.33,2.38-3.2,4.2-5.62,5.48c-2.42,1.27-5.09,1.91-8,1.91c-2.74,0-5.46-0.62-8.16-1.86
						c-2.7-1.24-4.79-2.69-6.26-4.36c-1.48-1.67-2.6-3.56-3.37-5.67c-0.77-2.12-1.16-4.35-1.16-6.7c0-2.14,0.42-4.26,1.25-6.38
						c0.84-2.12,2.08-4.03,3.73-5.74c1.65-1.71,3.71-3.13,6.2-4.26c2.48-1.13,5.03-1.7,7.64-1.7c2.96,0,5.66,0.62,8.13,1.86
						c2.46,1.24,4.34,3.11,5.62,5.59v-6.68h4.56V298.72z M361.47,281.28c0,3.8,1.41,7.03,4.24,9.68c2.83,2.65,6.14,3.97,9.96,3.97
						c3.68,0,6.87-1.34,9.57-4.04c2.7-2.69,4.05-5.87,4.05-9.55c0-3.89-1.32-7.19-3.95-9.9s-5.9-4.07-9.8-4.07
						c-3.85,0-7.16,1.36-9.92,4.07S361.47,277.44,361.47,281.28z"/>
					<path d="M405.99,267.89h-7.32v-4.3h7.32v-12.33h4.75v12.33h8.16v4.3h-8.16v30.83h-4.75V267.89z"/>
					<path d="M459.49,298.72h-4.56v-6.62c-1.33,2.38-3.2,4.2-5.62,5.48c-2.42,1.27-5.09,1.91-8,1.91c-2.74,0-5.46-0.62-8.16-1.86
						c-2.7-1.24-4.79-2.69-6.26-4.36c-1.48-1.67-2.6-3.56-3.37-5.67c-0.77-2.12-1.16-4.35-1.16-6.7c0-2.14,0.42-4.26,1.25-6.38
						c0.84-2.12,2.08-4.03,3.73-5.74c1.65-1.71,3.71-3.13,6.2-4.26c2.48-1.13,5.03-1.7,7.64-1.7c2.96,0,5.66,0.62,8.13,1.86
						c2.46,1.24,4.34,3.11,5.62,5.59v-6.68h4.56V298.72z M427.12,281.28c0,3.8,1.41,7.03,4.24,9.68c2.83,2.65,6.14,3.97,9.96,3.97
						c3.68,0,6.87-1.34,9.57-4.04c2.7-2.69,4.05-5.87,4.05-9.55c0-3.89-1.32-7.19-3.95-9.9s-5.9-4.07-9.8-4.07
						c-3.85,0-7.16,1.36-9.92,4.07S427.12,277.44,427.12,281.28z"/>
					<path d="M475.06,290.63h4.73l-5.65,12.4h-4.73L475.06,290.63z"/>
					<path d="M538.95,298.72h-4.56v-6.62c-1.33,2.38-3.2,4.2-5.62,5.48c-2.42,1.27-5.09,1.91-8,1.91c-2.74,0-5.46-0.62-8.16-1.86
						c-2.7-1.24-4.79-2.69-6.26-4.36c-1.48-1.67-2.6-3.56-3.37-5.67c-0.77-2.12-1.16-4.35-1.16-6.7c0-2.14,0.42-4.26,1.25-6.38
						c0.84-2.12,2.08-4.03,3.73-5.74c1.65-1.71,3.71-3.13,6.2-4.26c2.48-1.13,5.03-1.7,7.64-1.7c2.96,0,5.66,0.62,8.13,1.86
						c2.46,1.24,4.34,3.11,5.62,5.59v-6.68h4.56V298.72z M506.58,281.28c0,3.8,1.41,7.03,4.24,9.68c2.83,2.65,6.14,3.97,9.96,3.97
						c3.68,0,6.87-1.34,9.57-4.04c2.7-2.69,4.05-5.87,4.05-9.55c0-3.89-1.32-7.19-3.95-9.9s-5.9-4.07-9.8-4.07
						c-3.85,0-7.16,1.36-9.92,4.07S506.58,277.44,506.58,281.28z"/>
					<path d="M547.04,251.25h4.75v17.54c0.98-1.88,2.45-3.35,4.4-4.4c1.95-1.05,4.04-1.58,6.26-1.58c4.88,0,8.46,1.31,10.73,3.92
						c2.27,2.61,3.66,4.88,4.18,6.81c0.51,1.93,0.77,4.15,0.77,6.68v18.5h-4.75v-18.5c0-1.88-0.13-3.46-0.39-4.72
						c-0.26-1.26-0.85-2.54-1.77-3.82c-0.92-1.28-2.21-2.32-3.85-3.12c-1.65-0.79-3.35-1.19-5.11-1.19c-1.67,0-3.29,0.39-4.85,1.16
						c-1.56,0.77-2.78,1.76-3.66,2.96c-0.88,1.2-1.42,2.48-1.64,3.85c-0.21,1.37-0.32,3-0.32,4.88v18.5h-4.75V251.25z"/>
					<path d="M621.55,280.9c0,5.04-1.78,9.41-5.33,13.08c-3.56,3.68-7.86,5.51-12.91,5.51c-5.05,0-9.39-1.76-13.01-5.29
						c-3.62-3.53-5.43-7.81-5.43-12.86c0-5.13,1.79-9.5,5.36-13.11c3.58-3.61,7.93-5.42,13.07-5.42c4.88,0,9.14,1.8,12.78,5.39
						C619.73,271.79,621.55,276.02,621.55,280.9z M589.63,281.35c0,3.76,1.33,6.96,3.98,9.61c2.65,2.65,5.89,3.97,9.7,3.97
						c3.85,0,7.07-1.37,9.64-4.1c2.57-2.73,3.85-6.05,3.85-9.93c0-1.96-0.33-3.73-1-5.29c-0.66-1.56-2.02-3.32-4.08-5.29
						c-2.06-1.96-4.86-2.95-8.41-2.95c-3.85,0-7.1,1.36-9.73,4.07C590.95,274.16,589.63,277.46,589.63,281.35z"/>
					<path d="M628.3,263.59h4.5v5.07c0.9-2.01,2.25-3.49,4.05-4.43c1.8-0.94,3.85-1.41,6.17-1.41v4.69c-2.31,0-4.33,0.73-6.04,2.18
						c-1.71,1.46-2.79,2.83-3.24,4.11s-0.67,3.04-0.67,5.27v19.66h-4.75V263.59z"/>
					<path d="M683.41,298.72h-4.56v-6.62c-1.33,2.38-3.2,4.2-5.62,5.48c-2.42,1.27-5.09,1.91-8,1.91c-2.74,0-5.46-0.62-8.16-1.86
						c-2.7-1.24-4.79-2.69-6.26-4.36c-1.48-1.67-2.6-3.56-3.37-5.67c-0.77-2.12-1.16-4.35-1.16-6.7c0-2.14,0.42-4.26,1.25-6.38
						c0.84-2.12,2.08-4.03,3.73-5.74c1.65-1.71,3.71-3.13,6.2-4.26c2.48-1.13,5.03-1.7,7.64-1.7c2.96,0,5.66,0.62,8.13,1.86
						c2.46,1.24,4.34,3.11,5.62,5.59v-6.68h4.56V298.72z M651.04,281.28c0,3.8,1.41,7.03,4.24,9.68c2.83,2.65,6.14,3.97,9.96,3.97
						c3.68,0,6.87-1.34,9.57-4.04c2.7-2.69,4.05-5.87,4.05-9.55c0-3.89-1.32-7.19-3.95-9.9s-5.9-4.07-9.8-4.07
						c-3.85,0-7.16,1.36-9.92,4.07S651.04,277.44,651.04,281.28z"/>
					<path d="M712.7,282.86c0,3.24,1.37,6.06,4.11,8.47c2.74,2.41,5.78,3.61,9.12,3.61c2.65,0,5.16-0.69,7.52-2.07
						c2.35-1.38,4.05-3.24,5.07-5.57h4.95c-1.24,3.58-3.46,6.51-6.65,8.79c-3.19,2.28-6.67,3.42-10.44,3.42
						c-5.1,0-9.44-1.77-13.04-5.32c-3.6-3.55-5.4-7.89-5.4-13.02c0-5.09,1.77-9.42,5.3-12.98c3.53-3.57,7.87-5.35,13.01-5.35
						c2.74,0,5.33,0.59,7.77,1.77c2.44,1.18,4.5,2.78,6.17,4.82c1.67,2.03,2.8,4.1,3.4,6.2c0.6,2.1,0.9,4.52,0.9,7.26H712.7z
						 M739.74,278.55c-0.6-3.12-2.17-5.77-4.72-7.93c-2.55-2.16-5.45-3.24-8.7-3.24c-3.34,0-6.29,1.05-8.86,3.15
						c-2.57,2.1-4.15,4.78-4.75,8.03H739.74z"/>
					<path d="M752.91,288.32c0,1.8,0.61,3.35,1.83,4.66c1.22,1.31,2.73,1.96,4.53,1.96c1.76,0,3.22-0.54,4.4-1.63
						c1.18-1.09,1.77-2.49,1.77-4.2c0-1.92-0.61-3.38-1.83-4.36c-1.22-0.98-2.76-1.75-4.62-2.31c-1.86-0.56-3.25-1.02-4.18-1.41
						c-0.92-0.38-1.8-0.97-2.63-1.76c-0.83-0.79-1.5-1.76-1.99-2.92c-0.49-1.15-0.74-2.39-0.74-3.72c0-2.82,0.97-5.16,2.92-7.02
						c1.95-1.86,4.36-2.79,7.23-2.79c2.61,0,4.88,0.94,6.81,2.83c1.93,1.89,2.89,4.11,2.89,6.68h-4.75c0-1.5-0.51-2.7-1.54-3.6
						c-1.03-0.9-2.33-1.35-3.92-1.35c-1.37,0-2.53,0.47-3.47,1.41c-0.94,0.94-1.41,2.09-1.41,3.46c0,1.71,0.53,2.95,1.61,3.72
						c1.07,0.77,2.89,1.57,5.46,2.4c2.57,0.83,4.7,1.98,6.39,3.43c1.69,1.45,2.54,3.63,2.54,6.54c0,3.29-1.06,5.97-3.18,8.05
						c-2.12,2.07-4.85,3.11-8.19,3.11c-2.96,0-5.47-1.1-7.55-3.31c-2.08-2.21-3.12-4.83-3.12-7.87H752.91z"/>
					<path d="M793.76,263.14h4.5v4.37c0.86-1.54,2.11-2.71,3.76-3.5c1.65-0.79,3.52-1.19,5.62-1.19c2.35,0,4.47,0.45,6.36,1.35
						c1.88,0.9,3.55,2.23,5.01,3.98l0.9,1.35l0.71-1.35c1.2-1.67,2.81-2.98,4.85-3.92c2.03-0.94,4.12-1.41,6.26-1.41
						c1.88,0,3.73,0.44,5.52,1.32c1.8,0.88,3.47,2.09,5.01,3.63c1.54,1.54,2.54,3.15,2.99,4.82s0.67,3.7,0.67,6.1v20.04h-4.75
						v-19.59c0-1.67-0.11-3.09-0.32-4.27c-0.21-1.18-1-2.72-2.34-4.62c-1.35-1.9-3.69-2.86-7.03-2.86c-3.3,0-5.58,0.89-6.84,2.67
						c-1.26,1.78-1.98,3.3-2.15,4.56c-0.17,1.26-0.26,2.77-0.26,4.53v19.59h-4.75v-20.11c0-1.54-0.11-2.83-0.32-3.85
						c-0.21-1.03-0.99-2.52-2.31-4.46c-1.33-1.95-3.64-2.92-6.94-2.92c-1.58,0-3.03,0.31-4.34,0.93c-1.31,0.62-2.43,1.55-3.37,2.79
						c-0.69,1.03-1.14,2.13-1.35,3.31c-0.21,1.18-0.32,2.58-0.32,4.21v20.11h-4.75V263.14z"/>
					<path d="M854.02,251.25h4.75v8.09h-4.75V251.25z M854.02,263.14h4.75v35.59h-4.75V263.14z"/>
					<path d="M889.09,263.59v6.04c1.29-2.14,3.27-3.81,5.95-5.01c2.68-1.2,5.37-1.8,8.08-1.8c2.7,0,5.21,0.52,7.53,1.57
						c2.32,1.05,4.61,2.79,6.89,5.23c1.16,1.03,2.15,2.61,2.96,4.75c0.81,2.14,1.22,4.45,1.22,6.93c0,5.17-1.87,9.5-5.62,12.98
						c-3.75,3.48-8.21,5.23-13.39,5.23c-2.74,0-5.36-0.65-7.87-1.94c-2.51-1.29-4.31-3.09-5.43-5.38v18.82h-4.75v-47.41H889.09z
						 M916.97,281.22c0-3.8-1.34-7.06-4.01-9.77c-2.68-2.71-5.94-4.07-9.8-4.07c-3.9,0-7.22,1.28-9.96,3.85
						c-2.74,2.56-4.11,5.77-4.11,9.61c0,2.09,0.27,3.9,0.8,5.41c0.54,1.52,1.84,3.34,3.92,5.48c2.08,2.14,5.08,3.2,9.02,3.2
						c3.94,0,7.28-1.3,10.02-3.91C915.59,288.42,916.97,285.15,916.97,281.22z"/>
					<path d="M928.46,251.25h4.75v47.47h-4.75V251.25z"/>
					<path d="M977.09,298.72h-4.56v-6.62c-1.33,2.38-3.2,4.2-5.62,5.48c-2.42,1.27-5.09,1.91-8,1.91c-2.74,0-5.46-0.62-8.16-1.86
						c-2.7-1.24-4.79-2.69-6.26-4.36c-1.48-1.67-2.6-3.56-3.37-5.67c-0.77-2.12-1.16-4.35-1.16-6.7c0-2.14,0.42-4.26,1.25-6.38
						c0.84-2.12,2.08-4.03,3.73-5.74c1.65-1.71,3.71-3.13,6.2-4.26c2.48-1.13,5.03-1.7,7.64-1.7c2.96,0,5.66,0.62,8.13,1.86
						c2.46,1.24,4.34,3.11,5.62,5.59v-6.68h4.56V298.72z M944.71,281.28c0,3.8,1.41,7.03,4.24,9.68c2.83,2.65,6.14,3.97,9.96,3.97
						c3.68,0,6.87-1.34,9.57-4.04c2.7-2.69,4.05-5.87,4.05-9.55c0-3.89-1.32-7.19-3.95-9.9s-5.9-4.07-9.8-4.07
						c-3.85,0-7.16,1.36-9.92,4.07S944.71,277.44,944.71,281.28z"/>
					<path d="M989.23,267.89h-7.32v-4.3h7.32v-12.33h4.75v12.33h8.16v4.3h-8.16v30.83h-4.75V267.89z"/>
					<path d="M1042.74,298.72h-4.56v-6.62c-1.33,2.38-3.2,4.2-5.62,5.48c-2.42,1.27-5.09,1.91-8,1.91c-2.74,0-5.46-0.62-8.16-1.86
						c-2.7-1.24-4.79-2.69-6.26-4.36c-1.48-1.67-2.6-3.56-3.37-5.67c-0.77-2.12-1.16-4.35-1.16-6.7c0-2.14,0.42-4.26,1.25-6.38
						c0.84-2.12,2.08-4.03,3.73-5.74c1.65-1.71,3.71-3.13,6.2-4.26c2.48-1.13,5.03-1.7,7.64-1.7c2.96,0,5.66,0.62,8.13,1.86
						c2.46,1.24,4.34,3.11,5.62,5.59v-6.68h4.56V298.72z M1010.36,281.28c0,3.8,1.41,7.03,4.24,9.68c2.83,2.65,6.14,3.97,9.96,3.97
						c3.68,0,6.87-1.34,9.57-4.04c2.7-2.69,4.05-5.87,4.05-9.55c0-3.89-1.32-7.19-3.95-9.9s-5.9-4.07-9.8-4.07
						c-3.85,0-7.16,1.36-9.92,4.07S1010.36,277.44,1010.36,281.28z"/>
				</g>
			</g>
		</g>
		<g>
			<g>
				<path class="st1" d="M255.2,228.31h-36.03l18.1-115.15h36.85l17.44,53.46l34.38-53.46h38l-18.1,115.15h-36.03l8.23-52.64
					l-23.36,37.01h-19.74l-11.52-37.01L255.2,228.31z"/>
				<path class="st1" d="M412.3,142.11l-13.65,86.2h-35.7l13.49-86.2H412.3z M382.61,133.31c-4-3.56-6-8.14-6-13.74
					c0-5.59,2-10.2,6-13.82c4-3.62,9.07-5.43,15.22-5.43c6.25,0,11.35,1.81,15.3,5.43c3.95,3.62,5.92,8.23,5.92,13.82
					c0,5.59-1.97,10.17-5.92,13.74c-3.95,3.56-9.05,5.35-15.3,5.35C391.68,138.65,386.61,136.87,382.61,133.31z"/>
				<g>
					<path class="st2" d="M434.18,113.15h50.17c14.04,0,25.09,4.44,33.15,13.32c8.06,8.88,11.05,19.69,8.97,32.41
						c-1.97,12.5-7.35,22.07-16.12,28.71c-8.77,6.64-20.29,9.95-34.55,9.95h-17.44l-4.77,30.76h-37.51L434.18,113.15z M475.8,166.95
						c8,0,12.5-3.23,13.49-9.71c0.55-3.29-0.22-6.19-2.3-8.72c-2.08-2.52-4.94-3.78-8.55-3.78h-11.68l-3.45,22.21H475.8z"/>
				</g>
				<g>
					<path class="st2" d="M581.9,113.15l-18.1,115.15h-35.7l18.1-115.15H581.9z"/>
				</g>
				<g>
					<path class="st2" d="M683.56,142.11l-13.65,86.2h-29.45l-1.15-6.25c-5.81,5.26-12.72,7.9-20.73,7.9
						c-11.74,0-21.19-4.8-28.38-14.39c-7.18-9.6-9.79-20.7-7.81-33.31c1.97-12.39,7.13-22.45,15.46-30.19
						c8.33-7.73,17.98-11.6,28.95-11.6c10.09,0,17.82,3.24,23.19,9.71l3.95-8.06H683.56z M628.29,197.54c3.62,0,6.66-1.1,9.13-3.29
						c2.47-2.19,3.97-4.99,4.52-8.39c0.55-3.4-0.22-6.39-2.3-8.97c-2.08-2.58-4.94-3.87-8.55-3.87s-6.66,1.1-9.13,3.29
						c-2.47,2.2-3.98,4.94-4.52,8.23c-0.55,3.4,0.25,6.42,2.39,9.05S624.78,197.54,628.29,197.54z"/>
				</g>
				<g>
					<path class="st2" d="M723.04,229.95c-9.1,0-16.37-2.85-21.8-8.55c-5.43-5.7-7.43-12.83-6-21.39l4.77-29.28h-13.98l4.44-28.62
						h13.98l2.96-19.08h35.53l-3.13,19.08h19.74l-4.28,28.62h-19.74l-3.62,20.89c-0.55,3.95,0.99,5.92,4.61,5.92
						c1.65,0,3.34-0.14,5.1-0.41c1.75-0.27,3.13-0.52,4.11-0.74l1.48-0.33l-0.99,29.12C740.42,228.36,732.69,229.95,723.04,229.95z"
						/>
				</g>
				<g>
					<path class="st2" d="M863.03,142.11l-13.65,86.2h-29.45l-1.15-6.25c-5.81,5.26-12.72,7.9-20.73,7.9
						c-11.74,0-21.19-4.8-28.38-14.39c-7.18-9.6-9.79-20.7-7.81-33.31c1.97-12.39,7.13-22.45,15.46-30.19
						c8.33-7.73,17.98-11.6,28.95-11.6c10.09,0,17.82,3.24,23.19,9.71l3.95-8.06H863.03z M807.76,197.54c3.62,0,6.66-1.1,9.13-3.29
						c2.47-2.19,3.97-4.99,4.52-8.39c0.55-3.4-0.22-6.39-2.3-8.97c-2.08-2.58-4.94-3.87-8.55-3.87s-6.66,1.1-9.13,3.29
						c-2.47,2.2-3.98,4.94-4.52,8.23c-0.55,3.4,0.25,6.42,2.39,9.05S804.25,197.54,807.76,197.54z"/>
				</g>
			</g>
			<g>
				<g>
					<g>
						<g>
							<g>
								<path class="st3" d="M895.52,165.01c-0.05-0.03-0.11-0.06-0.16-0.09c-0.03-0.02-0.06-0.04-0.09-0.06
									c-0.08-0.05-0.17-0.1-0.25-0.16c-0.01-0.01-0.01-0.01-0.02-0.02c-0.42-0.28-0.77-0.58-1.05-0.89
									c-0.04-0.05-0.08-0.09-0.12-0.14c-0.03-0.03-0.05-0.06-0.08-0.09c-0.06-0.08-0.12-0.16-0.17-0.24l-0.13,0.07v0l-4.55,2.58
									c0.45,0.75,1.06,2.02,1.17,3.51l0.02,0.01v0.47c0,0,0,0,0,0c0,0.17-0.01,0.35-0.02,0.51c-0.08,0.97,0.09,1.93,0.3,2.57
									c0.21-0.43,0.57-1.09,1.24-2.11l0.36-0.55l0,0c1.17-1.74,2.68-3.8,3.75-5.24l0,0l0.02-0.03
									C895.65,165.09,895.59,165.05,895.52,165.01z"/>
							</g>
							<g>
								<path class="st0" d="M931.16,154.02c0.1-0.03,0.2-0.07,0.29-0.1c0.23-0.08,0.45-0.17,0.68-0.26
									c0.06-0.02,0.11-0.04,0.17-0.07c0.28-0.11,0.56-0.23,0.85-0.36c0.08-0.03,0.15-0.07,0.23-0.1c0.21-0.09,0.41-0.19,0.62-0.28
									c0.04-0.02,0.07-0.04,0.11-0.05c-1.02-0.54-2.06-1.06-3.11-1.54l-0.55,3.01c0.05-0.02,0.1-0.03,0.15-0.05
									C930.79,154.15,930.97,154.09,931.16,154.02z"/>
							</g>
							<g>
								<path class="st0" d="M916.64,154.46c0.21,0.06,0.41,0.13,0.62,0.18c0.04,0.01,0.07,0.02,0.11,0.03
									c0.24,0.07,0.48,0.13,0.72,0.18c0.06,0.01,0.12,0.03,0.18,0.04c0.2,0.05,0.39,0.09,0.59,0.13c0.04,0.01,0.07,0.02,0.11,0.02
									l1.4-7.71c-1.09-0.3-2.18-0.57-3.25-0.8l-0.23,1.28l-1.15,6.33c0.01,0,0.03,0.01,0.04,0.01c0.22,0.08,0.44,0.15,0.66,0.22
									C916.5,154.42,916.57,154.44,916.64,154.46z"/>
							</g>
							<g>
								<path class="st0" d="M944.77,138.74c3.23,0,5.87-2.2,5.87-4.91c0-0.42-0.07-0.84-0.19-1.25l-11.48,1.93
									C939.37,136.9,941.83,138.74,944.77,138.74z"/>
							</g>
							<g>
								<path class="st0" d="M912.24,152.54c0.17,0.09,0.33,0.19,0.5,0.28c0.06,0.03,0.12,0.06,0.18,0.09
									c0.21,0.11,0.43,0.22,0.65,0.33c0.02,0.01,0.04,0.02,0.06,0.03c0.2,0.1,0.4,0.19,0.6,0.28c0.03,0.01,0.06,0.03,0.09,0.04
									l0.03-0.16l1.31-7.18c-1.06-0.2-2.09-0.35-3.06-0.47l-1.15,6.28c0.01,0.01,0.02,0.01,0.03,0.02
									c0.2,0.13,0.41,0.25,0.62,0.37C912.14,152.48,912.19,152.51,912.24,152.54z"/>
							</g>
							<g>
								<path class="st0" d="M921.16,155.36c0.06,0.01,0.12,0.01,0.18,0.02c0.25,0.02,0.5,0.04,0.75,0.05c0.04,0,0.08,0,0.12,0
									c0.22,0.01,0.43,0.01,0.65,0.02c0.06,0,0.13,0,0.19,0c0.25,0,0.5,0,0.76-0.01c0,0,0,0,0.01,0l0.95-5.24l0.25-1.4
									c-1.07-0.38-2.14-0.73-3.2-1.05l-0.69,3.77l-0.68,3.76c0.04,0,0.08,0.01,0.12,0.01
									C920.76,155.32,920.96,155.34,921.16,155.36z"/>
							</g>
							<g>
								<path class="st0" d="M926.22,155.24c0.26-0.04,0.52-0.08,0.78-0.12c0.07-0.01,0.14-0.03,0.21-0.04
									c0.21-0.04,0.43-0.08,0.64-0.13c0.05-0.01,0.1-0.02,0.15-0.03c0.26-0.06,0.51-0.12,0.77-0.18c0.02-0.01,0.04-0.01,0.06-0.02
									l0.75-4.1c-1.04-0.46-2.1-0.89-3.16-1.29l-1.09,6.01c0.03,0,0.07-0.01,0.1-0.01c0.25-0.03,0.5-0.05,0.75-0.09
									C926.2,155.24,926.21,155.24,926.22,155.24z"/>
							</g>
							<g>
								<g>
									<path class="st1" d="M1027.52,133.23c-18.69-16.86-40.05-17.55-54.69-15.16c-10.02,1.64-18.34,4.89-23.16,7.1
										c1.49,0.48,3,0.98,4.52,1.51l-0.01-0.01l1.85,0.66l0.27,0.1v0c0.63,0.23,1.24,0.45,1.84,0.67l5.96-1.65l0.31,0.35
										c0.36,0.41,0.7,0.91,1.03,1.48c1.23-0.17,3.18-0.2,4.97,0.77c1.68,0.91,2.84,2.49,3.46,4.69c1.64,5.81-2.17,8.39-3.71,9.17
										c0.25,1.18,0.39,1.97,0.41,2.1l0.08,0.44l-5.11,4.12l-3.56,9.65l-2.63,7.12l4.37,2.58l-0.45,0.28
										c-1.74,0.77-3.45,1.53-5.12,2.28c-0.13,0.06-0.25,0.11-0.37,0.17l-0.48,1.29c0,0,0.01,0,0.01,0l-1.28,3.35
										c1.17,10.18,3.81,18.11,7.89,23.7l1.21-1.14l0.71,3.49c1.59,1.74,3.37,3.18,5.32,4.33c14.83,8.71,37.16-1.58,46.7-5.97
										c11.1-5.11,24.87-16.35,27.13-31.17C1046.79,157.52,1040.92,145.32,1027.52,133.23z M1017.4,176.48
										c-0.82,1.44-1.85,2.51-3.15,3.26c-1.42,0.82-2.82,1.45-4.17,1.86c-1.38,0.42-2.63,0.69-3.7,0.82
										c-1.71,0.2-2.41,0.42-2.88,0.88c-0.05,0.05-0.09,0.1-0.14,0.16c-0.4,0.53-0.55,1.27-0.51,2.49
										c0.02,0.7-0.04,1.46-0.18,2.26c-0.12,0.67-0.38,1.24-0.78,1.75c-0.31,0.39-1.05,0.48-1.63,0.48
										c-1.05-0.05-1.95-0.29-2.66-0.73c-0.81-0.5-1.51-1.08-2.08-1.72c-0.56-0.62-0.97-1.26-1.24-1.88
										c-0.36-0.85-0.45-1.26-0.47-1.43c-0.08-0.63-0.39-1.51-1.44-2.16c-0.5-0.32-1.18-0.67-2.07-1.09
										c-0.81-0.38-1.82-0.89-3.02-1.51c-1.16-0.61-2.56-1.48-4.16-2.6c-1.49-1.04-2.6-2.14-3.29-3.26
										c-0.64-1.03-0.94-1.96-0.9-2.76c0.04-0.72,0.29-1.28,0.82-1.77c0.53-0.49,1.39-0.76,2.57-0.81c0.13,0,0.26-0.01,0.38-0.01
										c1.25,0,1.78,0.25,1.98,0.39c0.58,0.42,1.13,0.94,1.62,1.56c0.66,0.82,1.48,1.59,2.44,2.3c1.09,0.81,2.66,1.3,4.79,1.49
										c0.71,0.06,1.4,0.09,2.07,0.09c1.24,0,2.43-0.11,3.54-0.32c1.65-0.32,3.14-0.72,4.43-1.19c0.01-0.01,0.03-0.01,0.04-0.02
										c1.46-0.58,2.83-1.27,4.06-2.03c0.51-0.31,0.78-0.9,0.69-1.49c-0.09-0.59-0.52-1.07-1.1-1.22
										c-1.02-0.27-2.13-0.57-3.3-0.91c0,0-0.01,0-0.01,0c-0.96-0.27-2.06-0.61-3.24-1.01c-1.32-0.45-2.54-0.87-3.71-1.28
										c-1.26-0.49-2.76-1.1-4.61-1.85c-1.7-0.7-3.36-1.64-4.91-2.81c-0.35-0.26-0.69-0.54-1.01-0.84
										c-0.15-0.14-0.3-0.28-0.45-0.43c-0.61-0.6-1.17-1.25-1.68-1.96c-0.03-0.04-0.05-0.07-0.07-0.11
										c-0.21-0.3-0.41-0.6-0.61-0.91c-0.97-1.59-1.42-3.56-1.32-5.85c0-0.01,0-0.02,0-0.03c0.05-2.28,0.57-4.13,1.55-5.48
										c1.06-1.46,2.17-2.63,3.31-3.48c1.34-0.89,2.92-1.57,4.67-2.02c0.71-0.18,1.18-0.84,1.12-1.57
										c-0.05-0.54-0.02-1.12,0.07-1.71c0.11-0.59,0.24-1.28,0.41-2.12c0.14-0.7,0.4-1.44,0.79-2.2c0.3-0.6,0.65-1,1.06-1.21
										c0.48-0.25,0.99-0.37,1.56-0.37c0.61,0,1.25,0.13,1.9,0.39c0.71,0.28,1.41,0.67,2.09,1.15c1.23,0.92,2.03,1.9,2.37,2.92
										c0.33,0.99,0.42,1.81,0.25,2.38c-0.23,0.62-0.36,1.14-0.26,1.64c0.15,0.75,0.74,1.2,1.36,1.57
										c0.44,0.27,1.16,0.67,2.13,1.2c0.93,0.51,2.25,1.34,3.91,2.46c1.53,1.03,2.61,2.08,3.21,3.1c0.57,0.97,0.85,1.83,0.83,2.57
										c-0.02,0.68-0.22,1.21-0.62,1.67c-0.41,0.47-0.92,0.74-1.58,0.85c-0.01,0-0.01,0-0.01,0c-0.23,0.04-0.45,0.06-0.67,0.06
										c-0.43,0-0.83-0.08-1.24-0.23c-0.73-0.28-1.35-0.61-1.85-0.97c-0.64-0.49-1.27-1.08-1.88-1.73
										c-0.14-0.16-0.32-0.28-0.51-0.36c-2.29-0.98-4.22-1.45-5.88-1.45c-0.44,0-0.87,0.04-1.28,0.1
										c-1.86,0.32-3.38,0.96-4.52,1.9c-0.02,0.01-0.03,0.03-0.05,0.04c-1.24,1.11-2.19,2.61-2.83,4.45
										c-0.1,0.29-0.11,0.6-0.02,0.9c0.02,0.06,0.04,0.12,0.07,0.18c0.01,0.02,0.02,0.05,0.03,0.07c0.18,0.36,0.49,0.63,0.87,0.76
										c0.2,0.07,0.4,0.13,0.6,0.2c0.22,0.07,0.43,0.15,0.65,0.22c1.47,0.49,2.93,0.99,4.38,1.49c1.65,0.6,3.49,1.28,5.48,1.99
										c1.96,0.71,3.92,1.48,5.82,2.29c1.75,0.77,3.33,1.73,4.69,2.83c1.32,1.07,2.37,2.26,3.1,3.54
										c0.71,1.24,1.08,2.52,1.13,3.92C1018.58,173.58,1018.2,175.01,1017.4,176.48z"/>
								</g>
							</g>
							<g>
								<path class="st0" d="M956.63,161.37c0.11-0.04,0.23-0.08,0.34-0.12c0.12-0.04,0.25-0.09,0.37-0.13
									c0.11-0.04,0.22-0.08,0.33-0.12c0.12-0.04,0.24-0.09,0.36-0.13c0.11-0.04,0.21-0.08,0.32-0.12
									c0.12-0.04,0.23-0.09,0.34-0.13c0.1-0.04,0.21-0.08,0.31-0.12c0.11-0.04,0.22-0.09,0.33-0.13c0.1-0.04,0.2-0.08,0.3-0.12
									c0.11-0.04,0.21-0.09,0.31-0.13c0.05-0.02,0.1-0.04,0.15-0.06l4.96-13.41c-1.12-8.41-4.42-14.29-5.86-16.54
									c-0.6-0.23-1.21-0.46-1.85-0.7c0.01,0.02,0.02,0.04,0.03,0.06c0.05,0.1,0.09,0.19,0.14,0.29c0.09,0.18,0.17,0.36,0.25,0.53
									c0.05,0.11,0.09,0.21,0.14,0.31c0.07,0.16,0.14,0.32,0.21,0.48c0.05,0.11,0.09,0.21,0.13,0.31c0.06,0.15,0.12,0.3,0.18,0.45
									c0.04,0.1,0.08,0.2,0.12,0.3c0.06,0.15,0.11,0.29,0.16,0.44c0.03,0.09,0.07,0.19,0.1,0.28c0.05,0.15,0.1,0.3,0.14,0.44
									c0.03,0.08,0.05,0.16,0.07,0.24c0.05,0.17,0.1,0.34,0.14,0.51c0.01,0.05,0.03,0.09,0.04,0.14c0.05,0.21,0.1,0.42,0.14,0.62
									c0.01,0.05,0.02,0.09,0.02,0.14c0.03,0.15,0.05,0.3,0.07,0.44c0.01,0.07,0.01,0.13,0.02,0.2c0.01,0.12,0.03,0.24,0.03,0.35
									c0.01,0.07,0.01,0.14,0.01,0.21c0,0.11,0.01,0.21,0.01,0.31c0,0.07,0,0.13,0,0.2c0,0.1-0.01,0.19-0.02,0.29
									c-0.01,0.06-0.01,0.13-0.02,0.19c-0.01,0.09-0.03,0.18-0.05,0.27c-0.01,0.06-0.02,0.11-0.03,0.17
									c-0.02,0.09-0.05,0.19-0.08,0.28c-0.01,0.04-0.02,0.09-0.04,0.13c-0.05,0.13-0.1,0.25-0.16,0.37
									c-0.43,0.87-1.35,1.85-2.62,2.79c-0.19,0.14-0.4,0.29-0.61,0.43c-0.45,0.3-0.93,0.59-1.44,0.87
									c-1.53,0.83-3.34,1.54-5.27,1.97c-0.13,0.03-0.27,0.06-0.4,0.08c-0.04,0.01-0.08,0.01-0.11,0.02
									c-0.1,0.02-0.21,0.04-0.31,0.06c-0.04,0.01-0.09,0.02-0.13,0.02c-0.11,0.02-0.22,0.04-0.33,0.05
									c-0.03,0.01-0.07,0.01-0.11,0.02c-0.15,0.02-0.3,0.04-0.45,0.06c-0.01,0-0.02,0-0.03,0c-0.14,0.02-0.28,0.03-0.43,0.04
									c-0.04,0-0.09,0.01-0.13,0.01c-0.12,0.01-0.23,0.02-0.35,0.03c-0.05,0-0.09,0.01-0.14,0.01c-0.13,0.01-0.26,0.01-0.39,0.02
									c-0.03,0-0.06,0-0.1,0c-0.16,0-0.33,0.01-0.5,0.01c-0.01,0-0.01,0-0.02,0c-0.02,0-0.04,0-0.06,0c-0.15,0-0.31,0-0.46-0.01
									c-0.05,0-0.1,0-0.15-0.01c-0.15-0.01-0.3-0.01-0.46-0.02c-0.03,0-0.06,0-0.1-0.01c-0.18-0.01-0.37-0.03-0.55-0.05
									c-0.04,0-0.08-0.01-0.13-0.01c-0.15-0.02-0.3-0.04-0.44-0.06c-0.05-0.01-0.11-0.02-0.16-0.02
									c-0.18-0.03-0.35-0.06-0.53-0.09c-0.01,0-0.03,0-0.04-0.01c-0.19-0.04-0.38-0.08-0.57-0.12c-0.05-0.01-0.11-0.03-0.16-0.04
									c-0.15-0.04-0.3-0.07-0.44-0.11c-0.05-0.01-0.11-0.03-0.16-0.04c-0.19-0.05-0.39-0.11-0.58-0.18
									c-0.02-0.01-0.05-0.02-0.07-0.02c-0.17-0.06-0.35-0.12-0.52-0.18c-0.06-0.02-0.12-0.04-0.18-0.07
									c-0.15-0.06-0.31-0.12-0.46-0.18c-0.05-0.02-0.1-0.04-0.15-0.06c-0.2-0.08-0.39-0.17-0.59-0.27
									c-0.04-0.02-0.09-0.04-0.13-0.06c-0.16-0.08-0.32-0.16-0.47-0.24c-0.06-0.03-0.12-0.06-0.18-0.1
									c-0.17-0.09-0.33-0.18-0.5-0.28c-0.03-0.02-0.07-0.04-0.1-0.06c-0.2-0.12-0.39-0.24-0.59-0.37
									c-0.05-0.03-0.11-0.07-0.16-0.11c-0.15-0.1-0.3-0.21-0.46-0.32c-0.06-0.04-0.11-0.08-0.17-0.12c-0.2-0.15-0.4-0.3-0.59-0.45
									c-0.11-0.09-0.22-0.18-0.33-0.28c-0.04-0.03-0.07-0.07-0.11-0.1c-0.07-0.06-0.14-0.13-0.21-0.2
									c-0.04-0.04-0.08-0.09-0.12-0.13c-0.06-0.06-0.12-0.13-0.18-0.19c-0.04-0.05-0.08-0.1-0.13-0.15
									c-0.05-0.06-0.11-0.13-0.16-0.19c-0.04-0.05-0.08-0.11-0.13-0.17c-0.05-0.07-0.1-0.13-0.15-0.2
									c-0.04-0.06-0.08-0.12-0.13-0.18c-0.05-0.07-0.1-0.14-0.14-0.21c-0.04-0.06-0.08-0.13-0.12-0.19
									c-0.04-0.07-0.09-0.14-0.13-0.22c-0.04-0.07-0.08-0.14-0.12-0.2c-0.04-0.07-0.09-0.15-0.13-0.22
									c-0.04-0.07-0.07-0.14-0.11-0.22c-0.04-0.08-0.08-0.15-0.12-0.23c-0.04-0.08-0.07-0.15-0.11-0.23
									c-0.04-0.08-0.07-0.16-0.11-0.24c-0.03-0.08-0.07-0.16-0.1-0.24c-0.03-0.08-0.07-0.17-0.1-0.25
									c-0.03-0.08-0.07-0.17-0.1-0.25c-0.03-0.09-0.07-0.17-0.1-0.26c-0.03-0.09-0.06-0.18-0.09-0.27
									c-0.03-0.09-0.06-0.18-0.09-0.27c-0.03-0.09-0.06-0.18-0.09-0.28c-0.03-0.09-0.06-0.19-0.09-0.28
									c-0.03-0.09-0.05-0.19-0.08-0.29c-0.03-0.1-0.05-0.19-0.08-0.29c-0.03-0.1-0.05-0.2-0.08-0.3c-0.03-0.1-0.05-0.2-0.07-0.3
									c-0.02-0.1-0.05-0.21-0.07-0.31c-0.02-0.1-0.05-0.21-0.07-0.31c-0.02-0.11-0.04-0.21-0.06-0.32
									c-0.02-0.11-0.04-0.21-0.06-0.32c-0.02-0.11-0.04-0.22-0.06-0.33c-0.02-0.11-0.04-0.22-0.05-0.33
									c-0.02-0.11-0.04-0.23-0.05-0.35c-0.02-0.11-0.03-0.23-0.05-0.34c-0.02-0.12-0.03-0.24-0.05-0.35
									c-0.01-0.12-0.03-0.23-0.04-0.35c-0.01-0.12-0.03-0.24-0.04-0.37c-0.01-0.12-0.03-0.24-0.04-0.36
									c-0.01-0.12-0.02-0.25-0.03-0.38c-0.01-0.12-0.02-0.25-0.03-0.38c-0.01-0.13-0.02-0.26-0.03-0.39
									c-0.01-0.13-0.02-0.26-0.03-0.38c-0.01-0.13-0.02-0.26-0.02-0.4c-0.01-0.13-0.01-0.26-0.02-0.4
									c-0.01-0.13-0.01-0.27-0.02-0.41c-0.01-0.14-0.01-0.27-0.01-0.41c0-0.14-0.01-0.28-0.01-0.42c0-0.14-0.01-0.28-0.01-0.42
									c0-0.14,0-0.28,0-0.43c0-0.14,0-0.29,0-0.43c0-0.15,0-0.29,0-0.44c0-0.15,0-0.29,0-0.44c0-0.15,0-0.3,0.01-0.45
									c0-0.15,0.01-0.3,0.01-0.45c0-0.15,0.01-0.31,0.01-0.46c0.01-0.15,0.01-0.31,0.02-0.46c0.01-0.16,0.01-0.31,0.02-0.47
									c0-0.05,0-0.09,0.01-0.14c-16.81-2.84-29.31-0.91-37.17,5.73c-0.28,0.24-0.44,0.59-0.44,0.96c0,0.37,0.17,0.72,0.46,0.96
									c2.68,2.2,8.75,6.49,19.34,10.41c0,0,0,0,0,0c0.04,0.01,0.07,0.03,0.11,0.04c0.12,0.04,0.24,0.09,0.36,0.13
									c6.1,2.22,30.69,11.28,33.68,11.92c1.7,0.36,3.61-0.53,5.67-2.64l3.09-3.18l-1.88,4.01c-0.08,0.17-2.02,4.23-6.47,5.63
									c-3.21,1.01-6.84,0.38-10.79-1.89c-0.2-0.11-0.39-0.22-0.59-0.33c-0.08,0.04-0.15,0.08-0.23,0.11
									c-0.12,0.06-0.24,0.12-0.36,0.18c-0.14,0.07-0.28,0.14-0.42,0.2c-0.12,0.06-0.24,0.11-0.35,0.17
									c-0.14,0.07-0.29,0.13-0.43,0.19c-0.12,0.05-0.23,0.1-0.35,0.15c-0.15,0.06-0.29,0.12-0.44,0.18
									c-0.11,0.05-0.23,0.09-0.34,0.14c-0.15,0.06-0.3,0.12-0.45,0.17c-0.11,0.04-0.22,0.08-0.33,0.12
									c-0.16,0.06-0.31,0.11-0.47,0.17c-0.1,0.04-0.21,0.07-0.31,0.11c-0.17,0.06-0.34,0.11-0.51,0.17
									c-0.09,0.03-0.17,0.06-0.26,0.08c-0.11,0.03-0.21,0.06-0.32,0.09l0,0.01l-0.45,0.12l-1.14,0.31l0.01-0.03
									c-0.29,0.07-0.58,0.13-0.87,0.18c-0.87,0.17-1.75,0.28-2.62,0.36l0,0.01l-0.59,0.03l-0.95,0.05l0-0.02
									c-0.12,0-0.24,0-0.36,0.01c-0.01,0-0.03,0-0.04,0c-0.03,0-0.07,0-0.1,0c-0.23,0-0.47-0.01-0.7-0.01
									c-0.07,0-0.15,0-0.22-0.01c-0.27-0.01-0.54-0.03-0.81-0.05c-0.03,0-0.06-0.01-0.08-0.01c-0.25-0.02-0.49-0.05-0.74-0.07
									c-0.07-0.01-0.14-0.02-0.21-0.03c-0.03,0-0.06-0.01-0.09-0.01l0,0.01l-0.72-0.12l-0.75-0.12l0-0.01
									c-1.09-0.21-2.17-0.51-3.23-0.87l0,0.02l-0.84-0.33l-0.57-0.22l0-0.01c-0.08-0.03-0.15-0.07-0.23-0.1
									c-0.06-0.03-0.12-0.05-0.19-0.08c-0.26-0.12-0.52-0.23-0.77-0.36c-0.03-0.01-0.06-0.03-0.09-0.04
									c-0.23-0.11-0.46-0.23-0.69-0.35c-0.06-0.03-0.11-0.06-0.17-0.09c-0.25-0.13-0.49-0.27-0.73-0.41
									c-0.01-0.01-0.02-0.01-0.04-0.02l-0.71,3.87c0.03,0.02,0.06,0.05,0.09,0.07c0.04,0.03,0.07,0.06,0.11,0.09
									c0.05,0.04,0.09,0.07,0.14,0.11c0.04,0.03,0.08,0.06,0.12,0.09c0.05,0.04,0.1,0.08,0.15,0.11c0.04,0.03,0.08,0.06,0.12,0.09
									c0.05,0.04,0.11,0.08,0.16,0.12c0.04,0.03,0.09,0.06,0.13,0.09c0.06,0.04,0.12,0.08,0.18,0.12
									c0.05,0.03,0.09,0.06,0.14,0.09c0.06,0.04,0.13,0.08,0.2,0.12c0.05,0.03,0.09,0.06,0.14,0.09c0.07,0.04,0.15,0.09,0.22,0.13
									c0.04,0.03,0.09,0.05,0.13,0.08c0.09,0.06,0.19,0.11,0.29,0.17c0.03,0.02,0.06,0.03,0.09,0.05c0.13,0.07,0.26,0.14,0.4,0.22
									c0.05,0.03,0.1,0.05,0.15,0.08c0.09,0.05,0.18,0.09,0.28,0.14c0.06,0.03,0.13,0.06,0.19,0.09c0.09,0.04,0.17,0.08,0.26,0.12
									c0.07,0.03,0.14,0.07,0.21,0.1c0.09,0.04,0.17,0.08,0.26,0.12c0.08,0.03,0.15,0.07,0.23,0.1c0.09,0.04,0.18,0.08,0.27,0.12
									c0.08,0.03,0.16,0.07,0.25,0.1c0.09,0.04,0.19,0.08,0.28,0.12c0.09,0.03,0.17,0.07,0.26,0.1c0.1,0.04,0.2,0.08,0.3,0.11
									c0.09,0.03,0.18,0.07,0.28,0.1c0.1,0.04,0.2,0.08,0.31,0.11c0.1,0.03,0.19,0.07,0.29,0.1c0.11,0.04,0.21,0.07,0.32,0.11
									c0.1,0.03,0.2,0.07,0.31,0.1c0.11,0.04,0.22,0.07,0.34,0.11c0.11,0.03,0.21,0.07,0.32,0.1c0.12,0.04,0.23,0.07,0.35,0.11
									c0.11,0.03,0.22,0.07,0.34,0.1c0.12,0.04,0.24,0.07,0.37,0.11c0.12,0.03,0.23,0.07,0.35,0.1c0.13,0.03,0.25,0.07,0.38,0.1
									c0.12,0.03,0.24,0.06,0.37,0.1c0.13,0.03,0.27,0.07,0.41,0.1c0.12,0.03,0.25,0.06,0.38,0.09c0.14,0.03,0.28,0.07,0.43,0.1
									c0.13,0.03,0.26,0.06,0.39,0.09c0.15,0.03,0.29,0.07,0.44,0.1c0.13,0.03,0.27,0.06,0.41,0.09c0.15,0.03,0.31,0.07,0.47,0.1
									c0.14,0.03,0.28,0.06,0.42,0.09c0.16,0.03,0.33,0.06,0.49,0.1c0.14,0.03,0.28,0.06,0.43,0.08c0.17,0.03,0.35,0.06,0.52,0.1
									c0.14,0.03,0.29,0.05,0.43,0.08c0.18,0.03,0.37,0.06,0.56,0.1c0.15,0.02,0.29,0.05,0.44,0.07c0.2,0.03,0.4,0.06,0.61,0.1
									c0.14,0.02,0.28,0.04,0.42,0.07c0.23,0.04,0.47,0.07,0.71,0.1c0.12,0.02,0.24,0.04,0.36,0.05c0.36,0.05,0.73,0.1,1.11,0.15
									c0.43,0.06,0.85,0.11,1.27,0.15c0.17,0.02,0.35,0.04,0.52,0.05c0.24,0.02,0.49,0.05,0.72,0.07c0.2,0.02,0.4,0.03,0.6,0.05
									c0.21,0.02,0.42,0.04,0.63,0.05c0.21,0.02,0.41,0.03,0.62,0.04c0.2,0.01,0.39,0.03,0.59,0.04c0.21,0.01,0.42,0.02,0.63,0.03
									c0.18,0.01,0.37,0.02,0.55,0.02c0.21,0.01,0.42,0.01,0.63,0.02c0.18,0,0.36,0.01,0.54,0.01c0.21,0,0.42,0,0.63,0.01
									c0.17,0,0.35,0,0.52,0c0.21,0,0.42,0,0.63-0.01c0.17,0,0.34,0,0.5-0.01c0.21,0,0.41-0.01,0.61-0.02
									c0.16,0,0.33-0.01,0.49-0.01c0.2-0.01,0.4-0.02,0.6-0.03c0.16-0.01,0.32-0.01,0.48-0.02c0.2-0.01,0.4-0.03,0.6-0.04
									c0.16-0.01,0.31-0.02,0.47-0.03c0.2-0.01,0.39-0.03,0.59-0.05c0.15-0.01,0.31-0.03,0.46-0.04c0.19-0.02,0.39-0.04,0.58-0.06
									c0.15-0.02,0.3-0.03,0.45-0.05c0.19-0.02,0.38-0.04,0.57-0.07c0.15-0.02,0.29-0.03,0.44-0.05c0.19-0.02,0.37-0.05,0.55-0.07
									c0.15-0.02,0.29-0.04,0.43-0.06c0.18-0.03,0.36-0.05,0.54-0.08c0.14-0.02,0.29-0.04,0.43-0.07
									c0.18-0.03,0.35-0.06,0.52-0.09c0.14-0.02,0.28-0.05,0.42-0.07c0.17-0.03,0.34-0.06,0.51-0.1c0.14-0.03,0.27-0.05,0.41-0.08
									c0.17-0.03,0.33-0.07,0.5-0.1c0.13-0.03,0.27-0.06,0.4-0.08c0.16-0.03,0.32-0.07,0.48-0.11c0.13-0.03,0.26-0.06,0.39-0.09
									c0.16-0.04,0.31-0.07,0.47-0.11c0.13-0.03,0.26-0.06,0.39-0.09c0.15-0.04,0.3-0.08,0.46-0.12c0.13-0.03,0.25-0.07,0.38-0.1
									c0.15-0.04,0.29-0.08,0.44-0.12c0.12-0.03,0.25-0.07,0.37-0.1c0.14-0.04,0.29-0.08,0.43-0.12c0.12-0.04,0.24-0.07,0.36-0.11
									c0.14-0.04,0.28-0.08,0.41-0.13c0.12-0.04,0.24-0.07,0.35-0.11c0.13-0.04,0.27-0.09,0.4-0.13c0.12-0.04,0.23-0.08,0.35-0.11
									C956.37,161.46,956.5,161.42,956.63,161.37z"/>
							</g>
						</g>
						<g>
							<g>
								<path d="M1014.31,164.77c-1.36-1.1-2.94-2.05-4.69-2.83c-1.9-0.81-3.86-1.59-5.82-2.29c-1.99-0.72-3.84-1.39-5.48-1.99
									c-1.45-0.5-2.92-0.99-4.38-1.49c-0.22-0.07-0.43-0.15-0.65-0.22c-0.2-0.07-0.4-0.13-0.6-0.2c-0.38-0.13-0.69-0.4-0.87-0.76
									c-0.01-0.02-0.02-0.05-0.03-0.07c-0.03-0.06-0.05-0.12-0.07-0.18c-0.08-0.29-0.08-0.61,0.02-0.9
									c0.63-1.84,1.59-3.34,2.83-4.45c0.02-0.01,0.03-0.03,0.05-0.04c1.14-0.94,2.66-1.58,4.52-1.9c0.4-0.07,0.83-0.1,1.28-0.1
									c1.66,0,3.59,0.47,5.88,1.45c0.19,0.08,0.37,0.21,0.51,0.36c0.6,0.65,1.23,1.23,1.88,1.73c0.5,0.36,1.12,0.69,1.85,0.97
									c0.4,0.16,0.81,0.23,1.24,0.23c0.22,0,0.44-0.02,0.67-0.06c0,0,0.01,0,0.01,0c0.67-0.11,1.17-0.38,1.58-0.85
									c0.41-0.46,0.6-0.99,0.62-1.67c0.02-0.73-0.26-1.6-0.83-2.57c-0.6-1.02-1.69-2.07-3.21-3.1c-1.66-1.13-2.98-1.95-3.91-2.46
									c-0.97-0.53-1.69-0.93-2.13-1.2c-0.62-0.37-1.21-0.82-1.36-1.57c-0.1-0.5,0.03-1.02,0.26-1.64
									c0.17-0.57,0.08-1.39-0.25-2.38c-0.34-1.02-1.14-2.01-2.37-2.92c-0.68-0.48-1.38-0.87-2.09-1.15
									c-0.65-0.26-1.29-0.39-1.9-0.39c-0.57,0-1.08,0.12-1.56,0.37c-0.4,0.21-0.76,0.62-1.06,1.21c-0.38,0.76-0.65,1.5-0.79,2.2
									c-0.17,0.84-0.3,1.53-0.41,2.12c-0.09,0.59-0.11,1.17-0.07,1.71c0.06,0.73-0.41,1.39-1.12,1.57
									c-1.76,0.45-3.33,1.13-4.67,2.02c-1.14,0.85-2.25,2.02-3.31,3.48c-0.98,1.35-1.5,3.19-1.55,5.48c0,0.01,0,0.02,0,0.03
									c-0.1,2.29,0.35,4.26,1.32,5.85c0.19,0.31,0.4,0.62,0.61,0.91c0.02,0.04,0.05,0.07,0.07,0.11c0.51,0.71,1.07,1.36,1.68,1.96
									c0.15,0.15,0.3,0.29,0.45,0.43c0.33,0.29,0.66,0.57,1.01,0.84c1.55,1.17,3.21,2.11,4.91,2.81c1.85,0.76,3.35,1.36,4.61,1.85
									c1.17,0.41,2.39,0.83,3.71,1.28c1.19,0.41,2.28,0.75,3.24,1.01c0,0,0.01,0,0.01,0c1.17,0.33,2.28,0.64,3.3,0.91
									c0.58,0.15,1.01,0.63,1.1,1.22c0.09,0.59-0.18,1.18-0.69,1.49c-1.23,0.76-2.6,1.45-4.06,2.03
									c-0.01,0.01-0.03,0.01-0.04,0.02c-1.29,0.47-2.78,0.87-4.43,1.19c-1.11,0.21-2.3,0.32-3.54,0.32
									c-0.67,0-1.37-0.03-2.07-0.09c-2.13-0.19-3.7-0.68-4.79-1.49c-0.95-0.71-1.77-1.48-2.44-2.3c-0.5-0.61-1.04-1.14-1.62-1.56
									c-0.2-0.15-0.73-0.39-1.98-0.39c-0.12,0-0.25,0-0.38,0.01c-1.18,0.04-2.04,0.31-2.57,0.81c-0.52,0.49-0.78,1.05-0.82,1.77
									c-0.04,0.8,0.26,1.73,0.9,2.76c0.69,1.12,1.8,2.22,3.29,3.26c1.6,1.12,3,2,4.16,2.6c1.19,0.62,2.21,1.13,3.02,1.51
									c0.89,0.41,1.57,0.77,2.07,1.09c1.05,0.65,1.36,1.54,1.44,2.16c0.02,0.17,0.11,0.58,0.47,1.43
									c0.27,0.62,0.69,1.26,1.24,1.88c0.57,0.64,1.27,1.22,2.08,1.72c0.71,0.44,1.6,0.69,2.66,0.73c0.58,0,1.32-0.09,1.63-0.48
									c0.4-0.5,0.66-1.07,0.78-1.75c0.15-0.8,0.21-1.57,0.18-2.26c-0.04-1.21,0.11-1.96,0.51-2.49c0.04-0.06,0.09-0.11,0.14-0.16
									c0.47-0.47,1.17-0.68,2.88-0.88c1.07-0.13,2.31-0.4,3.7-0.82c1.35-0.41,2.75-1.03,4.17-1.86c1.3-0.76,2.33-1.82,3.15-3.26
									c0.8-1.47,1.19-2.9,1.14-4.26c-0.05-1.4-0.42-2.68-1.13-3.92C1016.67,167.03,1015.63,165.84,1014.31,164.77z"/>
							</g>
							<g>
								<polygon points="957.29,172.92 957.02,173.65 957.3,172.92 								"/>
							</g>
							<g>
								<polygon points="957.02,173.65 957.02,173.65 957.02,173.65 								"/>
							</g>
							<g>
								<path class="st4" d="M921.16,155.36c0.06,0.01,0.12,0.01,0.18,0.02c0.25,0.02,0.5,0.04,0.75,0.05c0.04,0,0.08,0,0.12,0
									c0.22,0.01,0.43,0.01,0.65,0.02c0.06,0,0.13,0,0.19,0c0.25,0,0.5,0,0.76-0.01c0,0,0,0,0.01,0l0.95-5.24l0.25-1.4
									c-1.07-0.38-2.14-0.73-3.2-1.05l-0.69,3.77l-0.68,3.76c0.04,0,0.08,0.01,0.12,0.01
									C920.76,155.32,920.96,155.34,921.16,155.36z"/>
								<path class="st4" d="M916.64,154.46c0.21,0.06,0.41,0.13,0.62,0.18c0.04,0.01,0.07,0.02,0.11,0.03
									c0.24,0.07,0.48,0.13,0.72,0.18c0.06,0.01,0.12,0.03,0.18,0.04c0.2,0.05,0.39,0.09,0.59,0.13c0.04,0.01,0.07,0.02,0.11,0.02
									l1.4-7.71c-1.09-0.3-2.18-0.57-3.25-0.8l-0.23,1.28l-1.15,6.33c0.01,0,0.03,0.01,0.04,0.01c0.22,0.08,0.44,0.15,0.66,0.22
									C916.5,154.42,916.57,154.44,916.64,154.46z"/>
								<path class="st4" d="M944.77,138.74c3.23,0,5.87-2.2,5.87-4.91c0-0.42-0.07-0.84-0.19-1.25l-11.48,1.93
									C939.37,136.9,941.83,138.74,944.77,138.74z"/>
								<path class="st4" d="M912.24,152.54c0.17,0.09,0.33,0.19,0.5,0.28c0.06,0.03,0.12,0.06,0.18,0.09
									c0.21,0.11,0.43,0.22,0.65,0.33c0.02,0.01,0.04,0.02,0.06,0.03c0.2,0.1,0.4,0.19,0.6,0.28c0.03,0.01,0.06,0.03,0.09,0.04
									l0.03-0.16l1.31-7.18c-1.06-0.2-2.09-0.35-3.06-0.47l-1.15,6.28c0.01,0.01,0.02,0.01,0.03,0.02
									c0.2,0.13,0.41,0.25,0.62,0.37C912.14,152.48,912.19,152.51,912.24,152.54z"/>
								<path class="st4" d="M926.22,155.24c0.26-0.04,0.52-0.08,0.78-0.12c0.07-0.01,0.14-0.03,0.21-0.04
									c0.21-0.04,0.43-0.08,0.64-0.13c0.05-0.01,0.1-0.02,0.15-0.03c0.26-0.06,0.51-0.12,0.77-0.18c0.02-0.01,0.04-0.01,0.06-0.02
									l0.75-4.1c-1.04-0.46-2.1-0.89-3.16-1.29l-1.09,6.01c0.03,0,0.07-0.01,0.1-0.01c0.25-0.03,0.5-0.05,0.75-0.09
									C926.2,155.24,926.21,155.24,926.22,155.24z"/>
								<path class="st4" d="M947.81,163.58c0.18-0.03,0.35-0.06,0.52-0.09c0.14-0.02,0.28-0.05,0.42-0.07
									c0.17-0.03,0.34-0.06,0.51-0.1c0.14-0.03,0.27-0.05,0.41-0.08c0.17-0.03,0.33-0.07,0.5-0.1c0.13-0.03,0.27-0.06,0.4-0.08
									c0.16-0.03,0.32-0.07,0.48-0.11c0.13-0.03,0.26-0.06,0.39-0.09c0.16-0.04,0.31-0.07,0.47-0.11
									c0.13-0.03,0.26-0.06,0.39-0.09c0.15-0.04,0.3-0.08,0.46-0.12c0.13-0.03,0.25-0.07,0.38-0.1c0.15-0.04,0.29-0.08,0.44-0.12
									c0.12-0.03,0.25-0.07,0.37-0.1c0.14-0.04,0.29-0.08,0.43-0.12c0.12-0.04,0.24-0.07,0.36-0.11c0.14-0.04,0.28-0.08,0.41-0.13
									c0.12-0.04,0.24-0.07,0.35-0.11c0.13-0.04,0.27-0.09,0.4-0.13c0.12-0.04,0.23-0.08,0.35-0.11c0.13-0.04,0.26-0.09,0.38-0.13
									c0.11-0.04,0.23-0.08,0.34-0.12c0.12-0.04,0.25-0.09,0.37-0.13c0.11-0.04,0.22-0.08,0.33-0.12
									c0.12-0.04,0.24-0.09,0.36-0.13c0.11-0.04,0.21-0.08,0.32-0.12c0.12-0.04,0.23-0.09,0.34-0.13c0.1-0.04,0.21-0.08,0.31-0.12
									c0.11-0.04,0.22-0.09,0.33-0.13c0.1-0.04,0.2-0.08,0.3-0.12c0.11-0.04,0.21-0.09,0.31-0.13c0.05-0.02,0.1-0.04,0.15-0.06
									l4.96-13.41c-1.12-8.41-4.42-14.29-5.86-16.54c-0.6-0.23-1.21-0.46-1.85-0.7c0.01,0.02,0.02,0.04,0.03,0.06
									c0.05,0.1,0.09,0.19,0.14,0.29c0.09,0.18,0.17,0.36,0.25,0.53c0.05,0.11,0.09,0.21,0.14,0.31c0.07,0.16,0.14,0.32,0.21,0.48
									c0.05,0.11,0.09,0.21,0.13,0.31c0.06,0.15,0.12,0.3,0.18,0.45c0.04,0.1,0.08,0.2,0.12,0.3c0.06,0.15,0.11,0.29,0.16,0.44
									c0.03,0.09,0.07,0.19,0.1,0.28c0.05,0.15,0.1,0.3,0.14,0.44c0.03,0.08,0.05,0.16,0.07,0.24c0.05,0.17,0.1,0.34,0.14,0.51
									c0.01,0.05,0.03,0.09,0.04,0.14c0.05,0.21,0.1,0.42,0.14,0.62c0.01,0.05,0.02,0.09,0.02,0.14c0.03,0.15,0.05,0.3,0.07,0.44
									c0.01,0.07,0.01,0.13,0.02,0.2c0.01,0.12,0.03,0.24,0.03,0.35c0.01,0.07,0.01,0.14,0.01,0.21c0,0.11,0.01,0.21,0.01,0.31
									c0,0.07,0,0.13,0,0.2c0,0.1-0.01,0.19-0.02,0.29c-0.01,0.06-0.01,0.13-0.02,0.19c-0.01,0.09-0.03,0.18-0.05,0.27
									c-0.01,0.06-0.02,0.11-0.03,0.17c-0.02,0.09-0.05,0.19-0.08,0.28c-0.01,0.04-0.02,0.09-0.04,0.13
									c-0.05,0.13-0.1,0.25-0.16,0.37c-0.43,0.87-1.35,1.85-2.62,2.79c-0.19,0.14-0.4,0.29-0.61,0.43
									c-0.45,0.3-0.93,0.59-1.44,0.87c-1.53,0.83-3.34,1.54-5.27,1.97c-0.13,0.03-0.27,0.06-0.4,0.08
									c-0.04,0.01-0.08,0.01-0.11,0.02c-0.1,0.02-0.21,0.04-0.31,0.06c-0.04,0.01-0.09,0.02-0.13,0.02
									c-0.11,0.02-0.22,0.04-0.33,0.05c-0.03,0.01-0.07,0.01-0.11,0.02c-0.15,0.02-0.3,0.04-0.45,0.06c-0.01,0-0.02,0-0.03,0
									c-0.14,0.02-0.28,0.03-0.43,0.04c-0.04,0-0.09,0.01-0.13,0.01c-0.12,0.01-0.23,0.02-0.35,0.03c-0.05,0-0.09,0.01-0.14,0.01
									c-0.13,0.01-0.26,0.01-0.39,0.02c-0.03,0-0.06,0-0.1,0c-0.16,0-0.33,0.01-0.5,0.01c-0.01,0-0.01,0-0.02,0
									c-0.02,0-0.04,0-0.06,0c-0.15,0-0.31,0-0.46-0.01c-0.05,0-0.1,0-0.15-0.01c-0.15-0.01-0.3-0.01-0.46-0.02
									c-0.03,0-0.06,0-0.1-0.01c-0.18-0.01-0.37-0.03-0.55-0.05c-0.04,0-0.08-0.01-0.13-0.01c-0.15-0.02-0.3-0.04-0.44-0.06
									c-0.05-0.01-0.11-0.02-0.16-0.02c-0.18-0.03-0.35-0.06-0.53-0.09c-0.01,0-0.03,0-0.04-0.01c-0.19-0.04-0.38-0.08-0.57-0.12
									c-0.05-0.01-0.11-0.03-0.16-0.04c-0.15-0.04-0.3-0.07-0.44-0.11c-0.05-0.01-0.11-0.03-0.16-0.04
									c-0.19-0.05-0.39-0.11-0.58-0.18c-0.02-0.01-0.05-0.02-0.07-0.02c-0.17-0.06-0.35-0.12-0.52-0.18
									c-0.06-0.02-0.12-0.04-0.18-0.07c-0.15-0.06-0.31-0.12-0.46-0.18c-0.05-0.02-0.1-0.04-0.15-0.06
									c-0.2-0.08-0.39-0.17-0.59-0.27c-0.04-0.02-0.09-0.04-0.13-0.06c-0.16-0.08-0.32-0.16-0.47-0.24
									c-0.06-0.03-0.12-0.06-0.18-0.1c-0.17-0.09-0.33-0.18-0.5-0.28c-0.03-0.02-0.07-0.04-0.1-0.06
									c-0.2-0.12-0.39-0.24-0.59-0.37c-0.05-0.03-0.11-0.07-0.16-0.11c-0.15-0.1-0.3-0.21-0.46-0.32
									c-0.06-0.04-0.11-0.08-0.17-0.12c-0.2-0.15-0.4-0.3-0.59-0.45c-0.11-0.09-0.22-0.18-0.33-0.28
									c-0.04-0.03-0.07-0.07-0.11-0.1c-0.07-0.06-0.14-0.13-0.21-0.2c-0.04-0.04-0.08-0.09-0.12-0.13
									c-0.06-0.06-0.12-0.13-0.18-0.19c-0.04-0.05-0.08-0.1-0.13-0.15c-0.05-0.06-0.11-0.13-0.16-0.19
									c-0.04-0.05-0.08-0.11-0.13-0.17c-0.05-0.07-0.1-0.13-0.15-0.2c-0.04-0.06-0.08-0.12-0.13-0.18
									c-0.05-0.07-0.1-0.14-0.14-0.21c-0.04-0.06-0.08-0.13-0.12-0.19c-0.04-0.07-0.09-0.14-0.13-0.22
									c-0.04-0.07-0.08-0.14-0.12-0.2c-0.04-0.07-0.09-0.15-0.13-0.22c-0.04-0.07-0.07-0.14-0.11-0.22
									c-0.04-0.08-0.08-0.15-0.12-0.23c-0.04-0.08-0.07-0.15-0.11-0.23c-0.04-0.08-0.07-0.16-0.11-0.24
									c-0.03-0.08-0.07-0.16-0.1-0.24c-0.03-0.08-0.07-0.17-0.1-0.25c-0.03-0.08-0.07-0.17-0.1-0.25
									c-0.03-0.09-0.07-0.17-0.1-0.26c-0.03-0.09-0.06-0.18-0.09-0.27c-0.03-0.09-0.06-0.18-0.09-0.27
									c-0.03-0.09-0.06-0.18-0.09-0.28c-0.03-0.09-0.06-0.19-0.09-0.28c-0.03-0.09-0.05-0.19-0.08-0.29
									c-0.03-0.1-0.05-0.19-0.08-0.29c-0.03-0.1-0.05-0.2-0.08-0.3c-0.03-0.1-0.05-0.2-0.07-0.3c-0.02-0.1-0.05-0.21-0.07-0.31
									c-0.02-0.1-0.05-0.21-0.07-0.31c-0.02-0.11-0.04-0.21-0.06-0.32c-0.02-0.11-0.04-0.21-0.06-0.32
									c-0.02-0.11-0.04-0.22-0.06-0.33c-0.02-0.11-0.04-0.22-0.05-0.33c-0.02-0.11-0.04-0.23-0.05-0.35
									c-0.02-0.11-0.03-0.23-0.05-0.34c-0.02-0.12-0.03-0.24-0.05-0.35c-0.01-0.12-0.03-0.23-0.04-0.35
									c-0.01-0.12-0.03-0.24-0.04-0.37c-0.01-0.12-0.03-0.24-0.04-0.36c-0.01-0.12-0.02-0.25-0.03-0.38
									c-0.01-0.12-0.02-0.25-0.03-0.38c-0.01-0.13-0.02-0.26-0.03-0.39c-0.01-0.13-0.02-0.26-0.03-0.38
									c-0.01-0.13-0.02-0.26-0.02-0.4c-0.01-0.13-0.01-0.26-0.02-0.4c-0.01-0.13-0.01-0.27-0.02-0.41
									c-0.01-0.14-0.01-0.27-0.01-0.41c0-0.14-0.01-0.28-0.01-0.42c0-0.14-0.01-0.28-0.01-0.42c0-0.14,0-0.28,0-0.43
									c0-0.14,0-0.29,0-0.43c0-0.15,0-0.29,0-0.44c0-0.15,0-0.29,0-0.44c0-0.15,0-0.3,0.01-0.45c0-0.15,0.01-0.3,0.01-0.45
									c0-0.15,0.01-0.31,0.01-0.46c0.01-0.15,0.01-0.31,0.02-0.46c0.01-0.16,0.01-0.31,0.02-0.47c0-0.05,0-0.09,0.01-0.14
									c-16.81-2.84-29.31-0.91-37.17,5.73c-0.28,0.24-0.44,0.59-0.44,0.96c0,0.37,0.17,0.72,0.46,0.96
									c2.68,2.2,8.75,6.49,19.34,10.41c0,0,0,0,0,0c0.04,0.01,0.07,0.03,0.11,0.04c0.12,0.04,0.24,0.09,0.36,0.13
									c6.1,2.22,30.69,11.28,33.68,11.92c1.7,0.36,3.61-0.53,5.67-2.64l3.09-3.18l-1.88,4.01c-0.08,0.17-2.02,4.23-6.47,5.63
									c-3.21,1.01-6.84,0.38-10.79-1.89c-0.2-0.11-0.39-0.22-0.59-0.33c-0.08,0.04-0.15,0.08-0.23,0.11
									c-0.12,0.06-0.24,0.12-0.36,0.18c-0.14,0.07-0.28,0.14-0.42,0.2c-0.12,0.06-0.24,0.11-0.35,0.17
									c-0.14,0.07-0.29,0.13-0.43,0.19c-0.12,0.05-0.23,0.1-0.35,0.15c-0.15,0.06-0.29,0.12-0.44,0.18
									c-0.11,0.05-0.23,0.09-0.34,0.14c-0.15,0.06-0.3,0.12-0.45,0.17c-0.11,0.04-0.22,0.08-0.33,0.12
									c-0.16,0.06-0.31,0.11-0.47,0.17c-0.1,0.04-0.21,0.07-0.31,0.11c-0.17,0.06-0.34,0.11-0.51,0.17
									c-0.09,0.03-0.17,0.06-0.26,0.08c-0.11,0.03-0.21,0.06-0.32,0.09l0,0.01l-0.45,0.12l-1.14,0.31l0.01-0.03
									c-0.29,0.07-0.58,0.13-0.87,0.18c-0.87,0.17-1.75,0.28-2.62,0.36l0,0.01l-0.59,0.03l-0.95,0.05l0-0.02
									c-0.12,0-0.24,0-0.36,0.01c-0.01,0-0.03,0-0.04,0c-0.03,0-0.07,0-0.1,0c-0.23,0-0.47-0.01-0.7-0.01
									c-0.07,0-0.15,0-0.22-0.01c-0.27-0.01-0.54-0.03-0.81-0.05c-0.03,0-0.06-0.01-0.08-0.01c-0.25-0.02-0.49-0.05-0.74-0.07
									c-0.07-0.01-0.14-0.02-0.21-0.03c-0.03,0-0.06-0.01-0.09-0.01l0,0.01l-0.72-0.12l-0.75-0.12l0-0.01
									c-1.09-0.21-2.17-0.51-3.23-0.87l0,0.02l-0.84-0.33l-0.57-0.22l0-0.01c-0.08-0.03-0.15-0.07-0.23-0.1
									c-0.06-0.03-0.12-0.05-0.19-0.08c-0.26-0.12-0.52-0.23-0.77-0.36c-0.03-0.01-0.06-0.03-0.09-0.04
									c-0.23-0.11-0.46-0.23-0.69-0.35c-0.06-0.03-0.11-0.06-0.17-0.09c-0.25-0.13-0.49-0.27-0.73-0.41
									c-0.01-0.01-0.02-0.01-0.04-0.02l-0.71,3.87c0.03,0.02,0.06,0.05,0.09,0.07c0.04,0.03,0.07,0.06,0.11,0.09
									c0.05,0.04,0.09,0.07,0.14,0.11c0.04,0.03,0.08,0.06,0.12,0.09c0.05,0.04,0.1,0.08,0.15,0.11c0.04,0.03,0.08,0.06,0.12,0.09
									c0.05,0.04,0.11,0.08,0.16,0.12c0.04,0.03,0.09,0.06,0.13,0.09c0.06,0.04,0.12,0.08,0.18,0.12
									c0.05,0.03,0.09,0.06,0.14,0.09c0.06,0.04,0.13,0.08,0.2,0.12c0.05,0.03,0.09,0.06,0.14,0.09c0.07,0.04,0.15,0.09,0.22,0.13
									c0.04,0.03,0.09,0.05,0.13,0.08c0.09,0.06,0.19,0.11,0.29,0.17c0.03,0.02,0.06,0.03,0.09,0.05c0.13,0.07,0.26,0.14,0.4,0.22
									c0.05,0.03,0.1,0.05,0.15,0.08c0.09,0.05,0.18,0.09,0.28,0.14c0.06,0.03,0.13,0.06,0.19,0.09c0.09,0.04,0.17,0.08,0.26,0.12
									c0.07,0.03,0.14,0.07,0.21,0.1c0.09,0.04,0.17,0.08,0.26,0.12c0.08,0.03,0.15,0.07,0.23,0.1c0.09,0.04,0.18,0.08,0.27,0.12
									c0.08,0.03,0.16,0.07,0.25,0.1c0.09,0.04,0.19,0.08,0.28,0.12c0.09,0.03,0.17,0.07,0.26,0.1c0.1,0.04,0.2,0.08,0.3,0.11
									c0.09,0.03,0.18,0.07,0.28,0.1c0.1,0.04,0.2,0.08,0.31,0.11c0.1,0.03,0.19,0.07,0.29,0.1c0.11,0.04,0.21,0.07,0.32,0.11
									c0.1,0.03,0.2,0.07,0.31,0.1c0.11,0.04,0.22,0.07,0.34,0.11c0.11,0.03,0.21,0.07,0.32,0.1c0.12,0.04,0.23,0.07,0.35,0.11
									c0.11,0.03,0.22,0.07,0.34,0.1c0.12,0.04,0.24,0.07,0.37,0.11c0.12,0.03,0.23,0.07,0.35,0.1c0.13,0.03,0.25,0.07,0.38,0.1
									c0.12,0.03,0.24,0.06,0.37,0.1c0.13,0.03,0.27,0.07,0.41,0.1c0.12,0.03,0.25,0.06,0.38,0.09c0.14,0.03,0.28,0.07,0.43,0.1
									c0.13,0.03,0.26,0.06,0.39,0.09c0.15,0.03,0.29,0.07,0.44,0.1c0.13,0.03,0.27,0.06,0.41,0.09c0.15,0.03,0.31,0.07,0.47,0.1
									c0.14,0.03,0.28,0.06,0.42,0.09c0.16,0.03,0.33,0.06,0.49,0.1c0.14,0.03,0.28,0.06,0.43,0.08c0.17,0.03,0.35,0.06,0.52,0.1
									c0.14,0.03,0.29,0.05,0.43,0.08c0.18,0.03,0.37,0.06,0.56,0.1c0.15,0.02,0.29,0.05,0.44,0.07c0.2,0.03,0.4,0.06,0.61,0.1
									c0.14,0.02,0.28,0.04,0.42,0.07c0.23,0.04,0.47,0.07,0.71,0.1c0.12,0.02,0.24,0.04,0.36,0.05c0.36,0.05,0.73,0.1,1.11,0.15
									c0.43,0.06,0.85,0.11,1.27,0.15c0.17,0.02,0.35,0.04,0.52,0.05c0.24,0.02,0.49,0.05,0.72,0.07c0.2,0.02,0.4,0.03,0.6,0.05
									c0.21,0.02,0.42,0.04,0.63,0.05c0.21,0.02,0.41,0.03,0.62,0.04c0.2,0.01,0.39,0.03,0.59,0.04c0.21,0.01,0.42,0.02,0.63,0.03
									c0.18,0.01,0.37,0.02,0.55,0.02c0.21,0.01,0.42,0.01,0.63,0.02c0.18,0,0.36,0.01,0.54,0.01c0.21,0,0.42,0,0.63,0.01
									c0.17,0,0.35,0,0.52,0c0.21,0,0.42,0,0.63-0.01c0.17,0,0.34,0,0.5-0.01c0.21,0,0.41-0.01,0.61-0.02
									c0.16,0,0.33-0.01,0.49-0.01c0.2-0.01,0.4-0.02,0.6-0.03c0.16-0.01,0.32-0.01,0.48-0.02c0.2-0.01,0.4-0.03,0.6-0.04
									c0.16-0.01,0.31-0.02,0.47-0.03c0.2-0.01,0.39-0.03,0.59-0.05c0.15-0.01,0.31-0.03,0.46-0.04c0.19-0.02,0.39-0.04,0.58-0.06
									c0.15-0.02,0.3-0.03,0.45-0.05c0.19-0.02,0.38-0.04,0.57-0.07c0.15-0.02,0.29-0.03,0.44-0.05c0.19-0.02,0.37-0.05,0.55-0.07
									c0.15-0.02,0.29-0.04,0.43-0.06c0.18-0.03,0.36-0.05,0.54-0.08C947.52,163.62,947.67,163.6,947.81,163.58z"/>
								<path class="st4" d="M931.16,154.02c0.1-0.03,0.2-0.07,0.29-0.1c0.23-0.08,0.45-0.17,0.68-0.26
									c0.06-0.02,0.11-0.04,0.17-0.07c0.28-0.11,0.56-0.23,0.85-0.36c0.08-0.03,0.15-0.07,0.23-0.1c0.21-0.09,0.41-0.19,0.62-0.28
									c0.04-0.02,0.07-0.04,0.11-0.05c-1.02-0.54-2.06-1.06-3.11-1.54l-0.55,3.01c0.05-0.02,0.1-0.03,0.15-0.05
									C930.79,154.15,930.97,154.09,931.16,154.02z"/>
								<path class="st4" d="M895.7,165.15l0.02-0.03c-0.07-0.04-0.14-0.08-0.21-0.12c-0.05-0.03-0.11-0.06-0.16-0.09
									c-0.03-0.02-0.06-0.04-0.09-0.06c-0.08-0.05-0.17-0.1-0.25-0.16c-0.01-0.01-0.01-0.01-0.02-0.02
									c-0.42-0.28-0.77-0.58-1.05-0.89c-0.04-0.05-0.08-0.09-0.12-0.14c-0.03-0.03-0.05-0.06-0.08-0.09
									c-0.06-0.08-0.12-0.16-0.17-0.24l-0.13,0.07v0l-4.55,2.58c0.45,0.75,1.06,2.02,1.17,3.51l0.02,0.01v0.47c0,0,0,0,0,0
									c0,0.17-0.01,0.35-0.02,0.51c-0.08,0.97,0.09,1.93,0.3,2.57c0.21-0.43,0.57-1.09,1.24-2.11l0.36-0.55l0,0
									C893.12,168.65,894.63,166.59,895.7,165.15L895.7,165.15z"/>
								<path class="st4" d="M1027.52,133.23c-18.69-16.86-40.05-17.55-54.69-15.16c-10.02,1.64-18.34,4.89-23.16,7.1
									c1.49,0.48,3,0.98,4.52,1.51l-0.01-0.01l1.85,0.66l0.27,0.1v0c0.63,0.23,1.24,0.45,1.84,0.67l5.96-1.65l0.31,0.35
									c0.36,0.41,0.7,0.91,1.03,1.48c1.23-0.17,3.18-0.2,4.97,0.77c1.68,0.91,2.84,2.49,3.46,4.69c1.64,5.81-2.17,8.39-3.71,9.17
									c0.25,1.18,0.39,1.97,0.41,2.1l0.08,0.44l-5.11,4.12l-3.56,9.65l-2.63,7.12l4.37,2.58l-0.45,0.28
									c-1.74,0.77-3.45,1.53-5.12,2.28c-0.13,0.06-0.25,0.11-0.37,0.17c-0.64,0.28-1.27,0.57-1.9,0.85
									c-0.07,0.03-0.14,0.06-0.21,0.09c-0.48,0.22-0.97,0.43-1.44,0.65c-2.45,1.1-4.79,2.15-6.98,3.15
									c-3.87,1.76-7.27,3.34-9.94,4.62c-0.91-0.36-1.84-0.72-2.78-1.09c-8.44-3.3-17.96-6.98-26.31-10.18
									c-0.64-0.24-1.27-0.49-1.89-0.72c-1.24-0.51-2.48-1.01-3.79-1.33c-1.07-0.21-2.59-0.65-2.65-1.86l-1.07-0.75
									c-0.21,0.11-0.4,0.23-0.6,0.35c-0.25,0.16-0.49,0.33-0.72,0.52c-0.13-0.05-0.25-0.1-0.37-0.15
									c-1.03,1.38-2.58,3.47-3.78,5.26l12.08,5.75l1.12-6.13c0,0,0.01-0.02,0.71,0.25c0.23,0.09,0.47,0.18,0.71,0.27
									c7.88,3.01,16.63,6.26,24.67,9.26c1.53,0.57,3.04,1.13,4.5,1.68c4.53-2.06,10.25-4.66,16.52-7.52l3.38-0.94l-1,2.62
									c1.17,10.18,3.81,18.11,7.89,23.7l1.21-1.14l0.71,3.49c1.59,1.74,3.37,3.18,5.32,4.33c14.83,8.71,37.16-1.58,46.7-5.97
									c11.1-5.11,24.87-16.35,27.13-31.17C1046.79,157.52,1040.92,145.32,1027.52,133.23z"/>
								<path class="st4" d="M946.52,201.06l3.53,11.93L962.81,201c-3.91-5.3-6.56-12.59-7.91-21.8L946.52,201.06z"/>
							</g>
						</g>
					</g>
				</g>
				<g>
					<path class="st4" d="M926.38,149.6l-1.04,5.74c0.03,0,0.07-0.01,0.1-0.01c0.25-0.03,0.5-0.05,0.75-0.09c0.01,0,0.02,0,0.03,0
						c0.26-0.04,0.52-0.08,0.78-0.12c0.07-0.01,0.14-0.03,0.21-0.04c0.21-0.04,0.43-0.08,0.64-0.13c0.05-0.01,0.1-0.02,0.15-0.03
						c0.26-0.06,0.51-0.12,0.77-0.18c0.02-0.01,0.04-0.01,0.06-0.02l0.71-3.89c-1.06-0.44-2.11-0.86-3.15-1.24
						C926.4,149.6,926.39,149.6,926.38,149.6z"/>
					<path class="st4" d="M930.96,151.44l-0.51,2.82c0.05-0.02,0.1-0.03,0.15-0.05c0.19-0.06,0.37-0.13,0.56-0.19
						c0.1-0.03,0.2-0.07,0.29-0.1c0.23-0.08,0.45-0.17,0.68-0.26c0.06-0.02,0.11-0.04,0.17-0.07c0.28-0.11,0.56-0.23,0.85-0.36
						c0.08-0.03,0.15-0.07,0.23-0.1c0.2-0.09,0.41-0.19,0.62-0.28c-0.84-0.41-1.68-0.81-2.51-1.18
						C931.31,151.59,931.14,151.52,930.96,151.44z"/>
					<path class="st4" d="M911.44,152.06c0.01,0.01,0.02,0.01,0.03,0.02c0.2,0.13,0.41,0.25,0.62,0.37c0.05,0.03,0.1,0.06,0.15,0.09
						c0.17,0.09,0.33,0.19,0.5,0.28c0.06,0.03,0.12,0.06,0.18,0.09c0.21,0.11,0.43,0.22,0.65,0.33c0.02,0.01,0.04,0.02,0.06,0.03
						c0.2,0.1,0.4,0.19,0.6,0.28c0.03,0.01,0.06,0.03,0.09,0.04l0.03-0.16l1.25-6.87c-1.07-0.21-2.09-0.37-3.06-0.5L911.44,152.06z"
						/>
					<path class="st4" d="M916.89,147.82l-1.15,6.33c0.01,0,0.03,0.01,0.04,0.01c0.22,0.08,0.44,0.15,0.66,0.22
						c0.07,0.02,0.13,0.04,0.2,0.06c0.21,0.06,0.41,0.13,0.62,0.18c0.04,0.01,0.07,0.02,0.11,0.03c0.24,0.07,0.48,0.13,0.72,0.18
						c0.06,0.01,0.12,0.03,0.18,0.04c0.2,0.05,0.39,0.09,0.59,0.13c0.04,0.01,0.07,0.02,0.11,0.02l1.34-7.39
						c-1.12-0.3-2.2-0.57-3.25-0.8L916.89,147.82z"/>
					<path class="st4" d="M921.13,151.52l-0.68,3.76c0.04,0,0.08,0.01,0.12,0.01c0.2,0.02,0.4,0.04,0.6,0.06
						c0.06,0.01,0.12,0.01,0.18,0.02c0.25,0.02,0.5,0.04,0.75,0.05c0.04,0,0.08,0,0.12,0c0.22,0.01,0.43,0.01,0.65,0.02
						c0.06,0,0.13,0,0.19,0c0.25,0,0.5,0,0.76-0.01c0,0,0,0,0.01,0l0.95-5.24l0.2-1.11c-1.09-0.38-2.16-0.71-3.21-1.02
						L921.13,151.52z"/>
					<path class="st4" d="M945.18,151.4c0.45,0.31,0.95,0.55,1.5,0.66c1.7,0.36,3.61-0.53,5.67-2.64l3.09-3.18l-1.88,4.01
						c-0.06,0.13-1.25,2.62-3.88,4.38c1.84,0.28,4.11-0.46,6.79-3.23c0,0-5.22,11.16-18.04,3.8c-0.35-0.2-0.7-0.4-1.05-0.59
						c-0.57-0.32-1.15-0.62-1.72-0.92c-0.06,0.03-0.12,0.06-0.18,0.09c-0.12,0.06-0.24,0.12-0.36,0.18
						c-0.14,0.07-0.28,0.14-0.42,0.2c-0.12,0.06-0.24,0.11-0.35,0.17c-0.14,0.07-0.29,0.13-0.43,0.19c-0.12,0.05-0.23,0.1-0.35,0.15
						c-0.15,0.06-0.29,0.12-0.44,0.18c-0.11,0.05-0.23,0.09-0.34,0.14c-0.15,0.06-0.3,0.12-0.45,0.17
						c-0.11,0.04-0.22,0.08-0.33,0.12c-0.16,0.06-0.31,0.11-0.47,0.17c-0.1,0.04-0.21,0.07-0.31,0.11
						c-0.17,0.06-0.34,0.11-0.51,0.17c-0.09,0.03-0.17,0.06-0.26,0.08c-0.11,0.03-0.21,0.06-0.32,0.09l0,0.01l-0.45,0.12l-1.14,0.31
						l0.01-0.03c-0.29,0.07-0.58,0.13-0.87,0.18c-0.87,0.17-1.75,0.28-2.62,0.36l0,0.01l-0.59,0.03l-0.95,0.05l0-0.02
						c-0.12,0-0.24,0-0.36,0.01c-0.01,0-0.03,0-0.04,0c-0.03,0-0.07,0-0.1,0c-0.23,0-0.47-0.01-0.7-0.01c-0.07,0-0.15,0-0.22-0.01
						c-0.27-0.01-0.54-0.03-0.81-0.05c-0.03,0-0.06-0.01-0.08-0.01c-0.25-0.02-0.49-0.05-0.74-0.07c-0.07-0.01-0.14-0.02-0.21-0.03
						c-0.03,0-0.06-0.01-0.09-0.01l0,0.01l-0.72-0.12l-0.75-0.12l0-0.01c-1.09-0.21-2.17-0.51-3.23-0.87l0,0.02l-0.84-0.33
						l-0.57-0.22l0-0.01c-0.08-0.03-0.15-0.07-0.23-0.1c-0.06-0.03-0.12-0.05-0.19-0.08c-0.26-0.12-0.52-0.23-0.77-0.36
						c-0.03-0.01-0.06-0.03-0.09-0.04c-0.23-0.11-0.46-0.23-0.69-0.35c-0.06-0.03-0.11-0.06-0.17-0.09
						c-0.25-0.13-0.49-0.27-0.73-0.41c-0.01-0.01-0.02-0.01-0.04-0.02l-0.71,3.87c0.03,0.02,0.06,0.05,0.09,0.07
						c0.04,0.03,0.07,0.06,0.11,0.09c0.05,0.04,0.09,0.07,0.14,0.11c0.04,0.03,0.08,0.06,0.12,0.09c0.05,0.04,0.1,0.08,0.15,0.11
						c0.04,0.03,0.08,0.06,0.12,0.09c0.05,0.04,0.11,0.08,0.16,0.12c0.04,0.03,0.09,0.06,0.13,0.09c0.06,0.04,0.12,0.08,0.18,0.12
						c0.05,0.03,0.09,0.06,0.14,0.09c0.06,0.04,0.13,0.08,0.2,0.12c0.05,0.03,0.09,0.06,0.14,0.09c0.07,0.04,0.15,0.09,0.22,0.13
						c0.04,0.03,0.09,0.05,0.13,0.08c0.09,0.06,0.19,0.11,0.29,0.17c0.03,0.02,0.06,0.03,0.09,0.05c0.13,0.07,0.26,0.14,0.4,0.22
						c0.05,0.03,0.1,0.05,0.15,0.08c0.09,0.05,0.18,0.09,0.28,0.14c0.06,0.03,0.13,0.06,0.19,0.09c0.09,0.04,0.17,0.08,0.26,0.12
						c0.07,0.03,0.14,0.07,0.21,0.1c0.09,0.04,0.17,0.08,0.26,0.12c0.08,0.03,0.15,0.07,0.23,0.1c0.09,0.04,0.18,0.08,0.27,0.12
						c0.08,0.03,0.16,0.07,0.25,0.1c0.09,0.04,0.19,0.08,0.28,0.12c0.09,0.03,0.17,0.07,0.26,0.1c0.1,0.04,0.2,0.08,0.3,0.11
						c0.09,0.03,0.18,0.07,0.28,0.1c0.1,0.04,0.2,0.08,0.31,0.11c0.1,0.03,0.19,0.07,0.29,0.1c0.11,0.04,0.21,0.07,0.32,0.11
						c0.1,0.03,0.2,0.07,0.31,0.1c0.11,0.04,0.22,0.07,0.34,0.11c0.11,0.03,0.21,0.07,0.32,0.1c0.12,0.04,0.23,0.07,0.35,0.11
						c0.11,0.03,0.22,0.07,0.34,0.1c0.12,0.04,0.24,0.07,0.37,0.11c0.12,0.03,0.23,0.07,0.35,0.1c0.13,0.03,0.25,0.07,0.38,0.1
						c0.12,0.03,0.24,0.06,0.37,0.1c0.13,0.03,0.27,0.07,0.41,0.1c0.12,0.03,0.25,0.06,0.38,0.09c0.14,0.03,0.28,0.07,0.43,0.1
						c0.13,0.03,0.26,0.06,0.39,0.09c0.15,0.03,0.29,0.07,0.44,0.1c0.13,0.03,0.27,0.06,0.41,0.09c0.15,0.03,0.31,0.07,0.47,0.1
						c0.14,0.03,0.28,0.06,0.42,0.09c0.16,0.03,0.33,0.06,0.49,0.1c0.14,0.03,0.28,0.06,0.43,0.08c0.17,0.03,0.35,0.06,0.52,0.1
						c0.14,0.03,0.29,0.05,0.43,0.08c0.18,0.03,0.37,0.06,0.56,0.1c0.15,0.02,0.29,0.05,0.44,0.07c0.2,0.03,0.4,0.06,0.61,0.1
						c0.14,0.02,0.28,0.04,0.42,0.07c0.23,0.04,0.47,0.07,0.71,0.1c0.12,0.02,0.24,0.04,0.36,0.05c0.36,0.05,0.73,0.1,1.11,0.15
						c0.43,0.06,0.85,0.11,1.27,0.15c0.17,0.02,0.35,0.04,0.52,0.05c0.24,0.02,0.49,0.05,0.72,0.07c0.2,0.02,0.4,0.03,0.6,0.05
						c0.21,0.02,0.42,0.04,0.63,0.05c0.21,0.02,0.41,0.03,0.62,0.04c0.2,0.01,0.39,0.03,0.59,0.04c0.21,0.01,0.42,0.02,0.63,0.03
						c0.18,0.01,0.37,0.02,0.55,0.02c0.21,0.01,0.42,0.01,0.63,0.02c0.18,0,0.36,0.01,0.54,0.01c0.21,0,0.42,0,0.63,0.01
						c0.17,0,0.35,0,0.52,0c0.21,0,0.42,0,0.63-0.01c0.17,0,0.34,0,0.5-0.01c0.21,0,0.41-0.01,0.61-0.02c0.16,0,0.33-0.01,0.49-0.01
						c0.2-0.01,0.4-0.02,0.6-0.03c0.16-0.01,0.32-0.01,0.48-0.02c0.2-0.01,0.4-0.03,0.6-0.04c0.16-0.01,0.31-0.02,0.47-0.03
						c0.2-0.01,0.39-0.03,0.59-0.05c0.15-0.01,0.31-0.03,0.46-0.04c0.19-0.02,0.39-0.04,0.58-0.06c0.15-0.02,0.3-0.03,0.45-0.05
						c0.19-0.02,0.38-0.04,0.57-0.07c0.15-0.02,0.29-0.03,0.44-0.05c0.19-0.02,0.37-0.05,0.55-0.07c0.15-0.02,0.29-0.04,0.43-0.06
						c0.18-0.03,0.36-0.05,0.54-0.08c0.14-0.02,0.29-0.04,0.43-0.07c0.18-0.03,0.35-0.06,0.52-0.09c0.14-0.02,0.28-0.05,0.42-0.07
						c0.17-0.03,0.34-0.06,0.51-0.1c0.14-0.03,0.27-0.05,0.41-0.08c0.17-0.03,0.33-0.07,0.5-0.1c0.13-0.03,0.27-0.06,0.4-0.08
						c0.16-0.03,0.32-0.07,0.48-0.11c0.13-0.03,0.26-0.06,0.39-0.09c0.16-0.04,0.31-0.07,0.47-0.11c0.13-0.03,0.26-0.06,0.39-0.09
						c0.15-0.04,0.3-0.08,0.46-0.12c0.13-0.03,0.25-0.07,0.38-0.1c0.15-0.04,0.29-0.08,0.44-0.12c0.12-0.03,0.25-0.07,0.37-0.1
						c0.14-0.04,0.29-0.08,0.43-0.12c0.12-0.04,0.24-0.07,0.36-0.11c0.14-0.04,0.28-0.08,0.41-0.13c0.12-0.04,0.24-0.07,0.35-0.11
						c0.13-0.04,0.27-0.09,0.4-0.13c0.12-0.04,0.23-0.08,0.35-0.11c0.13-0.04,0.26-0.09,0.38-0.13c0.11-0.04,0.23-0.08,0.34-0.12
						c0.12-0.04,0.25-0.09,0.37-0.13c0.11-0.04,0.22-0.08,0.33-0.12c0.12-0.04,0.24-0.09,0.36-0.13c0.11-0.04,0.21-0.08,0.32-0.12
						c0.12-0.04,0.23-0.09,0.34-0.13c0.1-0.04,0.21-0.08,0.31-0.12c0.11-0.04,0.22-0.09,0.33-0.13c0.1-0.04,0.2-0.08,0.3-0.12
						c0.11-0.04,0.21-0.09,0.31-0.13c0.05-0.02,0.1-0.04,0.15-0.06l4.96-13.41c-1.12-8.41-4.42-14.29-5.86-16.54
						c-0.6-0.23-1.21-0.46-1.85-0.7c0.01,0.02,0.02,0.04,0.03,0.06c0.05,0.1,0.09,0.19,0.14,0.29c0.09,0.18,0.17,0.36,0.25,0.53
						c0.05,0.11,0.09,0.21,0.14,0.31c0.07,0.16,0.14,0.32,0.21,0.48c0.05,0.11,0.09,0.21,0.13,0.31c0.06,0.15,0.12,0.3,0.18,0.45
						c0.04,0.1,0.08,0.2,0.12,0.3c0.06,0.15,0.11,0.29,0.16,0.44c0.03,0.09,0.07,0.19,0.1,0.28c0.05,0.15,0.1,0.3,0.14,0.44
						c0.03,0.08,0.05,0.16,0.07,0.24c0.05,0.17,0.1,0.34,0.14,0.51c0.01,0.05,0.03,0.09,0.04,0.14c0.05,0.21,0.1,0.42,0.14,0.62
						c0.01,0.05,0.02,0.09,0.02,0.14c0.03,0.15,0.05,0.3,0.07,0.44c0.01,0.07,0.01,0.13,0.02,0.2c0.01,0.12,0.03,0.24,0.03,0.35
						c0.01,0.07,0.01,0.14,0.01,0.21c0,0.11,0.01,0.21,0.01,0.31c0,0.07,0,0.13,0,0.2c0,0.1-0.01,0.19-0.02,0.29
						c-0.01,0.06-0.01,0.13-0.02,0.19c-0.01,0.09-0.03,0.18-0.05,0.27c-0.01,0.06-0.02,0.11-0.03,0.17
						c-0.02,0.09-0.05,0.19-0.08,0.28c-0.01,0.04-0.02,0.09-0.04,0.13c-0.05,0.13-0.1,0.25-0.16,0.37
						c-0.43,0.87-1.35,1.85-2.62,2.79c-0.19,0.14-0.4,0.29-0.61,0.43c-0.45,0.3-0.93,0.59-1.44,0.87c-1.53,0.83-3.34,1.54-5.27,1.97
						c-0.13,0.03-0.27,0.06-0.4,0.08c-0.04,0.01-0.08,0.01-0.11,0.02c-0.1,0.02-0.21,0.04-0.31,0.06c-0.04,0.01-0.09,0.02-0.13,0.02
						c-0.11,0.02-0.22,0.04-0.33,0.05c-0.03,0.01-0.07,0.01-0.11,0.02c-0.15,0.02-0.3,0.04-0.45,0.06c-0.01,0-0.02,0-0.03,0
						c-0.14,0.02-0.28,0.03-0.43,0.04c-0.04,0-0.09,0.01-0.13,0.01c-0.12,0.01-0.23,0.02-0.35,0.03c-0.05,0-0.09,0.01-0.14,0.01
						c-0.13,0.01-0.26,0.01-0.39,0.02c-0.03,0-0.06,0-0.1,0c-0.16,0-0.33,0.01-0.5,0.01c-0.01,0-0.01,0-0.02,0
						c-0.02,0-0.04,0-0.06,0c-0.15,0-0.31,0-0.46-0.01c-0.05,0-0.1,0-0.15-0.01c-0.15-0.01-0.3-0.01-0.46-0.02
						c-0.03,0-0.06,0-0.1-0.01c-0.18-0.01-0.37-0.03-0.55-0.05c-0.04,0-0.08-0.01-0.13-0.01c-0.15-0.02-0.3-0.04-0.44-0.06
						c-0.05-0.01-0.11-0.02-0.16-0.02c-0.18-0.03-0.35-0.06-0.53-0.09c-0.01,0-0.03,0-0.04-0.01c-0.19-0.04-0.38-0.08-0.57-0.12
						c-0.05-0.01-0.11-0.03-0.16-0.04c-0.15-0.04-0.3-0.07-0.44-0.11c-0.05-0.01-0.11-0.03-0.16-0.04
						c-0.19-0.05-0.39-0.11-0.58-0.18c-0.02-0.01-0.05-0.02-0.07-0.02c-0.17-0.06-0.35-0.12-0.52-0.18
						c-0.06-0.02-0.12-0.04-0.18-0.07c-0.15-0.06-0.31-0.12-0.46-0.18c-0.05-0.02-0.1-0.04-0.15-0.06c-0.2-0.08-0.39-0.17-0.59-0.27
						c-0.04-0.02-0.09-0.04-0.13-0.06c-0.16-0.08-0.32-0.16-0.47-0.24c-0.06-0.03-0.12-0.06-0.18-0.1c-0.17-0.09-0.33-0.18-0.5-0.28
						c-0.03-0.02-0.07-0.04-0.1-0.06c-0.2-0.12-0.39-0.24-0.59-0.37c-0.05-0.03-0.11-0.07-0.16-0.11c-0.15-0.1-0.3-0.21-0.46-0.32
						c-0.06-0.04-0.11-0.08-0.17-0.12c-0.2-0.15-0.4-0.3-0.59-0.45c-0.11-0.09-0.22-0.18-0.33-0.28c-0.04-0.03-0.07-0.07-0.11-0.1
						c-0.07-0.06-0.14-0.13-0.21-0.2c-0.04-0.04-0.08-0.09-0.12-0.13c-0.06-0.06-0.12-0.13-0.18-0.19c-0.04-0.05-0.08-0.1-0.13-0.15
						c-0.05-0.06-0.11-0.13-0.16-0.19c-0.04-0.05-0.08-0.11-0.13-0.17c-0.05-0.07-0.1-0.13-0.15-0.2c-0.04-0.06-0.08-0.12-0.13-0.18
						c-0.05-0.07-0.1-0.14-0.14-0.21c-0.04-0.06-0.08-0.13-0.12-0.19c-0.04-0.07-0.09-0.14-0.13-0.22c-0.04-0.07-0.08-0.14-0.12-0.2
						c-0.04-0.07-0.09-0.15-0.13-0.22c-0.04-0.07-0.07-0.14-0.11-0.22c-0.04-0.08-0.08-0.15-0.12-0.23
						c-0.04-0.08-0.07-0.15-0.11-0.23c-0.04-0.08-0.07-0.16-0.11-0.24c-0.03-0.08-0.07-0.16-0.1-0.24c-0.03-0.08-0.07-0.17-0.1-0.25
						c-0.03-0.08-0.07-0.17-0.1-0.25c-0.03-0.09-0.07-0.17-0.1-0.26c-0.03-0.09-0.06-0.18-0.09-0.27c-0.03-0.09-0.06-0.18-0.09-0.27
						c-0.03-0.09-0.06-0.18-0.09-0.28c-0.03-0.09-0.06-0.19-0.09-0.28c-0.03-0.09-0.05-0.19-0.08-0.29
						c-0.03-0.1-0.05-0.19-0.08-0.29c-0.03-0.1-0.05-0.2-0.08-0.3c-0.03-0.1-0.05-0.2-0.07-0.3c-0.02-0.1-0.05-0.21-0.07-0.31
						c-0.02-0.1-0.05-0.21-0.07-0.31c-0.02-0.11-0.04-0.21-0.06-0.32c-0.02-0.11-0.04-0.21-0.06-0.32
						c-0.02-0.11-0.04-0.22-0.06-0.33c-0.02-0.11-0.04-0.22-0.05-0.33c-0.02-0.11-0.04-0.23-0.05-0.35
						c-0.02-0.11-0.03-0.23-0.05-0.34c-0.02-0.12-0.03-0.24-0.05-0.35c-0.01-0.12-0.03-0.23-0.04-0.35
						c-0.01-0.12-0.03-0.24-0.04-0.37c-0.01-0.12-0.03-0.24-0.04-0.36c-0.01-0.12-0.02-0.25-0.03-0.38
						c-0.01-0.12-0.02-0.25-0.03-0.38c-0.01-0.13-0.02-0.26-0.03-0.39c-0.01-0.13-0.02-0.26-0.03-0.38
						c-0.01-0.13-0.02-0.26-0.02-0.4c-0.01-0.13-0.01-0.26-0.02-0.4c-0.01-0.13-0.01-0.27-0.02-0.41c-0.01-0.14-0.01-0.27-0.01-0.41
						c0-0.14-0.01-0.28-0.01-0.42c0-0.14-0.01-0.28-0.01-0.42c0-0.14,0-0.28,0-0.43c0-0.14,0-0.29,0-0.43c0-0.15,0-0.29,0-0.44
						c0-0.15,0-0.29,0-0.44c0-0.15,0-0.3,0.01-0.45c0-0.15,0.01-0.3,0.01-0.45c0-0.15,0.01-0.31,0.01-0.46
						c0.01-0.15,0.01-0.31,0.02-0.46c0.01-0.16,0.01-0.31,0.02-0.47c0-0.05,0-0.09,0.01-0.14c-16.81-2.84-29.31-0.91-37.17,5.73
						c-0.28,0.24-0.44,0.59-0.44,0.96c0,0.37,0.17,0.72,0.46,0.96c2.68,2.2,8.75,6.49,19.34,10.41c0,0,0,0,0,0
						c0.04,0.01,0.07,0.03,0.11,0.04c0.12,0.04,0.24,0.09,0.36,0.13c6.1,2.22,29.27,7.52,29.65,8.22c0.64,0.12,1.01,0.19,1.01,0.19
						S944.16,149.95,945.18,151.4z"/>
					<path class="st4" d="M1027.52,133.23c-18.69-16.86-40.05-17.55-54.69-15.16c-10.02,1.64-18.34,4.89-23.16,7.1
						c1.49,0.48,3,0.98,4.52,1.51l-0.01-0.01l1.85,0.66l0.27,0.1v0c0.63,0.23,1.24,0.45,1.84,0.67l5.96-1.65l0.31,0.35
						c0.36,0.41,0.7,0.91,1.03,1.48c1.23-0.17,3.18-0.2,4.97,0.77c1.68,0.91,2.84,2.49,3.46,4.69c1.64,5.81-2.17,8.39-3.71,9.17
						c0.25,1.18,0.39,1.97,0.41,2.1l0.08,0.44l-5.11,4.12l-3.56,9.65l-2.63,7.12l4.37,2.58l-0.45,0.28
						c-1.74,0.77-3.45,1.53-5.12,2.28c-0.13,0.06-0.25,0.11-0.37,0.17c-0.64,0.28-1.27,0.57-1.9,0.85
						c-0.07,0.03-0.14,0.06-0.21,0.09c-0.48,0.22-0.97,0.43-1.44,0.65c-2.45,1.1-4.79,2.15-6.98,3.15
						c-3.87,1.76-7.27,3.34-9.94,4.62c-0.91-0.36-1.84-0.72-2.78-1.09c-8.44-3.3-17.96-6.98-26.31-10.18
						c-0.64-0.24-1.27-0.49-1.89-0.72c-1.24-0.51-2.48-1.01-3.79-1.33c-1.07-0.21-2.59-0.65-2.65-1.86l-1.07-0.75
						c-0.21,0.11-0.4,0.23-0.6,0.35c-0.25,0.16-0.49,0.33-0.72,0.52c-0.13-0.05-0.25-0.1-0.37-0.15c-1.03,1.38-2.58,3.47-3.78,5.26
						l12.08,5.75l1.12-6.13c0,0,0.01-0.02,0.71,0.25c0.23,0.09,0.47,0.18,0.71,0.27c7.88,3.01,16.63,6.26,24.67,9.26
						c1.53,0.57,3.04,1.13,4.5,1.68c4.53-2.06,10.25-4.66,16.52-7.52l3.38-0.94l-1,2.62c1.17,10.18,3.81,18.11,7.89,23.7l1.21-1.14
						l0.71,3.49c1.59,1.74,3.37,3.18,5.32,4.33c14.83,8.71,37.16-1.58,46.7-5.97c11.1-5.11,24.87-16.35,27.13-31.17
						C1046.79,157.52,1040.92,145.32,1027.52,133.23z"/>
					<path class="st4" d="M946.52,201.06l3.53,11.93L962.81,201c-3.91-5.3-6.56-12.59-7.91-21.8L946.52,201.06z"/>
					<path class="st4" d="M938.97,134.52c0.4,2.38,2.86,4.22,5.81,4.22c3.23,0,5.87-2.2,5.87-4.91c0-0.42-0.07-0.84-0.19-1.25
						L938.97,134.52z"/>
					<path class="st4" d="M895.7,165.15l0.02-0.03c-0.07-0.04-0.14-0.08-0.21-0.12c-0.05-0.03-0.11-0.06-0.16-0.09
						c-0.03-0.02-0.06-0.04-0.09-0.06c-0.08-0.05-0.17-0.1-0.25-0.16c-0.01-0.01-0.01-0.01-0.02-0.02
						c-0.42-0.28-0.77-0.58-1.05-0.89c-0.04-0.05-0.08-0.09-0.12-0.14c-0.03-0.03-0.05-0.06-0.08-0.09
						c-0.06-0.08-0.12-0.16-0.17-0.24l-0.13,0.07v0l-4.55,2.58c0.45,0.75,1.06,2.02,1.17,3.51l0.02,0.01v0.47c0,0,0,0,0,0
						c0,0.17-0.01,0.35-0.02,0.51c-0.08,0.97,0.09,1.93,0.3,2.57c0.21-0.43,0.57-1.09,1.24-2.11l0.36-0.55l0,0
						C893.12,168.65,894.63,166.59,895.7,165.15L895.7,165.15z"/>
					<g>
						<g>
							<path d="M1043.37,150.9c-0.02-0.05-0.05-0.1-0.07-0.14c-0.51-1.06-1.09-2.11-1.71-3.17c-0.73-1.25-1.52-2.5-2.41-3.75
								c-1.02-1.43-2.16-2.87-3.38-4.3c-2.12-2.48-4.54-4.95-7.27-7.42c-4.23-3.81-8.76-6.99-13.57-9.5
								c-0.09-0.05-0.19-0.09-0.29-0.14c-2.32-1.19-4.69-2.25-7.13-3.13c-0.07-0.03-0.15-0.05-0.23-0.07
								c-2.47-0.89-4.99-1.62-7.58-2.2c-1.78-0.39-3.59-0.69-5.42-0.93c-3.64-0.48-7.36-0.68-11.18-0.58
								c-3.46,0.1-6.99,0.44-10.58,1.03c-8.03,1.32-14.97,3.66-19.96,5.69c-2.01,0.82-3.71,1.59-5.02,2.22
								c-5.45-1.66-10.69-2.95-15.66-3.85v0l0,0l-0.15-0.03l-0.5-0.09c0,0,0,0,0,0l-0.32-0.06l-0.51-0.09v0l0,0
								c-5.37-0.9-10.31-1.32-14.82-1.25c-9.73,0.13-17.44,2.5-23.04,7.07c-0.11,0.09-0.24,0.18-0.35,0.27
								c-0.01,0.01-0.01,0.01-0.02,0.02c-0.27,0.24-0.49,0.52-0.65,0.84c-0.01,0.03-0.04,0.05-0.05,0.08
								c-0.01,0.03-0.02,0.06-0.03,0.09c-0.14,0.34-0.22,0.7-0.22,1.07c0.01,0.82,0.37,1.59,1,2.1c1.28,1.05,3.31,2.56,6.19,4.28
								c0.32,0.19,0.64,0.38,0.98,0.57c0.37,0.21,0.76,0.43,1.16,0.65c2.87,1.57,6.41,3.26,10.71,4.89l0,0
								c0.18,0.07,0.35,0.13,0.53,0.2c6.1,2.22,26.12,6.16,30.84,7.08c-0.38-0.71-23.55-6-29.65-8.22
								c-0.12-0.04-0.24-0.09-0.36-0.13c-0.04-0.01-0.07-0.03-0.11-0.04c0,0,0,0,0,0c-10.58-3.93-16.66-8.21-19.34-10.41
								c-0.29-0.24-0.45-0.59-0.46-0.96c0-0.37,0.16-0.72,0.44-0.96c7.86-6.64,20.36-8.57,37.17-5.73c0,0.05,0,0.09-0.01,0.14
								c-0.01,0.16-0.01,0.31-0.02,0.47c-0.01,0.15-0.01,0.31-0.02,0.46c0,0.15-0.01,0.31-0.01,0.46c0,0.15-0.01,0.3-0.01,0.45
								c0,0.15-0.01,0.3-0.01,0.45c0,0.15,0,0.3,0,0.44c0,0.15,0,0.29,0,0.44c0,0.14,0,0.29,0,0.43c0,0.14,0,0.29,0,0.43
								c0,0.14,0,0.28,0.01,0.42c0,0.14,0.01,0.28,0.01,0.42c0,0.14,0.01,0.27,0.01,0.41c0.01,0.14,0.01,0.27,0.02,0.41
								c0.01,0.13,0.01,0.27,0.02,0.4c0.01,0.13,0.01,0.27,0.02,0.4c0.01,0.13,0.02,0.26,0.03,0.38c0.01,0.13,0.02,0.26,0.03,0.39
								c0.01,0.13,0.02,0.25,0.03,0.38c0.01,0.13,0.02,0.25,0.03,0.38c0.01,0.12,0.02,0.24,0.04,0.36c0.01,0.12,0.03,0.25,0.04,0.37
								c0.01,0.12,0.03,0.24,0.04,0.35c0.02,0.12,0.03,0.24,0.05,0.35c0.02,0.12,0.03,0.23,0.05,0.34c0.02,0.12,0.03,0.23,0.05,0.35
								c0.02,0.11,0.04,0.22,0.05,0.33c0.02,0.11,0.04,0.22,0.06,0.33c0.02,0.11,0.04,0.22,0.06,0.32c0.02,0.11,0.04,0.22,0.06,0.32
								c0.02,0.11,0.04,0.21,0.07,0.31c0.02,0.1,0.05,0.21,0.07,0.31c0.02,0.1,0.05,0.2,0.07,0.3c0.02,0.1,0.05,0.2,0.08,0.3
								c0.03,0.1,0.05,0.2,0.08,0.29c0.03,0.1,0.05,0.19,0.08,0.29c0.03,0.1,0.06,0.19,0.09,0.28c0.03,0.09,0.06,0.19,0.09,0.28
								c0.03,0.09,0.06,0.18,0.09,0.27c0.03,0.09,0.06,0.18,0.09,0.27c0.03,0.09,0.07,0.18,0.1,0.26c0.03,0.09,0.06,0.17,0.1,0.25
								c0.03,0.09,0.07,0.17,0.1,0.25c0.03,0.08,0.07,0.16,0.1,0.24c0.04,0.08,0.07,0.16,0.11,0.24c0.04,0.08,0.07,0.15,0.11,0.23
								c0.04,0.08,0.08,0.16,0.12,0.23c0.04,0.07,0.07,0.15,0.11,0.22c0.04,0.08,0.08,0.15,0.13,0.22c0.04,0.07,0.08,0.14,0.12,0.2
								c0.04,0.07,0.09,0.14,0.13,0.22c0.04,0.06,0.08,0.13,0.12,0.19c0.05,0.07,0.09,0.14,0.14,0.21c0.04,0.06,0.08,0.12,0.13,0.18
								c0.05,0.07,0.1,0.13,0.15,0.2c0.04,0.05,0.08,0.11,0.13,0.17c0.05,0.07,0.11,0.13,0.16,0.19c0.04,0.05,0.08,0.1,0.13,0.15
								c0.06,0.07,0.12,0.13,0.18,0.19c0.04,0.04,0.08,0.09,0.12,0.13c0.07,0.07,0.14,0.13,0.21,0.2c0.04,0.03,0.07,0.07,0.11,0.1
								c0.11,0.1,0.21,0.19,0.33,0.28c0.2,0.16,0.4,0.31,0.59,0.45c0.06,0.04,0.12,0.08,0.17,0.12c0.15,0.11,0.3,0.21,0.46,0.32
								c0.05,0.04,0.11,0.07,0.16,0.11c0.2,0.13,0.39,0.25,0.59,0.37c0.03,0.02,0.07,0.04,0.1,0.06c0.17,0.1,0.33,0.19,0.5,0.28
								c0.06,0.03,0.12,0.06,0.18,0.1c0.16,0.08,0.32,0.16,0.47,0.24c0.04,0.02,0.09,0.04,0.13,0.06c0.2,0.09,0.39,0.18,0.59,0.27
								c0.05,0.02,0.1,0.04,0.15,0.06c0.15,0.06,0.31,0.12,0.46,0.18c0.06,0.02,0.12,0.04,0.18,0.07c0.17,0.06,0.35,0.12,0.52,0.18
								c0.02,0.01,0.05,0.02,0.07,0.02c0.19,0.06,0.39,0.12,0.58,0.18c0.05,0.02,0.11,0.03,0.16,0.04c0.15,0.04,0.3,0.08,0.44,0.11
								c0.05,0.01,0.11,0.03,0.16,0.04c0.19,0.04,0.38,0.08,0.57,0.12c0.01,0,0.03,0.01,0.04,0.01c0.18,0.03,0.35,0.06,0.53,0.09
								c0.05,0.01,0.11,0.02,0.16,0.02c0.15,0.02,0.3,0.04,0.44,0.06c0.04,0,0.08,0.01,0.13,0.01c0.19,0.02,0.37,0.04,0.55,0.05
								c0.03,0,0.06,0,0.1,0.01c0.15,0.01,0.31,0.02,0.46,0.02c0.05,0,0.1,0,0.15,0.01c0.16,0,0.31,0.01,0.46,0.01
								c0.02,0,0.04,0,0.06,0c0.01,0,0.01,0,0.02,0c0.17,0,0.33,0,0.5-0.01c0.03,0,0.06,0,0.1,0c0.13,0,0.26-0.01,0.39-0.02
								c0.05,0,0.09-0.01,0.14-0.01c0.12-0.01,0.23-0.02,0.35-0.03c0.04,0,0.09-0.01,0.13-0.01c0.14-0.01,0.29-0.03,0.43-0.04
								c0.01,0,0.02,0,0.03,0c0.15-0.02,0.3-0.04,0.45-0.06c0.04,0,0.07-0.01,0.11-0.02c0.11-0.02,0.22-0.03,0.33-0.05
								c0.04-0.01,0.09-0.01,0.13-0.02c0.1-0.02,0.21-0.04,0.31-0.06c0.04-0.01,0.08-0.01,0.11-0.02c0.14-0.03,0.27-0.05,0.4-0.08
								c1.94-0.43,3.74-1.13,5.27-1.97c0.51-0.28,0.99-0.57,1.44-0.87c0.21-0.14,0.41-0.28,0.61-0.43c1.26-0.93,2.18-1.92,2.62-2.79
								c0.06-0.12,0.11-0.24,0.16-0.37c0.01-0.04,0.03-0.09,0.04-0.13c0.03-0.09,0.06-0.18,0.08-0.28c0.01-0.05,0.02-0.11,0.03-0.17
								c0.02-0.09,0.03-0.18,0.05-0.27c0.01-0.06,0.01-0.12,0.02-0.19c0.01-0.09,0.01-0.19,0.02-0.29c0-0.07,0-0.13,0-0.2
								c0-0.1,0-0.21-0.01-0.31c0-0.07-0.01-0.14-0.01-0.21c-0.01-0.11-0.02-0.23-0.03-0.35c-0.01-0.07-0.01-0.13-0.02-0.2
								c-0.02-0.14-0.05-0.29-0.07-0.44c-0.01-0.05-0.01-0.09-0.02-0.14c-0.04-0.2-0.08-0.41-0.14-0.62
								c-0.01-0.04-0.03-0.09-0.04-0.14c-0.04-0.17-0.09-0.34-0.14-0.51c-0.02-0.08-0.05-0.16-0.07-0.24
								c-0.05-0.15-0.09-0.29-0.14-0.44c-0.03-0.09-0.06-0.19-0.1-0.28c-0.05-0.14-0.1-0.29-0.16-0.44c-0.04-0.1-0.08-0.2-0.12-0.3
								c-0.06-0.15-0.12-0.3-0.18-0.45c-0.04-0.1-0.09-0.21-0.13-0.31c-0.07-0.16-0.14-0.32-0.21-0.48
								c-0.05-0.1-0.09-0.21-0.14-0.31c-0.08-0.17-0.17-0.35-0.25-0.53c-0.05-0.1-0.09-0.19-0.14-0.29
								c-0.01-0.02-0.02-0.04-0.03-0.06c0.63,0.24,1.25,0.47,1.85,0.7c1.45,2.25,4.74,8.14,5.86,16.54l-4.96,13.41
								c-0.05,0.02-0.1,0.04-0.15,0.06c-0.1,0.04-0.21,0.09-0.31,0.13c-0.1,0.04-0.2,0.08-0.3,0.12c-0.11,0.04-0.22,0.09-0.33,0.13
								c-0.1,0.04-0.21,0.08-0.31,0.12c-0.11,0.04-0.23,0.09-0.34,0.13c-0.1,0.04-0.21,0.08-0.32,0.12
								c-0.12,0.04-0.24,0.09-0.36,0.13c-0.11,0.04-0.22,0.08-0.33,0.12c-0.12,0.04-0.25,0.09-0.37,0.13
								c-0.11,0.04-0.22,0.08-0.34,0.12c-0.13,0.04-0.25,0.09-0.38,0.13c-0.11,0.04-0.23,0.08-0.35,0.11
								c-0.13,0.04-0.26,0.09-0.4,0.13c-0.12,0.04-0.24,0.07-0.35,0.11c-0.14,0.04-0.27,0.08-0.41,0.13
								c-0.12,0.04-0.24,0.07-0.36,0.11c-0.14,0.04-0.28,0.08-0.43,0.12c-0.12,0.03-0.25,0.07-0.37,0.1
								c-0.15,0.04-0.29,0.08-0.44,0.12c-0.13,0.03-0.25,0.07-0.38,0.1c-0.15,0.04-0.3,0.08-0.46,0.12
								c-0.13,0.03-0.26,0.06-0.39,0.09c-0.16,0.04-0.31,0.08-0.47,0.11c-0.13,0.03-0.26,0.06-0.39,0.09
								c-0.16,0.04-0.32,0.07-0.48,0.11c-0.13,0.03-0.27,0.06-0.4,0.08c-0.17,0.03-0.33,0.07-0.5,0.1
								c-0.13,0.03-0.27,0.05-0.41,0.08c-0.17,0.03-0.34,0.06-0.51,0.1c-0.14,0.02-0.28,0.05-0.42,0.07
								c-0.17,0.03-0.35,0.06-0.52,0.09c-0.14,0.02-0.28,0.04-0.43,0.07c-0.18,0.03-0.36,0.06-0.54,0.08
								c-0.14,0.02-0.29,0.04-0.43,0.06c-0.18,0.03-0.37,0.05-0.55,0.07c-0.14,0.02-0.29,0.04-0.44,0.05
								c-0.19,0.02-0.38,0.05-0.57,0.07c-0.15,0.02-0.3,0.03-0.45,0.05c-0.19,0.02-0.38,0.04-0.58,0.06
								c-0.15,0.01-0.31,0.03-0.46,0.04c-0.19,0.02-0.39,0.03-0.59,0.05c-0.16,0.01-0.31,0.02-0.47,0.03
								c-0.2,0.01-0.4,0.03-0.6,0.04c-0.16,0.01-0.32,0.02-0.48,0.02c-0.2,0.01-0.4,0.02-0.6,0.03c-0.16,0.01-0.33,0.01-0.49,0.01
								c-0.2,0.01-0.41,0.01-0.61,0.02c-0.17,0-0.34,0-0.5,0.01c-0.21,0-0.41,0.01-0.63,0.01c-0.17,0-0.35,0-0.52,0
								c-0.21,0-0.42,0-0.63-0.01c-0.18,0-0.36-0.01-0.54-0.01c-0.21-0.01-0.42-0.01-0.63-0.02c-0.18-0.01-0.37-0.02-0.55-0.02
								c-0.21-0.01-0.42-0.02-0.63-0.03c-0.19-0.01-0.39-0.02-0.59-0.04c-0.21-0.01-0.41-0.02-0.62-0.04
								c-0.21-0.02-0.42-0.03-0.63-0.05c-0.2-0.02-0.4-0.03-0.6-0.05c-0.24-0.02-0.48-0.05-0.72-0.07
								c-0.17-0.02-0.35-0.03-0.52-0.05c-0.42-0.05-0.84-0.1-1.27-0.15c-0.38-0.05-0.74-0.1-1.11-0.15
								c-0.12-0.02-0.24-0.04-0.36-0.05c-0.24-0.03-0.48-0.07-0.71-0.1c-0.14-0.02-0.28-0.04-0.42-0.07
								c-0.2-0.03-0.41-0.06-0.61-0.1c-0.15-0.02-0.29-0.05-0.44-0.07c-0.19-0.03-0.37-0.06-0.56-0.1
								c-0.15-0.03-0.29-0.05-0.43-0.08c-0.17-0.03-0.35-0.06-0.52-0.1c-0.15-0.03-0.29-0.06-0.43-0.08
								c-0.17-0.03-0.33-0.06-0.49-0.1c-0.14-0.03-0.28-0.06-0.42-0.09c-0.16-0.03-0.31-0.07-0.47-0.1
								c-0.14-0.03-0.27-0.06-0.41-0.09c-0.15-0.03-0.3-0.07-0.44-0.1c-0.13-0.03-0.26-0.06-0.39-0.09
								c-0.14-0.03-0.29-0.07-0.43-0.1c-0.13-0.03-0.25-0.06-0.38-0.09c-0.14-0.03-0.27-0.07-0.41-0.1
								c-0.12-0.03-0.25-0.06-0.37-0.1c-0.13-0.03-0.26-0.07-0.38-0.1c-0.12-0.03-0.24-0.07-0.35-0.1
								c-0.12-0.04-0.25-0.07-0.37-0.11c-0.11-0.03-0.23-0.07-0.34-0.1c-0.12-0.04-0.24-0.07-0.35-0.11
								c-0.11-0.03-0.22-0.07-0.32-0.1c-0.11-0.04-0.23-0.07-0.34-0.11c-0.1-0.03-0.21-0.07-0.31-0.1
								c-0.11-0.04-0.22-0.07-0.32-0.11c-0.1-0.03-0.19-0.07-0.29-0.1c-0.1-0.04-0.21-0.08-0.31-0.11c-0.09-0.03-0.19-0.07-0.28-0.1
								c-0.1-0.04-0.2-0.08-0.3-0.11c-0.09-0.03-0.18-0.07-0.26-0.1c-0.1-0.04-0.19-0.08-0.28-0.12c-0.08-0.03-0.17-0.07-0.25-0.1
								c-0.09-0.04-0.18-0.08-0.27-0.12c-0.08-0.03-0.16-0.07-0.23-0.1c-0.09-0.04-0.18-0.08-0.26-0.12
								c-0.07-0.03-0.14-0.07-0.21-0.1c-0.09-0.04-0.17-0.08-0.26-0.12c-0.06-0.03-0.13-0.06-0.19-0.09
								c-0.09-0.05-0.19-0.09-0.28-0.14c-0.05-0.03-0.1-0.05-0.15-0.08c-0.14-0.07-0.27-0.14-0.4-0.22
								c-0.03-0.02-0.06-0.03-0.09-0.05c-0.1-0.06-0.2-0.11-0.29-0.17c-0.05-0.03-0.09-0.05-0.13-0.08
								c-0.08-0.05-0.15-0.09-0.22-0.13c-0.05-0.03-0.09-0.06-0.14-0.09c-0.07-0.04-0.13-0.08-0.2-0.12
								c-0.05-0.03-0.09-0.06-0.14-0.09c-0.06-0.04-0.12-0.08-0.18-0.12c-0.04-0.03-0.09-0.06-0.13-0.09
								c-0.05-0.04-0.11-0.08-0.16-0.12c-0.04-0.03-0.08-0.06-0.12-0.09c-0.05-0.04-0.1-0.08-0.15-0.11
								c-0.04-0.03-0.08-0.06-0.12-0.09c-0.05-0.04-0.09-0.07-0.14-0.11c-0.04-0.03-0.07-0.06-0.11-0.09
								c-0.03-0.02-0.06-0.05-0.09-0.07l0.71-3.87c0.01,0.01,0.02,0.01,0.04,0.02c0.24,0.14,0.48,0.28,0.73,0.41
								c0.06,0.03,0.11,0.06,0.17,0.09c0.23,0.12,0.46,0.24,0.69,0.35c0.03,0.01,0.06,0.03,0.09,0.04c0.25,0.12,0.51,0.24,0.77,0.36
								c0.06,0.03,0.12,0.05,0.19,0.08c0.08,0.03,0.15,0.07,0.23,0.1l0,0.01l0.57,0.22l0.84,0.33l0-0.02
								c1.06,0.37,2.14,0.66,3.23,0.87l0,0.01l0.75,0.12l0.72,0.12l0-0.01c0.03,0,0.06,0.01,0.09,0.01
								c0.07,0.01,0.14,0.02,0.21,0.03c0.25,0.03,0.49,0.05,0.74,0.07c0.03,0,0.06,0.01,0.08,0.01c0.27,0.02,0.54,0.04,0.81,0.05
								c0.07,0,0.15,0.01,0.22,0.01c0.23,0.01,0.47,0.01,0.7,0.01c0.03,0,0.07,0,0.1,0c0.01,0,0.03,0,0.04,0
								c0.12,0,0.24,0,0.36-0.01l0,0.02l0.95-0.05l0.59-0.03l0-0.01c0.87-0.07,1.74-0.19,2.62-0.36c0.29-0.06,0.58-0.12,0.87-0.18
								l-0.01,0.03l1.14-0.31l0.45-0.12l0-0.01c0.11-0.03,0.21-0.06,0.32-0.09c0.09-0.03,0.17-0.06,0.26-0.08
								c0.17-0.05,0.34-0.11,0.51-0.17c0.1-0.03,0.21-0.07,0.31-0.11c0.16-0.05,0.31-0.11,0.47-0.17c0.11-0.04,0.22-0.08,0.33-0.12
								c0.15-0.06,0.3-0.11,0.45-0.17c0.11-0.05,0.23-0.09,0.34-0.14c0.15-0.06,0.29-0.12,0.44-0.18c0.12-0.05,0.23-0.1,0.35-0.15
								c0.14-0.06,0.29-0.13,0.43-0.19c0.12-0.05,0.24-0.11,0.35-0.17c0.14-0.07,0.28-0.13,0.42-0.2c0.12-0.06,0.24-0.12,0.36-0.18
								c0.06-0.03,0.12-0.06,0.18-0.09c-0.56-0.29-1.11-0.57-1.67-0.84c-0.21,0.1-0.41,0.19-0.62,0.28
								c-0.08,0.03-0.16,0.07-0.23,0.1c-0.28,0.12-0.57,0.24-0.85,0.36c-0.06,0.02-0.11,0.04-0.17,0.07
								c-0.23,0.09-0.45,0.18-0.68,0.26c-0.1,0.04-0.19,0.07-0.29,0.1c-0.19,0.07-0.37,0.13-0.56,0.19
								c-0.05,0.02-0.1,0.03-0.15,0.05l0.51-2.82c-0.47-0.21-0.94-0.41-1.41-0.6l-0.71,3.89c-0.02,0.01-0.04,0.01-0.06,0.02
								c-0.26,0.06-0.51,0.12-0.77,0.18c-0.05,0.01-0.1,0.02-0.15,0.03c-0.21,0.04-0.43,0.09-0.64,0.13
								c-0.07,0.01-0.14,0.03-0.21,0.04c-0.26,0.04-0.52,0.09-0.78,0.12c-0.01,0-0.02,0-0.03,0c-0.25,0.03-0.5,0.06-0.75,0.09
								c-0.03,0-0.07,0.01-0.1,0.01l1.04-5.74c-0.48-0.18-0.95-0.34-1.43-0.51l-0.2,1.11l-0.95,5.24c0,0,0,0-0.01,0
								c-0.25,0.01-0.5,0.01-0.76,0.01c-0.06,0-0.13,0-0.19,0c-0.22,0-0.43-0.01-0.65-0.02c-0.04,0-0.08,0-0.12,0
								c-0.25-0.01-0.5-0.03-0.75-0.05c-0.06,0-0.12-0.01-0.18-0.02c-0.2-0.02-0.4-0.04-0.6-0.06c-0.04,0-0.08-0.01-0.12-0.01
								l0.68-3.76l0.63-3.45c-0.17-0.05-0.34-0.1-0.51-0.15c-0.32-0.09-0.63-0.17-0.94-0.26l-1.34,7.39
								c-0.04-0.01-0.07-0.02-0.11-0.02c-0.2-0.04-0.39-0.08-0.59-0.13c-0.06-0.01-0.12-0.03-0.18-0.04
								c-0.24-0.06-0.48-0.12-0.72-0.18c-0.04-0.01-0.07-0.02-0.11-0.03c-0.21-0.06-0.41-0.12-0.62-0.18
								c-0.07-0.02-0.13-0.04-0.2-0.06c-0.22-0.07-0.44-0.15-0.66-0.22c-0.01,0-0.03-0.01-0.04-0.01l1.15-6.33l0.17-0.96
								c-0.35-0.08-0.7-0.15-1.05-0.22c-0.14-0.03-0.28-0.05-0.41-0.08l-1.25,6.87l-0.03,0.16c-0.03-0.01-0.06-0.03-0.09-0.04
								c-0.2-0.09-0.4-0.18-0.6-0.28c-0.02-0.01-0.04-0.02-0.06-0.03c-0.22-0.11-0.43-0.22-0.65-0.33
								c-0.06-0.03-0.12-0.06-0.18-0.09c-0.17-0.09-0.33-0.18-0.5-0.28c-0.05-0.03-0.1-0.06-0.15-0.09
								c-0.21-0.12-0.41-0.25-0.62-0.37c-0.01-0.01-0.02-0.01-0.03-0.02l1.1-6c-0.51-0.07-1.01-0.13-1.49-0.18l-0.63,3.45
								l-0.63,3.44l-0.62,3.38c0,0.02,0.01,0.15,0.01,0.18c0,0,0,0.01,0,0.01c0.01,0.21,0.05,1.06,0.09,1.81
								c0.01,0.11,0.01,0.22,0.02,0.33c0.02,0.34,0.03,0.51,0.05,0.92c0.02,0.36,0.03,0.65,0.05,0.9c0.01,0.25,0.02,0.47,0.03,0.69
								c0.01,0.17,0.02,0.34,0.03,0.52c0.01,0.18,0.02,0.38,0.03,0.62c0.01,0.16,0.02,0.33,0.03,0.52c0.09,1.86,0.19,3.68,0.2,3.94
								c1.94,0.62,4.78,1.54,7.5,2.42c0.2,0.07,0.41,0.13,0.61,0.2c0.52,0.17,1.04,0.34,1.54,0.5c1.48,0.48,2.84,0.92,3.88,1.26
								c0.01,0,0.01,0,0.02,0.01c0.22,0.07,0.45,0.15,0.7,0.23c1.19,0.39,2.67,0.87,4.24,1.39c1.59,0.52,3.27,1.07,4.83,1.59
								c0.61,0.2,1.19,0.39,1.75,0.57c0.29,0.1,0.58,0.19,0.85,0.28c0.53,0.17,1.01,0.33,1.45,0.48c3.28-2.2,6.55-4.39,9.85-6.57
								c-0.6,0.44-1.2,0.86-1.79,1.3c-2.66,1.93-5.31,3.86-7.98,5.78l-0.07-0.02l-0.05-0.01l-3.51-1.04l-3.51-1.04
								c-2.01-0.6-4.26-1.28-6.59-1.98c-0.6-0.18-1.19-0.36-1.8-0.54c-1.62-0.49-3.27-0.98-4.89-1.47
								c-2.74-0.83-5.41-1.63-7.75-2.35c0,0-0.28-0.09-0.36-0.11c-0.01,0-0.02-0.01-0.02-0.01l-0.03-0.4l-0.29-4.68l-0.36-5.76
								c-0.15-0.45-0.39-0.96-0.76-1.46c-0.49-0.66-1.2-1.28-2.26-1.64c-0.23-0.08-0.44-0.12-0.65-0.17
								c-0.43-0.1-0.83-0.16-1.18-0.14c-0.26,0.01-0.5,0.06-0.71,0.14c-0.21,0.08-0.4,0.19-0.57,0.33
								c-0.19,0.16-0.33,0.35-0.43,0.54c-0.1,0.19-0.16,0.39-0.19,0.57c-0.51,0.05-1.22,0.15-1.93,0.37
								c-0.48,0.15-0.96,0.35-1.38,0.62c-0.21,0.14-0.41,0.29-0.59,0.47c-0.35,0.35-0.62,0.79-0.75,1.32
								c-0.08,0.04-0.18,0.1-0.27,0.16c-1.12,0.66-3.28,2.18-3.17,4.16l-0.06,0.03v0l-3.1,1.76l-2.47,1.4l-0.76,0.43l0.54,0.68
								c0,0,0.02,0.02,0.03,0.04c0.05,0.07,0.17,0.24,0.33,0.5c0.27,0.45,0.62,1.14,0.83,1.98l-0.58-0.27l-0.61-0.29l0.02,0.41
								l0.82,21.46c-2.89-2.5-9.84-7.98-14.91-7.6c-1.17,0.09-2.24,0.49-3.13,1.31l-0.37,0.34l-0.29,0.26l16.77,12.7l6.95,5.26
								l2.58-21.31l23.1,12.79l15.4,8.53l12.79,25.99l13.79-16.9c0.63,4.64,2.87,16.64,9.27,16.64c0.04,0,0.07,0,0.11,0l0.89-0.02
								l-4.68-23.07c0.3,0.27,0.62,0.5,0.92,0.76c0.99,0.82,2.01,1.57,3.11,2.22c4.1,2.41,9,3.62,14.63,3.62
								c1.59,0,3.24-0.1,4.94-0.29c0.14-0.02,0.28-0.04,0.41-0.05c1.66-0.2,3.36-0.49,5.13-0.87c2.83-0.61,5.63-1.43,8.36-2.35
								c5.21-1.76,10.18-3.92,14.61-5.96c0.97-0.45,1.96-0.95,2.96-1.49c5.57-2.99,11.47-7.33,16.18-12.78
								c4.42-5.12,7.8-11.2,8.84-18.03C1047.39,163.47,1046.36,157.18,1043.37,150.9z M944.77,138.74c-2.94,0-5.41-1.84-5.81-4.22
								l11.48-1.93c0.13,0.41,0.19,0.82,0.19,1.25C950.64,136.54,948.01,138.74,944.77,138.74z M891.95,170.39L891.95,170.39
								l-0.36,0.55c-0.67,1.02-1.03,1.68-1.24,2.11c-0.21-0.64-0.38-1.59-0.3-2.57c0.01-0.16,0.02-0.34,0.02-0.51c0,0,0,0,0,0v-0.47
								l-0.02-0.01c-0.11-1.49-0.72-2.76-1.17-3.51l4.55-2.58v0l0.13-0.07c0.05,0.08,0.11,0.16,0.17,0.24
								c0.03,0.03,0.05,0.06,0.08,0.09c0.04,0.05,0.08,0.1,0.12,0.14c0.28,0.31,0.63,0.6,1.05,0.89c0.01,0.01,0.01,0.01,0.02,0.02
								c0.08,0.05,0.16,0.11,0.25,0.16c0.03,0.02,0.06,0.04,0.09,0.06c0.05,0.03,0.11,0.06,0.16,0.09c0.07,0.04,0.13,0.08,0.21,0.12
								l-0.02,0.03l0,0C894.63,166.59,893.12,168.65,891.95,170.39z M950.05,212.98l-3.53-11.93l8.37-21.86
								c1.36,9.21,4.01,16.5,7.91,21.8L950.05,212.98z M1044.96,169.5c-2.26,14.82-16.02,26.05-27.13,31.17
								c-9.54,4.39-31.87,14.68-46.7,5.97c-1.95-1.15-3.72-2.59-5.32-4.33l-0.71-3.49l-1.21,1.14c-4.07-5.6-6.71-13.53-7.89-23.7
								l1.39-3.64l-3.77,1.97c-6.27,2.86-11.99,5.47-16.52,7.52c-1.47-0.55-2.98-1.11-4.5-1.68c-8.05-2.99-16.79-6.24-24.67-9.26
								c-0.24-0.09-0.47-0.18-0.71-0.27c-0.7-0.27-0.71-0.25-0.71-0.25l-1.12,6.13l-12.08-5.75c1.21-1.79,2.75-3.88,3.78-5.26
								c0.12,0.05,0.25,0.1,0.37,0.15c0.23-0.19,0.47-0.36,0.72-0.52c0.19-0.12,0.39-0.24,0.6-0.35l1.07,0.75
								c0.07,1.21,1.58,1.65,2.65,1.86c1.31,0.32,2.55,0.82,3.79,1.33c0.62,0.24,1.25,0.48,1.89,0.72
								c8.35,3.2,17.87,6.88,26.31,10.18c0.94,0.37,1.87,0.73,2.78,1.09c2.67-1.29,6.07-2.86,9.94-4.62c2.19-1,4.53-2.05,6.98-3.15
								c0.48-0.21,0.96-0.43,1.44-0.65c0.07-0.03,0.14-0.06,0.21-0.09c0.63-0.28,1.26-0.56,1.9-0.85c0.13-0.06,0.25-0.11,0.37-0.17
								c1.68-0.75,3.39-1.51,5.12-2.28l0.45-0.28l-4.37-2.58l2.63-7.12l3.56-9.65l5.11-4.12l-0.08-0.44
								c-0.02-0.13-0.17-0.91-0.41-2.1c1.54-0.78,5.34-3.35,3.71-9.17c-0.62-2.2-1.78-3.78-3.46-4.69
								c-1.79-0.97-3.73-0.94-4.97-0.77c-0.33-0.57-0.68-1.07-1.03-1.48l-0.31-0.35l-5.96,1.65c-0.6-0.22-1.21-0.45-1.84-0.67v0
								l-0.27-0.1l-1.85-0.66l0.01,0.01c-1.52-0.53-3.03-1.03-4.52-1.51c4.82-2.21,13.15-5.47,23.16-7.1
								c14.63-2.39,36-1.7,54.69,15.16C1040.92,145.32,1046.79,157.52,1044.96,169.5z"/>
						</g>
					</g>
					<path class="st5" d="M921.81,147.75l-0.06,0.32c1.05,0.31,2.11,0.65,3.21,1.02l0.05-0.29
						C923.94,148.42,922.87,148.07,921.81,147.75z"/>
					<path class="st5" d="M917.12,146.54l-0.06,0.32c1.04,0.23,2.13,0.49,3.25,0.8l0.06-0.32
						C919.28,147.04,918.19,146.77,917.12,146.54z"/>
					<path class="st5" d="M912.59,145.78l-0.05,0.28c0.97,0.13,1.99,0.3,3.06,0.5l0.06-0.31
						C914.6,146.05,913.57,145.89,912.59,145.78z"/>
					<polygon class="st5" points="911.27,141.1 911.27,141.1 911.27,141.1 					"/>
					<path class="st5" d="M934.11,152.8c-1.02-0.54-2.06-1.06-3.11-1.54l-0.03,0.19c0.18,0.08,0.35,0.15,0.53,0.23
						c0.83,0.37,1.67,0.77,2.51,1.18c0,0,0,0,0,0C934.03,152.83,934.07,152.82,934.11,152.8z"/>
					<path class="st5" d="M926.43,149.33l-0.05,0.27c0.01,0,0.01,0,0.02,0.01c1.03,0.38,2.09,0.79,3.15,1.24l0.04-0.22
						C928.55,150.16,927.49,149.73,926.43,149.33z"/>
					<path class="st6" d="M952.34,149.42c-2.06,2.11-3.96,3-5.67,2.64c-0.55-0.12-1.04-0.35-1.5-0.66c-1.17-0.8-2.02-2.08-2.53-3.03
						c-4.72-0.91-24.75-4.86-30.84-7.08c-0.18-0.07-0.35-0.13-0.53-0.2l0,0c-1.09,0.54-2.28,0.94-3.32,1.17
						c-1.03,0.23-1.9,0.28-2.33,0.11c-0.2-0.08-0.39-0.17-0.57-0.29c-1.18-0.7-2.02-1.94-2.18-2.18c-0.01-0.02-0.04-0.05-0.04-0.05
						l-0.14-0.22l-0.01,0.03l-0.05,0.22c-0.24,0.99-0.21,1.85,0.07,2.57c0.12,0.3,0.28,0.58,0.49,0.83c0.17,0.2,0.37,0.36,0.57,0.53
						c2.37,1.96,7.27,2.06,7.27,2.06c0.48,0.05,0.97,0.11,1.49,0.18l0.05-0.28c0.98,0.11,2,0.27,3.06,0.47l-0.06,0.31
						c0.14,0.03,0.28,0.05,0.41,0.08c0.34,0.07,0.7,0.14,1.05,0.22l0.06-0.32c1.07,0.23,2.16,0.5,3.25,0.8l-0.06,0.32
						c0.31,0.08,0.62,0.17,0.94,0.26c0.17,0.05,0.34,0.1,0.51,0.15l0.06-0.32c1.06,0.32,2.13,0.67,3.2,1.05l-0.05,0.29
						c0.47,0.16,0.95,0.33,1.43,0.51l0.05-0.27c1.06,0.4,2.11,0.84,3.16,1.29l-0.04,0.22c0.47,0.19,0.94,0.4,1.41,0.6l0.03-0.19
						c1.05,0.49,2.09,1,3.11,1.54c-0.04,0.02-0.07,0.04-0.11,0.05c0,0,0,0,0,0c0.55,0.27,1.11,0.55,1.66,0.84
						c0.02-0.01,0.03-0.02,0.05-0.02c0.2,0.11,0.39,0.22,0.59,0.33c3.95,2.27,7.58,2.9,10.79,1.89c0.99-0.31,1.85-0.75,2.6-1.25
						c2.62-1.76,3.81-4.25,3.87-4.38l1.88-4.01L952.34,149.42z"/>
				</g>
			</g>
		</g>
	</g>
	<g>
		<g>
			<path d="M426.42,462.6h-7.86v23.21h-1.93V462.6h-7.86v-1.79h17.64V462.6z"/>
			<path d="M441.78,467.95v17.85h-1.79v-3.39c-1.36,2.64-3.64,3.79-6.39,3.79c-4.25,0-6.93-2.82-6.93-7.14v-11.1h1.82v11.1
				c0,3.29,1.89,5.43,5.25,5.43c3.5,0,6.25-2.29,6.25-7.11v-9.43H441.78z"/>
			<path d="M460.63,469.7v11.6c0,3.14,1.68,3.21,5.32,2.89v1.61c-4.68,0.71-7.14-0.43-7.14-4.5v-11.6h-3.93v-1.75h3.93v-4.46
				l1.82-0.54v5h5.32v1.75H460.63z"/>
			<path d="M477.99,467.7v1.71c-3.07,0-5.96,1.89-5.96,6.46v9.93h-1.79v-17.85h1.79v3.5C473.24,468.63,475.56,467.7,477.99,467.7z"
				/>
			<path d="M498.05,467.95v17.85h-1.82v-4.04c-1.5,2.68-4.25,4.43-7.68,4.43c-5.07,0-9.25-4.04-9.25-9.32s4.18-9.32,9.25-9.32
				c3.43,0,6.18,1.75,7.68,4.43v-4.04H498.05z M496.23,476.88c0-4.25-3.29-7.61-7.53-7.61s-7.57,3.36-7.57,7.61s3.32,7.61,7.57,7.61
				S496.23,481.13,496.23,476.88z"/>
			<path d="M518.66,474.7v11.1h-1.82v-11.1c0-3.29-1.89-5.43-5.25-5.43c-3.5,0-6.25,2.29-6.25,7.11v9.43h-1.79v-17.85h1.79v3.39
				c1.36-2.64,3.64-3.79,6.39-3.79C515.98,467.56,518.66,470.38,518.66,474.7z"/>
			<path d="M535.73,481.13c0,2.93-2.57,5.07-6.39,5.07c-3.57,0-5.93-1.68-6.78-3.96l1.54-0.89c0.64,1.93,2.57,3.14,5.25,3.14
				c2.5,0,4.61-1.11,4.61-3.36c0-4.86-10.82-2.07-10.82-8.5c0-2.82,2.43-5.07,6.07-5.07c2.89,0,5.11,1.39,6.07,3.57l-1.5,0.86
				c-0.75-1.86-2.61-2.71-4.57-2.71c-2.32,0-4.29,1.21-4.29,3.36C524.91,477.41,535.73,474.59,535.73,481.13z"/>
			<path d="M557.04,467.95v17.85h-1.82v-4.04c-1.5,2.68-4.25,4.43-7.68,4.43c-5.07,0-9.25-4.04-9.25-9.32s4.18-9.32,9.25-9.32
				c3.43,0,6.18,1.75,7.68,4.43v-4.04H557.04z M555.22,476.88c0-4.25-3.29-7.61-7.53-7.61s-7.57,3.36-7.57,7.61s3.32,7.61,7.57,7.61
				S555.22,481.13,555.22,476.88z"/>
			<path d="M561.33,476.88c0-5.28,4-9.32,9.39-9.32c3.5,0,6.5,1.79,7.78,4.57l-1.46,0.86c-1.04-2.25-3.46-3.71-6.32-3.71
				c-4.32,0-7.57,3.36-7.57,7.61s3.25,7.61,7.57,7.61c2.89,0,5.25-1.5,6.43-3.71l1.5,0.89c-1.43,2.75-4.43,4.54-7.93,4.54
				C565.33,486.2,561.33,482.16,561.33,476.88z"/>
			<path d="M581.18,476.88c0-5.28,4-9.32,9.39-9.32c3.5,0,6.5,1.79,7.78,4.57l-1.46,0.86c-1.04-2.25-3.46-3.71-6.32-3.71
				c-4.32,0-7.57,3.36-7.57,7.61s3.25,7.61,7.57,7.61c2.89,0,5.25-1.5,6.43-3.71l1.5,0.89c-1.43,2.75-4.43,4.54-7.93,4.54
				C585.18,486.2,581.18,482.16,581.18,476.88z"/>
			<path d="M601.89,462.2c0-0.75,0.64-1.39,1.43-1.39c0.79,0,1.43,0.64,1.43,1.39c0,0.79-0.64,1.43-1.43,1.43
				C602.54,463.63,601.89,462.99,601.89,462.2z M602.43,467.95h1.79v17.85h-1.79V467.95z"/>
			<path d="M608.5,476.88c0-5.28,4.18-9.32,9.39-9.32c5.18,0,9.36,4.04,9.36,9.32s-4.18,9.32-9.36,9.32
				C612.68,486.2,608.5,482.16,608.5,476.88z M625.43,476.88c0-4.25-3.29-7.61-7.53-7.61s-7.57,3.36-7.57,7.61s3.32,7.61,7.57,7.61
				S625.43,481.13,625.43,476.88z M618.03,465.45l3.25-4.53h-2.14l-2.86,4.53H618.03z"/>
			<path d="M646.64,474.7v11.1h-1.82v-11.1c0-3.29-1.89-5.43-5.25-5.43c-3.5,0-6.25,2.29-6.25,7.11v9.43h-1.79v-17.85h1.79v3.39
				c1.36-2.64,3.64-3.79,6.39-3.79C643.96,467.56,646.64,470.38,646.64,474.7z"/>
			<path d="M678.74,467.95v17.85h-1.82v-4.04c-1.5,2.68-4.25,4.43-7.68,4.43c-5.07,0-9.25-4.04-9.25-9.32s4.18-9.32,9.25-9.32
				c3.43,0,6.18,1.75,7.68,4.43v-4.04H678.74z M676.92,476.88c0-4.25-3.29-7.61-7.53-7.61s-7.57,3.36-7.57,7.61s3.32,7.61,7.57,7.61
				S676.92,481.13,676.92,476.88z"/>
			<path d="M692.56,476.88c0-5.28,4-9.32,9.39-9.32c3.5,0,6.5,1.79,7.78,4.57l-1.46,0.86c-1.04-2.25-3.46-3.71-6.32-3.71
				c-4.32,0-7.57,3.36-7.57,7.61s3.25,7.61,7.57,7.61c2.89,0,5.25-1.5,6.43-3.71l1.5,0.89c-1.43,2.75-4.43,4.54-7.93,4.54
				C696.56,486.2,692.56,482.16,692.56,476.88z"/>
			<path d="M712.41,476.88c0-5.28,4.18-9.32,9.39-9.32c5.18,0,9.35,4.04,9.35,9.32s-4.18,9.32-9.35,9.32
				C716.59,486.2,712.41,482.16,712.41,476.88z M729.34,476.88c0-4.25-3.29-7.61-7.53-7.61s-7.57,3.36-7.57,7.61
				s3.32,7.61,7.57,7.61S729.34,481.13,729.34,476.88z"/>
			<path d="M750.55,474.7v11.1h-1.82v-11.1c0-3.29-1.89-5.43-5.25-5.43c-3.5,0-6.25,2.29-6.25,7.11v9.43h-1.79v-17.85h1.79v3.39
				c1.36-2.64,3.64-3.79,6.39-3.79C747.87,467.56,750.55,470.38,750.55,474.7z"/>
			<path d="M754.37,476.88c0-5.28,4-9.32,9.39-9.32c3.5,0,6.5,1.79,7.78,4.57l-1.46,0.86c-1.04-2.25-3.46-3.71-6.32-3.71
				c-4.32,0-7.57,3.36-7.57,7.61s3.25,7.61,7.57,7.61c2.89,0,5.25-1.5,6.43-3.71l1.5,0.89c-1.43,2.75-4.43,4.54-7.93,4.54
				C758.37,486.2,754.37,482.16,754.37,476.88z"/>
			<path d="M775.61,459.74h1.79v26.07h-1.79V459.74z"/>
			<path d="M797.54,467.95v17.85h-1.79v-3.39c-1.36,2.64-3.64,3.79-6.39,3.79c-4.25,0-6.93-2.82-6.93-7.14v-11.1h1.82v11.1
				c0,3.29,1.89,5.43,5.25,5.43c3.5,0,6.25-2.29,6.25-7.11v-9.43H797.54z"/>
			<path d="M802.5,462.2c0-0.75,0.64-1.39,1.43-1.39c0.79,0,1.43,0.64,1.43,1.39c0,0.79-0.64,1.43-1.43,1.43
				C803.15,463.63,802.5,462.99,802.5,462.2z M803.04,467.95h1.79v17.85h-1.79V467.95z"/>
			<path d="M827.85,460.81v24.99h-1.79v-4.14c-1.46,2.75-4.21,4.54-7.68,4.54c-5.11,0-9.25-4.04-9.25-9.32s4.14-9.32,9.25-9.32
				c3.46,0,6.21,1.79,7.68,4.54v-11.28H827.85z M826.07,476.88c0-4.25-3.32-7.61-7.57-7.61s-7.57,3.36-7.57,7.61
				s3.32,7.61,7.57,7.61S826.07,481.13,826.07,476.88z"/>
			<path d="M832.14,476.88c0-5.28,4.18-9.32,9.39-9.32c5.18,0,9.35,4.04,9.35,9.32s-4.18,9.32-9.35,9.32
				C836.32,486.2,832.14,482.16,832.14,476.88z M849.06,476.88c0-4.25-3.29-7.61-7.53-7.61s-7.57,3.36-7.57,7.61
				s3.32,7.61,7.57,7.61S849.06,481.13,849.06,476.88z"/>
		</g>
	</g>
	<g>
		<path class="st2" d="M542.35,397.01l-12.23,34.69c-4.01,11.37-10.37,15.88-20.39,15.38v-10.01c5.01,0,7.37-1.57,8.94-5.94
			l-14.23-34.12h11.8l7.94,21.89l6.72-21.89H542.35z"/>
		<path class="st2" d="M581.55,397.01v35.77h-10.73v-3.36c-2.36,2.72-5.87,4.36-10.66,4.36c-9.37,0-17.1-8.23-17.1-18.88
			s7.73-18.88,17.1-18.88c4.79,0,8.3,1.65,10.66,4.36v-3.36H581.55z M570.82,414.89c0-5.36-3.58-8.73-8.51-8.73
			c-4.94,0-8.51,3.36-8.51,8.73s3.58,8.73,8.51,8.73C567.24,423.62,570.82,420.25,570.82,414.89z"/>
		<path class="st2" d="M645.79,414.89c0,10.66-7.73,18.88-17.1,18.88c-4.79,0-8.3-1.65-10.66-4.36v17.67H607.3v-50.07h10.73v3.36
			c2.36-2.72,5.87-4.36,10.66-4.36C638.06,396,645.79,404.23,645.79,414.89z M635.06,414.89c0-5.36-3.58-8.73-8.51-8.73
			s-8.51,3.36-8.51,8.73s3.58,8.73,8.51,8.73S635.06,420.25,635.06,414.89z"/>
		<path class="st2" d="M670.04,424.19c2.93,0,5.44-1.14,6.87-2.72l8.58,4.94c-3.5,4.86-8.8,7.37-15.59,7.37
			c-12.23,0-19.81-8.23-19.81-18.88S657.81,396,669.11,396c10.44,0,18.17,8.08,18.17,18.88c0,1.5-0.14,2.93-0.43,4.29h-25.39
			C662.81,422.9,666.1,424.19,670.04,424.19z M676.62,411.17c-1.14-4.15-4.36-5.65-7.58-5.65c-4.08,0-6.8,2-7.8,5.65H676.62z"/>
		<path class="st2" d="M714.82,396.29v12.16c-4.44-0.72-10.73,1.07-10.73,8.15v16.17h-10.73v-35.77h10.73v6.37
			C705.52,398.58,710.31,396.29,714.82,396.29z"/>
		<path class="st2" d="M719.11,426.98c0-3.72,3.08-6.8,6.8-6.8s6.8,3.08,6.8,6.8s-3.08,6.8-6.8,6.8S719.11,430.7,719.11,426.98z
			 M719.47,397.01V382.7h12.88v14.31l-2.15,17.88h-8.58L719.47,397.01z"/>
		<path class="st2" d="M739.14,426.98c0-3.72,3.08-6.8,6.8-6.8s6.8,3.08,6.8,6.8s-3.08,6.8-6.8,6.8S739.14,430.7,739.14,426.98z
			 M739.5,397.01V382.7h12.88v14.31l-2.15,17.88h-8.58L739.5,397.01z"/>
	</g>
</g>
</svg>
