<?xml version="1.0" encoding="utf-8"?>
<!-- Generator: Adobe Illustrator 26.5.0, SVG Export Plug-In . SVG Version: 6.00 Build 0)  -->
<svg version="1.1" id="Capa_1" xmlns="http://www.w3.org/2000/svg" xmlns:xlink="http://www.w3.org/1999/xlink" x="0px" y="0px"
	 viewBox="0 0 195.68 125.89" style="enable-background:new 0 0 195.68 125.89;" xml:space="preserve">
<style type="text/css">
	.st0{fill:#CCCCCC;}
	.st1{fill:#FFFFFF;}
	.st2{fill:#B7C1C7;}
	.st3{fill:none;}
	.st4{fill:#1C070B;stroke:#1C070B;stroke-miterlimit:10;}
	.st5{fill:#1C070B;}
</style>
<g>
	<g>
		<g>
			<g>
				<g>
					<g>
						<g>
							<path class="st0" d="M35.28,56.03c-0.05-0.03-0.11-0.06-0.16-0.09c-0.03-0.02-0.06-0.04-0.09-0.06
								c-0.08-0.05-0.17-0.1-0.25-0.16c-0.01-0.01-0.01-0.01-0.02-0.02c-0.42-0.28-0.77-0.58-1.05-0.89
								c-0.04-0.05-0.08-0.09-0.12-0.14c-0.03-0.03-0.05-0.06-0.08-0.09c-0.06-0.08-0.12-0.16-0.17-0.24l-0.13,0.07v0L28.65,57
								c0.45,0.75,1.06,2.02,1.17,3.51l0.02,0.01v0.47c0,0,0,0,0,0c0,0.17-0.01,0.35-0.02,0.51c-0.08,0.97,0.09,1.93,0.3,2.57
								c0.21-0.43,0.57-1.09,1.24-2.11l0.36-0.55l0,0c1.17-1.74,2.68-3.8,3.75-5.24l0,0l0.02-0.03
								C35.41,56.11,35.34,56.07,35.28,56.03z"/>
						</g>
						<g>
							<path class="st1" d="M70.92,45.04c0.1-0.03,0.2-0.07,0.29-0.1c0.23-0.08,0.45-0.17,0.68-0.26c0.06-0.02,0.11-0.04,0.17-0.07
								c0.28-0.11,0.56-0.23,0.85-0.36c0.08-0.03,0.15-0.07,0.23-0.1c0.21-0.09,0.41-0.19,0.62-0.28c0.04-0.02,0.07-0.04,0.11-0.05
								c-1.02-0.54-2.06-1.06-3.11-1.54l-0.55,3.01c0.05-0.02,0.1-0.03,0.15-0.05C70.54,45.17,70.73,45.11,70.92,45.04z"/>
						</g>
						<g>
							<path class="st1" d="M56.39,45.48c0.21,0.06,0.41,0.13,0.62,0.18c0.04,0.01,0.07,0.02,0.11,0.03
								c0.24,0.07,0.48,0.13,0.72,0.18c0.06,0.01,0.12,0.03,0.18,0.04c0.2,0.05,0.39,0.09,0.59,0.13c0.04,0.01,0.07,0.02,0.11,0.02
								l1.4-7.71c-1.09-0.3-2.18-0.57-3.25-0.8l-0.23,1.28l-1.15,6.33c0.01,0,0.03,0.01,0.04,0.01c0.22,0.08,0.44,0.15,0.66,0.22
								C56.26,45.44,56.33,45.46,56.39,45.48z"/>
						</g>
						<g>
							<path class="st1" d="M84.53,29.77c3.23,0,5.87-2.2,5.87-4.91c0-0.42-0.07-0.84-0.19-1.25l-11.48,1.93
								C79.12,27.92,81.59,29.77,84.53,29.77z"/>
						</g>
						<g>
							<path class="st1" d="M52,43.56c0.17,0.09,0.33,0.19,0.5,0.28c0.06,0.03,0.12,0.06,0.18,0.09c0.21,0.11,0.43,0.22,0.65,0.33
								c0.02,0.01,0.04,0.02,0.06,0.03c0.2,0.1,0.4,0.19,0.6,0.28c0.03,0.01,0.06,0.03,0.09,0.04l0.03-0.16l1.31-7.18
								c-1.06-0.2-2.09-0.35-3.06-0.47l-1.15,6.28c0.01,0.01,0.02,0.01,0.03,0.02c0.2,0.13,0.41,0.25,0.62,0.37
								C51.9,43.5,51.95,43.53,52,43.56z"/>
						</g>
						<g>
							<path class="st1" d="M60.92,46.38c0.06,0.01,0.12,0.01,0.18,0.02c0.25,0.02,0.5,0.04,0.75,0.05c0.04,0,0.08,0,0.12,0
								c0.22,0.01,0.43,0.01,0.65,0.02c0.06,0,0.13,0,0.19,0c0.25,0,0.5,0,0.76-0.01c0,0,0,0,0.01,0l0.95-5.24l0.25-1.4
								c-1.07-0.38-2.14-0.73-3.2-1.05l-0.69,3.77L60.2,46.3c0.04,0,0.08,0.01,0.12,0.01C60.52,46.34,60.72,46.36,60.92,46.38z"/>
						</g>
						<g>
							<path class="st1" d="M65.98,46.26c0.26-0.04,0.52-0.08,0.78-0.12c0.07-0.01,0.14-0.03,0.21-0.04
								c0.21-0.04,0.43-0.08,0.64-0.13c0.05-0.01,0.1-0.02,0.15-0.03c0.26-0.06,0.51-0.12,0.77-0.18c0.02-0.01,0.04-0.01,0.06-0.02
								l0.75-4.1c-1.04-0.46-2.1-0.89-3.16-1.29l-1.09,6.01c0.03,0,0.07-0.01,0.1-0.01c0.25-0.03,0.5-0.05,0.75-0.09
								C65.96,46.26,65.97,46.26,65.98,46.26z"/>
						</g>
						<g>
							<g>
								<path class="st2" d="M167.28,24.25C148.59,7.39,127.22,6.69,112.59,9.08c-10.02,1.64-18.34,4.89-23.16,7.1
									c1.49,0.48,3,0.98,4.52,1.51l-0.01-0.01l1.85,0.66l0.27,0.1v0c0.63,0.23,1.24,0.45,1.84,0.67l5.96-1.65l0.31,0.35
									c0.36,0.41,0.7,0.91,1.03,1.48c1.23-0.17,3.18-0.2,4.97,0.77c1.68,0.91,2.84,2.49,3.46,4.69c1.63,5.81-2.17,8.39-3.71,9.17
									c0.25,1.18,0.39,1.97,0.41,2.1l0.08,0.44l-5.11,4.12l-3.56,9.65l-2.63,7.12l4.37,2.58l-0.45,0.28
									c-1.74,0.77-3.45,1.53-5.12,2.28c-0.13,0.06-0.25,0.11-0.37,0.17l-0.48,1.29c0,0,0.01,0,0.01,0l-1.28,3.35
									c1.17,10.18,3.81,18.11,7.89,23.7l1.21-1.14l0.71,3.49c1.59,1.74,3.37,3.18,5.32,4.33c14.83,8.71,37.16-1.58,46.7-5.97
									c11.1-5.11,24.87-16.35,27.13-31.17C186.55,48.54,180.68,36.34,167.28,24.25z M157.15,67.5c-0.82,1.44-1.85,2.51-3.15,3.26
									c-1.42,0.82-2.82,1.45-4.17,1.86c-1.38,0.42-2.63,0.69-3.7,0.82c-1.71,0.2-2.41,0.42-2.88,0.88
									c-0.05,0.05-0.09,0.1-0.14,0.16c-0.4,0.53-0.55,1.27-0.51,2.49c0.02,0.7-0.04,1.46-0.18,2.26
									c-0.12,0.67-0.38,1.24-0.78,1.75c-0.31,0.39-1.05,0.48-1.63,0.48c-1.05-0.05-1.95-0.29-2.66-0.73
									c-0.81-0.5-1.51-1.08-2.08-1.72c-0.56-0.62-0.97-1.26-1.24-1.88c-0.36-0.85-0.45-1.26-0.47-1.43
									c-0.08-0.63-0.39-1.51-1.44-2.16c-0.5-0.32-1.18-0.67-2.07-1.09c-0.81-0.38-1.82-0.89-3.02-1.51
									c-1.16-0.61-2.56-1.48-4.16-2.6c-1.49-1.04-2.6-2.14-3.29-3.26c-0.64-1.03-0.94-1.96-0.9-2.76
									c0.04-0.72,0.29-1.28,0.82-1.77c0.53-0.49,1.39-0.76,2.57-0.81c0.13,0,0.26-0.01,0.38-0.01c1.25,0,1.78,0.25,1.98,0.39
									c0.58,0.42,1.13,0.94,1.62,1.56c0.66,0.82,1.48,1.59,2.44,2.3c1.09,0.81,2.66,1.3,4.79,1.49c0.71,0.06,1.4,0.09,2.07,0.09
									c1.24,0,2.43-0.11,3.54-0.32c1.65-0.32,3.14-0.72,4.43-1.19c0.01-0.01,0.03-0.01,0.04-0.02c1.46-0.58,2.83-1.27,4.06-2.03
									c0.51-0.31,0.78-0.9,0.69-1.49c-0.09-0.59-0.52-1.07-1.1-1.22c-1.02-0.27-2.13-0.57-3.3-0.91c0,0-0.01,0-0.01,0
									c-0.96-0.27-2.06-0.61-3.24-1.01c-1.32-0.45-2.54-0.87-3.71-1.28c-1.26-0.49-2.76-1.1-4.61-1.85
									c-1.7-0.7-3.36-1.64-4.91-2.81c-0.35-0.26-0.69-0.54-1.01-0.84c-0.15-0.14-0.3-0.28-0.45-0.43
									c-0.61-0.6-1.17-1.25-1.68-1.96c-0.03-0.04-0.05-0.07-0.07-0.11c-0.21-0.3-0.41-0.6-0.61-0.91
									c-0.97-1.59-1.42-3.56-1.32-5.85c0-0.01,0-0.02,0-0.03c0.05-2.28,0.57-4.13,1.55-5.48c1.06-1.46,2.17-2.63,3.31-3.48
									c1.34-0.89,2.92-1.57,4.67-2.02c0.71-0.18,1.18-0.84,1.12-1.57c-0.05-0.54-0.02-1.12,0.07-1.71
									c0.11-0.59,0.24-1.28,0.41-2.12c0.14-0.7,0.4-1.44,0.79-2.2c0.3-0.6,0.65-1,1.06-1.21c0.48-0.25,0.99-0.37,1.56-0.37
									c0.61,0,1.25,0.13,1.9,0.39c0.71,0.28,1.41,0.67,2.09,1.15c1.23,0.92,2.03,1.9,2.37,2.92c0.33,0.99,0.42,1.81,0.25,2.38
									c-0.23,0.62-0.36,1.14-0.26,1.64c0.15,0.75,0.74,1.2,1.36,1.57c0.44,0.27,1.16,0.67,2.13,1.2c0.93,0.51,2.25,1.34,3.91,2.46
									c1.53,1.03,2.61,2.08,3.21,3.1c0.57,0.97,0.85,1.83,0.83,2.57c-0.02,0.68-0.22,1.21-0.62,1.67
									c-0.41,0.47-0.92,0.74-1.58,0.85c-0.01,0-0.01,0-0.01,0c-0.23,0.04-0.45,0.06-0.67,0.06c-0.43,0-0.83-0.08-1.24-0.23
									c-0.73-0.28-1.35-0.61-1.85-0.97c-0.64-0.49-1.27-1.08-1.88-1.73c-0.14-0.16-0.32-0.28-0.51-0.36
									c-2.29-0.98-4.22-1.45-5.88-1.45c-0.44,0-0.87,0.04-1.28,0.1c-1.86,0.32-3.38,0.96-4.52,1.9c-0.02,0.01-0.03,0.03-0.05,0.04
									c-1.24,1.11-2.19,2.61-2.83,4.45c-0.1,0.29-0.11,0.6-0.02,0.9c0.02,0.06,0.04,0.12,0.07,0.18c0.01,0.02,0.02,0.05,0.03,0.07
									c0.18,0.36,0.49,0.63,0.87,0.76c0.2,0.07,0.4,0.13,0.6,0.2c0.22,0.07,0.43,0.15,0.65,0.22c1.47,0.49,2.93,0.99,4.38,1.49
									c1.65,0.6,3.49,1.28,5.48,1.99c1.96,0.71,3.92,1.48,5.82,2.29c1.75,0.77,3.33,1.73,4.69,2.83c1.32,1.07,2.37,2.26,3.1,3.54
									c0.71,1.24,1.08,2.52,1.13,3.92C158.34,64.6,157.96,66.03,157.15,67.5z"/>
							</g>
						</g>
						<g>
							<path class="st1" d="M96.38,52.39c0.11-0.04,0.23-0.08,0.34-0.12c0.12-0.04,0.25-0.09,0.37-0.13
								c0.11-0.04,0.22-0.08,0.33-0.12c0.12-0.04,0.24-0.09,0.36-0.13c0.11-0.04,0.21-0.08,0.32-0.12c0.12-0.04,0.23-0.09,0.34-0.13
								c0.1-0.04,0.21-0.08,0.31-0.12c0.11-0.04,0.22-0.09,0.33-0.13c0.1-0.04,0.2-0.08,0.3-0.12c0.11-0.04,0.21-0.09,0.31-0.13
								c0.05-0.02,0.1-0.04,0.15-0.06l4.96-13.41c-1.12-8.41-4.42-14.29-5.86-16.54c-0.6-0.23-1.21-0.46-1.85-0.7
								c0.01,0.02,0.02,0.04,0.03,0.06c0.05,0.1,0.09,0.19,0.14,0.29c0.09,0.18,0.17,0.36,0.25,0.53c0.05,0.11,0.09,0.21,0.14,0.31
								c0.07,0.16,0.14,0.32,0.21,0.48c0.05,0.11,0.09,0.21,0.13,0.31c0.06,0.15,0.12,0.3,0.18,0.45c0.04,0.1,0.08,0.2,0.12,0.3
								c0.06,0.15,0.11,0.29,0.16,0.44c0.03,0.09,0.07,0.19,0.1,0.28c0.05,0.15,0.1,0.3,0.14,0.44c0.03,0.08,0.05,0.16,0.07,0.24
								c0.05,0.17,0.1,0.34,0.14,0.51c0.01,0.05,0.03,0.09,0.04,0.14c0.05,0.21,0.1,0.42,0.14,0.62c0.01,0.05,0.02,0.09,0.02,0.14
								c0.03,0.15,0.05,0.3,0.07,0.44c0.01,0.07,0.01,0.13,0.02,0.2c0.01,0.12,0.03,0.24,0.03,0.35c0.01,0.07,0.01,0.14,0.01,0.21
								c0,0.11,0.01,0.21,0.01,0.31c0,0.07,0,0.13,0,0.2c0,0.1-0.01,0.19-0.02,0.29c-0.01,0.06-0.01,0.13-0.02,0.19
								c-0.01,0.09-0.03,0.18-0.05,0.27c-0.01,0.06-0.02,0.11-0.03,0.17c-0.02,0.09-0.05,0.19-0.08,0.28
								c-0.01,0.04-0.02,0.09-0.04,0.13c-0.05,0.13-0.1,0.25-0.16,0.37c-0.43,0.87-1.35,1.85-2.62,2.79
								c-0.19,0.14-0.4,0.29-0.61,0.43c-0.45,0.3-0.93,0.59-1.44,0.87c-1.53,0.83-3.34,1.54-5.27,1.97
								c-0.13,0.03-0.27,0.06-0.4,0.08c-0.04,0.01-0.08,0.01-0.11,0.02c-0.1,0.02-0.21,0.04-0.31,0.06
								c-0.04,0.01-0.09,0.02-0.13,0.02c-0.11,0.02-0.22,0.04-0.33,0.05c-0.03,0.01-0.07,0.01-0.11,0.02
								c-0.15,0.02-0.3,0.04-0.45,0.06c-0.01,0-0.02,0-0.03,0c-0.14,0.02-0.28,0.03-0.43,0.04c-0.04,0-0.09,0.01-0.13,0.01
								c-0.12,0.01-0.23,0.02-0.35,0.03c-0.05,0-0.09,0.01-0.14,0.01c-0.13,0.01-0.26,0.01-0.39,0.02c-0.03,0-0.06,0-0.1,0
								c-0.16,0-0.33,0.01-0.5,0.01c-0.01,0-0.01,0-0.02,0c-0.02,0-0.04,0-0.06,0c-0.15,0-0.31,0-0.46-0.01c-0.05,0-0.1,0-0.15-0.01
								c-0.15-0.01-0.3-0.01-0.46-0.02c-0.03,0-0.06,0-0.1-0.01c-0.18-0.01-0.37-0.03-0.55-0.05c-0.04,0-0.08-0.01-0.13-0.01
								c-0.15-0.02-0.3-0.04-0.44-0.06c-0.05-0.01-0.11-0.02-0.16-0.02c-0.18-0.03-0.35-0.06-0.53-0.09c-0.01,0-0.03,0-0.04-0.01
								c-0.19-0.04-0.38-0.08-0.57-0.12c-0.05-0.01-0.11-0.03-0.16-0.04c-0.15-0.04-0.3-0.07-0.44-0.11
								c-0.05-0.01-0.11-0.03-0.16-0.04c-0.19-0.05-0.39-0.11-0.58-0.18c-0.02-0.01-0.05-0.02-0.07-0.02
								c-0.17-0.06-0.35-0.12-0.52-0.18c-0.06-0.02-0.12-0.04-0.18-0.07c-0.15-0.06-0.31-0.12-0.46-0.18
								c-0.05-0.02-0.1-0.04-0.15-0.06c-0.2-0.08-0.39-0.17-0.59-0.27c-0.04-0.02-0.09-0.04-0.13-0.06
								c-0.16-0.08-0.32-0.16-0.47-0.24c-0.06-0.03-0.12-0.06-0.18-0.1c-0.17-0.09-0.33-0.18-0.5-0.28
								c-0.03-0.02-0.07-0.04-0.1-0.06c-0.2-0.12-0.39-0.24-0.59-0.37c-0.05-0.03-0.11-0.07-0.16-0.11c-0.15-0.1-0.3-0.21-0.46-0.32
								c-0.06-0.04-0.11-0.08-0.17-0.12c-0.2-0.15-0.4-0.3-0.59-0.45c-0.11-0.09-0.22-0.18-0.33-0.28c-0.04-0.03-0.07-0.07-0.11-0.1
								c-0.07-0.06-0.14-0.13-0.21-0.2c-0.04-0.04-0.08-0.09-0.12-0.13c-0.06-0.06-0.12-0.13-0.18-0.19
								c-0.04-0.05-0.08-0.1-0.13-0.15c-0.05-0.06-0.11-0.13-0.16-0.19c-0.04-0.05-0.08-0.11-0.13-0.17
								c-0.05-0.07-0.1-0.13-0.15-0.2c-0.04-0.06-0.08-0.12-0.13-0.18c-0.05-0.07-0.1-0.14-0.14-0.21
								c-0.04-0.06-0.08-0.13-0.12-0.19c-0.04-0.07-0.09-0.14-0.13-0.22c-0.04-0.07-0.08-0.14-0.12-0.2
								c-0.04-0.07-0.09-0.15-0.13-0.22c-0.04-0.07-0.07-0.14-0.11-0.22c-0.04-0.08-0.08-0.15-0.12-0.23
								c-0.04-0.08-0.07-0.15-0.11-0.23c-0.04-0.08-0.07-0.16-0.11-0.24c-0.03-0.08-0.07-0.16-0.1-0.24
								c-0.03-0.08-0.07-0.17-0.1-0.25c-0.03-0.08-0.07-0.17-0.1-0.25c-0.03-0.09-0.07-0.17-0.1-0.26
								c-0.03-0.09-0.06-0.18-0.09-0.27c-0.03-0.09-0.06-0.18-0.09-0.27c-0.03-0.09-0.06-0.18-0.09-0.28
								c-0.03-0.09-0.06-0.19-0.09-0.28c-0.03-0.09-0.05-0.19-0.08-0.29c-0.03-0.1-0.05-0.19-0.08-0.29c-0.03-0.1-0.05-0.2-0.08-0.3
								c-0.03-0.1-0.05-0.2-0.07-0.3c-0.02-0.1-0.05-0.21-0.07-0.31c-0.02-0.1-0.05-0.21-0.07-0.31c-0.02-0.11-0.04-0.21-0.06-0.32
								c-0.02-0.11-0.04-0.21-0.06-0.32c-0.02-0.11-0.04-0.22-0.06-0.33c-0.02-0.11-0.04-0.22-0.05-0.33
								c-0.02-0.11-0.04-0.23-0.05-0.35c-0.02-0.11-0.03-0.23-0.05-0.34c-0.02-0.12-0.03-0.24-0.05-0.35
								c-0.01-0.12-0.03-0.23-0.04-0.35c-0.01-0.12-0.03-0.24-0.04-0.37c-0.01-0.12-0.03-0.24-0.04-0.36
								c-0.01-0.12-0.02-0.25-0.03-0.38c-0.01-0.12-0.02-0.25-0.03-0.38c-0.01-0.13-0.02-0.26-0.03-0.39
								c-0.01-0.13-0.02-0.26-0.03-0.38c-0.01-0.13-0.02-0.26-0.02-0.4c-0.01-0.13-0.01-0.26-0.02-0.4
								c-0.01-0.13-0.01-0.27-0.02-0.41c-0.01-0.14-0.01-0.27-0.01-0.41c0-0.14-0.01-0.28-0.01-0.42c0-0.14-0.01-0.28-0.01-0.42
								c0-0.14,0-0.28,0-0.43c0-0.14,0-0.29,0-0.43c0-0.15,0-0.29,0-0.44c0-0.15,0-0.29,0-0.44c0-0.15,0-0.3,0.01-0.45
								c0-0.15,0.01-0.3,0.01-0.45c0-0.15,0.01-0.31,0.01-0.46c0.01-0.15,0.01-0.31,0.02-0.46c0.01-0.16,0.01-0.31,0.02-0.47
								c0-0.05,0-0.09,0.01-0.14c-16.81-2.84-29.31-0.91-37.17,5.73c-0.28,0.24-0.44,0.59-0.44,0.96c0,0.37,0.17,0.72,0.46,0.96
								c2.68,2.2,8.75,6.49,19.34,10.41c0,0,0,0,0,0c0.04,0.01,0.07,0.03,0.11,0.04c0.12,0.04,0.24,0.09,0.36,0.13
								c6.1,2.22,30.69,11.28,33.68,11.92c1.7,0.36,3.61-0.53,5.67-2.64l3.09-3.18l-1.88,4.01c-0.08,0.17-2.02,4.23-6.47,5.63
								c-3.21,1.01-6.84,0.38-10.79-1.89c-0.2-0.11-0.39-0.22-0.59-0.33c-0.08,0.04-0.15,0.08-0.23,0.11
								c-0.12,0.06-0.24,0.12-0.36,0.18c-0.14,0.07-0.28,0.14-0.42,0.2c-0.12,0.06-0.24,0.11-0.35,0.17
								c-0.14,0.07-0.29,0.13-0.43,0.19c-0.12,0.05-0.23,0.1-0.35,0.15c-0.15,0.06-0.29,0.12-0.44,0.18
								c-0.11,0.05-0.23,0.09-0.34,0.14c-0.15,0.06-0.3,0.12-0.45,0.17c-0.11,0.04-0.22,0.08-0.33,0.12
								c-0.16,0.06-0.31,0.11-0.47,0.17c-0.1,0.04-0.21,0.07-0.31,0.11c-0.17,0.06-0.34,0.11-0.51,0.17
								c-0.09,0.03-0.17,0.06-0.26,0.08c-0.11,0.03-0.21,0.06-0.32,0.09l0,0.01l-0.45,0.12l-1.14,0.31l0.01-0.03
								c-0.29,0.07-0.58,0.13-0.87,0.18c-0.87,0.17-1.75,0.28-2.62,0.36l0,0.01l-0.59,0.03l-0.95,0.05l0-0.02
								c-0.12,0-0.24,0-0.36,0.01c-0.01,0-0.03,0-0.04,0c-0.03,0-0.07,0-0.1,0c-0.23,0-0.47-0.01-0.7-0.01c-0.07,0-0.15,0-0.22-0.01
								c-0.27-0.01-0.54-0.03-0.81-0.05c-0.03,0-0.06-0.01-0.08-0.01c-0.25-0.02-0.49-0.05-0.74-0.07
								c-0.07-0.01-0.14-0.02-0.21-0.03c-0.03,0-0.06-0.01-0.09-0.01l0,0.01l-0.72-0.12l-0.75-0.12l0-0.01
								c-1.09-0.21-2.18-0.51-3.23-0.87l0,0.02l-0.84-0.33l-0.57-0.22l0-0.01c-0.08-0.03-0.15-0.07-0.23-0.1
								c-0.06-0.03-0.12-0.05-0.19-0.08c-0.26-0.12-0.52-0.23-0.77-0.36c-0.03-0.01-0.06-0.03-0.09-0.04
								c-0.23-0.11-0.46-0.23-0.69-0.35c-0.06-0.03-0.11-0.06-0.17-0.09c-0.25-0.13-0.49-0.27-0.73-0.41
								c-0.01-0.01-0.02-0.01-0.04-0.02l-0.71,3.87c0.03,0.02,0.06,0.05,0.09,0.07c0.04,0.03,0.07,0.06,0.11,0.09
								c0.05,0.04,0.09,0.07,0.14,0.11c0.04,0.03,0.08,0.06,0.12,0.09c0.05,0.04,0.1,0.08,0.15,0.11c0.04,0.03,0.08,0.06,0.12,0.09
								c0.05,0.04,0.11,0.08,0.16,0.12c0.04,0.03,0.09,0.06,0.13,0.09c0.06,0.04,0.12,0.08,0.18,0.12c0.05,0.03,0.09,0.06,0.14,0.09
								c0.06,0.04,0.13,0.08,0.2,0.12c0.05,0.03,0.09,0.06,0.14,0.09c0.07,0.04,0.15,0.09,0.22,0.13c0.04,0.03,0.09,0.05,0.13,0.08
								c0.09,0.06,0.19,0.11,0.29,0.17c0.03,0.02,0.06,0.03,0.09,0.05c0.13,0.07,0.26,0.14,0.4,0.22c0.05,0.03,0.1,0.05,0.15,0.08
								c0.09,0.05,0.18,0.09,0.28,0.14c0.06,0.03,0.13,0.06,0.19,0.09c0.09,0.04,0.17,0.08,0.26,0.12c0.07,0.03,0.14,0.07,0.21,0.1
								c0.09,0.04,0.17,0.08,0.26,0.12c0.08,0.03,0.15,0.07,0.23,0.1c0.09,0.04,0.18,0.08,0.27,0.12c0.08,0.03,0.16,0.07,0.25,0.1
								c0.09,0.04,0.19,0.08,0.28,0.12c0.09,0.03,0.17,0.07,0.26,0.1c0.1,0.04,0.2,0.08,0.3,0.11c0.09,0.03,0.18,0.07,0.28,0.1
								c0.1,0.04,0.2,0.08,0.31,0.11c0.1,0.03,0.19,0.07,0.29,0.1c0.11,0.04,0.21,0.07,0.32,0.11c0.1,0.03,0.2,0.07,0.31,0.1
								c0.11,0.04,0.22,0.07,0.34,0.11c0.11,0.03,0.21,0.07,0.32,0.1c0.12,0.04,0.23,0.07,0.35,0.11c0.11,0.03,0.22,0.07,0.34,0.1
								c0.12,0.04,0.24,0.07,0.37,0.11c0.12,0.03,0.23,0.07,0.35,0.1c0.13,0.03,0.25,0.07,0.38,0.1c0.12,0.03,0.24,0.06,0.37,0.1
								c0.13,0.03,0.27,0.07,0.41,0.1c0.12,0.03,0.25,0.06,0.38,0.09c0.14,0.03,0.28,0.07,0.43,0.1c0.13,0.03,0.26,0.06,0.39,0.09
								c0.15,0.03,0.29,0.07,0.44,0.1c0.13,0.03,0.27,0.06,0.41,0.09c0.15,0.03,0.31,0.07,0.47,0.1c0.14,0.03,0.28,0.06,0.42,0.09
								c0.16,0.03,0.33,0.06,0.49,0.1c0.14,0.03,0.28,0.06,0.43,0.08c0.17,0.03,0.35,0.06,0.52,0.1c0.14,0.03,0.29,0.05,0.43,0.08
								c0.18,0.03,0.37,0.06,0.56,0.1c0.15,0.02,0.29,0.05,0.44,0.07c0.2,0.03,0.4,0.06,0.61,0.1c0.14,0.02,0.28,0.04,0.42,0.07
								c0.23,0.04,0.47,0.07,0.71,0.1c0.12,0.02,0.24,0.04,0.36,0.05c0.36,0.05,0.73,0.1,1.11,0.15c0.43,0.06,0.85,0.11,1.27,0.15
								c0.17,0.02,0.35,0.04,0.52,0.05c0.24,0.02,0.49,0.05,0.72,0.07c0.2,0.02,0.4,0.03,0.6,0.05c0.21,0.02,0.42,0.04,0.63,0.05
								c0.21,0.02,0.41,0.03,0.62,0.04c0.2,0.01,0.39,0.03,0.59,0.04c0.21,0.01,0.42,0.02,0.63,0.03c0.18,0.01,0.37,0.02,0.55,0.02
								c0.21,0.01,0.42,0.01,0.63,0.02c0.18,0,0.36,0.01,0.54,0.01c0.21,0,0.42,0,0.63,0.01c0.17,0,0.35,0,0.52,0
								c0.21,0,0.42,0,0.63-0.01c0.17,0,0.34,0,0.5-0.01c0.21,0,0.41-0.01,0.61-0.02c0.16,0,0.33-0.01,0.49-0.01
								c0.2-0.01,0.4-0.02,0.6-0.03c0.16-0.01,0.32-0.01,0.48-0.02c0.2-0.01,0.4-0.03,0.6-0.04c0.16-0.01,0.31-0.02,0.47-0.03
								c0.2-0.01,0.39-0.03,0.59-0.05c0.15-0.01,0.31-0.03,0.46-0.04c0.19-0.02,0.39-0.04,0.58-0.06c0.15-0.02,0.3-0.03,0.45-0.05
								c0.19-0.02,0.38-0.04,0.57-0.07c0.15-0.02,0.29-0.03,0.44-0.05c0.19-0.02,0.37-0.05,0.55-0.07c0.15-0.02,0.29-0.04,0.43-0.06
								c0.18-0.03,0.36-0.05,0.54-0.08c0.14-0.02,0.29-0.04,0.43-0.07c0.18-0.03,0.35-0.06,0.52-0.09c0.14-0.02,0.28-0.05,0.42-0.07
								c0.17-0.03,0.34-0.06,0.51-0.1c0.14-0.03,0.27-0.05,0.41-0.08c0.17-0.03,0.33-0.07,0.5-0.1c0.13-0.03,0.27-0.06,0.4-0.08
								c0.16-0.03,0.32-0.07,0.48-0.11c0.13-0.03,0.26-0.06,0.39-0.09c0.16-0.04,0.31-0.07,0.47-0.11c0.13-0.03,0.26-0.06,0.39-0.09
								c0.15-0.04,0.3-0.08,0.46-0.12c0.13-0.03,0.25-0.07,0.38-0.1c0.15-0.04,0.29-0.08,0.44-0.12c0.12-0.03,0.25-0.07,0.37-0.1
								c0.14-0.04,0.29-0.08,0.43-0.12c0.12-0.04,0.24-0.07,0.36-0.11c0.14-0.04,0.28-0.08,0.41-0.13c0.12-0.04,0.24-0.07,0.35-0.11
								c0.13-0.04,0.27-0.09,0.4-0.13c0.12-0.04,0.23-0.08,0.35-0.11C96.13,52.48,96.26,52.44,96.38,52.39z"/>
						</g>
					</g>
					<g>
						<g>
							<path d="M154.06,55.79c-1.36-1.1-2.94-2.05-4.69-2.83c-1.9-0.81-3.86-1.59-5.82-2.29c-1.99-0.72-3.84-1.39-5.48-1.99
								c-1.45-0.5-2.92-0.99-4.38-1.49c-0.22-0.07-0.43-0.15-0.65-0.22c-0.2-0.07-0.4-0.13-0.6-0.2c-0.38-0.13-0.69-0.4-0.87-0.76
								c-0.01-0.02-0.02-0.05-0.03-0.07c-0.03-0.06-0.05-0.12-0.07-0.18c-0.08-0.29-0.08-0.61,0.02-0.9
								c0.63-1.84,1.59-3.34,2.83-4.45c0.02-0.01,0.03-0.03,0.05-0.04c1.14-0.94,2.66-1.58,4.52-1.9c0.4-0.07,0.83-0.1,1.28-0.1
								c1.66,0,3.59,0.47,5.88,1.45c0.19,0.08,0.37,0.21,0.51,0.36c0.6,0.65,1.23,1.23,1.88,1.73c0.5,0.36,1.12,0.69,1.85,0.97
								c0.4,0.16,0.81,0.23,1.24,0.23c0.22,0,0.44-0.02,0.67-0.06c0,0,0.01,0,0.01,0c0.67-0.11,1.17-0.38,1.58-0.85
								c0.41-0.46,0.6-0.99,0.62-1.67c0.02-0.73-0.26-1.6-0.83-2.57c-0.6-1.02-1.69-2.07-3.21-3.1c-1.66-1.13-2.98-1.95-3.91-2.46
								c-0.97-0.53-1.69-0.93-2.13-1.2c-0.62-0.37-1.21-0.82-1.36-1.57c-0.1-0.5,0.03-1.02,0.26-1.64c0.17-0.57,0.08-1.39-0.25-2.38
								c-0.34-1.02-1.14-2.01-2.37-2.92c-0.68-0.48-1.38-0.87-2.09-1.15c-0.65-0.26-1.29-0.39-1.9-0.39c-0.57,0-1.08,0.12-1.56,0.37
								c-0.4,0.21-0.76,0.62-1.06,1.21c-0.38,0.76-0.65,1.5-0.79,2.2c-0.17,0.84-0.3,1.53-0.41,2.12c-0.09,0.59-0.11,1.17-0.07,1.71
								c0.06,0.73-0.41,1.39-1.12,1.57c-1.75,0.45-3.33,1.13-4.67,2.02c-1.14,0.85-2.25,2.02-3.31,3.48
								c-0.98,1.35-1.5,3.19-1.55,5.48c0,0.01,0,0.02,0,0.03c-0.1,2.29,0.35,4.26,1.32,5.85c0.19,0.31,0.4,0.62,0.61,0.91
								c0.02,0.04,0.05,0.07,0.07,0.11c0.51,0.71,1.07,1.36,1.68,1.96c0.15,0.15,0.3,0.29,0.45,0.43c0.33,0.29,0.66,0.57,1.01,0.84
								c1.55,1.17,3.21,2.11,4.91,2.81c1.85,0.76,3.35,1.36,4.61,1.85c1.17,0.41,2.39,0.83,3.71,1.28c1.19,0.41,2.28,0.75,3.24,1.01
								c0,0,0.01,0,0.01,0c1.17,0.33,2.28,0.64,3.3,0.91c0.58,0.15,1.01,0.63,1.1,1.22c0.09,0.59-0.18,1.18-0.69,1.49
								c-1.23,0.76-2.6,1.45-4.06,2.03c-0.01,0.01-0.03,0.01-0.04,0.02c-1.29,0.47-2.78,0.87-4.43,1.19
								c-1.11,0.21-2.3,0.32-3.54,0.32c-0.67,0-1.37-0.03-2.07-0.09c-2.13-0.19-3.7-0.68-4.79-1.49c-0.95-0.71-1.77-1.48-2.44-2.3
								c-0.5-0.61-1.04-1.14-1.62-1.56c-0.2-0.15-0.73-0.39-1.98-0.39c-0.12,0-0.25,0-0.38,0.01c-1.18,0.04-2.04,0.31-2.57,0.81
								c-0.52,0.49-0.78,1.05-0.82,1.77c-0.04,0.8,0.26,1.73,0.9,2.76c0.69,1.12,1.8,2.22,3.29,3.26c1.6,1.12,3,2,4.16,2.6
								c1.19,0.62,2.21,1.13,3.02,1.51c0.89,0.41,1.57,0.77,2.07,1.09c1.05,0.65,1.36,1.54,1.44,2.16c0.02,0.17,0.11,0.58,0.47,1.43
								c0.27,0.62,0.69,1.26,1.24,1.88c0.57,0.64,1.27,1.22,2.08,1.72c0.71,0.44,1.6,0.69,2.66,0.73c0.58,0,1.32-0.09,1.63-0.48
								c0.4-0.5,0.66-1.07,0.78-1.75c0.15-0.8,0.21-1.57,0.18-2.26c-0.04-1.21,0.11-1.96,0.51-2.49c0.04-0.06,0.09-0.11,0.14-0.16
								c0.47-0.47,1.17-0.68,2.88-0.88c1.07-0.13,2.31-0.4,3.7-0.82c1.35-0.41,2.75-1.03,4.17-1.86c1.3-0.76,2.33-1.82,3.15-3.26
								c0.8-1.47,1.19-2.9,1.14-4.26c-0.05-1.4-0.42-2.68-1.13-3.92C156.43,58.05,155.39,56.86,154.06,55.79z"/>
						</g>
						<g>
							<polygon points="97.04,63.94 96.77,64.67 97.05,63.94 							"/>
						</g>
						<g>
							<polygon points="96.77,64.67 96.77,64.67 96.77,64.67 							"/>
						</g>
						<g>
							<path class="st3" d="M60.92,46.38c0.06,0.01,0.12,0.01,0.18,0.02c0.25,0.02,0.5,0.04,0.75,0.05c0.04,0,0.08,0,0.12,0
								c0.22,0.01,0.43,0.01,0.65,0.02c0.06,0,0.13,0,0.19,0c0.25,0,0.5,0,0.76-0.01c0,0,0,0,0.01,0l0.95-5.24l0.25-1.4
								c-1.07-0.38-2.14-0.73-3.2-1.05l-0.69,3.77L60.2,46.3c0.04,0,0.08,0.01,0.12,0.01C60.52,46.34,60.72,46.36,60.92,46.38z"/>
							<path class="st3" d="M56.39,45.48c0.21,0.06,0.41,0.13,0.62,0.18c0.04,0.01,0.07,0.02,0.11,0.03
								c0.24,0.07,0.48,0.13,0.72,0.18c0.06,0.01,0.12,0.03,0.18,0.04c0.2,0.05,0.39,0.09,0.59,0.13c0.04,0.01,0.07,0.02,0.11,0.02
								l1.4-7.71c-1.09-0.3-2.18-0.57-3.25-0.8l-0.23,1.28l-1.15,6.33c0.01,0,0.03,0.01,0.04,0.01c0.22,0.08,0.44,0.15,0.66,0.22
								C56.26,45.44,56.33,45.46,56.39,45.48z"/>
							<path class="st3" d="M84.53,29.77c3.23,0,5.87-2.2,5.87-4.91c0-0.42-0.07-0.84-0.19-1.25l-11.48,1.93
								C79.12,27.92,81.59,29.77,84.53,29.77z"/>
							<path class="st3" d="M52,43.56c0.17,0.09,0.33,0.19,0.5,0.28c0.06,0.03,0.12,0.06,0.18,0.09c0.21,0.11,0.43,0.22,0.65,0.33
								c0.02,0.01,0.04,0.02,0.06,0.03c0.2,0.1,0.4,0.19,0.6,0.28c0.03,0.01,0.06,0.03,0.09,0.04l0.03-0.16l1.31-7.18
								c-1.06-0.2-2.09-0.35-3.06-0.47l-1.15,6.28c0.01,0.01,0.02,0.01,0.03,0.02c0.2,0.13,0.41,0.25,0.62,0.37
								C51.9,43.5,51.95,43.53,52,43.56z"/>
							<path class="st3" d="M65.98,46.26c0.26-0.04,0.52-0.08,0.78-0.12c0.07-0.01,0.14-0.03,0.21-0.04
								c0.21-0.04,0.43-0.08,0.64-0.13c0.05-0.01,0.1-0.02,0.15-0.03c0.26-0.06,0.51-0.12,0.77-0.18c0.02-0.01,0.04-0.01,0.06-0.02
								l0.75-4.1c-1.04-0.46-2.1-0.89-3.16-1.29l-1.09,6.01c0.03,0,0.07-0.01,0.1-0.01c0.25-0.03,0.5-0.05,0.75-0.09
								C65.96,46.26,65.97,46.26,65.98,46.26z"/>
							<path class="st3" d="M87.57,54.6c0.18-0.03,0.35-0.06,0.52-0.09c0.14-0.02,0.28-0.05,0.42-0.07c0.17-0.03,0.34-0.06,0.51-0.1
								c0.14-0.03,0.27-0.05,0.41-0.08c0.17-0.03,0.33-0.07,0.5-0.1c0.13-0.03,0.27-0.06,0.4-0.08c0.16-0.03,0.32-0.07,0.48-0.11
								c0.13-0.03,0.26-0.06,0.39-0.09c0.16-0.04,0.31-0.07,0.47-0.11c0.13-0.03,0.26-0.06,0.39-0.09c0.15-0.04,0.3-0.08,0.46-0.12
								c0.13-0.03,0.25-0.07,0.38-0.1c0.15-0.04,0.29-0.08,0.44-0.12c0.12-0.03,0.25-0.07,0.37-0.1c0.14-0.04,0.29-0.08,0.43-0.12
								c0.12-0.04,0.24-0.07,0.36-0.11c0.14-0.04,0.28-0.08,0.41-0.13c0.12-0.04,0.24-0.07,0.35-0.11c0.13-0.04,0.27-0.09,0.4-0.13
								c0.12-0.04,0.23-0.08,0.35-0.11c0.13-0.04,0.26-0.09,0.38-0.13c0.11-0.04,0.23-0.08,0.34-0.12c0.12-0.04,0.25-0.09,0.37-0.13
								c0.11-0.04,0.22-0.08,0.33-0.12c0.12-0.04,0.24-0.09,0.36-0.13c0.11-0.04,0.21-0.08,0.32-0.12c0.12-0.04,0.23-0.09,0.34-0.13
								c0.1-0.04,0.21-0.08,0.31-0.12c0.11-0.04,0.22-0.09,0.33-0.13c0.1-0.04,0.2-0.08,0.3-0.12c0.11-0.04,0.21-0.09,0.31-0.13
								c0.05-0.02,0.1-0.04,0.15-0.06l4.96-13.41c-1.12-8.41-4.42-14.29-5.86-16.54c-0.6-0.23-1.21-0.46-1.85-0.7
								c0.01,0.02,0.02,0.04,0.03,0.06c0.05,0.1,0.09,0.19,0.14,0.29c0.09,0.18,0.17,0.36,0.25,0.53c0.05,0.11,0.09,0.21,0.14,0.31
								c0.07,0.16,0.14,0.32,0.21,0.48c0.05,0.11,0.09,0.21,0.13,0.31c0.06,0.15,0.12,0.3,0.18,0.45c0.04,0.1,0.08,0.2,0.12,0.3
								c0.06,0.15,0.11,0.29,0.16,0.44c0.03,0.09,0.07,0.19,0.1,0.28c0.05,0.15,0.1,0.3,0.14,0.44c0.03,0.08,0.05,0.16,0.07,0.24
								c0.05,0.17,0.1,0.34,0.14,0.51c0.01,0.05,0.03,0.09,0.04,0.14c0.05,0.21,0.1,0.42,0.14,0.62c0.01,0.05,0.02,0.09,0.02,0.14
								c0.03,0.15,0.05,0.3,0.07,0.44c0.01,0.07,0.01,0.13,0.02,0.2c0.01,0.12,0.03,0.24,0.03,0.35c0.01,0.07,0.01,0.14,0.01,0.21
								c0,0.11,0.01,0.21,0.01,0.31c0,0.07,0,0.13,0,0.2c0,0.1-0.01,0.19-0.02,0.29c-0.01,0.06-0.01,0.13-0.02,0.19
								c-0.01,0.09-0.03,0.18-0.05,0.27c-0.01,0.06-0.02,0.11-0.03,0.17c-0.02,0.09-0.05,0.19-0.08,0.28
								c-0.01,0.04-0.02,0.09-0.04,0.13c-0.05,0.13-0.1,0.25-0.16,0.37c-0.43,0.87-1.35,1.85-2.62,2.79
								c-0.19,0.14-0.4,0.29-0.61,0.43c-0.45,0.3-0.93,0.59-1.44,0.87c-1.53,0.83-3.34,1.54-5.27,1.97
								c-0.13,0.03-0.27,0.06-0.4,0.08c-0.04,0.01-0.08,0.01-0.11,0.02c-0.1,0.02-0.21,0.04-0.31,0.06
								c-0.04,0.01-0.09,0.02-0.13,0.02c-0.11,0.02-0.22,0.04-0.33,0.05c-0.03,0.01-0.07,0.01-0.11,0.02
								c-0.15,0.02-0.3,0.04-0.45,0.06c-0.01,0-0.02,0-0.03,0c-0.14,0.02-0.28,0.03-0.43,0.04c-0.04,0-0.09,0.01-0.13,0.01
								c-0.12,0.01-0.23,0.02-0.35,0.03c-0.05,0-0.09,0.01-0.14,0.01c-0.13,0.01-0.26,0.01-0.39,0.02c-0.03,0-0.06,0-0.1,0
								c-0.16,0-0.33,0.01-0.5,0.01c-0.01,0-0.01,0-0.02,0c-0.02,0-0.04,0-0.06,0c-0.15,0-0.31,0-0.46-0.01c-0.05,0-0.1,0-0.15-0.01
								c-0.15-0.01-0.3-0.01-0.46-0.02c-0.03,0-0.06,0-0.1-0.01c-0.18-0.01-0.37-0.03-0.55-0.05c-0.04,0-0.08-0.01-0.13-0.01
								c-0.15-0.02-0.3-0.04-0.44-0.06c-0.05-0.01-0.11-0.02-0.16-0.02c-0.18-0.03-0.35-0.06-0.53-0.09c-0.01,0-0.03,0-0.04-0.01
								c-0.19-0.04-0.38-0.08-0.57-0.12c-0.05-0.01-0.11-0.03-0.16-0.04c-0.15-0.04-0.3-0.07-0.44-0.11
								c-0.05-0.01-0.11-0.03-0.16-0.04c-0.19-0.05-0.39-0.11-0.58-0.18c-0.02-0.01-0.05-0.02-0.07-0.02
								c-0.17-0.06-0.35-0.12-0.52-0.18c-0.06-0.02-0.12-0.04-0.18-0.07c-0.15-0.06-0.31-0.12-0.46-0.18
								c-0.05-0.02-0.1-0.04-0.15-0.06c-0.2-0.08-0.39-0.17-0.59-0.27c-0.04-0.02-0.09-0.04-0.13-0.06
								c-0.16-0.08-0.32-0.16-0.47-0.24c-0.06-0.03-0.12-0.06-0.18-0.1c-0.17-0.09-0.33-0.18-0.5-0.28
								c-0.03-0.02-0.07-0.04-0.1-0.06c-0.2-0.12-0.39-0.24-0.59-0.37c-0.05-0.03-0.11-0.07-0.16-0.11c-0.15-0.1-0.3-0.21-0.46-0.32
								c-0.06-0.04-0.11-0.08-0.17-0.12c-0.2-0.15-0.4-0.3-0.59-0.45c-0.11-0.09-0.22-0.18-0.33-0.28c-0.04-0.03-0.07-0.07-0.11-0.1
								c-0.07-0.06-0.14-0.13-0.21-0.2c-0.04-0.04-0.08-0.09-0.12-0.13c-0.06-0.06-0.12-0.13-0.18-0.19
								c-0.04-0.05-0.08-0.1-0.13-0.15c-0.05-0.06-0.11-0.13-0.16-0.19c-0.04-0.05-0.08-0.11-0.13-0.17
								c-0.05-0.07-0.1-0.13-0.15-0.2c-0.04-0.06-0.08-0.12-0.13-0.18c-0.05-0.07-0.1-0.14-0.14-0.21
								c-0.04-0.06-0.08-0.13-0.12-0.19c-0.04-0.07-0.09-0.14-0.13-0.22c-0.04-0.07-0.08-0.14-0.12-0.2
								c-0.04-0.07-0.09-0.15-0.13-0.22c-0.04-0.07-0.07-0.14-0.11-0.22c-0.04-0.08-0.08-0.15-0.12-0.23
								c-0.04-0.08-0.07-0.15-0.11-0.23c-0.04-0.08-0.07-0.16-0.11-0.24c-0.03-0.08-0.07-0.16-0.1-0.24
								c-0.03-0.08-0.07-0.17-0.1-0.25c-0.03-0.08-0.07-0.17-0.1-0.25c-0.03-0.09-0.07-0.17-0.1-0.26
								c-0.03-0.09-0.06-0.18-0.09-0.27c-0.03-0.09-0.06-0.18-0.09-0.27c-0.03-0.09-0.06-0.18-0.09-0.28
								c-0.03-0.09-0.06-0.19-0.09-0.28c-0.03-0.09-0.05-0.19-0.08-0.29c-0.03-0.1-0.05-0.19-0.08-0.29c-0.03-0.1-0.05-0.2-0.08-0.3
								c-0.03-0.1-0.05-0.2-0.07-0.3c-0.02-0.1-0.05-0.21-0.07-0.31c-0.02-0.1-0.05-0.21-0.07-0.31c-0.02-0.11-0.04-0.21-0.06-0.32
								c-0.02-0.11-0.04-0.21-0.06-0.32c-0.02-0.11-0.04-0.22-0.06-0.33c-0.02-0.11-0.04-0.22-0.05-0.33
								c-0.02-0.11-0.04-0.23-0.05-0.35c-0.02-0.11-0.03-0.23-0.05-0.34c-0.02-0.12-0.03-0.24-0.05-0.35
								c-0.01-0.12-0.03-0.23-0.04-0.35c-0.01-0.12-0.03-0.24-0.04-0.37c-0.01-0.12-0.03-0.24-0.04-0.36
								c-0.01-0.12-0.02-0.25-0.03-0.38c-0.01-0.12-0.02-0.25-0.03-0.38c-0.01-0.13-0.02-0.26-0.03-0.39
								c-0.01-0.13-0.02-0.26-0.03-0.38c-0.01-0.13-0.02-0.26-0.02-0.4c-0.01-0.13-0.01-0.26-0.02-0.4
								c-0.01-0.13-0.01-0.27-0.02-0.41c-0.01-0.14-0.01-0.27-0.01-0.41c0-0.14-0.01-0.28-0.01-0.42c0-0.14-0.01-0.28-0.01-0.42
								c0-0.14,0-0.28,0-0.43c0-0.14,0-0.29,0-0.43c0-0.15,0-0.29,0-0.44c0-0.15,0-0.29,0-0.44c0-0.15,0-0.3,0.01-0.45
								c0-0.15,0.01-0.3,0.01-0.45c0-0.15,0.01-0.31,0.01-0.46c0.01-0.15,0.01-0.31,0.02-0.46c0.01-0.16,0.01-0.31,0.02-0.47
								c0-0.05,0-0.09,0.01-0.14c-16.81-2.84-29.31-0.91-37.17,5.73c-0.28,0.24-0.44,0.59-0.44,0.96c0,0.37,0.17,0.72,0.46,0.96
								c2.68,2.2,8.75,6.49,19.34,10.41c0,0,0,0,0,0c0.04,0.01,0.07,0.03,0.11,0.04c0.12,0.04,0.24,0.09,0.36,0.13
								c6.1,2.22,30.69,11.28,33.68,11.92c1.7,0.36,3.61-0.53,5.67-2.64l3.09-3.18l-1.88,4.01c-0.08,0.17-2.02,4.23-6.47,5.63
								c-3.21,1.01-6.84,0.38-10.79-1.89c-0.2-0.11-0.39-0.22-0.59-0.33c-0.08,0.04-0.15,0.08-0.23,0.11
								c-0.12,0.06-0.24,0.12-0.36,0.18c-0.14,0.07-0.28,0.14-0.42,0.2c-0.12,0.06-0.24,0.11-0.35,0.17
								c-0.14,0.07-0.29,0.13-0.43,0.19c-0.12,0.05-0.23,0.1-0.35,0.15c-0.15,0.06-0.29,0.12-0.44,0.18
								c-0.11,0.05-0.23,0.09-0.34,0.14c-0.15,0.06-0.3,0.12-0.45,0.17c-0.11,0.04-0.22,0.08-0.33,0.12
								c-0.16,0.06-0.31,0.11-0.47,0.17c-0.1,0.04-0.21,0.07-0.31,0.11c-0.17,0.06-0.34,0.11-0.51,0.17
								c-0.09,0.03-0.17,0.06-0.26,0.08c-0.11,0.03-0.21,0.06-0.32,0.09l0,0.01l-0.45,0.12l-1.14,0.31l0.01-0.03
								c-0.29,0.07-0.58,0.13-0.87,0.18c-0.87,0.17-1.75,0.28-2.62,0.36l0,0.01l-0.59,0.03l-0.95,0.05l0-0.02
								c-0.12,0-0.24,0-0.36,0.01c-0.01,0-0.03,0-0.04,0c-0.03,0-0.07,0-0.1,0c-0.23,0-0.47-0.01-0.7-0.01c-0.07,0-0.15,0-0.22-0.01
								c-0.27-0.01-0.54-0.03-0.81-0.05c-0.03,0-0.06-0.01-0.08-0.01c-0.25-0.02-0.49-0.05-0.74-0.07
								c-0.07-0.01-0.14-0.02-0.21-0.03c-0.03,0-0.06-0.01-0.09-0.01l0,0.01l-0.72-0.12l-0.75-0.12l0-0.01
								c-1.09-0.21-2.18-0.51-3.23-0.87l0,0.02l-0.84-0.33l-0.57-0.22l0-0.01c-0.08-0.03-0.15-0.07-0.23-0.1
								c-0.06-0.03-0.12-0.05-0.19-0.08c-0.26-0.12-0.52-0.23-0.77-0.36c-0.03-0.01-0.06-0.03-0.09-0.04
								c-0.23-0.11-0.46-0.23-0.69-0.35c-0.06-0.03-0.11-0.06-0.17-0.09c-0.25-0.13-0.49-0.27-0.73-0.41
								c-0.01-0.01-0.02-0.01-0.04-0.02l-0.71,3.87c0.03,0.02,0.06,0.05,0.09,0.07c0.04,0.03,0.07,0.06,0.11,0.09
								c0.05,0.04,0.09,0.07,0.14,0.11c0.04,0.03,0.08,0.06,0.12,0.09c0.05,0.04,0.1,0.08,0.15,0.11c0.04,0.03,0.08,0.06,0.12,0.09
								c0.05,0.04,0.11,0.08,0.16,0.12c0.04,0.03,0.09,0.06,0.13,0.09c0.06,0.04,0.12,0.08,0.18,0.12c0.05,0.03,0.09,0.06,0.14,0.09
								c0.06,0.04,0.13,0.08,0.2,0.12c0.05,0.03,0.09,0.06,0.14,0.09c0.07,0.04,0.15,0.09,0.22,0.13c0.04,0.03,0.09,0.05,0.13,0.08
								c0.09,0.06,0.19,0.11,0.29,0.17c0.03,0.02,0.06,0.03,0.09,0.05c0.13,0.07,0.26,0.14,0.4,0.22c0.05,0.03,0.1,0.05,0.15,0.08
								c0.09,0.05,0.18,0.09,0.28,0.14c0.06,0.03,0.13,0.06,0.19,0.09c0.09,0.04,0.17,0.08,0.26,0.12c0.07,0.03,0.14,0.07,0.21,0.1
								c0.09,0.04,0.17,0.08,0.26,0.12c0.08,0.03,0.15,0.07,0.23,0.1c0.09,0.04,0.18,0.08,0.27,0.12c0.08,0.03,0.16,0.07,0.25,0.1
								c0.09,0.04,0.19,0.08,0.28,0.12c0.09,0.03,0.17,0.07,0.26,0.1c0.1,0.04,0.2,0.08,0.3,0.11c0.09,0.03,0.18,0.07,0.28,0.1
								c0.1,0.04,0.2,0.08,0.31,0.11c0.1,0.03,0.19,0.07,0.29,0.1c0.11,0.04,0.21,0.07,0.32,0.11c0.1,0.03,0.2,0.07,0.31,0.1
								c0.11,0.04,0.22,0.07,0.34,0.11c0.11,0.03,0.21,0.07,0.32,0.1c0.12,0.04,0.23,0.07,0.35,0.11c0.11,0.03,0.22,0.07,0.34,0.1
								c0.12,0.04,0.24,0.07,0.37,0.11c0.12,0.03,0.23,0.07,0.35,0.1c0.13,0.03,0.25,0.07,0.38,0.1c0.12,0.03,0.24,0.06,0.37,0.1
								c0.13,0.03,0.27,0.07,0.41,0.1c0.12,0.03,0.25,0.06,0.38,0.09c0.14,0.03,0.28,0.07,0.43,0.1c0.13,0.03,0.26,0.06,0.39,0.09
								c0.15,0.03,0.29,0.07,0.44,0.1c0.13,0.03,0.27,0.06,0.41,0.09c0.15,0.03,0.31,0.07,0.47,0.1c0.14,0.03,0.28,0.06,0.42,0.09
								c0.16,0.03,0.33,0.06,0.49,0.1c0.14,0.03,0.28,0.06,0.43,0.08c0.17,0.03,0.35,0.06,0.52,0.1c0.14,0.03,0.29,0.05,0.43,0.08
								c0.18,0.03,0.37,0.06,0.56,0.1c0.15,0.02,0.29,0.05,0.44,0.07c0.2,0.03,0.4,0.06,0.61,0.1c0.14,0.02,0.28,0.04,0.42,0.07
								c0.23,0.04,0.47,0.07,0.71,0.1c0.12,0.02,0.24,0.04,0.36,0.05c0.36,0.05,0.73,0.1,1.11,0.15c0.43,0.06,0.85,0.11,1.27,0.15
								c0.17,0.02,0.35,0.04,0.52,0.05c0.24,0.02,0.49,0.05,0.72,0.07c0.2,0.02,0.4,0.03,0.6,0.05c0.21,0.02,0.42,0.04,0.63,0.05
								c0.21,0.02,0.41,0.03,0.62,0.04c0.2,0.01,0.39,0.03,0.59,0.04c0.21,0.01,0.42,0.02,0.63,0.03c0.18,0.01,0.37,0.02,0.55,0.02
								c0.21,0.01,0.42,0.01,0.63,0.02c0.18,0,0.36,0.01,0.54,0.01c0.21,0,0.42,0,0.63,0.01c0.17,0,0.35,0,0.52,0
								c0.21,0,0.42,0,0.63-0.01c0.17,0,0.34,0,0.5-0.01c0.21,0,0.41-0.01,0.61-0.02c0.16,0,0.33-0.01,0.49-0.01
								c0.2-0.01,0.4-0.02,0.6-0.03c0.16-0.01,0.32-0.01,0.48-0.02c0.2-0.01,0.4-0.03,0.6-0.04c0.16-0.01,0.31-0.02,0.47-0.03
								c0.2-0.01,0.39-0.03,0.59-0.05c0.15-0.01,0.31-0.03,0.46-0.04c0.19-0.02,0.39-0.04,0.58-0.06c0.15-0.02,0.3-0.03,0.45-0.05
								c0.19-0.02,0.38-0.04,0.57-0.07c0.15-0.02,0.29-0.03,0.44-0.05c0.19-0.02,0.37-0.05,0.55-0.07c0.15-0.02,0.29-0.04,0.43-0.06
								c0.18-0.03,0.36-0.05,0.54-0.08C87.28,54.64,87.42,54.62,87.57,54.6z"/>
							<path class="st3" d="M70.92,45.04c0.1-0.03,0.2-0.07,0.29-0.1c0.23-0.08,0.45-0.17,0.68-0.26c0.06-0.02,0.11-0.04,0.17-0.07
								c0.28-0.11,0.56-0.23,0.85-0.36c0.08-0.03,0.15-0.07,0.23-0.1c0.21-0.09,0.41-0.19,0.62-0.28c0.04-0.02,0.07-0.04,0.11-0.05
								c-1.02-0.54-2.06-1.06-3.11-1.54l-0.55,3.01c0.05-0.02,0.1-0.03,0.15-0.05C70.54,45.17,70.73,45.11,70.92,45.04z"/>
							<path class="st3" d="M35.46,56.17l0.02-0.03c-0.07-0.04-0.14-0.08-0.21-0.12c-0.05-0.03-0.11-0.06-0.16-0.09
								c-0.03-0.02-0.06-0.04-0.09-0.06c-0.08-0.05-0.17-0.1-0.25-0.16c-0.01-0.01-0.01-0.01-0.02-0.02
								c-0.42-0.28-0.77-0.58-1.05-0.89c-0.04-0.05-0.08-0.09-0.12-0.14c-0.03-0.03-0.05-0.06-0.08-0.09
								c-0.06-0.08-0.12-0.16-0.17-0.24l-0.13,0.07v0L28.65,57c0.45,0.75,1.06,2.02,1.17,3.51l0.02,0.01v0.47c0,0,0,0,0,0
								c0,0.17-0.01,0.35-0.02,0.51c-0.08,0.97,0.09,1.93,0.3,2.57c0.21-0.43,0.57-1.09,1.24-2.11l0.36-0.55l0,0
								C32.88,59.67,34.39,57.61,35.46,56.17L35.46,56.17z"/>
							<path class="st3" d="M167.28,24.25C148.59,7.39,127.22,6.69,112.59,9.08c-10.02,1.64-18.34,4.89-23.16,7.1
								c1.49,0.48,3,0.98,4.52,1.51l-0.01-0.01l1.85,0.66l0.27,0.1v0c0.63,0.23,1.24,0.45,1.84,0.67l5.96-1.65l0.31,0.35
								c0.36,0.41,0.7,0.91,1.03,1.48c1.23-0.17,3.18-0.2,4.97,0.77c1.68,0.91,2.84,2.49,3.46,4.69c1.63,5.81-2.17,8.39-3.71,9.17
								c0.25,1.18,0.39,1.97,0.41,2.1l0.08,0.44l-5.11,4.12l-3.56,9.65l-2.63,7.12l4.37,2.58l-0.45,0.28
								c-1.74,0.77-3.45,1.53-5.12,2.28c-0.13,0.06-0.25,0.11-0.37,0.17c-0.64,0.28-1.27,0.57-1.9,0.85
								c-0.07,0.03-0.14,0.06-0.21,0.09c-0.48,0.22-0.97,0.43-1.44,0.65c-2.45,1.1-4.79,2.15-6.98,3.15
								c-3.87,1.76-7.27,3.34-9.94,4.62c-0.91-0.36-1.84-0.72-2.78-1.09c-8.44-3.3-17.96-6.98-26.31-10.18
								c-0.64-0.24-1.27-0.49-1.89-0.72c-1.24-0.51-2.48-1.01-3.79-1.33c-1.07-0.21-2.59-0.65-2.65-1.86l-1.07-0.75
								c-0.21,0.11-0.4,0.23-0.6,0.35c-0.25,0.16-0.49,0.33-0.72,0.52c-0.13-0.05-0.25-0.1-0.37-0.15
								c-1.03,1.38-2.58,3.47-3.78,5.26l12.08,5.75l1.12-6.13c0,0,0.01-0.02,0.71,0.25c0.23,0.09,0.47,0.18,0.71,0.27
								c7.88,3.01,16.63,6.26,24.67,9.25c1.53,0.57,3.04,1.13,4.5,1.68c4.53-2.06,10.25-4.66,16.52-7.52l3.38-0.94l-1,2.62
								c1.17,10.18,3.81,18.11,7.89,23.7l1.21-1.14l0.71,3.49c1.59,1.74,3.37,3.18,5.32,4.33c14.83,8.71,37.16-1.58,46.7-5.97
								c11.1-5.11,24.87-16.35,27.13-31.17C186.55,48.54,180.68,36.34,167.28,24.25z"/>
							<path class="st3" d="M86.28,92.08l3.53,11.93l12.76-11.99c-3.91-5.3-6.56-12.59-7.91-21.8L86.28,92.08z"/>
						</g>
					</g>
				</g>
			</g>
			<g>
				<path class="st3" d="M66.14,40.62l-1.04,5.74c0.03,0,0.07-0.01,0.1-0.01c0.25-0.03,0.5-0.05,0.75-0.09c0.01,0,0.02,0,0.03,0
					c0.26-0.04,0.52-0.08,0.78-0.12c0.07-0.01,0.14-0.03,0.21-0.04c0.21-0.04,0.43-0.08,0.64-0.13c0.05-0.01,0.1-0.02,0.15-0.03
					c0.26-0.06,0.51-0.12,0.77-0.18c0.02-0.01,0.04-0.01,0.06-0.02l0.71-3.89c-1.06-0.44-2.11-0.86-3.15-1.24
					C66.15,40.62,66.15,40.62,66.14,40.62z"/>
				<path class="st3" d="M70.72,42.46l-0.51,2.82c0.05-0.02,0.1-0.03,0.15-0.05c0.19-0.06,0.37-0.13,0.56-0.19
					c0.1-0.03,0.2-0.07,0.29-0.1c0.23-0.08,0.45-0.17,0.68-0.26c0.06-0.02,0.11-0.04,0.17-0.07c0.28-0.11,0.56-0.23,0.85-0.36
					c0.08-0.03,0.15-0.07,0.23-0.1c0.2-0.09,0.41-0.19,0.62-0.28c-0.84-0.41-1.68-0.81-2.51-1.18
					C71.07,42.62,70.89,42.54,70.72,42.46z"/>
				<path class="st3" d="M51.2,43.08c0.01,0.01,0.02,0.01,0.03,0.02c0.2,0.13,0.41,0.25,0.62,0.37c0.05,0.03,0.1,0.06,0.15,0.09
					c0.17,0.09,0.33,0.19,0.5,0.28c0.06,0.03,0.12,0.06,0.18,0.09c0.21,0.11,0.43,0.22,0.65,0.33c0.02,0.01,0.04,0.02,0.06,0.03
					c0.2,0.1,0.4,0.19,0.6,0.28c0.03,0.01,0.06,0.03,0.09,0.04l0.03-0.16l1.25-6.87c-1.07-0.21-2.09-0.37-3.06-0.5L51.2,43.08z"/>
				<path class="st3" d="M56.65,38.85l-1.15,6.33c0.01,0,0.03,0.01,0.04,0.01c0.22,0.08,0.44,0.15,0.66,0.22
					c0.07,0.02,0.13,0.04,0.2,0.06c0.21,0.06,0.41,0.13,0.62,0.18c0.04,0.01,0.07,0.02,0.11,0.03c0.24,0.07,0.48,0.13,0.72,0.18
					c0.06,0.01,0.12,0.03,0.18,0.04c0.2,0.05,0.39,0.09,0.59,0.13c0.04,0.01,0.07,0.02,0.11,0.02l1.34-7.39
					c-1.12-0.3-2.2-0.57-3.25-0.8L56.65,38.85z"/>
				<path class="st3" d="M60.88,42.54L60.2,46.3c0.04,0,0.08,0.01,0.12,0.01c0.2,0.02,0.4,0.04,0.6,0.06
					c0.06,0.01,0.12,0.01,0.18,0.02c0.25,0.02,0.5,0.04,0.75,0.05c0.04,0,0.08,0,0.12,0c0.22,0.01,0.43,0.01,0.65,0.02
					c0.06,0,0.13,0,0.19,0c0.25,0,0.5,0,0.76-0.01c0,0,0,0,0.01,0l0.95-5.24l0.2-1.11c-1.09-0.38-2.16-0.71-3.21-1.02L60.88,42.54z"
					/>
				<path class="st3" d="M84.94,42.42c0.45,0.31,0.95,0.55,1.5,0.66c1.7,0.36,3.61-0.53,5.67-2.64l3.09-3.18l-1.88,4.01
					c-0.06,0.13-1.25,2.62-3.88,4.38c1.84,0.28,4.11-0.46,6.79-3.23c0,0-5.22,11.16-18.04,3.8c-0.35-0.2-0.7-0.4-1.05-0.59
					c-0.57-0.32-1.15-0.62-1.72-0.92c-0.06,0.03-0.12,0.06-0.18,0.09c-0.12,0.06-0.24,0.12-0.36,0.18c-0.14,0.07-0.28,0.14-0.42,0.2
					c-0.12,0.06-0.24,0.11-0.35,0.17c-0.14,0.07-0.29,0.13-0.43,0.19c-0.12,0.05-0.23,0.1-0.35,0.15c-0.15,0.06-0.29,0.12-0.44,0.18
					c-0.11,0.05-0.23,0.09-0.34,0.14c-0.15,0.06-0.3,0.12-0.45,0.17c-0.11,0.04-0.22,0.08-0.33,0.12c-0.16,0.06-0.31,0.11-0.47,0.17
					c-0.1,0.04-0.21,0.07-0.31,0.11c-0.17,0.06-0.34,0.11-0.51,0.17c-0.09,0.03-0.17,0.06-0.26,0.08c-0.11,0.03-0.21,0.06-0.32,0.09
					l0,0.01l-0.45,0.12l-1.14,0.31l0.01-0.03c-0.29,0.07-0.58,0.13-0.87,0.18c-0.87,0.17-1.75,0.28-2.62,0.36l0,0.01l-0.59,0.03
					l-0.95,0.05l0-0.02c-0.12,0-0.24,0-0.36,0.01c-0.01,0-0.03,0-0.04,0c-0.03,0-0.07,0-0.1,0c-0.23,0-0.47-0.01-0.7-0.01
					c-0.07,0-0.15,0-0.22-0.01c-0.27-0.01-0.54-0.03-0.81-0.05c-0.03,0-0.06-0.01-0.08-0.01c-0.25-0.02-0.49-0.05-0.74-0.07
					c-0.07-0.01-0.14-0.02-0.21-0.03c-0.03,0-0.06-0.01-0.09-0.01l0,0.01l-0.72-0.12l-0.75-0.12l0-0.01
					c-1.09-0.21-2.18-0.51-3.23-0.87l0,0.02l-0.84-0.33l-0.57-0.22l0-0.01c-0.08-0.03-0.15-0.07-0.23-0.1
					c-0.06-0.03-0.12-0.05-0.19-0.08c-0.26-0.12-0.52-0.23-0.77-0.36c-0.03-0.01-0.06-0.03-0.09-0.04
					c-0.23-0.11-0.46-0.23-0.69-0.35c-0.06-0.03-0.11-0.06-0.17-0.09c-0.25-0.13-0.49-0.27-0.73-0.41
					c-0.01-0.01-0.02-0.01-0.04-0.02l-0.71,3.87c0.03,0.02,0.06,0.05,0.09,0.07c0.04,0.03,0.07,0.06,0.11,0.09
					c0.05,0.04,0.09,0.07,0.14,0.11c0.04,0.03,0.08,0.06,0.12,0.09c0.05,0.04,0.1,0.08,0.15,0.11c0.04,0.03,0.08,0.06,0.12,0.09
					c0.05,0.04,0.11,0.08,0.16,0.12c0.04,0.03,0.09,0.06,0.13,0.09c0.06,0.04,0.12,0.08,0.18,0.12c0.05,0.03,0.09,0.06,0.14,0.09
					c0.06,0.04,0.13,0.08,0.2,0.12c0.05,0.03,0.09,0.06,0.14,0.09c0.07,0.04,0.15,0.09,0.22,0.13c0.04,0.03,0.09,0.05,0.13,0.08
					c0.09,0.06,0.19,0.11,0.29,0.17c0.03,0.02,0.06,0.03,0.09,0.05c0.13,0.07,0.26,0.14,0.4,0.22c0.05,0.03,0.1,0.05,0.15,0.08
					c0.09,0.05,0.18,0.09,0.28,0.14c0.06,0.03,0.13,0.06,0.19,0.09c0.09,0.04,0.17,0.08,0.26,0.12c0.07,0.03,0.14,0.07,0.21,0.1
					c0.09,0.04,0.17,0.08,0.26,0.12c0.08,0.03,0.15,0.07,0.23,0.1c0.09,0.04,0.18,0.08,0.27,0.12c0.08,0.03,0.16,0.07,0.25,0.1
					c0.09,0.04,0.19,0.08,0.28,0.12c0.09,0.03,0.17,0.07,0.26,0.1c0.1,0.04,0.2,0.08,0.3,0.11c0.09,0.03,0.18,0.07,0.28,0.1
					c0.1,0.04,0.2,0.08,0.31,0.11c0.1,0.03,0.19,0.07,0.29,0.1c0.11,0.04,0.21,0.07,0.32,0.11c0.1,0.03,0.2,0.07,0.31,0.1
					c0.11,0.04,0.22,0.07,0.34,0.11c0.11,0.03,0.21,0.07,0.32,0.1c0.12,0.04,0.23,0.07,0.35,0.11c0.11,0.03,0.22,0.07,0.34,0.1
					c0.12,0.04,0.24,0.07,0.37,0.11c0.12,0.03,0.23,0.07,0.35,0.1c0.13,0.03,0.25,0.07,0.38,0.1c0.12,0.03,0.24,0.06,0.37,0.1
					c0.13,0.03,0.27,0.07,0.41,0.1c0.12,0.03,0.25,0.06,0.38,0.09c0.14,0.03,0.28,0.07,0.43,0.1c0.13,0.03,0.26,0.06,0.39,0.09
					c0.15,0.03,0.29,0.07,0.44,0.1c0.13,0.03,0.27,0.06,0.41,0.09c0.15,0.03,0.31,0.07,0.47,0.1c0.14,0.03,0.28,0.06,0.42,0.09
					c0.16,0.03,0.33,0.06,0.49,0.1c0.14,0.03,0.28,0.06,0.43,0.08c0.17,0.03,0.35,0.06,0.52,0.1c0.14,0.03,0.29,0.05,0.43,0.08
					c0.18,0.03,0.37,0.06,0.56,0.1c0.15,0.02,0.29,0.05,0.44,0.07c0.2,0.03,0.4,0.06,0.61,0.1c0.14,0.02,0.28,0.04,0.42,0.07
					c0.23,0.04,0.47,0.07,0.71,0.1c0.12,0.02,0.24,0.04,0.36,0.05c0.36,0.05,0.73,0.1,1.11,0.15c0.43,0.06,0.85,0.11,1.27,0.15
					c0.17,0.02,0.35,0.04,0.52,0.05c0.24,0.02,0.49,0.05,0.72,0.07c0.2,0.02,0.4,0.03,0.6,0.05c0.21,0.02,0.42,0.04,0.63,0.05
					c0.21,0.02,0.41,0.03,0.62,0.04c0.2,0.01,0.39,0.03,0.59,0.04c0.21,0.01,0.42,0.02,0.63,0.03c0.18,0.01,0.37,0.02,0.55,0.02
					c0.21,0.01,0.42,0.01,0.63,0.02c0.18,0,0.36,0.01,0.54,0.01c0.21,0,0.42,0,0.63,0.01c0.17,0,0.35,0,0.52,0
					c0.21,0,0.42,0,0.63-0.01c0.17,0,0.34,0,0.5-0.01c0.21,0,0.41-0.01,0.61-0.02c0.16,0,0.33-0.01,0.49-0.01
					c0.2-0.01,0.4-0.02,0.6-0.03c0.16-0.01,0.32-0.01,0.48-0.02c0.2-0.01,0.4-0.03,0.6-0.04c0.16-0.01,0.31-0.02,0.47-0.03
					c0.2-0.01,0.39-0.03,0.59-0.05c0.15-0.01,0.31-0.03,0.46-0.04c0.19-0.02,0.39-0.04,0.58-0.06c0.15-0.02,0.3-0.03,0.45-0.05
					c0.19-0.02,0.38-0.04,0.57-0.07c0.15-0.02,0.29-0.03,0.44-0.05c0.19-0.02,0.37-0.05,0.55-0.07c0.15-0.02,0.29-0.04,0.43-0.06
					c0.18-0.03,0.36-0.05,0.54-0.08c0.14-0.02,0.29-0.04,0.43-0.07c0.18-0.03,0.35-0.06,0.52-0.09c0.14-0.02,0.28-0.05,0.42-0.07
					c0.17-0.03,0.34-0.06,0.51-0.1c0.14-0.03,0.27-0.05,0.41-0.08c0.17-0.03,0.33-0.07,0.5-0.1c0.13-0.03,0.27-0.06,0.4-0.08
					c0.16-0.03,0.32-0.07,0.48-0.11c0.13-0.03,0.26-0.06,0.39-0.09c0.16-0.04,0.31-0.07,0.47-0.11c0.13-0.03,0.26-0.06,0.39-0.09
					c0.15-0.04,0.3-0.08,0.46-0.12c0.13-0.03,0.25-0.07,0.38-0.1c0.15-0.04,0.29-0.08,0.44-0.12c0.12-0.03,0.25-0.07,0.37-0.1
					c0.14-0.04,0.29-0.08,0.43-0.12c0.12-0.04,0.24-0.07,0.36-0.11c0.14-0.04,0.28-0.08,0.41-0.13c0.12-0.04,0.24-0.07,0.35-0.11
					c0.13-0.04,0.27-0.09,0.4-0.13c0.12-0.04,0.23-0.08,0.35-0.11c0.13-0.04,0.26-0.09,0.38-0.13c0.11-0.04,0.23-0.08,0.34-0.12
					c0.12-0.04,0.25-0.09,0.37-0.13c0.11-0.04,0.22-0.08,0.33-0.12c0.12-0.04,0.24-0.09,0.36-0.13c0.11-0.04,0.21-0.08,0.32-0.12
					c0.12-0.04,0.23-0.09,0.34-0.13c0.1-0.04,0.21-0.08,0.31-0.12c0.11-0.04,0.22-0.09,0.33-0.13c0.1-0.04,0.2-0.08,0.3-0.12
					c0.11-0.04,0.21-0.09,0.31-0.13c0.05-0.02,0.1-0.04,0.15-0.06l4.96-13.41c-1.12-8.41-4.42-14.29-5.86-16.54
					c-0.6-0.23-1.21-0.46-1.85-0.7c0.01,0.02,0.02,0.04,0.03,0.06c0.05,0.1,0.09,0.19,0.14,0.29c0.09,0.18,0.17,0.36,0.25,0.53
					c0.05,0.11,0.09,0.21,0.14,0.31c0.07,0.16,0.14,0.32,0.21,0.48c0.05,0.11,0.09,0.21,0.13,0.31c0.06,0.15,0.12,0.3,0.18,0.45
					c0.04,0.1,0.08,0.2,0.12,0.3c0.06,0.15,0.11,0.29,0.16,0.44c0.03,0.09,0.07,0.19,0.1,0.28c0.05,0.15,0.1,0.3,0.14,0.44
					c0.03,0.08,0.05,0.16,0.07,0.24c0.05,0.17,0.1,0.34,0.14,0.51c0.01,0.05,0.03,0.09,0.04,0.14c0.05,0.21,0.1,0.42,0.14,0.62
					c0.01,0.05,0.02,0.09,0.02,0.14c0.03,0.15,0.05,0.3,0.07,0.44c0.01,0.07,0.01,0.13,0.02,0.2c0.01,0.12,0.03,0.24,0.03,0.35
					c0.01,0.07,0.01,0.14,0.01,0.21c0,0.11,0.01,0.21,0.01,0.31c0,0.07,0,0.13,0,0.2c0,0.1-0.01,0.19-0.02,0.29
					c-0.01,0.06-0.01,0.13-0.02,0.19c-0.01,0.09-0.03,0.18-0.05,0.27c-0.01,0.06-0.02,0.11-0.03,0.17
					c-0.02,0.09-0.05,0.19-0.08,0.28c-0.01,0.04-0.02,0.09-0.04,0.13c-0.05,0.13-0.1,0.25-0.16,0.37c-0.43,0.87-1.35,1.85-2.62,2.79
					c-0.19,0.14-0.4,0.29-0.61,0.43c-0.45,0.3-0.93,0.59-1.44,0.87c-1.53,0.83-3.34,1.54-5.27,1.97c-0.13,0.03-0.27,0.06-0.4,0.08
					c-0.04,0.01-0.08,0.01-0.11,0.02c-0.1,0.02-0.21,0.04-0.31,0.06c-0.04,0.01-0.09,0.02-0.13,0.02c-0.11,0.02-0.22,0.04-0.33,0.05
					c-0.03,0.01-0.07,0.01-0.11,0.02c-0.15,0.02-0.3,0.04-0.45,0.06c-0.01,0-0.02,0-0.03,0c-0.14,0.02-0.28,0.03-0.43,0.04
					c-0.04,0-0.09,0.01-0.13,0.01c-0.12,0.01-0.23,0.02-0.35,0.03c-0.05,0-0.09,0.01-0.14,0.01c-0.13,0.01-0.26,0.01-0.39,0.02
					c-0.03,0-0.06,0-0.1,0c-0.16,0-0.33,0.01-0.5,0.01c-0.01,0-0.01,0-0.02,0c-0.02,0-0.04,0-0.06,0c-0.15,0-0.31,0-0.46-0.01
					c-0.05,0-0.1,0-0.15-0.01c-0.15-0.01-0.3-0.01-0.46-0.02c-0.03,0-0.06,0-0.1-0.01c-0.18-0.01-0.37-0.03-0.55-0.05
					c-0.04,0-0.08-0.01-0.13-0.01c-0.15-0.02-0.3-0.04-0.44-0.06c-0.05-0.01-0.11-0.02-0.16-0.02c-0.18-0.03-0.35-0.06-0.53-0.09
					c-0.01,0-0.03,0-0.04-0.01c-0.19-0.04-0.38-0.08-0.57-0.12c-0.05-0.01-0.11-0.03-0.16-0.04c-0.15-0.04-0.3-0.07-0.44-0.11
					c-0.05-0.01-0.11-0.03-0.16-0.04c-0.19-0.05-0.39-0.11-0.58-0.18c-0.02-0.01-0.05-0.02-0.07-0.02
					c-0.17-0.06-0.35-0.12-0.52-0.18c-0.06-0.02-0.12-0.04-0.18-0.07c-0.15-0.06-0.31-0.12-0.46-0.18c-0.05-0.02-0.1-0.04-0.15-0.06
					c-0.2-0.08-0.39-0.17-0.59-0.27c-0.04-0.02-0.09-0.04-0.13-0.06c-0.16-0.08-0.32-0.16-0.47-0.24c-0.06-0.03-0.12-0.06-0.18-0.1
					c-0.17-0.09-0.33-0.18-0.5-0.28c-0.03-0.02-0.07-0.04-0.1-0.06c-0.2-0.12-0.39-0.24-0.59-0.37c-0.05-0.03-0.11-0.07-0.16-0.11
					c-0.15-0.1-0.3-0.21-0.46-0.32c-0.06-0.04-0.11-0.08-0.17-0.12c-0.2-0.15-0.4-0.3-0.59-0.45c-0.11-0.09-0.22-0.18-0.33-0.28
					c-0.04-0.03-0.07-0.07-0.11-0.1c-0.07-0.06-0.14-0.13-0.21-0.2c-0.04-0.04-0.08-0.09-0.12-0.13c-0.06-0.06-0.12-0.13-0.18-0.19
					c-0.04-0.05-0.08-0.1-0.13-0.15c-0.05-0.06-0.11-0.13-0.16-0.19c-0.04-0.05-0.08-0.11-0.13-0.17c-0.05-0.07-0.1-0.13-0.15-0.2
					c-0.04-0.06-0.08-0.12-0.13-0.18c-0.05-0.07-0.1-0.14-0.14-0.21c-0.04-0.06-0.08-0.13-0.12-0.19c-0.04-0.07-0.09-0.14-0.13-0.22
					c-0.04-0.07-0.08-0.14-0.12-0.2c-0.04-0.07-0.09-0.15-0.13-0.22c-0.04-0.07-0.07-0.14-0.11-0.22c-0.04-0.08-0.08-0.15-0.12-0.23
					c-0.04-0.08-0.07-0.15-0.11-0.23c-0.04-0.08-0.07-0.16-0.11-0.24c-0.03-0.08-0.07-0.16-0.1-0.24c-0.03-0.08-0.07-0.17-0.1-0.25
					c-0.03-0.08-0.07-0.17-0.1-0.25c-0.03-0.09-0.07-0.17-0.1-0.26c-0.03-0.09-0.06-0.18-0.09-0.27c-0.03-0.09-0.06-0.18-0.09-0.27
					c-0.03-0.09-0.06-0.18-0.09-0.28c-0.03-0.09-0.06-0.19-0.09-0.28c-0.03-0.09-0.05-0.19-0.08-0.29c-0.03-0.1-0.05-0.19-0.08-0.29
					c-0.03-0.1-0.05-0.2-0.08-0.3c-0.03-0.1-0.05-0.2-0.07-0.3c-0.02-0.1-0.05-0.21-0.07-0.31c-0.02-0.1-0.05-0.21-0.07-0.31
					c-0.02-0.11-0.04-0.21-0.06-0.32c-0.02-0.11-0.04-0.21-0.06-0.32c-0.02-0.11-0.04-0.22-0.06-0.33
					c-0.02-0.11-0.04-0.22-0.05-0.33c-0.02-0.11-0.04-0.23-0.05-0.35c-0.02-0.11-0.03-0.23-0.05-0.34
					c-0.02-0.12-0.03-0.24-0.05-0.35c-0.01-0.12-0.03-0.23-0.04-0.35c-0.01-0.12-0.03-0.24-0.04-0.37
					c-0.01-0.12-0.03-0.24-0.04-0.36c-0.01-0.12-0.02-0.25-0.03-0.38c-0.01-0.12-0.02-0.25-0.03-0.38
					c-0.01-0.13-0.02-0.26-0.03-0.39c-0.01-0.13-0.02-0.26-0.03-0.38c-0.01-0.13-0.02-0.26-0.02-0.4c-0.01-0.13-0.01-0.26-0.02-0.4
					c-0.01-0.13-0.01-0.27-0.02-0.41c-0.01-0.14-0.01-0.27-0.01-0.41c0-0.14-0.01-0.28-0.01-0.42c0-0.14-0.01-0.28-0.01-0.42
					c0-0.14,0-0.28,0-0.43c0-0.14,0-0.29,0-0.43c0-0.15,0-0.29,0-0.44c0-0.15,0-0.29,0-0.44c0-0.15,0-0.3,0.01-0.45
					c0-0.15,0.01-0.3,0.01-0.45c0-0.15,0.01-0.31,0.01-0.46c0.01-0.15,0.01-0.31,0.02-0.46c0.01-0.16,0.01-0.31,0.02-0.47
					c0-0.05,0-0.09,0.01-0.14c-16.81-2.84-29.31-0.91-37.17,5.73c-0.28,0.24-0.44,0.59-0.44,0.96c0,0.37,0.17,0.72,0.46,0.96
					c2.68,2.2,8.75,6.49,19.34,10.41c0,0,0,0,0,0c0.04,0.01,0.07,0.03,0.11,0.04c0.12,0.04,0.24,0.09,0.36,0.13
					c6.1,2.22,29.27,7.52,29.65,8.22c0.64,0.12,1.01,0.19,1.01,0.19S83.92,40.97,84.94,42.42z"/>
				<path class="st3" d="M167.28,24.25C148.59,7.39,127.22,6.69,112.59,9.08c-10.02,1.64-18.34,4.89-23.16,7.1
					c1.49,0.48,3,0.98,4.52,1.51l-0.01-0.01l1.85,0.66l0.27,0.1v0c0.63,0.23,1.24,0.45,1.84,0.67l5.96-1.65l0.31,0.35
					c0.36,0.41,0.7,0.91,1.03,1.48c1.23-0.17,3.18-0.2,4.97,0.77c1.68,0.91,2.84,2.49,3.46,4.69c1.63,5.81-2.17,8.39-3.71,9.17
					c0.25,1.18,0.39,1.97,0.41,2.1l0.08,0.44l-5.11,4.12l-3.56,9.65l-2.63,7.12l4.37,2.58l-0.45,0.28
					c-1.74,0.77-3.45,1.53-5.12,2.28c-0.13,0.06-0.25,0.11-0.37,0.17c-0.64,0.28-1.27,0.57-1.9,0.85c-0.07,0.03-0.14,0.06-0.21,0.09
					c-0.48,0.22-0.97,0.43-1.44,0.65c-2.45,1.1-4.79,2.15-6.98,3.15c-3.87,1.76-7.27,3.34-9.94,4.62c-0.91-0.36-1.84-0.72-2.78-1.09
					c-8.44-3.3-17.96-6.98-26.31-10.18c-0.64-0.24-1.27-0.49-1.89-0.72c-1.24-0.51-2.48-1.01-3.79-1.33
					c-1.07-0.21-2.59-0.65-2.65-1.86l-1.07-0.75c-0.21,0.11-0.4,0.23-0.6,0.35c-0.25,0.16-0.49,0.33-0.72,0.52
					c-0.13-0.05-0.25-0.1-0.37-0.15c-1.03,1.38-2.58,3.47-3.78,5.26l12.08,5.75l1.12-6.13c0,0,0.01-0.02,0.71,0.25
					c0.23,0.09,0.47,0.18,0.71,0.27c7.88,3.01,16.63,6.26,24.67,9.25c1.53,0.57,3.04,1.13,4.5,1.68c4.53-2.06,10.25-4.66,16.52-7.52
					l3.38-0.94l-1,2.62c1.17,10.18,3.81,18.11,7.89,23.7l1.21-1.14l0.71,3.49c1.59,1.74,3.37,3.18,5.32,4.33
					c14.83,8.71,37.16-1.58,46.7-5.97c11.1-5.11,24.87-16.35,27.13-31.17C186.55,48.54,180.68,36.34,167.28,24.25z"/>
				<path class="st3" d="M86.28,92.08l3.53,11.93l12.76-11.99c-3.91-5.3-6.56-12.59-7.91-21.8L86.28,92.08z"/>
				<path class="st3" d="M78.72,25.54c0.4,2.38,2.86,4.22,5.81,4.22c3.23,0,5.87-2.2,5.87-4.91c0-0.42-0.07-0.84-0.19-1.25
					L78.72,25.54z"/>
				<path class="st3" d="M35.46,56.17l0.02-0.03c-0.07-0.04-0.14-0.08-0.21-0.12c-0.05-0.03-0.11-0.06-0.16-0.09
					c-0.03-0.02-0.06-0.04-0.09-0.06c-0.08-0.05-0.17-0.1-0.25-0.16c-0.01-0.01-0.01-0.01-0.02-0.02c-0.42-0.28-0.77-0.58-1.05-0.89
					c-0.04-0.05-0.08-0.09-0.12-0.14c-0.03-0.03-0.05-0.06-0.08-0.09c-0.06-0.08-0.12-0.16-0.17-0.24l-0.13,0.07v0L28.65,57
					c0.45,0.75,1.06,2.02,1.17,3.51l0.02,0.01v0.47c0,0,0,0,0,0c0,0.17-0.01,0.35-0.02,0.51c-0.08,0.97,0.09,1.93,0.3,2.57
					c0.21-0.43,0.57-1.09,1.24-2.11l0.36-0.55l0,0C32.88,59.67,34.39,57.61,35.46,56.17L35.46,56.17z"/>
				<g>
					<g>
						<path d="M183.12,41.92c-0.02-0.05-0.05-0.1-0.07-0.14c-0.51-1.06-1.09-2.11-1.71-3.17c-0.73-1.25-1.52-2.5-2.41-3.75
							c-1.02-1.43-2.16-2.87-3.38-4.3c-2.12-2.48-4.54-4.95-7.27-7.42c-4.23-3.81-8.76-6.99-13.57-9.5
							c-0.09-0.05-0.19-0.09-0.29-0.14c-2.32-1.19-4.69-2.25-7.13-3.13c-0.07-0.03-0.15-0.05-0.23-0.07
							c-2.47-0.89-4.99-1.62-7.58-2.2c-1.78-0.39-3.59-0.69-5.42-0.93c-3.64-0.48-7.36-0.68-11.18-0.58
							c-3.46,0.1-6.99,0.44-10.58,1.03c-8.03,1.32-14.97,3.66-19.96,5.69c-2.01,0.82-3.71,1.59-5.02,2.22
							c-5.45-1.66-10.69-2.95-15.66-3.85v0l0,0l-0.15-0.03L71,11.57c0,0,0,0,0,0l-0.32-0.06l-0.51-0.09v0l0,0
							c-5.37-0.9-10.31-1.32-14.82-1.25c-9.73,0.13-17.44,2.5-23.04,7.07c-0.11,0.09-0.24,0.18-0.35,0.27
							c-0.01,0.01-0.01,0.01-0.02,0.02c-0.27,0.24-0.49,0.52-0.65,0.84c-0.01,0.03-0.04,0.05-0.05,0.08
							c-0.01,0.03-0.02,0.06-0.03,0.09c-0.14,0.34-0.22,0.7-0.22,1.07c0.01,0.82,0.37,1.59,1,2.1c1.28,1.05,3.31,2.56,6.19,4.28
							c0.32,0.19,0.64,0.38,0.98,0.57c0.37,0.21,0.76,0.43,1.16,0.65c2.87,1.57,6.41,3.26,10.71,4.89l0,0
							c0.18,0.07,0.35,0.13,0.53,0.2c6.1,2.22,26.12,6.16,30.84,7.08c-0.38-0.71-23.55-6-29.65-8.22c-0.12-0.04-0.24-0.09-0.36-0.13
							c-0.04-0.01-0.07-0.03-0.11-0.04c0,0,0,0,0,0c-10.58-3.93-16.66-8.21-19.34-10.41c-0.29-0.24-0.45-0.59-0.46-0.96
							c0-0.37,0.16-0.72,0.44-0.96c7.86-6.64,20.36-8.57,37.17-5.73c0,0.05,0,0.09-0.01,0.14c-0.01,0.16-0.01,0.31-0.02,0.47
							c-0.01,0.15-0.01,0.31-0.02,0.46c0,0.15-0.01,0.31-0.01,0.46c0,0.15-0.01,0.3-0.01,0.45c0,0.15-0.01,0.3-0.01,0.45
							c0,0.15,0,0.3,0,0.44c0,0.15,0,0.29,0,0.44c0,0.14,0,0.29,0,0.43c0,0.14,0,0.29,0,0.43c0,0.14,0,0.28,0.01,0.42
							c0,0.14,0.01,0.28,0.01,0.42c0,0.14,0.01,0.27,0.01,0.41c0.01,0.14,0.01,0.27,0.02,0.41c0.01,0.13,0.01,0.27,0.02,0.4
							c0.01,0.13,0.01,0.27,0.02,0.4c0.01,0.13,0.02,0.26,0.03,0.38c0.01,0.13,0.02,0.26,0.03,0.39c0.01,0.13,0.02,0.25,0.03,0.38
							c0.01,0.13,0.02,0.25,0.03,0.38c0.01,0.12,0.02,0.24,0.04,0.36c0.01,0.12,0.03,0.25,0.04,0.37c0.01,0.12,0.03,0.24,0.04,0.35
							c0.02,0.12,0.03,0.24,0.05,0.35c0.02,0.12,0.03,0.23,0.05,0.34c0.02,0.12,0.03,0.23,0.05,0.35c0.02,0.11,0.04,0.22,0.05,0.33
							c0.02,0.11,0.04,0.22,0.06,0.33c0.02,0.11,0.04,0.22,0.06,0.32c0.02,0.11,0.04,0.22,0.06,0.32c0.02,0.11,0.04,0.21,0.07,0.31
							c0.02,0.1,0.05,0.21,0.07,0.31c0.02,0.1,0.05,0.2,0.07,0.3c0.02,0.1,0.05,0.2,0.08,0.3c0.03,0.1,0.05,0.2,0.08,0.29
							c0.03,0.1,0.05,0.19,0.08,0.29c0.03,0.1,0.06,0.19,0.09,0.28c0.03,0.09,0.06,0.19,0.09,0.28c0.03,0.09,0.06,0.18,0.09,0.27
							c0.03,0.09,0.06,0.18,0.09,0.27c0.03,0.09,0.07,0.18,0.1,0.26c0.03,0.09,0.06,0.17,0.1,0.25c0.03,0.09,0.07,0.17,0.1,0.25
							c0.03,0.08,0.07,0.16,0.1,0.24c0.04,0.08,0.07,0.16,0.11,0.24c0.04,0.08,0.07,0.15,0.11,0.23c0.04,0.08,0.08,0.16,0.12,0.23
							c0.04,0.07,0.07,0.15,0.11,0.22c0.04,0.08,0.08,0.15,0.13,0.22c0.04,0.07,0.08,0.14,0.12,0.2c0.04,0.07,0.09,0.14,0.13,0.22
							c0.04,0.06,0.08,0.13,0.12,0.19c0.05,0.07,0.09,0.14,0.14,0.21c0.04,0.06,0.08,0.12,0.13,0.18c0.05,0.07,0.1,0.13,0.15,0.2
							c0.04,0.05,0.08,0.11,0.13,0.17c0.05,0.07,0.11,0.13,0.16,0.19c0.04,0.05,0.08,0.1,0.13,0.15c0.06,0.07,0.12,0.13,0.18,0.19
							c0.04,0.04,0.08,0.09,0.12,0.13c0.07,0.07,0.14,0.13,0.21,0.2c0.04,0.03,0.07,0.07,0.11,0.1c0.11,0.1,0.21,0.19,0.33,0.28
							c0.2,0.16,0.4,0.31,0.59,0.45c0.06,0.04,0.12,0.08,0.17,0.12c0.15,0.11,0.3,0.21,0.46,0.32c0.05,0.04,0.11,0.07,0.16,0.11
							c0.2,0.13,0.39,0.25,0.59,0.37c0.03,0.02,0.07,0.04,0.1,0.06c0.17,0.1,0.33,0.19,0.5,0.28c0.06,0.03,0.12,0.06,0.18,0.1
							c0.16,0.08,0.32,0.16,0.47,0.24c0.04,0.02,0.09,0.04,0.13,0.06c0.2,0.09,0.39,0.18,0.59,0.27c0.05,0.02,0.1,0.04,0.15,0.06
							c0.15,0.06,0.31,0.12,0.46,0.18c0.06,0.02,0.12,0.04,0.18,0.07c0.17,0.06,0.35,0.12,0.52,0.18c0.02,0.01,0.05,0.02,0.07,0.02
							c0.19,0.06,0.39,0.12,0.58,0.18c0.05,0.02,0.11,0.03,0.16,0.04c0.15,0.04,0.3,0.08,0.44,0.11c0.05,0.01,0.11,0.03,0.16,0.04
							c0.19,0.04,0.38,0.08,0.57,0.12c0.01,0,0.03,0.01,0.04,0.01c0.18,0.03,0.35,0.06,0.53,0.09c0.05,0.01,0.11,0.02,0.16,0.02
							c0.15,0.02,0.3,0.04,0.44,0.06c0.04,0,0.08,0.01,0.13,0.01c0.19,0.02,0.37,0.04,0.55,0.05c0.03,0,0.06,0,0.1,0.01
							c0.15,0.01,0.31,0.02,0.46,0.02c0.05,0,0.1,0,0.15,0.01c0.16,0,0.31,0.01,0.46,0.01c0.02,0,0.04,0,0.06,0
							c0.01,0,0.01,0,0.02,0c0.17,0,0.33,0,0.5-0.01c0.03,0,0.06,0,0.1,0c0.13,0,0.26-0.01,0.39-0.02c0.05,0,0.09-0.01,0.14-0.01
							c0.12-0.01,0.23-0.02,0.35-0.03c0.04,0,0.09-0.01,0.13-0.01c0.14-0.01,0.29-0.03,0.43-0.04c0.01,0,0.02,0,0.03,0
							c0.15-0.02,0.3-0.04,0.45-0.06c0.04,0,0.07-0.01,0.11-0.02c0.11-0.02,0.22-0.03,0.33-0.05c0.04-0.01,0.09-0.01,0.13-0.02
							c0.1-0.02,0.21-0.04,0.31-0.06c0.04-0.01,0.08-0.01,0.11-0.02c0.14-0.03,0.27-0.05,0.4-0.08c1.94-0.43,3.74-1.13,5.27-1.97
							c0.51-0.28,0.99-0.57,1.44-0.87c0.21-0.14,0.41-0.28,0.61-0.43c1.26-0.93,2.18-1.92,2.62-2.79c0.06-0.12,0.11-0.24,0.16-0.37
							c0.01-0.04,0.03-0.09,0.04-0.13c0.03-0.09,0.06-0.18,0.08-0.28c0.01-0.05,0.02-0.11,0.03-0.17c0.02-0.09,0.03-0.18,0.05-0.27
							c0.01-0.06,0.01-0.12,0.02-0.19c0.01-0.09,0.01-0.19,0.02-0.29c0-0.07,0-0.13,0-0.2c0-0.1,0-0.21-0.01-0.31
							c0-0.07-0.01-0.14-0.01-0.21c-0.01-0.11-0.02-0.23-0.03-0.35c-0.01-0.07-0.01-0.13-0.02-0.2c-0.02-0.14-0.05-0.29-0.07-0.44
							c-0.01-0.05-0.01-0.09-0.02-0.14c-0.04-0.2-0.08-0.41-0.14-0.62c-0.01-0.04-0.03-0.09-0.04-0.14
							c-0.04-0.17-0.09-0.34-0.14-0.51c-0.02-0.08-0.05-0.16-0.07-0.24c-0.05-0.15-0.09-0.29-0.14-0.44
							c-0.03-0.09-0.06-0.19-0.1-0.28c-0.05-0.14-0.1-0.29-0.16-0.44c-0.04-0.1-0.08-0.2-0.12-0.3c-0.06-0.15-0.12-0.3-0.18-0.45
							c-0.04-0.1-0.09-0.21-0.13-0.31c-0.07-0.16-0.14-0.32-0.21-0.48c-0.05-0.1-0.09-0.21-0.14-0.31
							c-0.08-0.17-0.17-0.35-0.25-0.53c-0.05-0.1-0.09-0.19-0.14-0.29c-0.01-0.02-0.02-0.04-0.03-0.06c0.63,0.24,1.25,0.47,1.85,0.7
							c1.45,2.25,4.74,8.14,5.86,16.54l-4.96,13.41c-0.05,0.02-0.1,0.04-0.15,0.06c-0.1,0.04-0.21,0.09-0.31,0.13
							c-0.1,0.04-0.2,0.08-0.3,0.12c-0.11,0.04-0.22,0.09-0.33,0.13c-0.1,0.04-0.21,0.08-0.31,0.12c-0.11,0.04-0.23,0.09-0.34,0.13
							c-0.1,0.04-0.21,0.08-0.32,0.12c-0.12,0.04-0.24,0.09-0.36,0.13c-0.11,0.04-0.22,0.08-0.33,0.12
							c-0.12,0.04-0.25,0.09-0.37,0.13c-0.11,0.04-0.22,0.08-0.34,0.12c-0.13,0.04-0.25,0.09-0.38,0.13
							c-0.11,0.04-0.23,0.08-0.35,0.11c-0.13,0.04-0.26,0.09-0.4,0.13c-0.12,0.04-0.24,0.07-0.35,0.11
							c-0.14,0.04-0.27,0.08-0.41,0.13c-0.12,0.04-0.24,0.07-0.36,0.11c-0.14,0.04-0.28,0.08-0.43,0.12
							c-0.12,0.03-0.25,0.07-0.37,0.1c-0.15,0.04-0.29,0.08-0.44,0.12c-0.13,0.03-0.25,0.07-0.38,0.1c-0.15,0.04-0.3,0.08-0.46,0.12
							c-0.13,0.03-0.26,0.06-0.39,0.09c-0.16,0.04-0.31,0.08-0.47,0.11c-0.13,0.03-0.26,0.06-0.39,0.09
							c-0.16,0.04-0.32,0.07-0.48,0.11c-0.13,0.03-0.27,0.06-0.4,0.08c-0.17,0.03-0.33,0.07-0.5,0.1c-0.13,0.03-0.27,0.05-0.41,0.08
							c-0.17,0.03-0.34,0.06-0.51,0.1c-0.14,0.02-0.28,0.05-0.42,0.07c-0.17,0.03-0.35,0.06-0.52,0.09
							c-0.14,0.02-0.28,0.04-0.43,0.07c-0.18,0.03-0.36,0.06-0.54,0.08c-0.14,0.02-0.29,0.04-0.43,0.06
							c-0.18,0.03-0.37,0.05-0.55,0.07c-0.14,0.02-0.29,0.04-0.44,0.05c-0.19,0.02-0.38,0.05-0.57,0.07
							c-0.15,0.02-0.3,0.03-0.45,0.05c-0.19,0.02-0.38,0.04-0.58,0.06c-0.15,0.01-0.31,0.03-0.46,0.04
							c-0.19,0.02-0.39,0.03-0.59,0.05c-0.16,0.01-0.31,0.02-0.47,0.03c-0.2,0.01-0.4,0.03-0.6,0.04c-0.16,0.01-0.32,0.02-0.48,0.02
							c-0.2,0.01-0.4,0.02-0.6,0.03c-0.16,0.01-0.33,0.01-0.49,0.01c-0.2,0.01-0.41,0.01-0.61,0.02c-0.17,0-0.34,0-0.5,0.01
							c-0.21,0-0.41,0.01-0.63,0.01c-0.17,0-0.35,0-0.52,0c-0.21,0-0.42,0-0.63-0.01c-0.18,0-0.36-0.01-0.54-0.01
							c-0.21-0.01-0.42-0.01-0.63-0.02c-0.18-0.01-0.37-0.02-0.55-0.02c-0.21-0.01-0.42-0.02-0.63-0.03
							c-0.19-0.01-0.39-0.02-0.59-0.04c-0.21-0.01-0.41-0.02-0.62-0.04c-0.21-0.02-0.42-0.03-0.63-0.05c-0.2-0.02-0.4-0.03-0.6-0.05
							c-0.24-0.02-0.48-0.05-0.72-0.07c-0.17-0.02-0.35-0.03-0.52-0.05c-0.42-0.05-0.84-0.1-1.27-0.15
							c-0.38-0.05-0.74-0.1-1.11-0.15c-0.12-0.02-0.24-0.04-0.36-0.05c-0.24-0.03-0.48-0.07-0.71-0.1
							c-0.14-0.02-0.28-0.04-0.42-0.07c-0.2-0.03-0.41-0.06-0.61-0.1c-0.15-0.02-0.29-0.05-0.44-0.07c-0.19-0.03-0.37-0.06-0.56-0.1
							c-0.15-0.03-0.29-0.05-0.43-0.08c-0.17-0.03-0.35-0.06-0.52-0.1c-0.15-0.03-0.29-0.06-0.43-0.08
							c-0.17-0.03-0.33-0.06-0.49-0.1c-0.14-0.03-0.28-0.06-0.42-0.09c-0.16-0.03-0.31-0.07-0.47-0.1
							c-0.14-0.03-0.27-0.06-0.41-0.09c-0.15-0.03-0.3-0.07-0.44-0.1c-0.13-0.03-0.26-0.06-0.39-0.09c-0.14-0.03-0.29-0.07-0.43-0.1
							c-0.13-0.03-0.25-0.06-0.38-0.09c-0.14-0.03-0.27-0.07-0.41-0.1c-0.12-0.03-0.25-0.06-0.37-0.1c-0.13-0.03-0.26-0.07-0.38-0.1
							c-0.12-0.03-0.24-0.07-0.35-0.1c-0.12-0.04-0.25-0.07-0.37-0.11c-0.11-0.03-0.23-0.07-0.34-0.1
							c-0.12-0.04-0.24-0.07-0.35-0.11c-0.11-0.03-0.22-0.07-0.32-0.1c-0.11-0.04-0.23-0.07-0.34-0.11c-0.1-0.03-0.21-0.07-0.31-0.1
							c-0.11-0.04-0.22-0.07-0.32-0.11c-0.1-0.03-0.19-0.07-0.29-0.1c-0.1-0.04-0.21-0.08-0.31-0.11c-0.09-0.03-0.19-0.07-0.28-0.1
							c-0.1-0.04-0.2-0.08-0.3-0.11c-0.09-0.03-0.18-0.07-0.26-0.1c-0.1-0.04-0.19-0.08-0.28-0.12c-0.08-0.03-0.17-0.07-0.25-0.1
							c-0.09-0.04-0.18-0.08-0.27-0.12c-0.08-0.03-0.16-0.07-0.23-0.1c-0.09-0.04-0.18-0.08-0.26-0.12
							c-0.07-0.03-0.14-0.07-0.21-0.1c-0.09-0.04-0.17-0.08-0.26-0.12c-0.06-0.03-0.13-0.06-0.19-0.09
							c-0.09-0.05-0.19-0.09-0.28-0.14c-0.05-0.03-0.1-0.05-0.15-0.08c-0.14-0.07-0.27-0.14-0.4-0.22
							c-0.03-0.02-0.06-0.03-0.09-0.05c-0.1-0.06-0.2-0.11-0.29-0.17c-0.05-0.03-0.09-0.05-0.13-0.08
							c-0.08-0.05-0.15-0.09-0.22-0.13c-0.05-0.03-0.09-0.06-0.14-0.09c-0.07-0.04-0.13-0.08-0.2-0.12
							c-0.05-0.03-0.09-0.06-0.14-0.09c-0.06-0.04-0.12-0.08-0.18-0.12c-0.04-0.03-0.09-0.06-0.13-0.09
							c-0.05-0.04-0.11-0.08-0.16-0.12c-0.04-0.03-0.08-0.06-0.12-0.09c-0.05-0.04-0.1-0.08-0.15-0.11
							c-0.04-0.03-0.08-0.06-0.12-0.09c-0.05-0.04-0.09-0.07-0.14-0.11c-0.04-0.03-0.07-0.06-0.11-0.09
							c-0.03-0.02-0.06-0.05-0.09-0.07l0.71-3.87c0.01,0.01,0.02,0.01,0.04,0.02c0.24,0.14,0.48,0.28,0.73,0.41
							c0.06,0.03,0.11,0.06,0.17,0.09c0.23,0.12,0.46,0.24,0.69,0.35c0.03,0.01,0.06,0.03,0.09,0.04c0.25,0.12,0.51,0.24,0.77,0.36
							c0.06,0.03,0.12,0.05,0.19,0.08c0.08,0.03,0.15,0.07,0.23,0.1l0,0.01l0.57,0.22l0.84,0.33l0-0.02
							c1.06,0.37,2.14,0.66,3.23,0.87l0,0.01l0.75,0.12l0.72,0.12l0-0.01c0.03,0,0.06,0.01,0.09,0.01c0.07,0.01,0.14,0.02,0.21,0.03
							c0.25,0.03,0.49,0.05,0.74,0.07c0.03,0,0.06,0.01,0.08,0.01c0.27,0.02,0.54,0.04,0.81,0.05c0.07,0,0.15,0.01,0.22,0.01
							c0.23,0.01,0.47,0.01,0.7,0.01c0.03,0,0.07,0,0.1,0c0.01,0,0.03,0,0.04,0c0.12,0,0.24,0,0.36-0.01l0,0.02l0.95-0.05l0.59-0.03
							l0-0.01c0.87-0.07,1.74-0.19,2.62-0.36c0.29-0.06,0.58-0.12,0.87-0.18l-0.01,0.03l1.14-0.31l0.45-0.12l0-0.01
							c0.11-0.03,0.21-0.06,0.32-0.09c0.09-0.03,0.17-0.06,0.26-0.08c0.17-0.05,0.34-0.11,0.51-0.17c0.1-0.03,0.21-0.07,0.31-0.11
							c0.16-0.05,0.31-0.11,0.47-0.17c0.11-0.04,0.22-0.08,0.33-0.12c0.15-0.06,0.3-0.11,0.45-0.17c0.11-0.05,0.23-0.09,0.34-0.14
							c0.15-0.06,0.29-0.12,0.44-0.18c0.12-0.05,0.23-0.1,0.35-0.15c0.14-0.06,0.29-0.13,0.43-0.19c0.12-0.05,0.24-0.11,0.35-0.17
							c0.14-0.07,0.28-0.13,0.42-0.2c0.12-0.06,0.24-0.12,0.36-0.18c0.06-0.03,0.12-0.06,0.18-0.09c-0.56-0.29-1.11-0.57-1.67-0.84
							c-0.21,0.1-0.41,0.19-0.62,0.28c-0.08,0.03-0.16,0.07-0.23,0.1c-0.28,0.12-0.57,0.24-0.85,0.36
							c-0.06,0.02-0.11,0.04-0.17,0.07c-0.23,0.09-0.45,0.18-0.68,0.26c-0.1,0.04-0.19,0.07-0.29,0.1
							c-0.19,0.07-0.37,0.13-0.56,0.19c-0.05,0.02-0.1,0.03-0.15,0.05l0.51-2.82c-0.47-0.21-0.94-0.41-1.41-0.6l-0.71,3.89
							c-0.02,0.01-0.04,0.01-0.06,0.02c-0.26,0.06-0.51,0.12-0.77,0.18c-0.05,0.01-0.1,0.02-0.15,0.03
							c-0.21,0.04-0.43,0.09-0.64,0.13c-0.07,0.01-0.14,0.03-0.21,0.04c-0.26,0.04-0.52,0.09-0.78,0.12c-0.01,0-0.02,0-0.03,0
							c-0.25,0.03-0.5,0.06-0.75,0.09c-0.03,0-0.07,0.01-0.1,0.01l1.04-5.74c-0.48-0.18-0.95-0.34-1.43-0.51l-0.2,1.11l-0.95,5.24
							c0,0,0,0-0.01,0c-0.25,0.01-0.5,0.01-0.76,0.01c-0.06,0-0.13,0-0.19,0c-0.22,0-0.43-0.01-0.65-0.02c-0.04,0-0.08,0-0.12,0
							c-0.25-0.01-0.5-0.03-0.75-0.05c-0.06,0-0.12-0.01-0.18-0.02c-0.2-0.02-0.4-0.04-0.6-0.06c-0.04,0-0.08-0.01-0.12-0.01
							l0.68-3.76l0.63-3.45c-0.17-0.05-0.34-0.1-0.51-0.15c-0.32-0.09-0.63-0.17-0.94-0.26l-1.34,7.39
							c-0.04-0.01-0.07-0.02-0.11-0.02c-0.2-0.04-0.39-0.08-0.59-0.13c-0.06-0.01-0.12-0.03-0.18-0.04
							c-0.24-0.06-0.48-0.12-0.72-0.18c-0.04-0.01-0.07-0.02-0.11-0.03c-0.21-0.06-0.41-0.12-0.62-0.18
							c-0.07-0.02-0.13-0.04-0.2-0.06c-0.22-0.07-0.44-0.15-0.66-0.22c-0.01,0-0.03-0.01-0.04-0.01l1.15-6.33l0.17-0.96
							c-0.35-0.08-0.7-0.15-1.05-0.22c-0.14-0.03-0.28-0.05-0.41-0.08l-1.25,6.87l-0.03,0.16c-0.03-0.01-0.06-0.03-0.09-0.04
							c-0.2-0.09-0.4-0.18-0.6-0.28c-0.02-0.01-0.04-0.02-0.06-0.03c-0.22-0.11-0.43-0.22-0.65-0.33c-0.06-0.03-0.12-0.06-0.18-0.09
							c-0.17-0.09-0.33-0.18-0.5-0.28c-0.05-0.03-0.1-0.06-0.15-0.09c-0.21-0.12-0.41-0.25-0.62-0.37
							c-0.01-0.01-0.02-0.01-0.03-0.02l1.1-6c-0.51-0.07-1.01-0.13-1.49-0.18l-0.63,3.45l-0.63,3.44l-0.62,3.38
							c0,0.02,0.01,0.15,0.01,0.18c0,0,0,0.01,0,0.01c0.01,0.21,0.05,1.06,0.09,1.81c0.01,0.11,0.01,0.22,0.02,0.33
							c0.02,0.34,0.03,0.51,0.05,0.92c0.02,0.36,0.03,0.65,0.05,0.9c0.01,0.25,0.02,0.47,0.03,0.69c0.01,0.17,0.02,0.34,0.03,0.52
							c0.01,0.18,0.02,0.38,0.03,0.62c0.01,0.16,0.02,0.33,0.03,0.52c0.09,1.86,0.19,3.68,0.2,3.94c1.94,0.62,4.78,1.54,7.5,2.42
							c0.2,0.07,0.41,0.13,0.61,0.2c0.52,0.17,1.04,0.34,1.54,0.5c1.48,0.48,2.84,0.92,3.88,1.26c0.01,0,0.01,0,0.02,0.01
							c0.22,0.07,0.45,0.15,0.7,0.23c1.19,0.39,2.67,0.87,4.24,1.39c1.59,0.52,3.27,1.07,4.83,1.59c0.61,0.2,1.19,0.39,1.75,0.57
							c0.29,0.1,0.58,0.19,0.85,0.28c0.53,0.17,1.01,0.33,1.45,0.48c3.28-2.2,6.55-4.39,9.85-6.57c-0.6,0.44-1.2,0.86-1.79,1.3
							c-2.66,1.93-5.31,3.86-7.98,5.78l-0.07-0.02l-0.05-0.01l-3.51-1.04l-3.51-1.04c-2.01-0.6-4.26-1.28-6.59-1.98
							c-0.6-0.18-1.19-0.36-1.8-0.54c-1.62-0.49-3.27-0.98-4.89-1.47c-2.74-0.83-5.41-1.63-7.75-2.35c0,0-0.28-0.09-0.36-0.11
							c-0.01,0-0.02-0.01-0.02-0.01l-0.03-0.4l-0.29-4.68l-0.36-5.76c-0.15-0.45-0.39-0.96-0.76-1.46c-0.49-0.66-1.2-1.28-2.26-1.64
							c-0.23-0.08-0.44-0.12-0.65-0.17c-0.43-0.1-0.83-0.16-1.18-0.14c-0.26,0.01-0.5,0.06-0.71,0.14c-0.21,0.08-0.4,0.19-0.57,0.33
							c-0.19,0.16-0.33,0.35-0.43,0.54c-0.1,0.19-0.16,0.39-0.19,0.57c-0.51,0.05-1.22,0.15-1.93,0.37
							c-0.48,0.15-0.96,0.35-1.38,0.62c-0.21,0.14-0.41,0.29-0.59,0.47c-0.35,0.35-0.62,0.79-0.75,1.32
							c-0.08,0.04-0.18,0.1-0.27,0.16c-1.12,0.66-3.28,2.18-3.17,4.16l-0.06,0.03v0l-3.1,1.76l-2.47,1.4l-0.76,0.43L27,57.21
							c0,0,0.02,0.02,0.03,0.04c0.05,0.07,0.17,0.24,0.33,0.5c0.27,0.45,0.62,1.14,0.83,1.98l-0.58-0.27L27,59.17l0.02,0.41
							l0.82,21.46c-2.89-2.5-9.84-7.98-14.91-7.6c-1.17,0.09-2.24,0.49-3.13,1.31L9.43,75.1l-0.29,0.26l16.77,12.7l6.95,5.26
							l2.58-21.31l23.1,12.79l15.4,8.53l12.79,25.99l13.79-16.9c0.63,4.64,2.87,16.64,9.27,16.64c0.04,0,0.07,0,0.11,0l0.89-0.02
							l-4.68-23.07c0.3,0.27,0.62,0.5,0.92,0.76c0.99,0.82,2.01,1.57,3.11,2.22c4.1,2.41,9,3.62,14.63,3.62
							c1.59,0,3.24-0.1,4.94-0.29c0.14-0.02,0.28-0.04,0.41-0.05c1.66-0.2,3.36-0.49,5.13-0.87c2.83-0.61,5.63-1.43,8.36-2.35
							c5.21-1.76,10.18-3.92,14.61-5.96c0.97-0.45,1.96-0.95,2.96-1.49c5.57-2.99,11.47-7.33,16.18-12.78
							c4.42-5.12,7.8-11.2,8.84-18.03C187.15,54.49,186.12,48.21,183.12,41.92z M84.53,29.77c-2.94,0-5.41-1.84-5.81-4.22
							l11.48-1.93c0.13,0.41,0.19,0.82,0.19,1.25C90.4,27.56,87.77,29.77,84.53,29.77z M31.71,61.41L31.71,61.41l-0.36,0.55
							c-0.67,1.02-1.03,1.68-1.24,2.11c-0.21-0.64-0.38-1.59-0.3-2.57c0.01-0.16,0.02-0.34,0.02-0.51c0,0,0,0,0,0v-0.47l-0.02-0.01
							c-0.11-1.49-0.72-2.76-1.17-3.51l4.55-2.58v0l0.13-0.07c0.05,0.08,0.11,0.16,0.17,0.24c0.03,0.03,0.05,0.06,0.08,0.09
							c0.04,0.05,0.08,0.1,0.12,0.14c0.28,0.31,0.63,0.6,1.05,0.89c0.01,0.01,0.01,0.01,0.02,0.02c0.08,0.05,0.16,0.11,0.25,0.16
							c0.03,0.02,0.06,0.04,0.09,0.06c0.05,0.03,0.11,0.06,0.16,0.09c0.07,0.04,0.13,0.08,0.21,0.12l-0.02,0.03l0,0
							C34.39,57.61,32.88,59.67,31.71,61.41z M89.81,104.01l-3.53-11.93l8.37-21.86c1.36,9.21,4.01,16.5,7.91,21.8L89.81,104.01z
							 M184.72,60.52c-2.26,14.82-16.02,26.05-27.13,31.17c-9.54,4.39-31.87,14.68-46.7,5.97c-1.95-1.15-3.72-2.59-5.32-4.33
							l-0.71-3.49l-1.21,1.14c-4.07-5.6-6.71-13.53-7.89-23.7l1-2.62l-3.38,0.94c-6.27,2.86-11.99,5.47-16.52,7.52
							c-1.47-0.55-2.98-1.11-4.5-1.68c-8.05-2.99-16.79-6.24-24.67-9.25c-0.24-0.09-0.47-0.18-0.71-0.27
							c-0.7-0.27-0.71-0.25-0.71-0.25l-1.12,6.13l-12.08-5.75c1.21-1.79,2.75-3.88,3.78-5.26c0.12,0.05,0.25,0.1,0.37,0.15
							c0.23-0.19,0.47-0.36,0.72-0.52c0.19-0.12,0.39-0.24,0.6-0.35l1.07,0.75c0.07,1.21,1.58,1.65,2.65,1.86
							c1.31,0.32,2.55,0.82,3.79,1.33c0.62,0.24,1.25,0.48,1.89,0.72c8.35,3.2,17.87,6.88,26.31,10.18
							c0.94,0.37,1.87,0.73,2.78,1.09c2.67-1.29,6.07-2.86,9.94-4.62c2.19-1,4.53-2.05,6.98-3.15c0.48-0.21,0.96-0.43,1.44-0.65
							c0.07-0.03,0.14-0.06,0.21-0.09c0.63-0.28,1.26-0.56,1.9-0.85c0.13-0.06,0.25-0.11,0.37-0.17c1.68-0.75,3.39-1.51,5.12-2.28
							l0.45-0.28l-4.37-2.58l2.63-7.12l3.56-9.65l5.11-4.12l-0.08-0.44c-0.02-0.13-0.17-0.91-0.41-2.1
							c1.54-0.78,5.34-3.35,3.71-9.17c-0.62-2.2-1.78-3.78-3.46-4.69c-1.79-0.97-3.73-0.94-4.97-0.77
							c-0.33-0.57-0.68-1.07-1.03-1.48l-0.31-0.35l-5.96,1.65c-0.6-0.22-1.21-0.45-1.84-0.67v0l-0.27-0.1l-1.85-0.66l0.01,0.01
							c-1.52-0.53-3.03-1.03-4.52-1.51c4.82-2.21,13.15-5.47,23.16-7.1c14.63-2.39,36-1.7,54.69,15.16
							C180.68,36.34,186.55,48.54,184.72,60.52z"/>
					</g>
				</g>
				<path class="st4" d="M61.57,38.77l-0.06,0.32c1.05,0.31,2.11,0.65,3.21,1.02l0.05-0.29C63.7,39.44,62.63,39.09,61.57,38.77z"/>
				<path class="st4" d="M56.88,37.56l-0.06,0.32c1.04,0.23,2.13,0.49,3.25,0.8l0.06-0.32C59.04,38.06,57.95,37.79,56.88,37.56z"/>
				<path class="st4" d="M52.35,36.8l-0.05,0.28c0.97,0.13,1.99,0.3,3.06,0.5l0.06-0.31C54.36,37.07,53.33,36.92,52.35,36.8z"/>
				<polygon class="st4" points="51.03,32.12 51.03,32.12 51.03,32.12 				"/>
				<path class="st4" d="M73.86,43.82c-1.02-0.54-2.06-1.06-3.11-1.54l-0.03,0.19c0.18,0.08,0.35,0.15,0.53,0.23
					c0.83,0.37,1.67,0.77,2.51,1.18c0,0,0,0,0,0C73.79,43.86,73.83,43.84,73.86,43.82z"/>
				<path class="st4" d="M66.19,40.35l-0.05,0.27c0.01,0,0.01,0,0.02,0.01c1.03,0.38,2.09,0.79,3.15,1.24l0.04-0.22
					C68.31,41.19,67.25,40.75,66.19,40.35z"/>
				<path class="st5" d="M92.1,40.44c-2.06,2.11-3.96,3-5.67,2.64c-0.55-0.12-1.04-0.35-1.5-0.66c-1.17-0.8-2.02-2.08-2.53-3.03
					c-4.72-0.91-24.75-4.86-30.84-7.08c-0.18-0.07-0.35-0.13-0.53-0.2l0,0c-1.09,0.54-2.28,0.94-3.32,1.17
					c-1.03,0.23-1.9,0.28-2.33,0.11c-0.2-0.08-0.39-0.17-0.57-0.29c-1.18-0.7-2.02-1.94-2.18-2.18c-0.01-0.02-0.04-0.05-0.04-0.05
					l-0.14-0.22l-0.01,0.03l-0.05,0.22c-0.24,0.99-0.21,1.85,0.07,2.57c0.12,0.3,0.28,0.58,0.49,0.83c0.17,0.2,0.37,0.36,0.57,0.53
					c2.37,1.96,7.27,2.06,7.27,2.06c0.48,0.05,0.97,0.11,1.49,0.18l0.05-0.28c0.98,0.11,2,0.27,3.06,0.47l-0.06,0.31
					c0.14,0.03,0.28,0.05,0.41,0.08c0.34,0.07,0.7,0.14,1.05,0.22l0.06-0.32c1.07,0.23,2.16,0.5,3.25,0.8l-0.06,0.32
					c0.31,0.08,0.62,0.17,0.94,0.26c0.17,0.05,0.34,0.1,0.51,0.15l0.06-0.32c1.06,0.32,2.13,0.67,3.2,1.05l-0.05,0.29
					c0.47,0.16,0.95,0.33,1.43,0.51l0.05-0.27c1.06,0.4,2.11,0.84,3.16,1.29l-0.04,0.22c0.47,0.19,0.94,0.4,1.41,0.6l0.03-0.19
					c1.05,0.49,2.09,1,3.11,1.54c-0.04,0.02-0.07,0.04-0.11,0.05c0,0,0,0,0,0c0.55,0.27,1.11,0.55,1.66,0.84
					c0.02-0.01,0.03-0.02,0.05-0.02c0.2,0.11,0.39,0.22,0.59,0.33c3.95,2.27,7.58,2.9,10.79,1.89c0.99-0.31,1.85-0.75,2.6-1.25
					c2.62-1.76,3.81-4.25,3.87-4.38l1.88-4.01L92.1,40.44z"/>
			</g>
		</g>
	</g>
</g>
</svg>
